[
	{
		"deltaTime": 0,
		"type": "meta",
		"subtype": "trackName",
		"text": "He's A Pirate",
		"time": 0,
		"track": 0
	},
	{
		"deltaTime": 0,
		"type": "meta",
		"subtype": "text",
		"text": "By Written by Klaus Badelt",
		"time": 0,
		"track": 0
	},
	{
		"deltaTime": 0,
		"type": "meta",
		"subtype": "copyrightNotice",
		"text": "Arrangement © 2004 Cerullean Pictures ",
		"time": 0,
		"track": 0
	},
	{
		"deltaTime": 0,
		"type": "meta",
		"subtype": "copyrightNotice",
		"text": "Original Score © Walt Disney Pictures",
		"time": 0,
		"track": 0
	},
	{
		"deltaTime": 0,
		"type": "meta",
		"subtype": "text",
		"text": "Generated by NoteWorthy Composer",
		"time": 0,
		"track": 0
	},
	{
		"deltaTime": 0,
		"type": "meta",
		"subtype": "setTempo",
		"microsecondsPerBeat": 300000,
		"time": 0,
		"track": 0
	},
	{
		"deltaTime": 0,
		"type": "meta",
		"subtype": "keySignature",
		"key": -1,
		"scale": 0,
		"time": 0,
		"track": 0
	},
	{
		"deltaTime": 0,
		"type": "meta",
		"subtype": "timeSignature",
		"numerator": 6,
		"denominator": 8,
		"metronome": 24,
		"thirtyseconds": 8,
		"time": 0,
		"track": 0
	},
	{
		"deltaTime": 0,
		"type": "meta",
		"subtype": "endOfTrack",
		"time": 0,
		"track": 0
	},
	{
		"deltaTime": 0,
		"type": "meta",
		"subtype": "unknown",
		"data": "\u0000",
		"time": 0,
		"track": 1
	},
	{
		"deltaTime": 0,
		"type": "meta",
		"subtype": "trackName",
		"text": "Right Hand",
		"time": 0,
		"track": 1
	},
	{
		"deltaTime": 0,
		"channel": 0,
		"type": "channel",
		"subtype": "controller",
		"controllerType": 64,
		"value": 0,
		"time": 0,
		"track": 1
	},
	{
		"deltaTime": 0,
		"channel": 0,
		"type": "channel",
		"subtype": "programChange",
		"programNumber": 0,
		"time": 0,
		"track": 1
	},
	{
		"deltaTime": 0,
		"channel": 0,
		"type": "channel",
		"subtype": "controller",
		"controllerType": 7,
		"value": 127,
		"time": 0,
		"track": 1
	},
	{
		"deltaTime": 0,
		"channel": 0,
		"type": "channel",
		"subtype": "controller",
		"controllerType": 10,
		"value": 64,
		"time": 0,
		"track": 1
	},
	{
		"deltaTime": 0,
		"channel": 0,
		"type": "channel",
		"subtype": "programChange",
		"programNumber": 0,
		"time": 0,
		"track": 1
	},
	{
		"deltaTime": 0,
		"channel": 0,
		"type": "channel",
		"subtype": "controller",
		"controllerType": 7,
		"value": 127,
		"time": 0,
		"track": 1
	},
	{
		"deltaTime": 0,
		"channel": 0,
		"type": "channel",
		"subtype": "controller",
		"controllerType": 10,
		"value": 64,
		"time": 0,
		"track": 1
	},
	{
		"deltaTime": 0,
		"channel": 0,
		"type": "channel",
		"subtype": "controller",
		"controllerType": 64,
		"value": 127,
		"time": 0,
		"track": 1
	},
	{
		"deltaTime": 0,
		"channel": 0,
		"type": "channel",
		"noteNumber": 62,
		"velocity": 127,
		"subtype": "noteOn",
		"time": 0,
		"track": 1
	},
	{
		"deltaTime": 0,
		"type": "meta",
		"subtype": "unknown",
		"data": "\u0000",
		"time": 0,
		"track": 2
	},
	{
		"deltaTime": 0,
		"type": "meta",
		"subtype": "trackName",
		"text": "Left Hand",
		"time": 0,
		"track": 2
	},
	{
		"deltaTime": 0,
		"channel": 1,
		"type": "channel",
		"subtype": "programChange",
		"programNumber": 0,
		"time": 0,
		"track": 2
	},
	{
		"deltaTime": 0,
		"channel": 1,
		"type": "channel",
		"subtype": "controller",
		"controllerType": 7,
		"value": 127,
		"time": 0,
		"track": 2
	},
	{
		"deltaTime": 0,
		"channel": 1,
		"type": "channel",
		"subtype": "controller",
		"controllerType": 10,
		"value": 64,
		"time": 0,
		"track": 2
	},
	{
		"deltaTime": 0,
		"channel": 1,
		"type": "channel",
		"subtype": "programChange",
		"programNumber": 0,
		"time": 0,
		"track": 2
	},
	{
		"deltaTime": 0,
		"channel": 1,
		"type": "channel",
		"subtype": "controller",
		"controllerType": 7,
		"value": 127,
		"time": 0,
		"track": 2
	},
	{
		"deltaTime": 160,
		"channel": 1,
		"type": "channel",
		"subtype": "controller",
		"controllerType": 10,
		"value": 64,
		"time": 0,
		"track": 2
	},
	{
		"deltaTime": 32,
		"channel": 0,
		"type": "channel",
		"noteNumber": 62,
		"velocity": 0,
		"subtype": "noteOff",
		"time": 160,
		"track": 1
	},
	{
		"deltaTime": 94,
		"channel": 0,
		"type": "channel",
		"noteNumber": 62,
		"velocity": 127,
		"subtype": "noteOn",
		"time": 192,
		"track": 1
	},
	{
		"deltaTime": 2,
		"channel": 0,
		"type": "channel",
		"noteNumber": 62,
		"velocity": 0,
		"subtype": "noteOff",
		"time": 286,
		"track": 1
	},
	{
		"deltaTime": 160,
		"channel": 0,
		"type": "channel",
		"noteNumber": 62,
		"velocity": 127,
		"subtype": "noteOn",
		"time": 288,
		"track": 1
	},
	{
		"deltaTime": 32,
		"channel": 0,
		"type": "channel",
		"noteNumber": 62,
		"velocity": 0,
		"subtype": "noteOff",
		"time": 448,
		"track": 1
	},
	{
		"deltaTime": 94,
		"channel": 0,
		"type": "channel",
		"noteNumber": 62,
		"velocity": 127,
		"subtype": "noteOn",
		"time": 480,
		"track": 1
	},
	{
		"deltaTime": 2,
		"channel": 0,
		"type": "channel",
		"noteNumber": 62,
		"velocity": 0,
		"subtype": "noteOff",
		"time": 574,
		"track": 1
	},
	{
		"deltaTime": 160,
		"channel": 0,
		"type": "channel",
		"noteNumber": 62,
		"velocity": 127,
		"subtype": "noteOn",
		"time": 576,
		"track": 1
	},
	{
		"deltaTime": 32,
		"channel": 0,
		"type": "channel",
		"noteNumber": 62,
		"velocity": 0,
		"subtype": "noteOff",
		"time": 736,
		"track": 1
	},
	{
		"deltaTime": 94,
		"channel": 0,
		"type": "channel",
		"noteNumber": 62,
		"velocity": 127,
		"subtype": "noteOn",
		"time": 768,
		"track": 1
	},
	{
		"deltaTime": 2,
		"channel": 0,
		"type": "channel",
		"noteNumber": 62,
		"velocity": 0,
		"subtype": "noteOff",
		"time": 862,
		"track": 1
	},
	{
		"deltaTime": 94,
		"channel": 0,
		"type": "channel",
		"noteNumber": 62,
		"velocity": 127,
		"subtype": "noteOn",
		"time": 864,
		"track": 1
	},
	{
		"deltaTime": 2,
		"channel": 0,
		"type": "channel",
		"noteNumber": 62,
		"velocity": 0,
		"subtype": "noteOff",
		"time": 958,
		"track": 1
	},
	{
		"deltaTime": 94,
		"channel": 0,
		"type": "channel",
		"noteNumber": 62,
		"velocity": 127,
		"subtype": "noteOn",
		"time": 960,
		"track": 1
	},
	{
		"deltaTime": 2,
		"channel": 0,
		"type": "channel",
		"noteNumber": 62,
		"velocity": 0,
		"subtype": "noteOff",
		"time": 1054,
		"track": 1
	},
	{
		"deltaTime": 94,
		"channel": 0,
		"type": "channel",
		"noteNumber": 62,
		"velocity": 127,
		"subtype": "noteOn",
		"time": 1056,
		"track": 1
	},
	{
		"deltaTime": 2,
		"channel": 0,
		"type": "channel",
		"noteNumber": 62,
		"velocity": 0,
		"subtype": "noteOff",
		"time": 1150,
		"track": 1
	},
	{
		"deltaTime": 160,
		"channel": 0,
		"type": "channel",
		"noteNumber": 62,
		"velocity": 127,
		"subtype": "noteOn",
		"time": 1152,
		"track": 1
	},
	{
		"deltaTime": 32,
		"channel": 0,
		"type": "channel",
		"noteNumber": 62,
		"velocity": 0,
		"subtype": "noteOff",
		"time": 1312,
		"track": 1
	},
	{
		"deltaTime": 94,
		"channel": 0,
		"type": "channel",
		"noteNumber": 62,
		"velocity": 127,
		"subtype": "noteOn",
		"time": 1344,
		"track": 1
	},
	{
		"deltaTime": 2,
		"channel": 0,
		"type": "channel",
		"noteNumber": 62,
		"velocity": 0,
		"subtype": "noteOff",
		"time": 1438,
		"track": 1
	},
	{
		"deltaTime": 160,
		"channel": 0,
		"type": "channel",
		"noteNumber": 62,
		"velocity": 127,
		"subtype": "noteOn",
		"time": 1440,
		"track": 1
	},
	{
		"deltaTime": 32,
		"channel": 0,
		"type": "channel",
		"noteNumber": 62,
		"velocity": 0,
		"subtype": "noteOff",
		"time": 1600,
		"track": 1
	},
	{
		"deltaTime": 94,
		"channel": 0,
		"type": "channel",
		"noteNumber": 62,
		"velocity": 127,
		"subtype": "noteOn",
		"time": 1632,
		"track": 1
	},
	{
		"deltaTime": 2,
		"channel": 0,
		"type": "channel",
		"noteNumber": 62,
		"velocity": 0,
		"subtype": "noteOff",
		"time": 1726,
		"track": 1
	},
	{
		"deltaTime": 160,
		"channel": 0,
		"type": "channel",
		"noteNumber": 62,
		"velocity": 127,
		"subtype": "noteOn",
		"time": 1728,
		"track": 1
	},
	{
		"deltaTime": 32,
		"channel": 0,
		"type": "channel",
		"noteNumber": 62,
		"velocity": 0,
		"subtype": "noteOff",
		"time": 1888,
		"track": 1
	},
	{
		"deltaTime": 94,
		"channel": 0,
		"type": "channel",
		"noteNumber": 62,
		"velocity": 127,
		"subtype": "noteOn",
		"time": 1920,
		"track": 1
	},
	{
		"deltaTime": 2,
		"channel": 0,
		"type": "channel",
		"noteNumber": 62,
		"velocity": 0,
		"subtype": "noteOff",
		"time": 2014,
		"track": 1
	},
	{
		"deltaTime": 94,
		"channel": 0,
		"type": "channel",
		"noteNumber": 62,
		"velocity": 127,
		"subtype": "noteOn",
		"time": 2016,
		"track": 1
	},
	{
		"deltaTime": 2,
		"channel": 0,
		"type": "channel",
		"noteNumber": 62,
		"velocity": 0,
		"subtype": "noteOff",
		"time": 2110,
		"track": 1
	},
	{
		"deltaTime": 94,
		"channel": 0,
		"type": "channel",
		"noteNumber": 62,
		"velocity": 127,
		"subtype": "noteOn",
		"time": 2112,
		"track": 1
	},
	{
		"deltaTime": 2,
		"channel": 0,
		"type": "channel",
		"noteNumber": 62,
		"velocity": 0,
		"subtype": "noteOff",
		"time": 2206,
		"track": 1
	},
	{
		"deltaTime": 94,
		"channel": 0,
		"type": "channel",
		"noteNumber": 62,
		"velocity": 127,
		"subtype": "noteOn",
		"time": 2208,
		"track": 1
	},
	{
		"deltaTime": 2,
		"channel": 0,
		"type": "channel",
		"noteNumber": 62,
		"velocity": 0,
		"subtype": "noteOff",
		"time": 2302,
		"track": 1
	},
	{
		"deltaTime": 0,
		"channel": 0,
		"type": "channel",
		"noteNumber": 62,
		"velocity": 127,
		"subtype": "noteOn",
		"time": 2304,
		"track": 1
	},
	{
		"deltaTime": 0,
		"channel": 1,
		"type": "channel",
		"subtype": "controller",
		"controllerType": 64,
		"value": 0,
		"time": 2304,
		"track": 2
	},
	{
		"deltaTime": 0,
		"channel": 1,
		"type": "channel",
		"subtype": "controller",
		"controllerType": 64,
		"value": 127,
		"time": 2304,
		"track": 2
	},
	{
		"deltaTime": 0,
		"channel": 1,
		"type": "channel",
		"noteNumber": 26,
		"velocity": 127,
		"subtype": "noteOn",
		"time": 2304,
		"track": 2
	},
	{
		"deltaTime": 160,
		"channel": 1,
		"type": "channel",
		"noteNumber": 38,
		"velocity": 127,
		"subtype": "noteOn",
		"time": 2304,
		"track": 2
	},
	{
		"deltaTime": 32,
		"channel": 0,
		"type": "channel",
		"noteNumber": 62,
		"velocity": 0,
		"subtype": "noteOff",
		"time": 2464,
		"track": 1
	},
	{
		"deltaTime": 94,
		"channel": 0,
		"type": "channel",
		"noteNumber": 62,
		"velocity": 127,
		"subtype": "noteOn",
		"time": 2496,
		"track": 1
	},
	{
		"deltaTime": 2,
		"channel": 0,
		"type": "channel",
		"noteNumber": 62,
		"velocity": 0,
		"subtype": "noteOff",
		"time": 2590,
		"track": 1
	},
	{
		"deltaTime": 160,
		"channel": 0,
		"type": "channel",
		"noteNumber": 62,
		"velocity": 127,
		"subtype": "noteOn",
		"time": 2592,
		"track": 1
	},
	{
		"deltaTime": 32,
		"channel": 0,
		"type": "channel",
		"noteNumber": 62,
		"velocity": 0,
		"subtype": "noteOff",
		"time": 2752,
		"track": 1
	},
	{
		"deltaTime": 48,
		"channel": 0,
		"type": "channel",
		"noteNumber": 62,
		"velocity": 127,
		"subtype": "noteOn",
		"time": 2784,
		"track": 1
	},
	{
		"deltaTime": 0,
		"channel": 1,
		"type": "channel",
		"noteNumber": 26,
		"velocity": 0,
		"subtype": "noteOff",
		"time": 2832,
		"track": 2
	},
	{
		"deltaTime": 46,
		"channel": 1,
		"type": "channel",
		"noteNumber": 38,
		"velocity": 0,
		"subtype": "noteOff",
		"time": 2832,
		"track": 2
	},
	{
		"deltaTime": 2,
		"channel": 0,
		"type": "channel",
		"noteNumber": 62,
		"velocity": 0,
		"subtype": "noteOff",
		"time": 2878,
		"track": 1
	},
	{
		"deltaTime": 0,
		"channel": 0,
		"type": "channel",
		"noteNumber": 62,
		"velocity": 127,
		"subtype": "noteOn",
		"time": 2880,
		"track": 1
	},
	{
		"deltaTime": 0,
		"channel": 1,
		"type": "channel",
		"noteNumber": 26,
		"velocity": 127,
		"subtype": "noteOn",
		"time": 2880,
		"track": 2
	},
	{
		"deltaTime": 160,
		"channel": 1,
		"type": "channel",
		"noteNumber": 38,
		"velocity": 127,
		"subtype": "noteOn",
		"time": 2880,
		"track": 2
	},
	{
		"deltaTime": 32,
		"channel": 0,
		"type": "channel",
		"noteNumber": 62,
		"velocity": 0,
		"subtype": "noteOff",
		"time": 3040,
		"track": 1
	},
	{
		"deltaTime": 64,
		"channel": 0,
		"type": "channel",
		"noteNumber": 62,
		"velocity": 127,
		"subtype": "noteOn",
		"time": 3072,
		"track": 1
	},
	{
		"deltaTime": 0,
		"channel": 1,
		"type": "channel",
		"noteNumber": 26,
		"velocity": 0,
		"subtype": "noteOff",
		"time": 3136,
		"track": 2
	},
	{
		"deltaTime": 30,
		"channel": 1,
		"type": "channel",
		"noteNumber": 38,
		"velocity": 0,
		"subtype": "noteOff",
		"time": 3136,
		"track": 2
	},
	{
		"deltaTime": 2,
		"channel": 0,
		"type": "channel",
		"noteNumber": 62,
		"velocity": 0,
		"subtype": "noteOff",
		"time": 3166,
		"track": 1
	},
	{
		"deltaTime": 0,
		"channel": 0,
		"type": "channel",
		"noteNumber": 62,
		"velocity": 127,
		"subtype": "noteOn",
		"time": 3168,
		"track": 1
	},
	{
		"deltaTime": 0,
		"channel": 1,
		"type": "channel",
		"noteNumber": 26,
		"velocity": 127,
		"subtype": "noteOn",
		"time": 3168,
		"track": 2
	},
	{
		"deltaTime": 94,
		"channel": 1,
		"type": "channel",
		"noteNumber": 38,
		"velocity": 127,
		"subtype": "noteOn",
		"time": 3168,
		"track": 2
	},
	{
		"deltaTime": 2,
		"channel": 0,
		"type": "channel",
		"noteNumber": 62,
		"velocity": 0,
		"subtype": "noteOff",
		"time": 3262,
		"track": 1
	},
	{
		"deltaTime": 94,
		"channel": 0,
		"type": "channel",
		"noteNumber": 57,
		"velocity": 127,
		"subtype": "noteOn",
		"time": 3264,
		"track": 1
	},
	{
		"deltaTime": 2,
		"channel": 0,
		"type": "channel",
		"noteNumber": 57,
		"velocity": 0,
		"subtype": "noteOff",
		"time": 3358,
		"track": 1
	},
	{
		"deltaTime": 64,
		"channel": 0,
		"type": "channel",
		"noteNumber": 60,
		"velocity": 127,
		"subtype": "noteOn",
		"time": 3360,
		"track": 1
	},
	{
		"deltaTime": 0,
		"channel": 1,
		"type": "channel",
		"noteNumber": 26,
		"velocity": 0,
		"subtype": "noteOff",
		"time": 3424,
		"track": 2
	},
	{
		"deltaTime": 30,
		"channel": 1,
		"type": "channel",
		"noteNumber": 38,
		"velocity": 0,
		"subtype": "noteOff",
		"time": 3424,
		"track": 2
	},
	{
		"deltaTime": 2,
		"channel": 0,
		"type": "channel",
		"noteNumber": 60,
		"velocity": 0,
		"subtype": "noteOff",
		"time": 3454,
		"track": 1
	},
	{
		"deltaTime": 0,
		"channel": 0,
		"type": "channel",
		"subtype": "controller",
		"controllerType": 64,
		"value": 0,
		"time": 3456,
		"track": 1
	},
	{
		"deltaTime": 0,
		"channel": 0,
		"type": "channel",
		"subtype": "controller",
		"controllerType": 64,
		"value": 127,
		"time": 3456,
		"track": 1
	},
	{
		"deltaTime": 0,
		"channel": 0,
		"type": "channel",
		"noteNumber": 53,
		"velocity": 127,
		"subtype": "noteOn",
		"time": 3456,
		"track": 1
	},
	{
		"deltaTime": 0,
		"channel": 0,
		"type": "channel",
		"noteNumber": 57,
		"velocity": 127,
		"subtype": "noteOn",
		"time": 3456,
		"track": 1
	},
	{
		"deltaTime": 0,
		"channel": 0,
		"type": "channel",
		"noteNumber": 62,
		"velocity": 127,
		"subtype": "noteOn",
		"time": 3456,
		"track": 1
	},
	{
		"deltaTime": 0,
		"channel": 1,
		"type": "channel",
		"subtype": "controller",
		"controllerType": 64,
		"value": 0,
		"time": 3456,
		"track": 2
	},
	{
		"deltaTime": 0,
		"channel": 1,
		"type": "channel",
		"subtype": "controller",
		"controllerType": 64,
		"value": 127,
		"time": 3456,
		"track": 2
	},
	{
		"deltaTime": 0,
		"channel": 1,
		"type": "channel",
		"noteNumber": 38,
		"velocity": 127,
		"subtype": "noteOn",
		"time": 3456,
		"track": 2
	},
	{
		"deltaTime": 160,
		"channel": 1,
		"type": "channel",
		"noteNumber": 50,
		"velocity": 127,
		"subtype": "noteOn",
		"time": 3456,
		"track": 2
	},
	{
		"deltaTime": 0,
		"channel": 0,
		"type": "channel",
		"noteNumber": 53,
		"velocity": 0,
		"subtype": "noteOff",
		"time": 3616,
		"track": 1
	},
	{
		"deltaTime": 0,
		"channel": 0,
		"type": "channel",
		"noteNumber": 57,
		"velocity": 0,
		"subtype": "noteOff",
		"time": 3616,
		"track": 1
	},
	{
		"deltaTime": 0,
		"channel": 0,
		"type": "channel",
		"noteNumber": 62,
		"velocity": 0,
		"subtype": "noteOff",
		"time": 3616,
		"track": 1
	},
	{
		"deltaTime": 0,
		"channel": 1,
		"type": "channel",
		"noteNumber": 38,
		"velocity": 0,
		"subtype": "noteOff",
		"time": 3616,
		"track": 2
	},
	{
		"deltaTime": 32,
		"channel": 1,
		"type": "channel",
		"noteNumber": 50,
		"velocity": 0,
		"subtype": "noteOff",
		"time": 3616,
		"track": 2
	},
	{
		"deltaTime": 0,
		"channel": 0,
		"type": "channel",
		"noteNumber": 53,
		"velocity": 127,
		"subtype": "noteOn",
		"time": 3648,
		"track": 1
	},
	{
		"deltaTime": 0,
		"channel": 0,
		"type": "channel",
		"noteNumber": 57,
		"velocity": 127,
		"subtype": "noteOn",
		"time": 3648,
		"track": 1
	},
	{
		"deltaTime": 0,
		"channel": 0,
		"type": "channel",
		"noteNumber": 62,
		"velocity": 127,
		"subtype": "noteOn",
		"time": 3648,
		"track": 1
	},
	{
		"deltaTime": 0,
		"channel": 1,
		"type": "channel",
		"noteNumber": 38,
		"velocity": 127,
		"subtype": "noteOn",
		"time": 3648,
		"track": 2
	},
	{
		"deltaTime": 94,
		"channel": 1,
		"type": "channel",
		"noteNumber": 50,
		"velocity": 127,
		"subtype": "noteOn",
		"time": 3648,
		"track": 2
	},
	{
		"deltaTime": 0,
		"channel": 1,
		"type": "channel",
		"noteNumber": 38,
		"velocity": 0,
		"subtype": "noteOff",
		"time": 3742,
		"track": 2
	},
	{
		"deltaTime": 2,
		"channel": 1,
		"type": "channel",
		"noteNumber": 50,
		"velocity": 0,
		"subtype": "noteOff",
		"time": 3742,
		"track": 2
	},
	{
		"deltaTime": 0,
		"channel": 1,
		"type": "channel",
		"noteNumber": 38,
		"velocity": 127,
		"subtype": "noteOn",
		"time": 3744,
		"track": 2
	},
	{
		"deltaTime": 64,
		"channel": 1,
		"type": "channel",
		"noteNumber": 50,
		"velocity": 127,
		"subtype": "noteOn",
		"time": 3744,
		"track": 2
	},
	{
		"deltaTime": 0,
		"channel": 0,
		"type": "channel",
		"noteNumber": 53,
		"velocity": 0,
		"subtype": "noteOff",
		"time": 3808,
		"track": 1
	},
	{
		"deltaTime": 0,
		"channel": 0,
		"type": "channel",
		"noteNumber": 57,
		"velocity": 0,
		"subtype": "noteOff",
		"time": 3808,
		"track": 1
	},
	{
		"deltaTime": 32,
		"channel": 0,
		"type": "channel",
		"noteNumber": 62,
		"velocity": 0,
		"subtype": "noteOff",
		"time": 3808,
		"track": 1
	},
	{
		"deltaTime": 0,
		"channel": 0,
		"type": "channel",
		"noteNumber": 53,
		"velocity": 127,
		"subtype": "noteOn",
		"time": 3840,
		"track": 1
	},
	{
		"deltaTime": 0,
		"channel": 0,
		"type": "channel",
		"noteNumber": 57,
		"velocity": 127,
		"subtype": "noteOn",
		"time": 3840,
		"track": 1
	},
	{
		"deltaTime": 64,
		"channel": 0,
		"type": "channel",
		"noteNumber": 62,
		"velocity": 127,
		"subtype": "noteOn",
		"time": 3840,
		"track": 1
	},
	{
		"deltaTime": 0,
		"channel": 1,
		"type": "channel",
		"noteNumber": 38,
		"velocity": 0,
		"subtype": "noteOff",
		"time": 3904,
		"track": 2
	},
	{
		"deltaTime": 30,
		"channel": 1,
		"type": "channel",
		"noteNumber": 50,
		"velocity": 0,
		"subtype": "noteOff",
		"time": 3904,
		"track": 2
	},
	{
		"deltaTime": 0,
		"channel": 0,
		"type": "channel",
		"noteNumber": 53,
		"velocity": 0,
		"subtype": "noteOff",
		"time": 3934,
		"track": 1
	},
	{
		"deltaTime": 0,
		"channel": 0,
		"type": "channel",
		"noteNumber": 57,
		"velocity": 0,
		"subtype": "noteOff",
		"time": 3934,
		"track": 1
	},
	{
		"deltaTime": 2,
		"channel": 0,
		"type": "channel",
		"noteNumber": 62,
		"velocity": 0,
		"subtype": "noteOff",
		"time": 3934,
		"track": 1
	},
	{
		"deltaTime": 0,
		"channel": 0,
		"type": "channel",
		"noteNumber": 57,
		"velocity": 127,
		"subtype": "noteOn",
		"time": 3936,
		"track": 1
	},
	{
		"deltaTime": 0,
		"channel": 0,
		"type": "channel",
		"noteNumber": 60,
		"velocity": 127,
		"subtype": "noteOn",
		"time": 3936,
		"track": 1
	},
	{
		"deltaTime": 0,
		"channel": 0,
		"type": "channel",
		"noteNumber": 64,
		"velocity": 127,
		"subtype": "noteOn",
		"time": 3936,
		"track": 1
	},
	{
		"deltaTime": 0,
		"channel": 1,
		"type": "channel",
		"noteNumber": 36,
		"velocity": 127,
		"subtype": "noteOn",
		"time": 3936,
		"track": 2
	},
	{
		"deltaTime": 94,
		"channel": 1,
		"type": "channel",
		"noteNumber": 48,
		"velocity": 127,
		"subtype": "noteOn",
		"time": 3936,
		"track": 2
	},
	{
		"deltaTime": 0,
		"channel": 0,
		"type": "channel",
		"noteNumber": 57,
		"velocity": 0,
		"subtype": "noteOff",
		"time": 4030,
		"track": 1
	},
	{
		"deltaTime": 0,
		"channel": 0,
		"type": "channel",
		"noteNumber": 60,
		"velocity": 0,
		"subtype": "noteOff",
		"time": 4030,
		"track": 1
	},
	{
		"deltaTime": 0,
		"channel": 0,
		"type": "channel",
		"noteNumber": 64,
		"velocity": 0,
		"subtype": "noteOff",
		"time": 4030,
		"track": 1
	},
	{
		"deltaTime": 0,
		"channel": 1,
		"type": "channel",
		"noteNumber": 36,
		"velocity": 0,
		"subtype": "noteOff",
		"time": 4030,
		"track": 2
	},
	{
		"deltaTime": 2,
		"channel": 1,
		"type": "channel",
		"noteNumber": 48,
		"velocity": 0,
		"subtype": "noteOff",
		"time": 4030,
		"track": 2
	},
	{
		"deltaTime": 0,
		"channel": 0,
		"type": "channel",
		"subtype": "controller",
		"controllerType": 64,
		"value": 0,
		"time": 4032,
		"track": 1
	},
	{
		"deltaTime": 0,
		"channel": 0,
		"type": "channel",
		"subtype": "controller",
		"controllerType": 64,
		"value": 127,
		"time": 4032,
		"track": 1
	},
	{
		"deltaTime": 0,
		"channel": 0,
		"type": "channel",
		"noteNumber": 58,
		"velocity": 127,
		"subtype": "noteOn",
		"time": 4032,
		"track": 1
	},
	{
		"deltaTime": 0,
		"channel": 0,
		"type": "channel",
		"noteNumber": 62,
		"velocity": 127,
		"subtype": "noteOn",
		"time": 4032,
		"track": 1
	},
	{
		"deltaTime": 0,
		"channel": 0,
		"type": "channel",
		"noteNumber": 65,
		"velocity": 127,
		"subtype": "noteOn",
		"time": 4032,
		"track": 1
	},
	{
		"deltaTime": 0,
		"channel": 1,
		"type": "channel",
		"subtype": "controller",
		"controllerType": 64,
		"value": 0,
		"time": 4032,
		"track": 2
	},
	{
		"deltaTime": 0,
		"channel": 1,
		"type": "channel",
		"subtype": "controller",
		"controllerType": 64,
		"value": 127,
		"time": 4032,
		"track": 2
	},
	{
		"deltaTime": 0,
		"channel": 1,
		"type": "channel",
		"noteNumber": 34,
		"velocity": 127,
		"subtype": "noteOn",
		"time": 4032,
		"track": 2
	},
	{
		"deltaTime": 160,
		"channel": 1,
		"type": "channel",
		"noteNumber": 46,
		"velocity": 127,
		"subtype": "noteOn",
		"time": 4032,
		"track": 2
	},
	{
		"deltaTime": 0,
		"channel": 0,
		"type": "channel",
		"noteNumber": 58,
		"velocity": 0,
		"subtype": "noteOff",
		"time": 4192,
		"track": 1
	},
	{
		"deltaTime": 0,
		"channel": 0,
		"type": "channel",
		"noteNumber": 62,
		"velocity": 0,
		"subtype": "noteOff",
		"time": 4192,
		"track": 1
	},
	{
		"deltaTime": 0,
		"channel": 0,
		"type": "channel",
		"noteNumber": 65,
		"velocity": 0,
		"subtype": "noteOff",
		"time": 4192,
		"track": 1
	},
	{
		"deltaTime": 0,
		"channel": 1,
		"type": "channel",
		"noteNumber": 34,
		"velocity": 0,
		"subtype": "noteOff",
		"time": 4192,
		"track": 2
	},
	{
		"deltaTime": 32,
		"channel": 1,
		"type": "channel",
		"noteNumber": 46,
		"velocity": 0,
		"subtype": "noteOff",
		"time": 4192,
		"track": 2
	},
	{
		"deltaTime": 0,
		"channel": 0,
		"type": "channel",
		"noteNumber": 58,
		"velocity": 127,
		"subtype": "noteOn",
		"time": 4224,
		"track": 1
	},
	{
		"deltaTime": 0,
		"channel": 0,
		"type": "channel",
		"noteNumber": 62,
		"velocity": 127,
		"subtype": "noteOn",
		"time": 4224,
		"track": 1
	},
	{
		"deltaTime": 0,
		"channel": 0,
		"type": "channel",
		"noteNumber": 65,
		"velocity": 127,
		"subtype": "noteOn",
		"time": 4224,
		"track": 1
	},
	{
		"deltaTime": 0,
		"channel": 1,
		"type": "channel",
		"noteNumber": 34,
		"velocity": 127,
		"subtype": "noteOn",
		"time": 4224,
		"track": 2
	},
	{
		"deltaTime": 94,
		"channel": 1,
		"type": "channel",
		"noteNumber": 46,
		"velocity": 127,
		"subtype": "noteOn",
		"time": 4224,
		"track": 2
	},
	{
		"deltaTime": 0,
		"channel": 1,
		"type": "channel",
		"noteNumber": 34,
		"velocity": 0,
		"subtype": "noteOff",
		"time": 4318,
		"track": 2
	},
	{
		"deltaTime": 2,
		"channel": 1,
		"type": "channel",
		"noteNumber": 46,
		"velocity": 0,
		"subtype": "noteOff",
		"time": 4318,
		"track": 2
	},
	{
		"deltaTime": 0,
		"channel": 1,
		"type": "channel",
		"noteNumber": 34,
		"velocity": 127,
		"subtype": "noteOn",
		"time": 4320,
		"track": 2
	},
	{
		"deltaTime": 64,
		"channel": 1,
		"type": "channel",
		"noteNumber": 46,
		"velocity": 127,
		"subtype": "noteOn",
		"time": 4320,
		"track": 2
	},
	{
		"deltaTime": 0,
		"channel": 0,
		"type": "channel",
		"noteNumber": 58,
		"velocity": 0,
		"subtype": "noteOff",
		"time": 4384,
		"track": 1
	},
	{
		"deltaTime": 0,
		"channel": 0,
		"type": "channel",
		"noteNumber": 62,
		"velocity": 0,
		"subtype": "noteOff",
		"time": 4384,
		"track": 1
	},
	{
		"deltaTime": 32,
		"channel": 0,
		"type": "channel",
		"noteNumber": 65,
		"velocity": 0,
		"subtype": "noteOff",
		"time": 4384,
		"track": 1
	},
	{
		"deltaTime": 0,
		"channel": 0,
		"type": "channel",
		"noteNumber": 58,
		"velocity": 127,
		"subtype": "noteOn",
		"time": 4416,
		"track": 1
	},
	{
		"deltaTime": 0,
		"channel": 0,
		"type": "channel",
		"noteNumber": 62,
		"velocity": 127,
		"subtype": "noteOn",
		"time": 4416,
		"track": 1
	},
	{
		"deltaTime": 64,
		"channel": 0,
		"type": "channel",
		"noteNumber": 65,
		"velocity": 127,
		"subtype": "noteOn",
		"time": 4416,
		"track": 1
	},
	{
		"deltaTime": 0,
		"channel": 1,
		"type": "channel",
		"noteNumber": 34,
		"velocity": 0,
		"subtype": "noteOff",
		"time": 4480,
		"track": 2
	},
	{
		"deltaTime": 30,
		"channel": 1,
		"type": "channel",
		"noteNumber": 46,
		"velocity": 0,
		"subtype": "noteOff",
		"time": 4480,
		"track": 2
	},
	{
		"deltaTime": 0,
		"channel": 0,
		"type": "channel",
		"noteNumber": 58,
		"velocity": 0,
		"subtype": "noteOff",
		"time": 4510,
		"track": 1
	},
	{
		"deltaTime": 0,
		"channel": 0,
		"type": "channel",
		"noteNumber": 62,
		"velocity": 0,
		"subtype": "noteOff",
		"time": 4510,
		"track": 1
	},
	{
		"deltaTime": 2,
		"channel": 0,
		"type": "channel",
		"noteNumber": 65,
		"velocity": 0,
		"subtype": "noteOff",
		"time": 4510,
		"track": 1
	},
	{
		"deltaTime": 0,
		"channel": 0,
		"type": "channel",
		"noteNumber": 62,
		"velocity": 127,
		"subtype": "noteOn",
		"time": 4512,
		"track": 1
	},
	{
		"deltaTime": 0,
		"channel": 0,
		"type": "channel",
		"noteNumber": 67,
		"velocity": 127,
		"subtype": "noteOn",
		"time": 4512,
		"track": 1
	},
	{
		"deltaTime": 0,
		"channel": 1,
		"type": "channel",
		"noteNumber": 34,
		"velocity": 127,
		"subtype": "noteOn",
		"time": 4512,
		"track": 2
	},
	{
		"deltaTime": 94,
		"channel": 1,
		"type": "channel",
		"noteNumber": 46,
		"velocity": 127,
		"subtype": "noteOn",
		"time": 4512,
		"track": 2
	},
	{
		"deltaTime": 0,
		"channel": 0,
		"type": "channel",
		"noteNumber": 62,
		"velocity": 0,
		"subtype": "noteOff",
		"time": 4606,
		"track": 1
	},
	{
		"deltaTime": 0,
		"channel": 0,
		"type": "channel",
		"noteNumber": 67,
		"velocity": 0,
		"subtype": "noteOff",
		"time": 4606,
		"track": 1
	},
	{
		"deltaTime": 0,
		"channel": 1,
		"type": "channel",
		"noteNumber": 34,
		"velocity": 0,
		"subtype": "noteOff",
		"time": 4606,
		"track": 2
	},
	{
		"deltaTime": 2,
		"channel": 1,
		"type": "channel",
		"noteNumber": 46,
		"velocity": 0,
		"subtype": "noteOff",
		"time": 4606,
		"track": 2
	},
	{
		"deltaTime": 0,
		"channel": 0,
		"type": "channel",
		"subtype": "controller",
		"controllerType": 64,
		"value": 0,
		"time": 4608,
		"track": 1
	},
	{
		"deltaTime": 0,
		"channel": 0,
		"type": "channel",
		"subtype": "controller",
		"controllerType": 64,
		"value": 127,
		"time": 4608,
		"track": 1
	},
	{
		"deltaTime": 0,
		"channel": 0,
		"type": "channel",
		"noteNumber": 57,
		"velocity": 127,
		"subtype": "noteOn",
		"time": 4608,
		"track": 1
	},
	{
		"deltaTime": 0,
		"channel": 0,
		"type": "channel",
		"noteNumber": 60,
		"velocity": 127,
		"subtype": "noteOn",
		"time": 4608,
		"track": 1
	},
	{
		"deltaTime": 0,
		"channel": 0,
		"type": "channel",
		"noteNumber": 64,
		"velocity": 127,
		"subtype": "noteOn",
		"time": 4608,
		"track": 1
	},
	{
		"deltaTime": 0,
		"channel": 1,
		"type": "channel",
		"subtype": "controller",
		"controllerType": 64,
		"value": 0,
		"time": 4608,
		"track": 2
	},
	{
		"deltaTime": 0,
		"channel": 1,
		"type": "channel",
		"subtype": "controller",
		"controllerType": 64,
		"value": 127,
		"time": 4608,
		"track": 2
	},
	{
		"deltaTime": 0,
		"channel": 1,
		"type": "channel",
		"noteNumber": 33,
		"velocity": 127,
		"subtype": "noteOn",
		"time": 4608,
		"track": 2
	},
	{
		"deltaTime": 160,
		"channel": 1,
		"type": "channel",
		"noteNumber": 45,
		"velocity": 127,
		"subtype": "noteOn",
		"time": 4608,
		"track": 2
	},
	{
		"deltaTime": 0,
		"channel": 0,
		"type": "channel",
		"noteNumber": 57,
		"velocity": 0,
		"subtype": "noteOff",
		"time": 4768,
		"track": 1
	},
	{
		"deltaTime": 0,
		"channel": 0,
		"type": "channel",
		"noteNumber": 60,
		"velocity": 0,
		"subtype": "noteOff",
		"time": 4768,
		"track": 1
	},
	{
		"deltaTime": 0,
		"channel": 0,
		"type": "channel",
		"noteNumber": 64,
		"velocity": 0,
		"subtype": "noteOff",
		"time": 4768,
		"track": 1
	},
	{
		"deltaTime": 0,
		"channel": 1,
		"type": "channel",
		"noteNumber": 33,
		"velocity": 0,
		"subtype": "noteOff",
		"time": 4768,
		"track": 2
	},
	{
		"deltaTime": 32,
		"channel": 1,
		"type": "channel",
		"noteNumber": 45,
		"velocity": 0,
		"subtype": "noteOff",
		"time": 4768,
		"track": 2
	},
	{
		"deltaTime": 0,
		"channel": 0,
		"type": "channel",
		"noteNumber": 57,
		"velocity": 127,
		"subtype": "noteOn",
		"time": 4800,
		"track": 1
	},
	{
		"deltaTime": 0,
		"channel": 0,
		"type": "channel",
		"noteNumber": 60,
		"velocity": 127,
		"subtype": "noteOn",
		"time": 4800,
		"track": 1
	},
	{
		"deltaTime": 0,
		"channel": 0,
		"type": "channel",
		"noteNumber": 64,
		"velocity": 127,
		"subtype": "noteOn",
		"time": 4800,
		"track": 1
	},
	{
		"deltaTime": 0,
		"channel": 1,
		"type": "channel",
		"noteNumber": 33,
		"velocity": 127,
		"subtype": "noteOn",
		"time": 4800,
		"track": 2
	},
	{
		"deltaTime": 94,
		"channel": 1,
		"type": "channel",
		"noteNumber": 45,
		"velocity": 127,
		"subtype": "noteOn",
		"time": 4800,
		"track": 2
	},
	{
		"deltaTime": 0,
		"channel": 1,
		"type": "channel",
		"noteNumber": 33,
		"velocity": 0,
		"subtype": "noteOff",
		"time": 4894,
		"track": 2
	},
	{
		"deltaTime": 2,
		"channel": 1,
		"type": "channel",
		"noteNumber": 45,
		"velocity": 0,
		"subtype": "noteOff",
		"time": 4894,
		"track": 2
	},
	{
		"deltaTime": 0,
		"channel": 1,
		"type": "channel",
		"noteNumber": 33,
		"velocity": 127,
		"subtype": "noteOn",
		"time": 4896,
		"track": 2
	},
	{
		"deltaTime": 64,
		"channel": 1,
		"type": "channel",
		"noteNumber": 45,
		"velocity": 127,
		"subtype": "noteOn",
		"time": 4896,
		"track": 2
	},
	{
		"deltaTime": 0,
		"channel": 0,
		"type": "channel",
		"noteNumber": 57,
		"velocity": 0,
		"subtype": "noteOff",
		"time": 4960,
		"track": 1
	},
	{
		"deltaTime": 0,
		"channel": 0,
		"type": "channel",
		"noteNumber": 60,
		"velocity": 0,
		"subtype": "noteOff",
		"time": 4960,
		"track": 1
	},
	{
		"deltaTime": 32,
		"channel": 0,
		"type": "channel",
		"noteNumber": 64,
		"velocity": 0,
		"subtype": "noteOff",
		"time": 4960,
		"track": 1
	},
	{
		"deltaTime": 0,
		"channel": 0,
		"type": "channel",
		"noteNumber": 57,
		"velocity": 127,
		"subtype": "noteOn",
		"time": 4992,
		"track": 1
	},
	{
		"deltaTime": 64,
		"channel": 0,
		"type": "channel",
		"noteNumber": 62,
		"velocity": 127,
		"subtype": "noteOn",
		"time": 4992,
		"track": 1
	},
	{
		"deltaTime": 0,
		"channel": 1,
		"type": "channel",
		"noteNumber": 33,
		"velocity": 0,
		"subtype": "noteOff",
		"time": 5056,
		"track": 2
	},
	{
		"deltaTime": 30,
		"channel": 1,
		"type": "channel",
		"noteNumber": 45,
		"velocity": 0,
		"subtype": "noteOff",
		"time": 5056,
		"track": 2
	},
	{
		"deltaTime": 0,
		"channel": 0,
		"type": "channel",
		"noteNumber": 57,
		"velocity": 0,
		"subtype": "noteOff",
		"time": 5086,
		"track": 1
	},
	{
		"deltaTime": 2,
		"channel": 0,
		"type": "channel",
		"noteNumber": 62,
		"velocity": 0,
		"subtype": "noteOff",
		"time": 5086,
		"track": 1
	},
	{
		"deltaTime": 0,
		"channel": 0,
		"type": "channel",
		"noteNumber": 55,
		"velocity": 127,
		"subtype": "noteOn",
		"time": 5088,
		"track": 1
	},
	{
		"deltaTime": 0,
		"channel": 0,
		"type": "channel",
		"noteNumber": 60,
		"velocity": 127,
		"subtype": "noteOn",
		"time": 5088,
		"track": 1
	},
	{
		"deltaTime": 0,
		"channel": 1,
		"type": "channel",
		"noteNumber": 33,
		"velocity": 127,
		"subtype": "noteOn",
		"time": 5088,
		"track": 2
	},
	{
		"deltaTime": 94,
		"channel": 1,
		"type": "channel",
		"noteNumber": 45,
		"velocity": 127,
		"subtype": "noteOn",
		"time": 5088,
		"track": 2
	},
	{
		"deltaTime": 0,
		"channel": 0,
		"type": "channel",
		"noteNumber": 55,
		"velocity": 0,
		"subtype": "noteOff",
		"time": 5182,
		"track": 1
	},
	{
		"deltaTime": 0,
		"channel": 0,
		"type": "channel",
		"noteNumber": 60,
		"velocity": 0,
		"subtype": "noteOff",
		"time": 5182,
		"track": 1
	},
	{
		"deltaTime": 0,
		"channel": 1,
		"type": "channel",
		"noteNumber": 33,
		"velocity": 0,
		"subtype": "noteOff",
		"time": 5182,
		"track": 2
	},
	{
		"deltaTime": 2,
		"channel": 1,
		"type": "channel",
		"noteNumber": 45,
		"velocity": 0,
		"subtype": "noteOff",
		"time": 5182,
		"track": 2
	},
	{
		"deltaTime": 0,
		"channel": 0,
		"type": "channel",
		"subtype": "controller",
		"controllerType": 64,
		"value": 0,
		"time": 5184,
		"track": 1
	},
	{
		"deltaTime": 0,
		"channel": 0,
		"type": "channel",
		"subtype": "controller",
		"controllerType": 64,
		"value": 127,
		"time": 5184,
		"track": 1
	},
	{
		"deltaTime": 0,
		"channel": 0,
		"type": "channel",
		"noteNumber": 57,
		"velocity": 127,
		"subtype": "noteOn",
		"time": 5184,
		"track": 1
	},
	{
		"deltaTime": 0,
		"channel": 0,
		"type": "channel",
		"noteNumber": 60,
		"velocity": 127,
		"subtype": "noteOn",
		"time": 5184,
		"track": 1
	},
	{
		"deltaTime": 0,
		"channel": 1,
		"type": "channel",
		"subtype": "controller",
		"controllerType": 64,
		"value": 0,
		"time": 5184,
		"track": 2
	},
	{
		"deltaTime": 0,
		"channel": 1,
		"type": "channel",
		"subtype": "controller",
		"controllerType": 64,
		"value": 127,
		"time": 5184,
		"track": 2
	},
	{
		"deltaTime": 0,
		"channel": 1,
		"type": "channel",
		"noteNumber": 38,
		"velocity": 127,
		"subtype": "noteOn",
		"time": 5184,
		"track": 2
	},
	{
		"deltaTime": 94,
		"channel": 1,
		"type": "channel",
		"noteNumber": 50,
		"velocity": 127,
		"subtype": "noteOn",
		"time": 5184,
		"track": 2
	},
	{
		"deltaTime": 0,
		"channel": 0,
		"type": "channel",
		"noteNumber": 57,
		"velocity": 0,
		"subtype": "noteOff",
		"time": 5278,
		"track": 1
	},
	{
		"deltaTime": 2,
		"channel": 0,
		"type": "channel",
		"noteNumber": 60,
		"velocity": 0,
		"subtype": "noteOff",
		"time": 5278,
		"track": 1
	},
	{
		"deltaTime": 0,
		"channel": 0,
		"type": "channel",
		"noteNumber": 57,
		"velocity": 127,
		"subtype": "noteOn",
		"time": 5280,
		"track": 1
	},
	{
		"deltaTime": 64,
		"channel": 0,
		"type": "channel",
		"noteNumber": 62,
		"velocity": 127,
		"subtype": "noteOn",
		"time": 5280,
		"track": 1
	},
	{
		"deltaTime": 0,
		"channel": 1,
		"type": "channel",
		"noteNumber": 38,
		"velocity": 0,
		"subtype": "noteOff",
		"time": 5344,
		"track": 2
	},
	{
		"deltaTime": 32,
		"channel": 1,
		"type": "channel",
		"noteNumber": 50,
		"velocity": 0,
		"subtype": "noteOff",
		"time": 5344,
		"track": 2
	},
	{
		"deltaTime": 0,
		"channel": 1,
		"type": "channel",
		"noteNumber": 38,
		"velocity": 127,
		"subtype": "noteOn",
		"time": 5376,
		"track": 2
	},
	{
		"deltaTime": 64,
		"channel": 1,
		"type": "channel",
		"noteNumber": 50,
		"velocity": 127,
		"subtype": "noteOn",
		"time": 5376,
		"track": 2
	},
	{
		"deltaTime": 0,
		"channel": 0,
		"type": "channel",
		"noteNumber": 57,
		"velocity": 0,
		"subtype": "noteOff",
		"time": 5440,
		"track": 1
	},
	{
		"deltaTime": 30,
		"channel": 0,
		"type": "channel",
		"noteNumber": 62,
		"velocity": 0,
		"subtype": "noteOff",
		"time": 5440,
		"track": 1
	},
	{
		"deltaTime": 0,
		"channel": 1,
		"type": "channel",
		"noteNumber": 38,
		"velocity": 0,
		"subtype": "noteOff",
		"time": 5470,
		"track": 2
	},
	{
		"deltaTime": 2,
		"channel": 1,
		"type": "channel",
		"noteNumber": 50,
		"velocity": 0,
		"subtype": "noteOff",
		"time": 5470,
		"track": 2
	},
	{
		"deltaTime": 0,
		"channel": 1,
		"type": "channel",
		"noteNumber": 38,
		"velocity": 127,
		"subtype": "noteOn",
		"time": 5472,
		"track": 2
	},
	{
		"deltaTime": 96,
		"channel": 1,
		"type": "channel",
		"noteNumber": 50,
		"velocity": 127,
		"subtype": "noteOn",
		"time": 5472,
		"track": 2
	},
	{
		"deltaTime": 64,
		"channel": 0,
		"type": "channel",
		"noteNumber": 57,
		"velocity": 127,
		"subtype": "noteOn",
		"time": 5568,
		"track": 1
	},
	{
		"deltaTime": 0,
		"channel": 1,
		"type": "channel",
		"noteNumber": 38,
		"velocity": 0,
		"subtype": "noteOff",
		"time": 5632,
		"track": 2
	},
	{
		"deltaTime": 30,
		"channel": 1,
		"type": "channel",
		"noteNumber": 50,
		"velocity": 0,
		"subtype": "noteOff",
		"time": 5632,
		"track": 2
	},
	{
		"deltaTime": 2,
		"channel": 0,
		"type": "channel",
		"noteNumber": 57,
		"velocity": 0,
		"subtype": "noteOff",
		"time": 5662,
		"track": 1
	},
	{
		"deltaTime": 0,
		"channel": 0,
		"type": "channel",
		"noteNumber": 60,
		"velocity": 127,
		"subtype": "noteOn",
		"time": 5664,
		"track": 1
	},
	{
		"deltaTime": 0,
		"channel": 1,
		"type": "channel",
		"noteNumber": 38,
		"velocity": 127,
		"subtype": "noteOn",
		"time": 5664,
		"track": 2
	},
	{
		"deltaTime": 94,
		"channel": 1,
		"type": "channel",
		"noteNumber": 50,
		"velocity": 127,
		"subtype": "noteOn",
		"time": 5664,
		"track": 2
	},
	{
		"deltaTime": 0,
		"channel": 0,
		"type": "channel",
		"noteNumber": 60,
		"velocity": 0,
		"subtype": "noteOff",
		"time": 5758,
		"track": 1
	},
	{
		"deltaTime": 0,
		"channel": 1,
		"type": "channel",
		"noteNumber": 38,
		"velocity": 0,
		"subtype": "noteOff",
		"time": 5758,
		"track": 2
	},
	{
		"deltaTime": 2,
		"channel": 1,
		"type": "channel",
		"noteNumber": 50,
		"velocity": 0,
		"subtype": "noteOff",
		"time": 5758,
		"track": 2
	},
	{
		"deltaTime": 0,
		"channel": 0,
		"type": "channel",
		"subtype": "controller",
		"controllerType": 64,
		"value": 0,
		"time": 5760,
		"track": 1
	},
	{
		"deltaTime": 0,
		"channel": 0,
		"type": "channel",
		"subtype": "controller",
		"controllerType": 64,
		"value": 127,
		"time": 5760,
		"track": 1
	},
	{
		"deltaTime": 0,
		"channel": 0,
		"type": "channel",
		"noteNumber": 53,
		"velocity": 127,
		"subtype": "noteOn",
		"time": 5760,
		"track": 1
	},
	{
		"deltaTime": 0,
		"channel": 0,
		"type": "channel",
		"noteNumber": 58,
		"velocity": 127,
		"subtype": "noteOn",
		"time": 5760,
		"track": 1
	},
	{
		"deltaTime": 0,
		"channel": 0,
		"type": "channel",
		"noteNumber": 62,
		"velocity": 127,
		"subtype": "noteOn",
		"time": 5760,
		"track": 1
	},
	{
		"deltaTime": 0,
		"channel": 1,
		"type": "channel",
		"subtype": "controller",
		"controllerType": 64,
		"value": 0,
		"time": 5760,
		"track": 2
	},
	{
		"deltaTime": 0,
		"channel": 1,
		"type": "channel",
		"subtype": "controller",
		"controllerType": 64,
		"value": 127,
		"time": 5760,
		"track": 2
	},
	{
		"deltaTime": 0,
		"channel": 1,
		"type": "channel",
		"noteNumber": 34,
		"velocity": 127,
		"subtype": "noteOn",
		"time": 5760,
		"track": 2
	},
	{
		"deltaTime": 160,
		"channel": 1,
		"type": "channel",
		"noteNumber": 46,
		"velocity": 127,
		"subtype": "noteOn",
		"time": 5760,
		"track": 2
	},
	{
		"deltaTime": 0,
		"channel": 0,
		"type": "channel",
		"noteNumber": 53,
		"velocity": 0,
		"subtype": "noteOff",
		"time": 5920,
		"track": 1
	},
	{
		"deltaTime": 0,
		"channel": 0,
		"type": "channel",
		"noteNumber": 58,
		"velocity": 0,
		"subtype": "noteOff",
		"time": 5920,
		"track": 1
	},
	{
		"deltaTime": 0,
		"channel": 0,
		"type": "channel",
		"noteNumber": 62,
		"velocity": 0,
		"subtype": "noteOff",
		"time": 5920,
		"track": 1
	},
	{
		"deltaTime": 0,
		"channel": 1,
		"type": "channel",
		"noteNumber": 34,
		"velocity": 0,
		"subtype": "noteOff",
		"time": 5920,
		"track": 2
	},
	{
		"deltaTime": 32,
		"channel": 1,
		"type": "channel",
		"noteNumber": 46,
		"velocity": 0,
		"subtype": "noteOff",
		"time": 5920,
		"track": 2
	},
	{
		"deltaTime": 0,
		"channel": 0,
		"type": "channel",
		"noteNumber": 53,
		"velocity": 127,
		"subtype": "noteOn",
		"time": 5952,
		"track": 1
	},
	{
		"deltaTime": 0,
		"channel": 0,
		"type": "channel",
		"noteNumber": 58,
		"velocity": 127,
		"subtype": "noteOn",
		"time": 5952,
		"track": 1
	},
	{
		"deltaTime": 0,
		"channel": 0,
		"type": "channel",
		"noteNumber": 62,
		"velocity": 127,
		"subtype": "noteOn",
		"time": 5952,
		"track": 1
	},
	{
		"deltaTime": 0,
		"channel": 1,
		"type": "channel",
		"noteNumber": 34,
		"velocity": 127,
		"subtype": "noteOn",
		"time": 5952,
		"track": 2
	},
	{
		"deltaTime": 94,
		"channel": 1,
		"type": "channel",
		"noteNumber": 46,
		"velocity": 127,
		"subtype": "noteOn",
		"time": 5952,
		"track": 2
	},
	{
		"deltaTime": 0,
		"channel": 1,
		"type": "channel",
		"noteNumber": 34,
		"velocity": 0,
		"subtype": "noteOff",
		"time": 6046,
		"track": 2
	},
	{
		"deltaTime": 2,
		"channel": 1,
		"type": "channel",
		"noteNumber": 46,
		"velocity": 0,
		"subtype": "noteOff",
		"time": 6046,
		"track": 2
	},
	{
		"deltaTime": 0,
		"channel": 1,
		"type": "channel",
		"noteNumber": 34,
		"velocity": 127,
		"subtype": "noteOn",
		"time": 6048,
		"track": 2
	},
	{
		"deltaTime": 64,
		"channel": 1,
		"type": "channel",
		"noteNumber": 46,
		"velocity": 127,
		"subtype": "noteOn",
		"time": 6048,
		"track": 2
	},
	{
		"deltaTime": 0,
		"channel": 0,
		"type": "channel",
		"noteNumber": 53,
		"velocity": 0,
		"subtype": "noteOff",
		"time": 6112,
		"track": 1
	},
	{
		"deltaTime": 0,
		"channel": 0,
		"type": "channel",
		"noteNumber": 58,
		"velocity": 0,
		"subtype": "noteOff",
		"time": 6112,
		"track": 1
	},
	{
		"deltaTime": 32,
		"channel": 0,
		"type": "channel",
		"noteNumber": 62,
		"velocity": 0,
		"subtype": "noteOff",
		"time": 6112,
		"track": 1
	},
	{
		"deltaTime": 0,
		"channel": 0,
		"type": "channel",
		"noteNumber": 58,
		"velocity": 127,
		"subtype": "noteOn",
		"time": 6144,
		"track": 1
	},
	{
		"deltaTime": 64,
		"channel": 0,
		"type": "channel",
		"noteNumber": 62,
		"velocity": 127,
		"subtype": "noteOn",
		"time": 6144,
		"track": 1
	},
	{
		"deltaTime": 0,
		"channel": 1,
		"type": "channel",
		"noteNumber": 34,
		"velocity": 0,
		"subtype": "noteOff",
		"time": 6208,
		"track": 2
	},
	{
		"deltaTime": 30,
		"channel": 1,
		"type": "channel",
		"noteNumber": 46,
		"velocity": 0,
		"subtype": "noteOff",
		"time": 6208,
		"track": 2
	},
	{
		"deltaTime": 0,
		"channel": 0,
		"type": "channel",
		"noteNumber": 58,
		"velocity": 0,
		"subtype": "noteOff",
		"time": 6238,
		"track": 1
	},
	{
		"deltaTime": 2,
		"channel": 0,
		"type": "channel",
		"noteNumber": 62,
		"velocity": 0,
		"subtype": "noteOff",
		"time": 6238,
		"track": 1
	},
	{
		"deltaTime": 0,
		"channel": 0,
		"type": "channel",
		"noteNumber": 58,
		"velocity": 127,
		"subtype": "noteOn",
		"time": 6240,
		"track": 1
	},
	{
		"deltaTime": 0,
		"channel": 0,
		"type": "channel",
		"noteNumber": 64,
		"velocity": 127,
		"subtype": "noteOn",
		"time": 6240,
		"track": 1
	},
	{
		"deltaTime": 0,
		"channel": 1,
		"type": "channel",
		"noteNumber": 34,
		"velocity": 127,
		"subtype": "noteOn",
		"time": 6240,
		"track": 2
	},
	{
		"deltaTime": 94,
		"channel": 1,
		"type": "channel",
		"noteNumber": 46,
		"velocity": 127,
		"subtype": "noteOn",
		"time": 6240,
		"track": 2
	},
	{
		"deltaTime": 0,
		"channel": 0,
		"type": "channel",
		"noteNumber": 58,
		"velocity": 0,
		"subtype": "noteOff",
		"time": 6334,
		"track": 1
	},
	{
		"deltaTime": 0,
		"channel": 0,
		"type": "channel",
		"noteNumber": 64,
		"velocity": 0,
		"subtype": "noteOff",
		"time": 6334,
		"track": 1
	},
	{
		"deltaTime": 0,
		"channel": 1,
		"type": "channel",
		"noteNumber": 34,
		"velocity": 0,
		"subtype": "noteOff",
		"time": 6334,
		"track": 2
	},
	{
		"deltaTime": 2,
		"channel": 1,
		"type": "channel",
		"noteNumber": 46,
		"velocity": 0,
		"subtype": "noteOff",
		"time": 6334,
		"track": 2
	},
	{
		"deltaTime": 0,
		"channel": 0,
		"type": "channel",
		"subtype": "controller",
		"controllerType": 64,
		"value": 0,
		"time": 6336,
		"track": 1
	},
	{
		"deltaTime": 0,
		"channel": 0,
		"type": "channel",
		"subtype": "controller",
		"controllerType": 64,
		"value": 127,
		"time": 6336,
		"track": 1
	},
	{
		"deltaTime": 0,
		"channel": 0,
		"type": "channel",
		"noteNumber": 57,
		"velocity": 127,
		"subtype": "noteOn",
		"time": 6336,
		"track": 1
	},
	{
		"deltaTime": 0,
		"channel": 0,
		"type": "channel",
		"noteNumber": 60,
		"velocity": 127,
		"subtype": "noteOn",
		"time": 6336,
		"track": 1
	},
	{
		"deltaTime": 0,
		"channel": 0,
		"type": "channel",
		"noteNumber": 65,
		"velocity": 127,
		"subtype": "noteOn",
		"time": 6336,
		"track": 1
	},
	{
		"deltaTime": 0,
		"channel": 1,
		"type": "channel",
		"subtype": "controller",
		"controllerType": 64,
		"value": 0,
		"time": 6336,
		"track": 2
	},
	{
		"deltaTime": 0,
		"channel": 1,
		"type": "channel",
		"subtype": "controller",
		"controllerType": 64,
		"value": 127,
		"time": 6336,
		"track": 2
	},
	{
		"deltaTime": 0,
		"channel": 1,
		"type": "channel",
		"noteNumber": 29,
		"velocity": 127,
		"subtype": "noteOn",
		"time": 6336,
		"track": 2
	},
	{
		"deltaTime": 160,
		"channel": 1,
		"type": "channel",
		"noteNumber": 41,
		"velocity": 127,
		"subtype": "noteOn",
		"time": 6336,
		"track": 2
	},
	{
		"deltaTime": 0,
		"channel": 0,
		"type": "channel",
		"noteNumber": 57,
		"velocity": 0,
		"subtype": "noteOff",
		"time": 6496,
		"track": 1
	},
	{
		"deltaTime": 0,
		"channel": 0,
		"type": "channel",
		"noteNumber": 60,
		"velocity": 0,
		"subtype": "noteOff",
		"time": 6496,
		"track": 1
	},
	{
		"deltaTime": 0,
		"channel": 0,
		"type": "channel",
		"noteNumber": 65,
		"velocity": 0,
		"subtype": "noteOff",
		"time": 6496,
		"track": 1
	},
	{
		"deltaTime": 0,
		"channel": 1,
		"type": "channel",
		"noteNumber": 29,
		"velocity": 0,
		"subtype": "noteOff",
		"time": 6496,
		"track": 2
	},
	{
		"deltaTime": 32,
		"channel": 1,
		"type": "channel",
		"noteNumber": 41,
		"velocity": 0,
		"subtype": "noteOff",
		"time": 6496,
		"track": 2
	},
	{
		"deltaTime": 0,
		"channel": 0,
		"type": "channel",
		"noteNumber": 57,
		"velocity": 127,
		"subtype": "noteOn",
		"time": 6528,
		"track": 1
	},
	{
		"deltaTime": 0,
		"channel": 0,
		"type": "channel",
		"noteNumber": 60,
		"velocity": 127,
		"subtype": "noteOn",
		"time": 6528,
		"track": 1
	},
	{
		"deltaTime": 0,
		"channel": 0,
		"type": "channel",
		"noteNumber": 65,
		"velocity": 127,
		"subtype": "noteOn",
		"time": 6528,
		"track": 1
	},
	{
		"deltaTime": 0,
		"channel": 1,
		"type": "channel",
		"noteNumber": 29,
		"velocity": 127,
		"subtype": "noteOn",
		"time": 6528,
		"track": 2
	},
	{
		"deltaTime": 94,
		"channel": 1,
		"type": "channel",
		"noteNumber": 41,
		"velocity": 127,
		"subtype": "noteOn",
		"time": 6528,
		"track": 2
	},
	{
		"deltaTime": 0,
		"channel": 1,
		"type": "channel",
		"noteNumber": 29,
		"velocity": 0,
		"subtype": "noteOff",
		"time": 6622,
		"track": 2
	},
	{
		"deltaTime": 2,
		"channel": 1,
		"type": "channel",
		"noteNumber": 41,
		"velocity": 0,
		"subtype": "noteOff",
		"time": 6622,
		"track": 2
	},
	{
		"deltaTime": 0,
		"channel": 1,
		"type": "channel",
		"noteNumber": 29,
		"velocity": 127,
		"subtype": "noteOn",
		"time": 6624,
		"track": 2
	},
	{
		"deltaTime": 64,
		"channel": 1,
		"type": "channel",
		"noteNumber": 41,
		"velocity": 127,
		"subtype": "noteOn",
		"time": 6624,
		"track": 2
	},
	{
		"deltaTime": 0,
		"channel": 0,
		"type": "channel",
		"noteNumber": 57,
		"velocity": 0,
		"subtype": "noteOff",
		"time": 6688,
		"track": 1
	},
	{
		"deltaTime": 0,
		"channel": 0,
		"type": "channel",
		"noteNumber": 60,
		"velocity": 0,
		"subtype": "noteOff",
		"time": 6688,
		"track": 1
	},
	{
		"deltaTime": 32,
		"channel": 0,
		"type": "channel",
		"noteNumber": 65,
		"velocity": 0,
		"subtype": "noteOff",
		"time": 6688,
		"track": 1
	},
	{
		"deltaTime": 0,
		"channel": 0,
		"type": "channel",
		"noteNumber": 60,
		"velocity": 127,
		"subtype": "noteOn",
		"time": 6720,
		"track": 1
	},
	{
		"deltaTime": 64,
		"channel": 0,
		"type": "channel",
		"noteNumber": 65,
		"velocity": 127,
		"subtype": "noteOn",
		"time": 6720,
		"track": 1
	},
	{
		"deltaTime": 0,
		"channel": 1,
		"type": "channel",
		"noteNumber": 29,
		"velocity": 0,
		"subtype": "noteOff",
		"time": 6784,
		"track": 2
	},
	{
		"deltaTime": 30,
		"channel": 1,
		"type": "channel",
		"noteNumber": 41,
		"velocity": 0,
		"subtype": "noteOff",
		"time": 6784,
		"track": 2
	},
	{
		"deltaTime": 0,
		"channel": 0,
		"type": "channel",
		"noteNumber": 60,
		"velocity": 0,
		"subtype": "noteOff",
		"time": 6814,
		"track": 1
	},
	{
		"deltaTime": 2,
		"channel": 0,
		"type": "channel",
		"noteNumber": 65,
		"velocity": 0,
		"subtype": "noteOff",
		"time": 6814,
		"track": 1
	},
	{
		"deltaTime": 0,
		"channel": 0,
		"type": "channel",
		"noteNumber": 60,
		"velocity": 127,
		"subtype": "noteOn",
		"time": 6816,
		"track": 1
	},
	{
		"deltaTime": 0,
		"channel": 0,
		"type": "channel",
		"noteNumber": 67,
		"velocity": 127,
		"subtype": "noteOn",
		"time": 6816,
		"track": 1
	},
	{
		"deltaTime": 0,
		"channel": 1,
		"type": "channel",
		"noteNumber": 29,
		"velocity": 127,
		"subtype": "noteOn",
		"time": 6816,
		"track": 2
	},
	{
		"deltaTime": 94,
		"channel": 1,
		"type": "channel",
		"noteNumber": 41,
		"velocity": 127,
		"subtype": "noteOn",
		"time": 6816,
		"track": 2
	},
	{
		"deltaTime": 0,
		"channel": 0,
		"type": "channel",
		"noteNumber": 60,
		"velocity": 0,
		"subtype": "noteOff",
		"time": 6910,
		"track": 1
	},
	{
		"deltaTime": 0,
		"channel": 0,
		"type": "channel",
		"noteNumber": 67,
		"velocity": 0,
		"subtype": "noteOff",
		"time": 6910,
		"track": 1
	},
	{
		"deltaTime": 0,
		"channel": 1,
		"type": "channel",
		"noteNumber": 29,
		"velocity": 0,
		"subtype": "noteOff",
		"time": 6910,
		"track": 2
	},
	{
		"deltaTime": 2,
		"channel": 1,
		"type": "channel",
		"noteNumber": 41,
		"velocity": 0,
		"subtype": "noteOff",
		"time": 6910,
		"track": 2
	},
	{
		"deltaTime": 0,
		"channel": 0,
		"type": "channel",
		"subtype": "controller",
		"controllerType": 64,
		"value": 0,
		"time": 6912,
		"track": 1
	},
	{
		"deltaTime": 0,
		"channel": 0,
		"type": "channel",
		"subtype": "controller",
		"controllerType": 64,
		"value": 127,
		"time": 6912,
		"track": 1
	},
	{
		"deltaTime": 0,
		"channel": 0,
		"type": "channel",
		"noteNumber": 60,
		"velocity": 127,
		"subtype": "noteOn",
		"time": 6912,
		"track": 1
	},
	{
		"deltaTime": 0,
		"channel": 0,
		"type": "channel",
		"noteNumber": 64,
		"velocity": 127,
		"subtype": "noteOn",
		"time": 6912,
		"track": 1
	},
	{
		"deltaTime": 0,
		"channel": 1,
		"type": "channel",
		"subtype": "controller",
		"controllerType": 64,
		"value": 0,
		"time": 6912,
		"track": 2
	},
	{
		"deltaTime": 0,
		"channel": 1,
		"type": "channel",
		"subtype": "controller",
		"controllerType": 64,
		"value": 127,
		"time": 6912,
		"track": 2
	},
	{
		"deltaTime": 0,
		"channel": 1,
		"type": "channel",
		"noteNumber": 36,
		"velocity": 127,
		"subtype": "noteOn",
		"time": 6912,
		"track": 2
	},
	{
		"deltaTime": 160,
		"channel": 1,
		"type": "channel",
		"noteNumber": 48,
		"velocity": 127,
		"subtype": "noteOn",
		"time": 6912,
		"track": 2
	},
	{
		"deltaTime": 0,
		"channel": 0,
		"type": "channel",
		"noteNumber": 60,
		"velocity": 0,
		"subtype": "noteOff",
		"time": 7072,
		"track": 1
	},
	{
		"deltaTime": 0,
		"channel": 0,
		"type": "channel",
		"noteNumber": 64,
		"velocity": 0,
		"subtype": "noteOff",
		"time": 7072,
		"track": 1
	},
	{
		"deltaTime": 0,
		"channel": 1,
		"type": "channel",
		"noteNumber": 36,
		"velocity": 0,
		"subtype": "noteOff",
		"time": 7072,
		"track": 2
	},
	{
		"deltaTime": 32,
		"channel": 1,
		"type": "channel",
		"noteNumber": 48,
		"velocity": 0,
		"subtype": "noteOff",
		"time": 7072,
		"track": 2
	},
	{
		"deltaTime": 0,
		"channel": 0,
		"type": "channel",
		"noteNumber": 60,
		"velocity": 127,
		"subtype": "noteOn",
		"time": 7104,
		"track": 1
	},
	{
		"deltaTime": 0,
		"channel": 0,
		"type": "channel",
		"noteNumber": 64,
		"velocity": 127,
		"subtype": "noteOn",
		"time": 7104,
		"track": 1
	},
	{
		"deltaTime": 0,
		"channel": 1,
		"type": "channel",
		"noteNumber": 36,
		"velocity": 127,
		"subtype": "noteOn",
		"time": 7104,
		"track": 2
	},
	{
		"deltaTime": 94,
		"channel": 1,
		"type": "channel",
		"noteNumber": 48,
		"velocity": 127,
		"subtype": "noteOn",
		"time": 7104,
		"track": 2
	},
	{
		"deltaTime": 0,
		"channel": 1,
		"type": "channel",
		"noteNumber": 36,
		"velocity": 0,
		"subtype": "noteOff",
		"time": 7198,
		"track": 2
	},
	{
		"deltaTime": 2,
		"channel": 1,
		"type": "channel",
		"noteNumber": 48,
		"velocity": 0,
		"subtype": "noteOff",
		"time": 7198,
		"track": 2
	},
	{
		"deltaTime": 0,
		"channel": 1,
		"type": "channel",
		"noteNumber": 33,
		"velocity": 127,
		"subtype": "noteOn",
		"time": 7200,
		"track": 2
	},
	{
		"deltaTime": 64,
		"channel": 1,
		"type": "channel",
		"noteNumber": 45,
		"velocity": 127,
		"subtype": "noteOn",
		"time": 7200,
		"track": 2
	},
	{
		"deltaTime": 0,
		"channel": 0,
		"type": "channel",
		"noteNumber": 60,
		"velocity": 0,
		"subtype": "noteOff",
		"time": 7264,
		"track": 1
	},
	{
		"deltaTime": 32,
		"channel": 0,
		"type": "channel",
		"noteNumber": 64,
		"velocity": 0,
		"subtype": "noteOff",
		"time": 7264,
		"track": 1
	},
	{
		"deltaTime": 0,
		"channel": 0,
		"type": "channel",
		"noteNumber": 57,
		"velocity": 127,
		"subtype": "noteOn",
		"time": 7296,
		"track": 1
	},
	{
		"deltaTime": 64,
		"channel": 0,
		"type": "channel",
		"noteNumber": 62,
		"velocity": 127,
		"subtype": "noteOn",
		"time": 7296,
		"track": 1
	},
	{
		"deltaTime": 0,
		"channel": 1,
		"type": "channel",
		"noteNumber": 33,
		"velocity": 0,
		"subtype": "noteOff",
		"time": 7360,
		"track": 2
	},
	{
		"deltaTime": 30,
		"channel": 1,
		"type": "channel",
		"noteNumber": 45,
		"velocity": 0,
		"subtype": "noteOff",
		"time": 7360,
		"track": 2
	},
	{
		"deltaTime": 0,
		"channel": 0,
		"type": "channel",
		"noteNumber": 57,
		"velocity": 0,
		"subtype": "noteOff",
		"time": 7390,
		"track": 1
	},
	{
		"deltaTime": 2,
		"channel": 0,
		"type": "channel",
		"noteNumber": 62,
		"velocity": 0,
		"subtype": "noteOff",
		"time": 7390,
		"track": 1
	},
	{
		"deltaTime": 0,
		"channel": 0,
		"type": "channel",
		"noteNumber": 60,
		"velocity": 127,
		"subtype": "noteOn",
		"time": 7392,
		"track": 1
	},
	{
		"deltaTime": 0,
		"channel": 1,
		"type": "channel",
		"noteNumber": 33,
		"velocity": 127,
		"subtype": "noteOn",
		"time": 7392,
		"track": 2
	},
	{
		"deltaTime": 94,
		"channel": 1,
		"type": "channel",
		"noteNumber": 45,
		"velocity": 127,
		"subtype": "noteOn",
		"time": 7392,
		"track": 2
	},
	{
		"deltaTime": 0,
		"channel": 0,
		"type": "channel",
		"noteNumber": 60,
		"velocity": 0,
		"subtype": "noteOff",
		"time": 7486,
		"track": 1
	},
	{
		"deltaTime": 0,
		"channel": 1,
		"type": "channel",
		"noteNumber": 33,
		"velocity": 0,
		"subtype": "noteOff",
		"time": 7486,
		"track": 2
	},
	{
		"deltaTime": 2,
		"channel": 1,
		"type": "channel",
		"noteNumber": 45,
		"velocity": 0,
		"subtype": "noteOff",
		"time": 7486,
		"track": 2
	},
	{
		"deltaTime": 0,
		"channel": 0,
		"type": "channel",
		"subtype": "controller",
		"controllerType": 64,
		"value": 0,
		"time": 7488,
		"track": 1
	},
	{
		"deltaTime": 0,
		"channel": 0,
		"type": "channel",
		"subtype": "controller",
		"controllerType": 64,
		"value": 127,
		"time": 7488,
		"track": 1
	},
	{
		"deltaTime": 0,
		"channel": 0,
		"type": "channel",
		"noteNumber": 53,
		"velocity": 127,
		"subtype": "noteOn",
		"time": 7488,
		"track": 1
	},
	{
		"deltaTime": 0,
		"channel": 0,
		"type": "channel",
		"noteNumber": 57,
		"velocity": 127,
		"subtype": "noteOn",
		"time": 7488,
		"track": 1
	},
	{
		"deltaTime": 0,
		"channel": 0,
		"type": "channel",
		"noteNumber": 62,
		"velocity": 127,
		"subtype": "noteOn",
		"time": 7488,
		"track": 1
	},
	{
		"deltaTime": 0,
		"channel": 1,
		"type": "channel",
		"subtype": "controller",
		"controllerType": 64,
		"value": 0,
		"time": 7488,
		"track": 2
	},
	{
		"deltaTime": 0,
		"channel": 1,
		"type": "channel",
		"subtype": "controller",
		"controllerType": 64,
		"value": 127,
		"time": 7488,
		"track": 2
	},
	{
		"deltaTime": 0,
		"channel": 1,
		"type": "channel",
		"noteNumber": 38,
		"velocity": 127,
		"subtype": "noteOn",
		"time": 7488,
		"track": 2
	},
	{
		"deltaTime": 160,
		"channel": 1,
		"type": "channel",
		"noteNumber": 50,
		"velocity": 127,
		"subtype": "noteOn",
		"time": 7488,
		"track": 2
	},
	{
		"deltaTime": 0,
		"channel": 0,
		"type": "channel",
		"noteNumber": 53,
		"velocity": 0,
		"subtype": "noteOff",
		"time": 7648,
		"track": 1
	},
	{
		"deltaTime": 0,
		"channel": 0,
		"type": "channel",
		"noteNumber": 57,
		"velocity": 0,
		"subtype": "noteOff",
		"time": 7648,
		"track": 1
	},
	{
		"deltaTime": 0,
		"channel": 0,
		"type": "channel",
		"noteNumber": 62,
		"velocity": 0,
		"subtype": "noteOff",
		"time": 7648,
		"track": 1
	},
	{
		"deltaTime": 0,
		"channel": 1,
		"type": "channel",
		"noteNumber": 38,
		"velocity": 0,
		"subtype": "noteOff",
		"time": 7648,
		"track": 2
	},
	{
		"deltaTime": 32,
		"channel": 1,
		"type": "channel",
		"noteNumber": 50,
		"velocity": 0,
		"subtype": "noteOff",
		"time": 7648,
		"track": 2
	},
	{
		"deltaTime": 0,
		"channel": 1,
		"type": "channel",
		"noteNumber": 38,
		"velocity": 127,
		"subtype": "noteOn",
		"time": 7680,
		"track": 2
	},
	{
		"deltaTime": 94,
		"channel": 1,
		"type": "channel",
		"noteNumber": 50,
		"velocity": 127,
		"subtype": "noteOn",
		"time": 7680,
		"track": 2
	},
	{
		"deltaTime": 0,
		"channel": 1,
		"type": "channel",
		"noteNumber": 38,
		"velocity": 0,
		"subtype": "noteOff",
		"time": 7774,
		"track": 2
	},
	{
		"deltaTime": 2,
		"channel": 1,
		"type": "channel",
		"noteNumber": 50,
		"velocity": 0,
		"subtype": "noteOff",
		"time": 7774,
		"track": 2
	},
	{
		"deltaTime": 0,
		"channel": 1,
		"type": "channel",
		"noteNumber": 38,
		"velocity": 127,
		"subtype": "noteOn",
		"time": 7776,
		"track": 2
	},
	{
		"deltaTime": 96,
		"channel": 1,
		"type": "channel",
		"noteNumber": 50,
		"velocity": 127,
		"subtype": "noteOn",
		"time": 7776,
		"track": 2
	},
	{
		"deltaTime": 64,
		"channel": 0,
		"type": "channel",
		"noteNumber": 57,
		"velocity": 127,
		"subtype": "noteOn",
		"time": 7872,
		"track": 1
	},
	{
		"deltaTime": 0,
		"channel": 1,
		"type": "channel",
		"noteNumber": 38,
		"velocity": 0,
		"subtype": "noteOff",
		"time": 7936,
		"track": 2
	},
	{
		"deltaTime": 30,
		"channel": 1,
		"type": "channel",
		"noteNumber": 50,
		"velocity": 0,
		"subtype": "noteOff",
		"time": 7936,
		"track": 2
	},
	{
		"deltaTime": 2,
		"channel": 0,
		"type": "channel",
		"noteNumber": 57,
		"velocity": 0,
		"subtype": "noteOff",
		"time": 7966,
		"track": 1
	},
	{
		"deltaTime": 0,
		"channel": 0,
		"type": "channel",
		"noteNumber": 60,
		"velocity": 127,
		"subtype": "noteOn",
		"time": 7968,
		"track": 1
	},
	{
		"deltaTime": 0,
		"channel": 1,
		"type": "channel",
		"noteNumber": 38,
		"velocity": 127,
		"subtype": "noteOn",
		"time": 7968,
		"track": 2
	},
	{
		"deltaTime": 94,
		"channel": 1,
		"type": "channel",
		"noteNumber": 50,
		"velocity": 127,
		"subtype": "noteOn",
		"time": 7968,
		"track": 2
	},
	{
		"deltaTime": 0,
		"channel": 0,
		"type": "channel",
		"noteNumber": 60,
		"velocity": 0,
		"subtype": "noteOff",
		"time": 8062,
		"track": 1
	},
	{
		"deltaTime": 0,
		"channel": 1,
		"type": "channel",
		"noteNumber": 38,
		"velocity": 0,
		"subtype": "noteOff",
		"time": 8062,
		"track": 2
	},
	{
		"deltaTime": 2,
		"channel": 1,
		"type": "channel",
		"noteNumber": 50,
		"velocity": 0,
		"subtype": "noteOff",
		"time": 8062,
		"track": 2
	},
	{
		"deltaTime": 0,
		"channel": 0,
		"type": "channel",
		"subtype": "controller",
		"controllerType": 64,
		"value": 0,
		"time": 8064,
		"track": 1
	},
	{
		"deltaTime": 0,
		"channel": 0,
		"type": "channel",
		"subtype": "controller",
		"controllerType": 64,
		"value": 127,
		"time": 8064,
		"track": 1
	},
	{
		"deltaTime": 0,
		"channel": 0,
		"type": "channel",
		"noteNumber": 53,
		"velocity": 127,
		"subtype": "noteOn",
		"time": 8064,
		"track": 1
	},
	{
		"deltaTime": 0,
		"channel": 0,
		"type": "channel",
		"noteNumber": 57,
		"velocity": 127,
		"subtype": "noteOn",
		"time": 8064,
		"track": 1
	},
	{
		"deltaTime": 0,
		"channel": 0,
		"type": "channel",
		"noteNumber": 62,
		"velocity": 127,
		"subtype": "noteOn",
		"time": 8064,
		"track": 1
	},
	{
		"deltaTime": 0,
		"channel": 1,
		"type": "channel",
		"subtype": "controller",
		"controllerType": 64,
		"value": 0,
		"time": 8064,
		"track": 2
	},
	{
		"deltaTime": 0,
		"channel": 1,
		"type": "channel",
		"subtype": "controller",
		"controllerType": 64,
		"value": 127,
		"time": 8064,
		"track": 2
	},
	{
		"deltaTime": 0,
		"channel": 1,
		"type": "channel",
		"noteNumber": 38,
		"velocity": 127,
		"subtype": "noteOn",
		"time": 8064,
		"track": 2
	},
	{
		"deltaTime": 160,
		"channel": 1,
		"type": "channel",
		"noteNumber": 50,
		"velocity": 127,
		"subtype": "noteOn",
		"time": 8064,
		"track": 2
	},
	{
		"deltaTime": 0,
		"channel": 0,
		"type": "channel",
		"noteNumber": 53,
		"velocity": 0,
		"subtype": "noteOff",
		"time": 8224,
		"track": 1
	},
	{
		"deltaTime": 0,
		"channel": 0,
		"type": "channel",
		"noteNumber": 57,
		"velocity": 0,
		"subtype": "noteOff",
		"time": 8224,
		"track": 1
	},
	{
		"deltaTime": 0,
		"channel": 0,
		"type": "channel",
		"noteNumber": 62,
		"velocity": 0,
		"subtype": "noteOff",
		"time": 8224,
		"track": 1
	},
	{
		"deltaTime": 0,
		"channel": 1,
		"type": "channel",
		"noteNumber": 38,
		"velocity": 0,
		"subtype": "noteOff",
		"time": 8224,
		"track": 2
	},
	{
		"deltaTime": 32,
		"channel": 1,
		"type": "channel",
		"noteNumber": 50,
		"velocity": 0,
		"subtype": "noteOff",
		"time": 8224,
		"track": 2
	},
	{
		"deltaTime": 0,
		"channel": 0,
		"type": "channel",
		"noteNumber": 53,
		"velocity": 127,
		"subtype": "noteOn",
		"time": 8256,
		"track": 1
	},
	{
		"deltaTime": 0,
		"channel": 0,
		"type": "channel",
		"noteNumber": 57,
		"velocity": 127,
		"subtype": "noteOn",
		"time": 8256,
		"track": 1
	},
	{
		"deltaTime": 0,
		"channel": 0,
		"type": "channel",
		"noteNumber": 62,
		"velocity": 127,
		"subtype": "noteOn",
		"time": 8256,
		"track": 1
	},
	{
		"deltaTime": 0,
		"channel": 1,
		"type": "channel",
		"noteNumber": 38,
		"velocity": 127,
		"subtype": "noteOn",
		"time": 8256,
		"track": 2
	},
	{
		"deltaTime": 94,
		"channel": 1,
		"type": "channel",
		"noteNumber": 50,
		"velocity": 127,
		"subtype": "noteOn",
		"time": 8256,
		"track": 2
	},
	{
		"deltaTime": 0,
		"channel": 1,
		"type": "channel",
		"noteNumber": 38,
		"velocity": 0,
		"subtype": "noteOff",
		"time": 8350,
		"track": 2
	},
	{
		"deltaTime": 2,
		"channel": 1,
		"type": "channel",
		"noteNumber": 50,
		"velocity": 0,
		"subtype": "noteOff",
		"time": 8350,
		"track": 2
	},
	{
		"deltaTime": 0,
		"channel": 1,
		"type": "channel",
		"noteNumber": 38,
		"velocity": 127,
		"subtype": "noteOn",
		"time": 8352,
		"track": 2
	},
	{
		"deltaTime": 64,
		"channel": 1,
		"type": "channel",
		"noteNumber": 50,
		"velocity": 127,
		"subtype": "noteOn",
		"time": 8352,
		"track": 2
	},
	{
		"deltaTime": 0,
		"channel": 0,
		"type": "channel",
		"noteNumber": 53,
		"velocity": 0,
		"subtype": "noteOff",
		"time": 8416,
		"track": 1
	},
	{
		"deltaTime": 0,
		"channel": 0,
		"type": "channel",
		"noteNumber": 57,
		"velocity": 0,
		"subtype": "noteOff",
		"time": 8416,
		"track": 1
	},
	{
		"deltaTime": 32,
		"channel": 0,
		"type": "channel",
		"noteNumber": 62,
		"velocity": 0,
		"subtype": "noteOff",
		"time": 8416,
		"track": 1
	},
	{
		"deltaTime": 0,
		"channel": 0,
		"type": "channel",
		"noteNumber": 57,
		"velocity": 127,
		"subtype": "noteOn",
		"time": 8448,
		"track": 1
	},
	{
		"deltaTime": 64,
		"channel": 0,
		"type": "channel",
		"noteNumber": 62,
		"velocity": 127,
		"subtype": "noteOn",
		"time": 8448,
		"track": 1
	},
	{
		"deltaTime": 0,
		"channel": 1,
		"type": "channel",
		"noteNumber": 38,
		"velocity": 0,
		"subtype": "noteOff",
		"time": 8512,
		"track": 2
	},
	{
		"deltaTime": 30,
		"channel": 1,
		"type": "channel",
		"noteNumber": 50,
		"velocity": 0,
		"subtype": "noteOff",
		"time": 8512,
		"track": 2
	},
	{
		"deltaTime": 0,
		"channel": 0,
		"type": "channel",
		"noteNumber": 57,
		"velocity": 0,
		"subtype": "noteOff",
		"time": 8542,
		"track": 1
	},
	{
		"deltaTime": 2,
		"channel": 0,
		"type": "channel",
		"noteNumber": 62,
		"velocity": 0,
		"subtype": "noteOff",
		"time": 8542,
		"track": 1
	},
	{
		"deltaTime": 0,
		"channel": 0,
		"type": "channel",
		"noteNumber": 57,
		"velocity": 127,
		"subtype": "noteOn",
		"time": 8544,
		"track": 1
	},
	{
		"deltaTime": 0,
		"channel": 0,
		"type": "channel",
		"noteNumber": 65,
		"velocity": 127,
		"subtype": "noteOn",
		"time": 8544,
		"track": 1
	},
	{
		"deltaTime": 0,
		"channel": 1,
		"type": "channel",
		"noteNumber": 38,
		"velocity": 127,
		"subtype": "noteOn",
		"time": 8544,
		"track": 2
	},
	{
		"deltaTime": 94,
		"channel": 1,
		"type": "channel",
		"noteNumber": 50,
		"velocity": 127,
		"subtype": "noteOn",
		"time": 8544,
		"track": 2
	},
	{
		"deltaTime": 0,
		"channel": 0,
		"type": "channel",
		"noteNumber": 57,
		"velocity": 0,
		"subtype": "noteOff",
		"time": 8638,
		"track": 1
	},
	{
		"deltaTime": 0,
		"channel": 0,
		"type": "channel",
		"noteNumber": 65,
		"velocity": 0,
		"subtype": "noteOff",
		"time": 8638,
		"track": 1
	},
	{
		"deltaTime": 0,
		"channel": 1,
		"type": "channel",
		"noteNumber": 38,
		"velocity": 0,
		"subtype": "noteOff",
		"time": 8638,
		"track": 2
	},
	{
		"deltaTime": 2,
		"channel": 1,
		"type": "channel",
		"noteNumber": 50,
		"velocity": 0,
		"subtype": "noteOff",
		"time": 8638,
		"track": 2
	},
	{
		"deltaTime": 0,
		"channel": 0,
		"type": "channel",
		"subtype": "controller",
		"controllerType": 64,
		"value": 0,
		"time": 8640,
		"track": 1
	},
	{
		"deltaTime": 0,
		"channel": 0,
		"type": "channel",
		"subtype": "controller",
		"controllerType": 64,
		"value": 127,
		"time": 8640,
		"track": 1
	},
	{
		"deltaTime": 0,
		"channel": 0,
		"type": "channel",
		"noteNumber": 58,
		"velocity": 127,
		"subtype": "noteOn",
		"time": 8640,
		"track": 1
	},
	{
		"deltaTime": 0,
		"channel": 0,
		"type": "channel",
		"noteNumber": 62,
		"velocity": 127,
		"subtype": "noteOn",
		"time": 8640,
		"track": 1
	},
	{
		"deltaTime": 0,
		"channel": 0,
		"type": "channel",
		"noteNumber": 67,
		"velocity": 127,
		"subtype": "noteOn",
		"time": 8640,
		"track": 1
	},
	{
		"deltaTime": 0,
		"channel": 1,
		"type": "channel",
		"subtype": "controller",
		"controllerType": 64,
		"value": 0,
		"time": 8640,
		"track": 2
	},
	{
		"deltaTime": 0,
		"channel": 1,
		"type": "channel",
		"subtype": "controller",
		"controllerType": 64,
		"value": 127,
		"time": 8640,
		"track": 2
	},
	{
		"deltaTime": 0,
		"channel": 1,
		"type": "channel",
		"noteNumber": 34,
		"velocity": 127,
		"subtype": "noteOn",
		"time": 8640,
		"track": 2
	},
	{
		"deltaTime": 160,
		"channel": 1,
		"type": "channel",
		"noteNumber": 46,
		"velocity": 127,
		"subtype": "noteOn",
		"time": 8640,
		"track": 2
	},
	{
		"deltaTime": 0,
		"channel": 0,
		"type": "channel",
		"noteNumber": 58,
		"velocity": 0,
		"subtype": "noteOff",
		"time": 8800,
		"track": 1
	},
	{
		"deltaTime": 0,
		"channel": 0,
		"type": "channel",
		"noteNumber": 62,
		"velocity": 0,
		"subtype": "noteOff",
		"time": 8800,
		"track": 1
	},
	{
		"deltaTime": 0,
		"channel": 0,
		"type": "channel",
		"noteNumber": 67,
		"velocity": 0,
		"subtype": "noteOff",
		"time": 8800,
		"track": 1
	},
	{
		"deltaTime": 0,
		"channel": 1,
		"type": "channel",
		"noteNumber": 34,
		"velocity": 0,
		"subtype": "noteOff",
		"time": 8800,
		"track": 2
	},
	{
		"deltaTime": 32,
		"channel": 1,
		"type": "channel",
		"noteNumber": 46,
		"velocity": 0,
		"subtype": "noteOff",
		"time": 8800,
		"track": 2
	},
	{
		"deltaTime": 0,
		"channel": 0,
		"type": "channel",
		"noteNumber": 58,
		"velocity": 127,
		"subtype": "noteOn",
		"time": 8832,
		"track": 1
	},
	{
		"deltaTime": 0,
		"channel": 0,
		"type": "channel",
		"noteNumber": 62,
		"velocity": 127,
		"subtype": "noteOn",
		"time": 8832,
		"track": 1
	},
	{
		"deltaTime": 0,
		"channel": 0,
		"type": "channel",
		"noteNumber": 67,
		"velocity": 127,
		"subtype": "noteOn",
		"time": 8832,
		"track": 1
	},
	{
		"deltaTime": 0,
		"channel": 1,
		"type": "channel",
		"noteNumber": 34,
		"velocity": 127,
		"subtype": "noteOn",
		"time": 8832,
		"track": 2
	},
	{
		"deltaTime": 94,
		"channel": 1,
		"type": "channel",
		"noteNumber": 46,
		"velocity": 127,
		"subtype": "noteOn",
		"time": 8832,
		"track": 2
	},
	{
		"deltaTime": 0,
		"channel": 1,
		"type": "channel",
		"noteNumber": 34,
		"velocity": 0,
		"subtype": "noteOff",
		"time": 8926,
		"track": 2
	},
	{
		"deltaTime": 2,
		"channel": 1,
		"type": "channel",
		"noteNumber": 46,
		"velocity": 0,
		"subtype": "noteOff",
		"time": 8926,
		"track": 2
	},
	{
		"deltaTime": 0,
		"channel": 1,
		"type": "channel",
		"noteNumber": 34,
		"velocity": 127,
		"subtype": "noteOn",
		"time": 8928,
		"track": 2
	},
	{
		"deltaTime": 64,
		"channel": 1,
		"type": "channel",
		"noteNumber": 46,
		"velocity": 127,
		"subtype": "noteOn",
		"time": 8928,
		"track": 2
	},
	{
		"deltaTime": 0,
		"channel": 0,
		"type": "channel",
		"noteNumber": 58,
		"velocity": 0,
		"subtype": "noteOff",
		"time": 8992,
		"track": 1
	},
	{
		"deltaTime": 0,
		"channel": 0,
		"type": "channel",
		"noteNumber": 62,
		"velocity": 0,
		"subtype": "noteOff",
		"time": 8992,
		"track": 1
	},
	{
		"deltaTime": 32,
		"channel": 0,
		"type": "channel",
		"noteNumber": 67,
		"velocity": 0,
		"subtype": "noteOff",
		"time": 8992,
		"track": 1
	},
	{
		"deltaTime": 0,
		"channel": 0,
		"type": "channel",
		"noteNumber": 62,
		"velocity": 127,
		"subtype": "noteOn",
		"time": 9024,
		"track": 1
	},
	{
		"deltaTime": 64,
		"channel": 0,
		"type": "channel",
		"noteNumber": 67,
		"velocity": 127,
		"subtype": "noteOn",
		"time": 9024,
		"track": 1
	},
	{
		"deltaTime": 0,
		"channel": 1,
		"type": "channel",
		"noteNumber": 34,
		"velocity": 0,
		"subtype": "noteOff",
		"time": 9088,
		"track": 2
	},
	{
		"deltaTime": 30,
		"channel": 1,
		"type": "channel",
		"noteNumber": 46,
		"velocity": 0,
		"subtype": "noteOff",
		"time": 9088,
		"track": 2
	},
	{
		"deltaTime": 0,
		"channel": 0,
		"type": "channel",
		"noteNumber": 62,
		"velocity": 0,
		"subtype": "noteOff",
		"time": 9118,
		"track": 1
	},
	{
		"deltaTime": 2,
		"channel": 0,
		"type": "channel",
		"noteNumber": 67,
		"velocity": 0,
		"subtype": "noteOff",
		"time": 9118,
		"track": 1
	},
	{
		"deltaTime": 0,
		"channel": 0,
		"type": "channel",
		"noteNumber": 62,
		"velocity": 127,
		"subtype": "noteOn",
		"time": 9120,
		"track": 1
	},
	{
		"deltaTime": 0,
		"channel": 0,
		"type": "channel",
		"noteNumber": 69,
		"velocity": 127,
		"subtype": "noteOn",
		"time": 9120,
		"track": 1
	},
	{
		"deltaTime": 0,
		"channel": 1,
		"type": "channel",
		"noteNumber": 34,
		"velocity": 127,
		"subtype": "noteOn",
		"time": 9120,
		"track": 2
	},
	{
		"deltaTime": 94,
		"channel": 1,
		"type": "channel",
		"noteNumber": 46,
		"velocity": 127,
		"subtype": "noteOn",
		"time": 9120,
		"track": 2
	},
	{
		"deltaTime": 0,
		"channel": 0,
		"type": "channel",
		"noteNumber": 62,
		"velocity": 0,
		"subtype": "noteOff",
		"time": 9214,
		"track": 1
	},
	{
		"deltaTime": 0,
		"channel": 0,
		"type": "channel",
		"noteNumber": 69,
		"velocity": 0,
		"subtype": "noteOff",
		"time": 9214,
		"track": 1
	},
	{
		"deltaTime": 0,
		"channel": 1,
		"type": "channel",
		"noteNumber": 34,
		"velocity": 0,
		"subtype": "noteOff",
		"time": 9214,
		"track": 2
	},
	{
		"deltaTime": 2,
		"channel": 1,
		"type": "channel",
		"noteNumber": 46,
		"velocity": 0,
		"subtype": "noteOff",
		"time": 9214,
		"track": 2
	},
	{
		"deltaTime": 0,
		"channel": 0,
		"type": "channel",
		"subtype": "controller",
		"controllerType": 64,
		"value": 0,
		"time": 9216,
		"track": 1
	},
	{
		"deltaTime": 0,
		"channel": 0,
		"type": "channel",
		"subtype": "controller",
		"controllerType": 64,
		"value": 127,
		"time": 9216,
		"track": 1
	},
	{
		"deltaTime": 0,
		"channel": 0,
		"type": "channel",
		"noteNumber": 62,
		"velocity": 127,
		"subtype": "noteOn",
		"time": 9216,
		"track": 1
	},
	{
		"deltaTime": 0,
		"channel": 0,
		"type": "channel",
		"noteNumber": 67,
		"velocity": 127,
		"subtype": "noteOn",
		"time": 9216,
		"track": 1
	},
	{
		"deltaTime": 0,
		"channel": 0,
		"type": "channel",
		"noteNumber": 70,
		"velocity": 127,
		"subtype": "noteOn",
		"time": 9216,
		"track": 1
	},
	{
		"deltaTime": 0,
		"channel": 1,
		"type": "channel",
		"subtype": "controller",
		"controllerType": 64,
		"value": 0,
		"time": 9216,
		"track": 2
	},
	{
		"deltaTime": 0,
		"channel": 1,
		"type": "channel",
		"subtype": "controller",
		"controllerType": 64,
		"value": 127,
		"time": 9216,
		"track": 2
	},
	{
		"deltaTime": 0,
		"channel": 1,
		"type": "channel",
		"noteNumber": 31,
		"velocity": 127,
		"subtype": "noteOn",
		"time": 9216,
		"track": 2
	},
	{
		"deltaTime": 160,
		"channel": 1,
		"type": "channel",
		"noteNumber": 43,
		"velocity": 127,
		"subtype": "noteOn",
		"time": 9216,
		"track": 2
	},
	{
		"deltaTime": 0,
		"channel": 0,
		"type": "channel",
		"noteNumber": 62,
		"velocity": 0,
		"subtype": "noteOff",
		"time": 9376,
		"track": 1
	},
	{
		"deltaTime": 0,
		"channel": 0,
		"type": "channel",
		"noteNumber": 67,
		"velocity": 0,
		"subtype": "noteOff",
		"time": 9376,
		"track": 1
	},
	{
		"deltaTime": 0,
		"channel": 0,
		"type": "channel",
		"noteNumber": 70,
		"velocity": 0,
		"subtype": "noteOff",
		"time": 9376,
		"track": 1
	},
	{
		"deltaTime": 0,
		"channel": 1,
		"type": "channel",
		"noteNumber": 31,
		"velocity": 0,
		"subtype": "noteOff",
		"time": 9376,
		"track": 2
	},
	{
		"deltaTime": 32,
		"channel": 1,
		"type": "channel",
		"noteNumber": 43,
		"velocity": 0,
		"subtype": "noteOff",
		"time": 9376,
		"track": 2
	},
	{
		"deltaTime": 0,
		"channel": 0,
		"type": "channel",
		"noteNumber": 62,
		"velocity": 127,
		"subtype": "noteOn",
		"time": 9408,
		"track": 1
	},
	{
		"deltaTime": 0,
		"channel": 0,
		"type": "channel",
		"noteNumber": 67,
		"velocity": 127,
		"subtype": "noteOn",
		"time": 9408,
		"track": 1
	},
	{
		"deltaTime": 0,
		"channel": 0,
		"type": "channel",
		"noteNumber": 70,
		"velocity": 127,
		"subtype": "noteOn",
		"time": 9408,
		"track": 1
	},
	{
		"deltaTime": 0,
		"channel": 1,
		"type": "channel",
		"noteNumber": 31,
		"velocity": 127,
		"subtype": "noteOn",
		"time": 9408,
		"track": 2
	},
	{
		"deltaTime": 94,
		"channel": 1,
		"type": "channel",
		"noteNumber": 43,
		"velocity": 127,
		"subtype": "noteOn",
		"time": 9408,
		"track": 2
	},
	{
		"deltaTime": 0,
		"channel": 1,
		"type": "channel",
		"noteNumber": 31,
		"velocity": 0,
		"subtype": "noteOff",
		"time": 9502,
		"track": 2
	},
	{
		"deltaTime": 2,
		"channel": 1,
		"type": "channel",
		"noteNumber": 43,
		"velocity": 0,
		"subtype": "noteOff",
		"time": 9502,
		"track": 2
	},
	{
		"deltaTime": 0,
		"channel": 1,
		"type": "channel",
		"noteNumber": 31,
		"velocity": 127,
		"subtype": "noteOn",
		"time": 9504,
		"track": 2
	},
	{
		"deltaTime": 64,
		"channel": 1,
		"type": "channel",
		"noteNumber": 43,
		"velocity": 127,
		"subtype": "noteOn",
		"time": 9504,
		"track": 2
	},
	{
		"deltaTime": 0,
		"channel": 0,
		"type": "channel",
		"noteNumber": 62,
		"velocity": 0,
		"subtype": "noteOff",
		"time": 9568,
		"track": 1
	},
	{
		"deltaTime": 0,
		"channel": 0,
		"type": "channel",
		"noteNumber": 67,
		"velocity": 0,
		"subtype": "noteOff",
		"time": 9568,
		"track": 1
	},
	{
		"deltaTime": 32,
		"channel": 0,
		"type": "channel",
		"noteNumber": 70,
		"velocity": 0,
		"subtype": "noteOff",
		"time": 9568,
		"track": 1
	},
	{
		"deltaTime": 0,
		"channel": 0,
		"type": "channel",
		"noteNumber": 65,
		"velocity": 127,
		"subtype": "noteOn",
		"time": 9600,
		"track": 1
	},
	{
		"deltaTime": 64,
		"channel": 0,
		"type": "channel",
		"noteNumber": 69,
		"velocity": 127,
		"subtype": "noteOn",
		"time": 9600,
		"track": 1
	},
	{
		"deltaTime": 0,
		"channel": 1,
		"type": "channel",
		"noteNumber": 31,
		"velocity": 0,
		"subtype": "noteOff",
		"time": 9664,
		"track": 2
	},
	{
		"deltaTime": 30,
		"channel": 1,
		"type": "channel",
		"noteNumber": 43,
		"velocity": 0,
		"subtype": "noteOff",
		"time": 9664,
		"track": 2
	},
	{
		"deltaTime": 0,
		"channel": 0,
		"type": "channel",
		"noteNumber": 65,
		"velocity": 0,
		"subtype": "noteOff",
		"time": 9694,
		"track": 1
	},
	{
		"deltaTime": 2,
		"channel": 0,
		"type": "channel",
		"noteNumber": 69,
		"velocity": 0,
		"subtype": "noteOff",
		"time": 9694,
		"track": 1
	},
	{
		"deltaTime": 0,
		"channel": 0,
		"type": "channel",
		"noteNumber": 64,
		"velocity": 127,
		"subtype": "noteOn",
		"time": 9696,
		"track": 1
	},
	{
		"deltaTime": 0,
		"channel": 0,
		"type": "channel",
		"noteNumber": 67,
		"velocity": 127,
		"subtype": "noteOn",
		"time": 9696,
		"track": 1
	},
	{
		"deltaTime": 0,
		"channel": 1,
		"type": "channel",
		"noteNumber": 31,
		"velocity": 127,
		"subtype": "noteOn",
		"time": 9696,
		"track": 2
	},
	{
		"deltaTime": 94,
		"channel": 1,
		"type": "channel",
		"noteNumber": 43,
		"velocity": 127,
		"subtype": "noteOn",
		"time": 9696,
		"track": 2
	},
	{
		"deltaTime": 0,
		"channel": 0,
		"type": "channel",
		"noteNumber": 64,
		"velocity": 0,
		"subtype": "noteOff",
		"time": 9790,
		"track": 1
	},
	{
		"deltaTime": 0,
		"channel": 0,
		"type": "channel",
		"noteNumber": 67,
		"velocity": 0,
		"subtype": "noteOff",
		"time": 9790,
		"track": 1
	},
	{
		"deltaTime": 0,
		"channel": 1,
		"type": "channel",
		"noteNumber": 31,
		"velocity": 0,
		"subtype": "noteOff",
		"time": 9790,
		"track": 2
	},
	{
		"deltaTime": 2,
		"channel": 1,
		"type": "channel",
		"noteNumber": 43,
		"velocity": 0,
		"subtype": "noteOff",
		"time": 9790,
		"track": 2
	},
	{
		"deltaTime": 0,
		"channel": 0,
		"type": "channel",
		"subtype": "controller",
		"controllerType": 64,
		"value": 0,
		"time": 9792,
		"track": 1
	},
	{
		"deltaTime": 0,
		"channel": 0,
		"type": "channel",
		"subtype": "controller",
		"controllerType": 64,
		"value": 127,
		"time": 9792,
		"track": 1
	},
	{
		"deltaTime": 0,
		"channel": 0,
		"type": "channel",
		"noteNumber": 65,
		"velocity": 127,
		"subtype": "noteOn",
		"time": 9792,
		"track": 1
	},
	{
		"deltaTime": 0,
		"channel": 0,
		"type": "channel",
		"noteNumber": 69,
		"velocity": 127,
		"subtype": "noteOn",
		"time": 9792,
		"track": 1
	},
	{
		"deltaTime": 0,
		"channel": 1,
		"type": "channel",
		"subtype": "controller",
		"controllerType": 64,
		"value": 0,
		"time": 9792,
		"track": 2
	},
	{
		"deltaTime": 0,
		"channel": 1,
		"type": "channel",
		"subtype": "controller",
		"controllerType": 64,
		"value": 127,
		"time": 9792,
		"track": 2
	},
	{
		"deltaTime": 0,
		"channel": 1,
		"type": "channel",
		"noteNumber": 38,
		"velocity": 127,
		"subtype": "noteOn",
		"time": 9792,
		"track": 2
	},
	{
		"deltaTime": 94,
		"channel": 1,
		"type": "channel",
		"noteNumber": 50,
		"velocity": 127,
		"subtype": "noteOn",
		"time": 9792,
		"track": 2
	},
	{
		"deltaTime": 0,
		"channel": 0,
		"type": "channel",
		"noteNumber": 65,
		"velocity": 0,
		"subtype": "noteOff",
		"time": 9886,
		"track": 1
	},
	{
		"deltaTime": 2,
		"channel": 0,
		"type": "channel",
		"noteNumber": 69,
		"velocity": 0,
		"subtype": "noteOff",
		"time": 9886,
		"track": 1
	},
	{
		"deltaTime": 64,
		"channel": 0,
		"type": "channel",
		"noteNumber": 62,
		"velocity": 127,
		"subtype": "noteOn",
		"time": 9888,
		"track": 1
	},
	{
		"deltaTime": 0,
		"channel": 1,
		"type": "channel",
		"noteNumber": 38,
		"velocity": 0,
		"subtype": "noteOff",
		"time": 9952,
		"track": 2
	},
	{
		"deltaTime": 32,
		"channel": 1,
		"type": "channel",
		"noteNumber": 50,
		"velocity": 0,
		"subtype": "noteOff",
		"time": 9952,
		"track": 2
	},
	{
		"deltaTime": 0,
		"channel": 1,
		"type": "channel",
		"noteNumber": 38,
		"velocity": 127,
		"subtype": "noteOn",
		"time": 9984,
		"track": 2
	},
	{
		"deltaTime": 64,
		"channel": 1,
		"type": "channel",
		"noteNumber": 50,
		"velocity": 127,
		"subtype": "noteOn",
		"time": 9984,
		"track": 2
	},
	{
		"deltaTime": 30,
		"channel": 0,
		"type": "channel",
		"noteNumber": 62,
		"velocity": 0,
		"subtype": "noteOff",
		"time": 10048,
		"track": 1
	},
	{
		"deltaTime": 0,
		"channel": 1,
		"type": "channel",
		"noteNumber": 38,
		"velocity": 0,
		"subtype": "noteOff",
		"time": 10078,
		"track": 2
	},
	{
		"deltaTime": 2,
		"channel": 1,
		"type": "channel",
		"noteNumber": 50,
		"velocity": 0,
		"subtype": "noteOff",
		"time": 10078,
		"track": 2
	},
	{
		"deltaTime": 0,
		"channel": 1,
		"type": "channel",
		"noteNumber": 38,
		"velocity": 127,
		"subtype": "noteOn",
		"time": 10080,
		"track": 2
	},
	{
		"deltaTime": 96,
		"channel": 1,
		"type": "channel",
		"noteNumber": 50,
		"velocity": 127,
		"subtype": "noteOn",
		"time": 10080,
		"track": 2
	},
	{
		"deltaTime": 64,
		"channel": 0,
		"type": "channel",
		"noteNumber": 62,
		"velocity": 127,
		"subtype": "noteOn",
		"time": 10176,
		"track": 1
	},
	{
		"deltaTime": 0,
		"channel": 1,
		"type": "channel",
		"noteNumber": 38,
		"velocity": 0,
		"subtype": "noteOff",
		"time": 10240,
		"track": 2
	},
	{
		"deltaTime": 30,
		"channel": 1,
		"type": "channel",
		"noteNumber": 50,
		"velocity": 0,
		"subtype": "noteOff",
		"time": 10240,
		"track": 2
	},
	{
		"deltaTime": 2,
		"channel": 0,
		"type": "channel",
		"noteNumber": 62,
		"velocity": 0,
		"subtype": "noteOff",
		"time": 10270,
		"track": 1
	},
	{
		"deltaTime": 0,
		"channel": 0,
		"type": "channel",
		"noteNumber": 64,
		"velocity": 127,
		"subtype": "noteOn",
		"time": 10272,
		"track": 1
	},
	{
		"deltaTime": 0,
		"channel": 1,
		"type": "channel",
		"noteNumber": 38,
		"velocity": 127,
		"subtype": "noteOn",
		"time": 10272,
		"track": 2
	},
	{
		"deltaTime": 94,
		"channel": 1,
		"type": "channel",
		"noteNumber": 50,
		"velocity": 127,
		"subtype": "noteOn",
		"time": 10272,
		"track": 2
	},
	{
		"deltaTime": 0,
		"channel": 0,
		"type": "channel",
		"noteNumber": 64,
		"velocity": 0,
		"subtype": "noteOff",
		"time": 10366,
		"track": 1
	},
	{
		"deltaTime": 0,
		"channel": 1,
		"type": "channel",
		"noteNumber": 38,
		"velocity": 0,
		"subtype": "noteOff",
		"time": 10366,
		"track": 2
	},
	{
		"deltaTime": 2,
		"channel": 1,
		"type": "channel",
		"noteNumber": 50,
		"velocity": 0,
		"subtype": "noteOff",
		"time": 10366,
		"track": 2
	},
	{
		"deltaTime": 0,
		"channel": 0,
		"type": "channel",
		"subtype": "controller",
		"controllerType": 64,
		"value": 0,
		"time": 10368,
		"track": 1
	},
	{
		"deltaTime": 0,
		"channel": 0,
		"type": "channel",
		"subtype": "controller",
		"controllerType": 64,
		"value": 127,
		"time": 10368,
		"track": 1
	},
	{
		"deltaTime": 0,
		"channel": 0,
		"type": "channel",
		"noteNumber": 58,
		"velocity": 127,
		"subtype": "noteOn",
		"time": 10368,
		"track": 1
	},
	{
		"deltaTime": 0,
		"channel": 0,
		"type": "channel",
		"noteNumber": 62,
		"velocity": 127,
		"subtype": "noteOn",
		"time": 10368,
		"track": 1
	},
	{
		"deltaTime": 0,
		"channel": 0,
		"type": "channel",
		"noteNumber": 65,
		"velocity": 127,
		"subtype": "noteOn",
		"time": 10368,
		"track": 1
	},
	{
		"deltaTime": 0,
		"channel": 1,
		"type": "channel",
		"subtype": "controller",
		"controllerType": 64,
		"value": 0,
		"time": 10368,
		"track": 2
	},
	{
		"deltaTime": 0,
		"channel": 1,
		"type": "channel",
		"subtype": "controller",
		"controllerType": 64,
		"value": 127,
		"time": 10368,
		"track": 2
	},
	{
		"deltaTime": 0,
		"channel": 1,
		"type": "channel",
		"noteNumber": 34,
		"velocity": 127,
		"subtype": "noteOn",
		"time": 10368,
		"track": 2
	},
	{
		"deltaTime": 160,
		"channel": 1,
		"type": "channel",
		"noteNumber": 46,
		"velocity": 127,
		"subtype": "noteOn",
		"time": 10368,
		"track": 2
	},
	{
		"deltaTime": 0,
		"channel": 0,
		"type": "channel",
		"noteNumber": 58,
		"velocity": 0,
		"subtype": "noteOff",
		"time": 10528,
		"track": 1
	},
	{
		"deltaTime": 0,
		"channel": 0,
		"type": "channel",
		"noteNumber": 62,
		"velocity": 0,
		"subtype": "noteOff",
		"time": 10528,
		"track": 1
	},
	{
		"deltaTime": 0,
		"channel": 0,
		"type": "channel",
		"noteNumber": 65,
		"velocity": 0,
		"subtype": "noteOff",
		"time": 10528,
		"track": 1
	},
	{
		"deltaTime": 0,
		"channel": 1,
		"type": "channel",
		"noteNumber": 34,
		"velocity": 0,
		"subtype": "noteOff",
		"time": 10528,
		"track": 2
	},
	{
		"deltaTime": 32,
		"channel": 1,
		"type": "channel",
		"noteNumber": 46,
		"velocity": 0,
		"subtype": "noteOff",
		"time": 10528,
		"track": 2
	},
	{
		"deltaTime": 0,
		"channel": 0,
		"type": "channel",
		"noteNumber": 58,
		"velocity": 127,
		"subtype": "noteOn",
		"time": 10560,
		"track": 1
	},
	{
		"deltaTime": 0,
		"channel": 0,
		"type": "channel",
		"noteNumber": 62,
		"velocity": 127,
		"subtype": "noteOn",
		"time": 10560,
		"track": 1
	},
	{
		"deltaTime": 0,
		"channel": 0,
		"type": "channel",
		"noteNumber": 65,
		"velocity": 127,
		"subtype": "noteOn",
		"time": 10560,
		"track": 1
	},
	{
		"deltaTime": 0,
		"channel": 1,
		"type": "channel",
		"noteNumber": 34,
		"velocity": 127,
		"subtype": "noteOn",
		"time": 10560,
		"track": 2
	},
	{
		"deltaTime": 94,
		"channel": 1,
		"type": "channel",
		"noteNumber": 46,
		"velocity": 127,
		"subtype": "noteOn",
		"time": 10560,
		"track": 2
	},
	{
		"deltaTime": 0,
		"channel": 1,
		"type": "channel",
		"noteNumber": 34,
		"velocity": 0,
		"subtype": "noteOff",
		"time": 10654,
		"track": 2
	},
	{
		"deltaTime": 2,
		"channel": 1,
		"type": "channel",
		"noteNumber": 46,
		"velocity": 0,
		"subtype": "noteOff",
		"time": 10654,
		"track": 2
	},
	{
		"deltaTime": 0,
		"channel": 1,
		"type": "channel",
		"noteNumber": 34,
		"velocity": 127,
		"subtype": "noteOn",
		"time": 10656,
		"track": 2
	},
	{
		"deltaTime": 64,
		"channel": 1,
		"type": "channel",
		"noteNumber": 46,
		"velocity": 127,
		"subtype": "noteOn",
		"time": 10656,
		"track": 2
	},
	{
		"deltaTime": 0,
		"channel": 0,
		"type": "channel",
		"noteNumber": 58,
		"velocity": 0,
		"subtype": "noteOff",
		"time": 10720,
		"track": 1
	},
	{
		"deltaTime": 0,
		"channel": 0,
		"type": "channel",
		"noteNumber": 62,
		"velocity": 0,
		"subtype": "noteOff",
		"time": 10720,
		"track": 1
	},
	{
		"deltaTime": 32,
		"channel": 0,
		"type": "channel",
		"noteNumber": 65,
		"velocity": 0,
		"subtype": "noteOff",
		"time": 10720,
		"track": 1
	},
	{
		"deltaTime": 0,
		"channel": 0,
		"type": "channel",
		"noteNumber": 58,
		"velocity": 127,
		"subtype": "noteOn",
		"time": 10752,
		"track": 1
	},
	{
		"deltaTime": 0,
		"channel": 0,
		"type": "channel",
		"noteNumber": 62,
		"velocity": 127,
		"subtype": "noteOn",
		"time": 10752,
		"track": 1
	},
	{
		"deltaTime": 64,
		"channel": 0,
		"type": "channel",
		"noteNumber": 67,
		"velocity": 127,
		"subtype": "noteOn",
		"time": 10752,
		"track": 1
	},
	{
		"deltaTime": 0,
		"channel": 1,
		"type": "channel",
		"noteNumber": 34,
		"velocity": 0,
		"subtype": "noteOff",
		"time": 10816,
		"track": 2
	},
	{
		"deltaTime": 32,
		"channel": 1,
		"type": "channel",
		"noteNumber": 46,
		"velocity": 0,
		"subtype": "noteOff",
		"time": 10816,
		"track": 2
	},
	{
		"deltaTime": 0,
		"channel": 1,
		"type": "channel",
		"noteNumber": 34,
		"velocity": 127,
		"subtype": "noteOn",
		"time": 10848,
		"track": 2
	},
	{
		"deltaTime": 64,
		"channel": 1,
		"type": "channel",
		"noteNumber": 46,
		"velocity": 127,
		"subtype": "noteOn",
		"time": 10848,
		"track": 2
	},
	{
		"deltaTime": 0,
		"channel": 0,
		"type": "channel",
		"noteNumber": 58,
		"velocity": 0,
		"subtype": "noteOff",
		"time": 10912,
		"track": 1
	},
	{
		"deltaTime": 0,
		"channel": 0,
		"type": "channel",
		"noteNumber": 62,
		"velocity": 0,
		"subtype": "noteOff",
		"time": 10912,
		"track": 1
	},
	{
		"deltaTime": 30,
		"channel": 0,
		"type": "channel",
		"noteNumber": 67,
		"velocity": 0,
		"subtype": "noteOff",
		"time": 10912,
		"track": 1
	},
	{
		"deltaTime": 0,
		"channel": 1,
		"type": "channel",
		"noteNumber": 34,
		"velocity": 0,
		"subtype": "noteOff",
		"time": 10942,
		"track": 2
	},
	{
		"deltaTime": 2,
		"channel": 1,
		"type": "channel",
		"noteNumber": 46,
		"velocity": 0,
		"subtype": "noteOff",
		"time": 10942,
		"track": 2
	},
	{
		"deltaTime": 0,
		"channel": 0,
		"type": "channel",
		"subtype": "controller",
		"controllerType": 64,
		"value": 0,
		"time": 10944,
		"track": 1
	},
	{
		"deltaTime": 0,
		"channel": 0,
		"type": "channel",
		"subtype": "controller",
		"controllerType": 64,
		"value": 127,
		"time": 10944,
		"track": 1
	},
	{
		"deltaTime": 0,
		"channel": 0,
		"type": "channel",
		"noteNumber": 65,
		"velocity": 127,
		"subtype": "noteOn",
		"time": 10944,
		"track": 1
	},
	{
		"deltaTime": 0,
		"channel": 0,
		"type": "channel",
		"noteNumber": 69,
		"velocity": 127,
		"subtype": "noteOn",
		"time": 10944,
		"track": 1
	},
	{
		"deltaTime": 0,
		"channel": 1,
		"type": "channel",
		"subtype": "controller",
		"controllerType": 64,
		"value": 0,
		"time": 10944,
		"track": 2
	},
	{
		"deltaTime": 0,
		"channel": 1,
		"type": "channel",
		"subtype": "controller",
		"controllerType": 64,
		"value": 127,
		"time": 10944,
		"track": 2
	},
	{
		"deltaTime": 0,
		"channel": 1,
		"type": "channel",
		"noteNumber": 38,
		"velocity": 127,
		"subtype": "noteOn",
		"time": 10944,
		"track": 2
	},
	{
		"deltaTime": 94,
		"channel": 1,
		"type": "channel",
		"noteNumber": 50,
		"velocity": 127,
		"subtype": "noteOn",
		"time": 10944,
		"track": 2
	},
	{
		"deltaTime": 0,
		"channel": 0,
		"type": "channel",
		"noteNumber": 65,
		"velocity": 0,
		"subtype": "noteOff",
		"time": 11038,
		"track": 1
	},
	{
		"deltaTime": 2,
		"channel": 0,
		"type": "channel",
		"noteNumber": 69,
		"velocity": 0,
		"subtype": "noteOff",
		"time": 11038,
		"track": 1
	},
	{
		"deltaTime": 64,
		"channel": 0,
		"type": "channel",
		"noteNumber": 62,
		"velocity": 127,
		"subtype": "noteOn",
		"time": 11040,
		"track": 1
	},
	{
		"deltaTime": 0,
		"channel": 1,
		"type": "channel",
		"noteNumber": 38,
		"velocity": 0,
		"subtype": "noteOff",
		"time": 11104,
		"track": 2
	},
	{
		"deltaTime": 32,
		"channel": 1,
		"type": "channel",
		"noteNumber": 50,
		"velocity": 0,
		"subtype": "noteOff",
		"time": 11104,
		"track": 2
	},
	{
		"deltaTime": 0,
		"channel": 1,
		"type": "channel",
		"noteNumber": 38,
		"velocity": 127,
		"subtype": "noteOn",
		"time": 11136,
		"track": 2
	},
	{
		"deltaTime": 64,
		"channel": 1,
		"type": "channel",
		"noteNumber": 50,
		"velocity": 127,
		"subtype": "noteOn",
		"time": 11136,
		"track": 2
	},
	{
		"deltaTime": 30,
		"channel": 0,
		"type": "channel",
		"noteNumber": 62,
		"velocity": 0,
		"subtype": "noteOff",
		"time": 11200,
		"track": 1
	},
	{
		"deltaTime": 0,
		"channel": 1,
		"type": "channel",
		"noteNumber": 38,
		"velocity": 0,
		"subtype": "noteOff",
		"time": 11230,
		"track": 2
	},
	{
		"deltaTime": 2,
		"channel": 1,
		"type": "channel",
		"noteNumber": 50,
		"velocity": 0,
		"subtype": "noteOff",
		"time": 11230,
		"track": 2
	},
	{
		"deltaTime": 0,
		"channel": 1,
		"type": "channel",
		"noteNumber": 38,
		"velocity": 127,
		"subtype": "noteOn",
		"time": 11232,
		"track": 2
	},
	{
		"deltaTime": 96,
		"channel": 1,
		"type": "channel",
		"noteNumber": 50,
		"velocity": 127,
		"subtype": "noteOn",
		"time": 11232,
		"track": 2
	},
	{
		"deltaTime": 64,
		"channel": 0,
		"type": "channel",
		"noteNumber": 62,
		"velocity": 127,
		"subtype": "noteOn",
		"time": 11328,
		"track": 1
	},
	{
		"deltaTime": 0,
		"channel": 1,
		"type": "channel",
		"noteNumber": 38,
		"velocity": 0,
		"subtype": "noteOff",
		"time": 11392,
		"track": 2
	},
	{
		"deltaTime": 30,
		"channel": 1,
		"type": "channel",
		"noteNumber": 50,
		"velocity": 0,
		"subtype": "noteOff",
		"time": 11392,
		"track": 2
	},
	{
		"deltaTime": 2,
		"channel": 0,
		"type": "channel",
		"noteNumber": 62,
		"velocity": 0,
		"subtype": "noteOff",
		"time": 11422,
		"track": 1
	},
	{
		"deltaTime": 0,
		"channel": 0,
		"type": "channel",
		"noteNumber": 65,
		"velocity": 127,
		"subtype": "noteOn",
		"time": 11424,
		"track": 1
	},
	{
		"deltaTime": 0,
		"channel": 1,
		"type": "channel",
		"noteNumber": 38,
		"velocity": 127,
		"subtype": "noteOn",
		"time": 11424,
		"track": 2
	},
	{
		"deltaTime": 94,
		"channel": 1,
		"type": "channel",
		"noteNumber": 50,
		"velocity": 127,
		"subtype": "noteOn",
		"time": 11424,
		"track": 2
	},
	{
		"deltaTime": 0,
		"channel": 0,
		"type": "channel",
		"noteNumber": 65,
		"velocity": 0,
		"subtype": "noteOff",
		"time": 11518,
		"track": 1
	},
	{
		"deltaTime": 0,
		"channel": 1,
		"type": "channel",
		"noteNumber": 38,
		"velocity": 0,
		"subtype": "noteOff",
		"time": 11518,
		"track": 2
	},
	{
		"deltaTime": 2,
		"channel": 1,
		"type": "channel",
		"noteNumber": 50,
		"velocity": 0,
		"subtype": "noteOff",
		"time": 11518,
		"track": 2
	},
	{
		"deltaTime": 0,
		"channel": 0,
		"type": "channel",
		"subtype": "controller",
		"controllerType": 64,
		"value": 0,
		"time": 11520,
		"track": 1
	},
	{
		"deltaTime": 0,
		"channel": 0,
		"type": "channel",
		"subtype": "controller",
		"controllerType": 64,
		"value": 127,
		"time": 11520,
		"track": 1
	},
	{
		"deltaTime": 0,
		"channel": 0,
		"type": "channel",
		"noteNumber": 57,
		"velocity": 127,
		"subtype": "noteOn",
		"time": 11520,
		"track": 1
	},
	{
		"deltaTime": 0,
		"channel": 0,
		"type": "channel",
		"noteNumber": 61,
		"velocity": 127,
		"subtype": "noteOn",
		"time": 11520,
		"track": 1
	},
	{
		"deltaTime": 0,
		"channel": 0,
		"type": "channel",
		"noteNumber": 64,
		"velocity": 127,
		"subtype": "noteOn",
		"time": 11520,
		"track": 1
	},
	{
		"deltaTime": 0,
		"channel": 1,
		"type": "channel",
		"subtype": "controller",
		"controllerType": 64,
		"value": 0,
		"time": 11520,
		"track": 2
	},
	{
		"deltaTime": 0,
		"channel": 1,
		"type": "channel",
		"subtype": "controller",
		"controllerType": 64,
		"value": 127,
		"time": 11520,
		"track": 2
	},
	{
		"deltaTime": 0,
		"channel": 1,
		"type": "channel",
		"noteNumber": 33,
		"velocity": 127,
		"subtype": "noteOn",
		"time": 11520,
		"track": 2
	},
	{
		"deltaTime": 160,
		"channel": 1,
		"type": "channel",
		"noteNumber": 45,
		"velocity": 127,
		"subtype": "noteOn",
		"time": 11520,
		"track": 2
	},
	{
		"deltaTime": 0,
		"channel": 0,
		"type": "channel",
		"noteNumber": 57,
		"velocity": 0,
		"subtype": "noteOff",
		"time": 11680,
		"track": 1
	},
	{
		"deltaTime": 0,
		"channel": 0,
		"type": "channel",
		"noteNumber": 61,
		"velocity": 0,
		"subtype": "noteOff",
		"time": 11680,
		"track": 1
	},
	{
		"deltaTime": 0,
		"channel": 0,
		"type": "channel",
		"noteNumber": 64,
		"velocity": 0,
		"subtype": "noteOff",
		"time": 11680,
		"track": 1
	},
	{
		"deltaTime": 0,
		"channel": 1,
		"type": "channel",
		"noteNumber": 33,
		"velocity": 0,
		"subtype": "noteOff",
		"time": 11680,
		"track": 2
	},
	{
		"deltaTime": 32,
		"channel": 1,
		"type": "channel",
		"noteNumber": 45,
		"velocity": 0,
		"subtype": "noteOff",
		"time": 11680,
		"track": 2
	},
	{
		"deltaTime": 0,
		"channel": 0,
		"type": "channel",
		"noteNumber": 57,
		"velocity": 127,
		"subtype": "noteOn",
		"time": 11712,
		"track": 1
	},
	{
		"deltaTime": 0,
		"channel": 0,
		"type": "channel",
		"noteNumber": 61,
		"velocity": 127,
		"subtype": "noteOn",
		"time": 11712,
		"track": 1
	},
	{
		"deltaTime": 0,
		"channel": 0,
		"type": "channel",
		"noteNumber": 64,
		"velocity": 127,
		"subtype": "noteOn",
		"time": 11712,
		"track": 1
	},
	{
		"deltaTime": 0,
		"channel": 1,
		"type": "channel",
		"noteNumber": 33,
		"velocity": 127,
		"subtype": "noteOn",
		"time": 11712,
		"track": 2
	},
	{
		"deltaTime": 94,
		"channel": 1,
		"type": "channel",
		"noteNumber": 45,
		"velocity": 127,
		"subtype": "noteOn",
		"time": 11712,
		"track": 2
	},
	{
		"deltaTime": 0,
		"channel": 1,
		"type": "channel",
		"noteNumber": 33,
		"velocity": 0,
		"subtype": "noteOff",
		"time": 11806,
		"track": 2
	},
	{
		"deltaTime": 2,
		"channel": 1,
		"type": "channel",
		"noteNumber": 45,
		"velocity": 0,
		"subtype": "noteOff",
		"time": 11806,
		"track": 2
	},
	{
		"deltaTime": 0,
		"channel": 1,
		"type": "channel",
		"noteNumber": 33,
		"velocity": 127,
		"subtype": "noteOn",
		"time": 11808,
		"track": 2
	},
	{
		"deltaTime": 64,
		"channel": 1,
		"type": "channel",
		"noteNumber": 45,
		"velocity": 127,
		"subtype": "noteOn",
		"time": 11808,
		"track": 2
	},
	{
		"deltaTime": 0,
		"channel": 0,
		"type": "channel",
		"noteNumber": 57,
		"velocity": 0,
		"subtype": "noteOff",
		"time": 11872,
		"track": 1
	},
	{
		"deltaTime": 0,
		"channel": 0,
		"type": "channel",
		"noteNumber": 61,
		"velocity": 0,
		"subtype": "noteOff",
		"time": 11872,
		"track": 1
	},
	{
		"deltaTime": 32,
		"channel": 0,
		"type": "channel",
		"noteNumber": 64,
		"velocity": 0,
		"subtype": "noteOff",
		"time": 11872,
		"track": 1
	},
	{
		"deltaTime": 0,
		"channel": 0,
		"type": "channel",
		"noteNumber": 62,
		"velocity": 127,
		"subtype": "noteOn",
		"time": 11904,
		"track": 1
	},
	{
		"deltaTime": 64,
		"channel": 0,
		"type": "channel",
		"noteNumber": 65,
		"velocity": 127,
		"subtype": "noteOn",
		"time": 11904,
		"track": 1
	},
	{
		"deltaTime": 0,
		"channel": 1,
		"type": "channel",
		"noteNumber": 33,
		"velocity": 0,
		"subtype": "noteOff",
		"time": 11968,
		"track": 2
	},
	{
		"deltaTime": 30,
		"channel": 1,
		"type": "channel",
		"noteNumber": 45,
		"velocity": 0,
		"subtype": "noteOff",
		"time": 11968,
		"track": 2
	},
	{
		"deltaTime": 0,
		"channel": 0,
		"type": "channel",
		"noteNumber": 62,
		"velocity": 0,
		"subtype": "noteOff",
		"time": 11998,
		"track": 1
	},
	{
		"deltaTime": 2,
		"channel": 0,
		"type": "channel",
		"noteNumber": 65,
		"velocity": 0,
		"subtype": "noteOff",
		"time": 11998,
		"track": 1
	},
	{
		"deltaTime": 0,
		"channel": 0,
		"type": "channel",
		"noteNumber": 59,
		"velocity": 127,
		"subtype": "noteOn",
		"time": 12000,
		"track": 1
	},
	{
		"deltaTime": 0,
		"channel": 0,
		"type": "channel",
		"noteNumber": 62,
		"velocity": 127,
		"subtype": "noteOn",
		"time": 12000,
		"track": 1
	},
	{
		"deltaTime": 0,
		"channel": 1,
		"type": "channel",
		"noteNumber": 33,
		"velocity": 127,
		"subtype": "noteOn",
		"time": 12000,
		"track": 2
	},
	{
		"deltaTime": 94,
		"channel": 1,
		"type": "channel",
		"noteNumber": 45,
		"velocity": 127,
		"subtype": "noteOn",
		"time": 12000,
		"track": 2
	},
	{
		"deltaTime": 0,
		"channel": 0,
		"type": "channel",
		"noteNumber": 59,
		"velocity": 0,
		"subtype": "noteOff",
		"time": 12094,
		"track": 1
	},
	{
		"deltaTime": 0,
		"channel": 0,
		"type": "channel",
		"noteNumber": 62,
		"velocity": 0,
		"subtype": "noteOff",
		"time": 12094,
		"track": 1
	},
	{
		"deltaTime": 0,
		"channel": 1,
		"type": "channel",
		"noteNumber": 33,
		"velocity": 0,
		"subtype": "noteOff",
		"time": 12094,
		"track": 2
	},
	{
		"deltaTime": 2,
		"channel": 1,
		"type": "channel",
		"noteNumber": 45,
		"velocity": 0,
		"subtype": "noteOff",
		"time": 12094,
		"track": 2
	},
	{
		"deltaTime": 0,
		"channel": 0,
		"type": "channel",
		"subtype": "controller",
		"controllerType": 64,
		"value": 0,
		"time": 12096,
		"track": 1
	},
	{
		"deltaTime": 0,
		"channel": 0,
		"type": "channel",
		"subtype": "controller",
		"controllerType": 64,
		"value": 127,
		"time": 12096,
		"track": 1
	},
	{
		"deltaTime": 0,
		"channel": 0,
		"type": "channel",
		"noteNumber": 57,
		"velocity": 127,
		"subtype": "noteOn",
		"time": 12096,
		"track": 1
	},
	{
		"deltaTime": 0,
		"channel": 0,
		"type": "channel",
		"noteNumber": 61,
		"velocity": 127,
		"subtype": "noteOn",
		"time": 12096,
		"track": 1
	},
	{
		"deltaTime": 0,
		"channel": 0,
		"type": "channel",
		"noteNumber": 64,
		"velocity": 127,
		"subtype": "noteOn",
		"time": 12096,
		"track": 1
	},
	{
		"deltaTime": 0,
		"channel": 1,
		"type": "channel",
		"noteNumber": 33,
		"velocity": 127,
		"subtype": "noteOn",
		"time": 12096,
		"track": 2
	},
	{
		"deltaTime": 94,
		"channel": 1,
		"type": "channel",
		"noteNumber": 45,
		"velocity": 127,
		"subtype": "noteOn",
		"time": 12096,
		"track": 2
	},
	{
		"deltaTime": 0,
		"channel": 0,
		"type": "channel",
		"noteNumber": 57,
		"velocity": 0,
		"subtype": "noteOff",
		"time": 12190,
		"track": 1
	},
	{
		"deltaTime": 0,
		"channel": 0,
		"type": "channel",
		"noteNumber": 61,
		"velocity": 0,
		"subtype": "noteOff",
		"time": 12190,
		"track": 1
	},
	{
		"deltaTime": 66,
		"channel": 0,
		"type": "channel",
		"noteNumber": 64,
		"velocity": 0,
		"subtype": "noteOff",
		"time": 12190,
		"track": 1
	},
	{
		"deltaTime": 0,
		"channel": 1,
		"type": "channel",
		"noteNumber": 33,
		"velocity": 0,
		"subtype": "noteOff",
		"time": 12256,
		"track": 2
	},
	{
		"deltaTime": 32,
		"channel": 1,
		"type": "channel",
		"noteNumber": 45,
		"velocity": 0,
		"subtype": "noteOff",
		"time": 12256,
		"track": 2
	},
	{
		"deltaTime": 0,
		"channel": 1,
		"type": "channel",
		"noteNumber": 33,
		"velocity": 127,
		"subtype": "noteOn",
		"time": 12288,
		"track": 2
	},
	{
		"deltaTime": 94,
		"channel": 1,
		"type": "channel",
		"noteNumber": 45,
		"velocity": 127,
		"subtype": "noteOn",
		"time": 12288,
		"track": 2
	},
	{
		"deltaTime": 0,
		"channel": 1,
		"type": "channel",
		"noteNumber": 33,
		"velocity": 0,
		"subtype": "noteOff",
		"time": 12382,
		"track": 2
	},
	{
		"deltaTime": 2,
		"channel": 1,
		"type": "channel",
		"noteNumber": 45,
		"velocity": 0,
		"subtype": "noteOff",
		"time": 12382,
		"track": 2
	},
	{
		"deltaTime": 0,
		"channel": 0,
		"type": "channel",
		"subtype": "controller",
		"controllerType": 64,
		"value": 0,
		"time": 12384,
		"track": 1
	},
	{
		"deltaTime": 0,
		"channel": 0,
		"type": "channel",
		"subtype": "controller",
		"controllerType": 64,
		"value": 127,
		"time": 12384,
		"track": 1
	},
	{
		"deltaTime": 0,
		"channel": 1,
		"type": "channel",
		"noteNumber": 33,
		"velocity": 127,
		"subtype": "noteOn",
		"time": 12384,
		"track": 2
	},
	{
		"deltaTime": 96,
		"channel": 1,
		"type": "channel",
		"noteNumber": 45,
		"velocity": 127,
		"subtype": "noteOn",
		"time": 12384,
		"track": 2
	},
	{
		"deltaTime": 64,
		"channel": 0,
		"type": "channel",
		"noteNumber": 69,
		"velocity": 127,
		"subtype": "noteOn",
		"time": 12480,
		"track": 1
	},
	{
		"deltaTime": 0,
		"channel": 1,
		"type": "channel",
		"noteNumber": 33,
		"velocity": 0,
		"subtype": "noteOff",
		"time": 12544,
		"track": 2
	},
	{
		"deltaTime": 30,
		"channel": 1,
		"type": "channel",
		"noteNumber": 45,
		"velocity": 0,
		"subtype": "noteOff",
		"time": 12544,
		"track": 2
	},
	{
		"deltaTime": 2,
		"channel": 0,
		"type": "channel",
		"noteNumber": 69,
		"velocity": 0,
		"subtype": "noteOff",
		"time": 12574,
		"track": 1
	},
	{
		"deltaTime": 0,
		"channel": 0,
		"type": "channel",
		"noteNumber": 72,
		"velocity": 127,
		"subtype": "noteOn",
		"time": 12576,
		"track": 1
	},
	{
		"deltaTime": 0,
		"channel": 1,
		"type": "channel",
		"noteNumber": 33,
		"velocity": 127,
		"subtype": "noteOn",
		"time": 12576,
		"track": 2
	},
	{
		"deltaTime": 94,
		"channel": 1,
		"type": "channel",
		"noteNumber": 45,
		"velocity": 127,
		"subtype": "noteOn",
		"time": 12576,
		"track": 2
	},
	{
		"deltaTime": 0,
		"channel": 0,
		"type": "channel",
		"noteNumber": 72,
		"velocity": 0,
		"subtype": "noteOff",
		"time": 12670,
		"track": 1
	},
	{
		"deltaTime": 0,
		"channel": 1,
		"type": "channel",
		"noteNumber": 33,
		"velocity": 0,
		"subtype": "noteOff",
		"time": 12670,
		"track": 2
	},
	{
		"deltaTime": 2,
		"channel": 1,
		"type": "channel",
		"noteNumber": 45,
		"velocity": 0,
		"subtype": "noteOff",
		"time": 12670,
		"track": 2
	},
	{
		"deltaTime": 0,
		"channel": 0,
		"type": "channel",
		"subtype": "controller",
		"controllerType": 64,
		"value": 0,
		"time": 12672,
		"track": 1
	},
	{
		"deltaTime": 0,
		"channel": 0,
		"type": "channel",
		"subtype": "controller",
		"controllerType": 64,
		"value": 127,
		"time": 12672,
		"track": 1
	},
	{
		"deltaTime": 0,
		"channel": 0,
		"type": "channel",
		"noteNumber": 65,
		"velocity": 127,
		"subtype": "noteOn",
		"time": 12672,
		"track": 1
	},
	{
		"deltaTime": 0,
		"channel": 0,
		"type": "channel",
		"noteNumber": 69,
		"velocity": 127,
		"subtype": "noteOn",
		"time": 12672,
		"track": 1
	},
	{
		"deltaTime": 0,
		"channel": 0,
		"type": "channel",
		"noteNumber": 74,
		"velocity": 127,
		"subtype": "noteOn",
		"time": 12672,
		"track": 1
	},
	{
		"deltaTime": 0,
		"channel": 1,
		"type": "channel",
		"subtype": "controller",
		"controllerType": 64,
		"value": 0,
		"time": 12672,
		"track": 2
	},
	{
		"deltaTime": 0,
		"channel": 1,
		"type": "channel",
		"subtype": "controller",
		"controllerType": 64,
		"value": 127,
		"time": 12672,
		"track": 2
	},
	{
		"deltaTime": 0,
		"channel": 1,
		"type": "channel",
		"noteNumber": 38,
		"velocity": 127,
		"subtype": "noteOn",
		"time": 12672,
		"track": 2
	},
	{
		"deltaTime": 160,
		"channel": 1,
		"type": "channel",
		"noteNumber": 50,
		"velocity": 127,
		"subtype": "noteOn",
		"time": 12672,
		"track": 2
	},
	{
		"deltaTime": 0,
		"channel": 0,
		"type": "channel",
		"noteNumber": 65,
		"velocity": 0,
		"subtype": "noteOff",
		"time": 12832,
		"track": 1
	},
	{
		"deltaTime": 0,
		"channel": 0,
		"type": "channel",
		"noteNumber": 69,
		"velocity": 0,
		"subtype": "noteOff",
		"time": 12832,
		"track": 1
	},
	{
		"deltaTime": 0,
		"channel": 0,
		"type": "channel",
		"noteNumber": 74,
		"velocity": 0,
		"subtype": "noteOff",
		"time": 12832,
		"track": 1
	},
	{
		"deltaTime": 0,
		"channel": 1,
		"type": "channel",
		"noteNumber": 38,
		"velocity": 0,
		"subtype": "noteOff",
		"time": 12832,
		"track": 2
	},
	{
		"deltaTime": 32,
		"channel": 1,
		"type": "channel",
		"noteNumber": 50,
		"velocity": 0,
		"subtype": "noteOff",
		"time": 12832,
		"track": 2
	},
	{
		"deltaTime": 0,
		"channel": 0,
		"type": "channel",
		"noteNumber": 65,
		"velocity": 127,
		"subtype": "noteOn",
		"time": 12864,
		"track": 1
	},
	{
		"deltaTime": 0,
		"channel": 0,
		"type": "channel",
		"noteNumber": 69,
		"velocity": 127,
		"subtype": "noteOn",
		"time": 12864,
		"track": 1
	},
	{
		"deltaTime": 0,
		"channel": 0,
		"type": "channel",
		"noteNumber": 74,
		"velocity": 127,
		"subtype": "noteOn",
		"time": 12864,
		"track": 1
	},
	{
		"deltaTime": 0,
		"channel": 1,
		"type": "channel",
		"noteNumber": 38,
		"velocity": 127,
		"subtype": "noteOn",
		"time": 12864,
		"track": 2
	},
	{
		"deltaTime": 94,
		"channel": 1,
		"type": "channel",
		"noteNumber": 50,
		"velocity": 127,
		"subtype": "noteOn",
		"time": 12864,
		"track": 2
	},
	{
		"deltaTime": 0,
		"channel": 1,
		"type": "channel",
		"noteNumber": 38,
		"velocity": 0,
		"subtype": "noteOff",
		"time": 12958,
		"track": 2
	},
	{
		"deltaTime": 2,
		"channel": 1,
		"type": "channel",
		"noteNumber": 50,
		"velocity": 0,
		"subtype": "noteOff",
		"time": 12958,
		"track": 2
	},
	{
		"deltaTime": 0,
		"channel": 1,
		"type": "channel",
		"noteNumber": 38,
		"velocity": 127,
		"subtype": "noteOn",
		"time": 12960,
		"track": 2
	},
	{
		"deltaTime": 64,
		"channel": 1,
		"type": "channel",
		"noteNumber": 50,
		"velocity": 127,
		"subtype": "noteOn",
		"time": 12960,
		"track": 2
	},
	{
		"deltaTime": 0,
		"channel": 0,
		"type": "channel",
		"noteNumber": 65,
		"velocity": 0,
		"subtype": "noteOff",
		"time": 13024,
		"track": 1
	},
	{
		"deltaTime": 0,
		"channel": 0,
		"type": "channel",
		"noteNumber": 69,
		"velocity": 0,
		"subtype": "noteOff",
		"time": 13024,
		"track": 1
	},
	{
		"deltaTime": 32,
		"channel": 0,
		"type": "channel",
		"noteNumber": 74,
		"velocity": 0,
		"subtype": "noteOff",
		"time": 13024,
		"track": 1
	},
	{
		"deltaTime": 0,
		"channel": 0,
		"type": "channel",
		"noteNumber": 65,
		"velocity": 127,
		"subtype": "noteOn",
		"time": 13056,
		"track": 1
	},
	{
		"deltaTime": 0,
		"channel": 0,
		"type": "channel",
		"noteNumber": 69,
		"velocity": 127,
		"subtype": "noteOn",
		"time": 13056,
		"track": 1
	},
	{
		"deltaTime": 64,
		"channel": 0,
		"type": "channel",
		"noteNumber": 74,
		"velocity": 127,
		"subtype": "noteOn",
		"time": 13056,
		"track": 1
	},
	{
		"deltaTime": 0,
		"channel": 1,
		"type": "channel",
		"noteNumber": 38,
		"velocity": 0,
		"subtype": "noteOff",
		"time": 13120,
		"track": 2
	},
	{
		"deltaTime": 30,
		"channel": 1,
		"type": "channel",
		"noteNumber": 50,
		"velocity": 0,
		"subtype": "noteOff",
		"time": 13120,
		"track": 2
	},
	{
		"deltaTime": 0,
		"channel": 0,
		"type": "channel",
		"noteNumber": 65,
		"velocity": 0,
		"subtype": "noteOff",
		"time": 13150,
		"track": 1
	},
	{
		"deltaTime": 0,
		"channel": 0,
		"type": "channel",
		"noteNumber": 69,
		"velocity": 0,
		"subtype": "noteOff",
		"time": 13150,
		"track": 1
	},
	{
		"deltaTime": 2,
		"channel": 0,
		"type": "channel",
		"noteNumber": 74,
		"velocity": 0,
		"subtype": "noteOff",
		"time": 13150,
		"track": 1
	},
	{
		"deltaTime": 0,
		"channel": 0,
		"type": "channel",
		"noteNumber": 69,
		"velocity": 127,
		"subtype": "noteOn",
		"time": 13152,
		"track": 1
	},
	{
		"deltaTime": 0,
		"channel": 0,
		"type": "channel",
		"noteNumber": 72,
		"velocity": 127,
		"subtype": "noteOn",
		"time": 13152,
		"track": 1
	},
	{
		"deltaTime": 0,
		"channel": 0,
		"type": "channel",
		"noteNumber": 76,
		"velocity": 127,
		"subtype": "noteOn",
		"time": 13152,
		"track": 1
	},
	{
		"deltaTime": 0,
		"channel": 1,
		"type": "channel",
		"noteNumber": 36,
		"velocity": 127,
		"subtype": "noteOn",
		"time": 13152,
		"track": 2
	},
	{
		"deltaTime": 94,
		"channel": 1,
		"type": "channel",
		"noteNumber": 48,
		"velocity": 127,
		"subtype": "noteOn",
		"time": 13152,
		"track": 2
	},
	{
		"deltaTime": 0,
		"channel": 0,
		"type": "channel",
		"noteNumber": 69,
		"velocity": 0,
		"subtype": "noteOff",
		"time": 13246,
		"track": 1
	},
	{
		"deltaTime": 0,
		"channel": 0,
		"type": "channel",
		"noteNumber": 72,
		"velocity": 0,
		"subtype": "noteOff",
		"time": 13246,
		"track": 1
	},
	{
		"deltaTime": 0,
		"channel": 0,
		"type": "channel",
		"noteNumber": 76,
		"velocity": 0,
		"subtype": "noteOff",
		"time": 13246,
		"track": 1
	},
	{
		"deltaTime": 0,
		"channel": 1,
		"type": "channel",
		"noteNumber": 36,
		"velocity": 0,
		"subtype": "noteOff",
		"time": 13246,
		"track": 2
	},
	{
		"deltaTime": 2,
		"channel": 1,
		"type": "channel",
		"noteNumber": 48,
		"velocity": 0,
		"subtype": "noteOff",
		"time": 13246,
		"track": 2
	},
	{
		"deltaTime": 0,
		"channel": 0,
		"type": "channel",
		"subtype": "controller",
		"controllerType": 64,
		"value": 0,
		"time": 13248,
		"track": 1
	},
	{
		"deltaTime": 0,
		"channel": 0,
		"type": "channel",
		"subtype": "controller",
		"controllerType": 64,
		"value": 127,
		"time": 13248,
		"track": 1
	},
	{
		"deltaTime": 0,
		"channel": 0,
		"type": "channel",
		"noteNumber": 70,
		"velocity": 127,
		"subtype": "noteOn",
		"time": 13248,
		"track": 1
	},
	{
		"deltaTime": 0,
		"channel": 0,
		"type": "channel",
		"noteNumber": 74,
		"velocity": 127,
		"subtype": "noteOn",
		"time": 13248,
		"track": 1
	},
	{
		"deltaTime": 0,
		"channel": 0,
		"type": "channel",
		"noteNumber": 77,
		"velocity": 127,
		"subtype": "noteOn",
		"time": 13248,
		"track": 1
	},
	{
		"deltaTime": 0,
		"channel": 1,
		"type": "channel",
		"subtype": "controller",
		"controllerType": 64,
		"value": 0,
		"time": 13248,
		"track": 2
	},
	{
		"deltaTime": 0,
		"channel": 1,
		"type": "channel",
		"subtype": "controller",
		"controllerType": 64,
		"value": 127,
		"time": 13248,
		"track": 2
	},
	{
		"deltaTime": 0,
		"channel": 1,
		"type": "channel",
		"noteNumber": 34,
		"velocity": 127,
		"subtype": "noteOn",
		"time": 13248,
		"track": 2
	},
	{
		"deltaTime": 160,
		"channel": 1,
		"type": "channel",
		"noteNumber": 46,
		"velocity": 127,
		"subtype": "noteOn",
		"time": 13248,
		"track": 2
	},
	{
		"deltaTime": 0,
		"channel": 0,
		"type": "channel",
		"noteNumber": 70,
		"velocity": 0,
		"subtype": "noteOff",
		"time": 13408,
		"track": 1
	},
	{
		"deltaTime": 0,
		"channel": 0,
		"type": "channel",
		"noteNumber": 74,
		"velocity": 0,
		"subtype": "noteOff",
		"time": 13408,
		"track": 1
	},
	{
		"deltaTime": 0,
		"channel": 0,
		"type": "channel",
		"noteNumber": 77,
		"velocity": 0,
		"subtype": "noteOff",
		"time": 13408,
		"track": 1
	},
	{
		"deltaTime": 0,
		"channel": 1,
		"type": "channel",
		"noteNumber": 34,
		"velocity": 0,
		"subtype": "noteOff",
		"time": 13408,
		"track": 2
	},
	{
		"deltaTime": 32,
		"channel": 1,
		"type": "channel",
		"noteNumber": 46,
		"velocity": 0,
		"subtype": "noteOff",
		"time": 13408,
		"track": 2
	},
	{
		"deltaTime": 0,
		"channel": 0,
		"type": "channel",
		"noteNumber": 70,
		"velocity": 127,
		"subtype": "noteOn",
		"time": 13440,
		"track": 1
	},
	{
		"deltaTime": 0,
		"channel": 0,
		"type": "channel",
		"noteNumber": 74,
		"velocity": 127,
		"subtype": "noteOn",
		"time": 13440,
		"track": 1
	},
	{
		"deltaTime": 0,
		"channel": 0,
		"type": "channel",
		"noteNumber": 77,
		"velocity": 127,
		"subtype": "noteOn",
		"time": 13440,
		"track": 1
	},
	{
		"deltaTime": 0,
		"channel": 1,
		"type": "channel",
		"noteNumber": 34,
		"velocity": 127,
		"subtype": "noteOn",
		"time": 13440,
		"track": 2
	},
	{
		"deltaTime": 94,
		"channel": 1,
		"type": "channel",
		"noteNumber": 46,
		"velocity": 127,
		"subtype": "noteOn",
		"time": 13440,
		"track": 2
	},
	{
		"deltaTime": 0,
		"channel": 1,
		"type": "channel",
		"noteNumber": 34,
		"velocity": 0,
		"subtype": "noteOff",
		"time": 13534,
		"track": 2
	},
	{
		"deltaTime": 2,
		"channel": 1,
		"type": "channel",
		"noteNumber": 46,
		"velocity": 0,
		"subtype": "noteOff",
		"time": 13534,
		"track": 2
	},
	{
		"deltaTime": 0,
		"channel": 1,
		"type": "channel",
		"noteNumber": 34,
		"velocity": 127,
		"subtype": "noteOn",
		"time": 13536,
		"track": 2
	},
	{
		"deltaTime": 64,
		"channel": 1,
		"type": "channel",
		"noteNumber": 46,
		"velocity": 127,
		"subtype": "noteOn",
		"time": 13536,
		"track": 2
	},
	{
		"deltaTime": 0,
		"channel": 0,
		"type": "channel",
		"noteNumber": 70,
		"velocity": 0,
		"subtype": "noteOff",
		"time": 13600,
		"track": 1
	},
	{
		"deltaTime": 0,
		"channel": 0,
		"type": "channel",
		"noteNumber": 74,
		"velocity": 0,
		"subtype": "noteOff",
		"time": 13600,
		"track": 1
	},
	{
		"deltaTime": 32,
		"channel": 0,
		"type": "channel",
		"noteNumber": 77,
		"velocity": 0,
		"subtype": "noteOff",
		"time": 13600,
		"track": 1
	},
	{
		"deltaTime": 0,
		"channel": 0,
		"type": "channel",
		"noteNumber": 70,
		"velocity": 127,
		"subtype": "noteOn",
		"time": 13632,
		"track": 1
	},
	{
		"deltaTime": 0,
		"channel": 0,
		"type": "channel",
		"noteNumber": 74,
		"velocity": 127,
		"subtype": "noteOn",
		"time": 13632,
		"track": 1
	},
	{
		"deltaTime": 64,
		"channel": 0,
		"type": "channel",
		"noteNumber": 77,
		"velocity": 127,
		"subtype": "noteOn",
		"time": 13632,
		"track": 1
	},
	{
		"deltaTime": 0,
		"channel": 1,
		"type": "channel",
		"noteNumber": 34,
		"velocity": 0,
		"subtype": "noteOff",
		"time": 13696,
		"track": 2
	},
	{
		"deltaTime": 30,
		"channel": 1,
		"type": "channel",
		"noteNumber": 46,
		"velocity": 0,
		"subtype": "noteOff",
		"time": 13696,
		"track": 2
	},
	{
		"deltaTime": 0,
		"channel": 0,
		"type": "channel",
		"noteNumber": 70,
		"velocity": 0,
		"subtype": "noteOff",
		"time": 13726,
		"track": 1
	},
	{
		"deltaTime": 0,
		"channel": 0,
		"type": "channel",
		"noteNumber": 74,
		"velocity": 0,
		"subtype": "noteOff",
		"time": 13726,
		"track": 1
	},
	{
		"deltaTime": 2,
		"channel": 0,
		"type": "channel",
		"noteNumber": 77,
		"velocity": 0,
		"subtype": "noteOff",
		"time": 13726,
		"track": 1
	},
	{
		"deltaTime": 0,
		"channel": 0,
		"type": "channel",
		"noteNumber": 74,
		"velocity": 127,
		"subtype": "noteOn",
		"time": 13728,
		"track": 1
	},
	{
		"deltaTime": 0,
		"channel": 0,
		"type": "channel",
		"noteNumber": 79,
		"velocity": 127,
		"subtype": "noteOn",
		"time": 13728,
		"track": 1
	},
	{
		"deltaTime": 0,
		"channel": 1,
		"type": "channel",
		"noteNumber": 34,
		"velocity": 127,
		"subtype": "noteOn",
		"time": 13728,
		"track": 2
	},
	{
		"deltaTime": 94,
		"channel": 1,
		"type": "channel",
		"noteNumber": 46,
		"velocity": 127,
		"subtype": "noteOn",
		"time": 13728,
		"track": 2
	},
	{
		"deltaTime": 0,
		"channel": 0,
		"type": "channel",
		"noteNumber": 74,
		"velocity": 0,
		"subtype": "noteOff",
		"time": 13822,
		"track": 1
	},
	{
		"deltaTime": 0,
		"channel": 0,
		"type": "channel",
		"noteNumber": 79,
		"velocity": 0,
		"subtype": "noteOff",
		"time": 13822,
		"track": 1
	},
	{
		"deltaTime": 0,
		"channel": 1,
		"type": "channel",
		"noteNumber": 34,
		"velocity": 0,
		"subtype": "noteOff",
		"time": 13822,
		"track": 2
	},
	{
		"deltaTime": 2,
		"channel": 1,
		"type": "channel",
		"noteNumber": 46,
		"velocity": 0,
		"subtype": "noteOff",
		"time": 13822,
		"track": 2
	},
	{
		"deltaTime": 0,
		"channel": 0,
		"type": "channel",
		"subtype": "controller",
		"controllerType": 64,
		"value": 0,
		"time": 13824,
		"track": 1
	},
	{
		"deltaTime": 0,
		"channel": 0,
		"type": "channel",
		"subtype": "controller",
		"controllerType": 64,
		"value": 127,
		"time": 13824,
		"track": 1
	},
	{
		"deltaTime": 0,
		"channel": 0,
		"type": "channel",
		"noteNumber": 69,
		"velocity": 127,
		"subtype": "noteOn",
		"time": 13824,
		"track": 1
	},
	{
		"deltaTime": 0,
		"channel": 0,
		"type": "channel",
		"noteNumber": 72,
		"velocity": 127,
		"subtype": "noteOn",
		"time": 13824,
		"track": 1
	},
	{
		"deltaTime": 0,
		"channel": 0,
		"type": "channel",
		"noteNumber": 76,
		"velocity": 127,
		"subtype": "noteOn",
		"time": 13824,
		"track": 1
	},
	{
		"deltaTime": 0,
		"channel": 1,
		"type": "channel",
		"subtype": "controller",
		"controllerType": 64,
		"value": 0,
		"time": 13824,
		"track": 2
	},
	{
		"deltaTime": 0,
		"channel": 1,
		"type": "channel",
		"subtype": "controller",
		"controllerType": 64,
		"value": 127,
		"time": 13824,
		"track": 2
	},
	{
		"deltaTime": 0,
		"channel": 1,
		"type": "channel",
		"noteNumber": 33,
		"velocity": 127,
		"subtype": "noteOn",
		"time": 13824,
		"track": 2
	},
	{
		"deltaTime": 160,
		"channel": 1,
		"type": "channel",
		"noteNumber": 45,
		"velocity": 127,
		"subtype": "noteOn",
		"time": 13824,
		"track": 2
	},
	{
		"deltaTime": 0,
		"channel": 0,
		"type": "channel",
		"noteNumber": 69,
		"velocity": 0,
		"subtype": "noteOff",
		"time": 13984,
		"track": 1
	},
	{
		"deltaTime": 0,
		"channel": 0,
		"type": "channel",
		"noteNumber": 72,
		"velocity": 0,
		"subtype": "noteOff",
		"time": 13984,
		"track": 1
	},
	{
		"deltaTime": 0,
		"channel": 0,
		"type": "channel",
		"noteNumber": 76,
		"velocity": 0,
		"subtype": "noteOff",
		"time": 13984,
		"track": 1
	},
	{
		"deltaTime": 0,
		"channel": 1,
		"type": "channel",
		"noteNumber": 33,
		"velocity": 0,
		"subtype": "noteOff",
		"time": 13984,
		"track": 2
	},
	{
		"deltaTime": 32,
		"channel": 1,
		"type": "channel",
		"noteNumber": 45,
		"velocity": 0,
		"subtype": "noteOff",
		"time": 13984,
		"track": 2
	},
	{
		"deltaTime": 0,
		"channel": 0,
		"type": "channel",
		"noteNumber": 69,
		"velocity": 127,
		"subtype": "noteOn",
		"time": 14016,
		"track": 1
	},
	{
		"deltaTime": 0,
		"channel": 0,
		"type": "channel",
		"noteNumber": 72,
		"velocity": 127,
		"subtype": "noteOn",
		"time": 14016,
		"track": 1
	},
	{
		"deltaTime": 0,
		"channel": 0,
		"type": "channel",
		"noteNumber": 76,
		"velocity": 127,
		"subtype": "noteOn",
		"time": 14016,
		"track": 1
	},
	{
		"deltaTime": 0,
		"channel": 1,
		"type": "channel",
		"noteNumber": 33,
		"velocity": 127,
		"subtype": "noteOn",
		"time": 14016,
		"track": 2
	},
	{
		"deltaTime": 94,
		"channel": 1,
		"type": "channel",
		"noteNumber": 45,
		"velocity": 127,
		"subtype": "noteOn",
		"time": 14016,
		"track": 2
	},
	{
		"deltaTime": 0,
		"channel": 1,
		"type": "channel",
		"noteNumber": 33,
		"velocity": 0,
		"subtype": "noteOff",
		"time": 14110,
		"track": 2
	},
	{
		"deltaTime": 2,
		"channel": 1,
		"type": "channel",
		"noteNumber": 45,
		"velocity": 0,
		"subtype": "noteOff",
		"time": 14110,
		"track": 2
	},
	{
		"deltaTime": 0,
		"channel": 1,
		"type": "channel",
		"noteNumber": 33,
		"velocity": 127,
		"subtype": "noteOn",
		"time": 14112,
		"track": 2
	},
	{
		"deltaTime": 64,
		"channel": 1,
		"type": "channel",
		"noteNumber": 45,
		"velocity": 127,
		"subtype": "noteOn",
		"time": 14112,
		"track": 2
	},
	{
		"deltaTime": 0,
		"channel": 0,
		"type": "channel",
		"noteNumber": 69,
		"velocity": 0,
		"subtype": "noteOff",
		"time": 14176,
		"track": 1
	},
	{
		"deltaTime": 0,
		"channel": 0,
		"type": "channel",
		"noteNumber": 72,
		"velocity": 0,
		"subtype": "noteOff",
		"time": 14176,
		"track": 1
	},
	{
		"deltaTime": 32,
		"channel": 0,
		"type": "channel",
		"noteNumber": 76,
		"velocity": 0,
		"subtype": "noteOff",
		"time": 14176,
		"track": 1
	},
	{
		"deltaTime": 0,
		"channel": 0,
		"type": "channel",
		"noteNumber": 69,
		"velocity": 127,
		"subtype": "noteOn",
		"time": 14208,
		"track": 1
	},
	{
		"deltaTime": 64,
		"channel": 0,
		"type": "channel",
		"noteNumber": 74,
		"velocity": 127,
		"subtype": "noteOn",
		"time": 14208,
		"track": 1
	},
	{
		"deltaTime": 0,
		"channel": 1,
		"type": "channel",
		"noteNumber": 33,
		"velocity": 0,
		"subtype": "noteOff",
		"time": 14272,
		"track": 2
	},
	{
		"deltaTime": 30,
		"channel": 1,
		"type": "channel",
		"noteNumber": 45,
		"velocity": 0,
		"subtype": "noteOff",
		"time": 14272,
		"track": 2
	},
	{
		"deltaTime": 0,
		"channel": 0,
		"type": "channel",
		"noteNumber": 69,
		"velocity": 0,
		"subtype": "noteOff",
		"time": 14302,
		"track": 1
	},
	{
		"deltaTime": 2,
		"channel": 0,
		"type": "channel",
		"noteNumber": 74,
		"velocity": 0,
		"subtype": "noteOff",
		"time": 14302,
		"track": 1
	},
	{
		"deltaTime": 0,
		"channel": 0,
		"type": "channel",
		"noteNumber": 67,
		"velocity": 127,
		"subtype": "noteOn",
		"time": 14304,
		"track": 1
	},
	{
		"deltaTime": 0,
		"channel": 0,
		"type": "channel",
		"noteNumber": 72,
		"velocity": 127,
		"subtype": "noteOn",
		"time": 14304,
		"track": 1
	},
	{
		"deltaTime": 0,
		"channel": 1,
		"type": "channel",
		"noteNumber": 33,
		"velocity": 127,
		"subtype": "noteOn",
		"time": 14304,
		"track": 2
	},
	{
		"deltaTime": 94,
		"channel": 1,
		"type": "channel",
		"noteNumber": 45,
		"velocity": 127,
		"subtype": "noteOn",
		"time": 14304,
		"track": 2
	},
	{
		"deltaTime": 0,
		"channel": 0,
		"type": "channel",
		"noteNumber": 67,
		"velocity": 0,
		"subtype": "noteOff",
		"time": 14398,
		"track": 1
	},
	{
		"deltaTime": 0,
		"channel": 0,
		"type": "channel",
		"noteNumber": 72,
		"velocity": 0,
		"subtype": "noteOff",
		"time": 14398,
		"track": 1
	},
	{
		"deltaTime": 0,
		"channel": 1,
		"type": "channel",
		"noteNumber": 33,
		"velocity": 0,
		"subtype": "noteOff",
		"time": 14398,
		"track": 2
	},
	{
		"deltaTime": 2,
		"channel": 1,
		"type": "channel",
		"noteNumber": 45,
		"velocity": 0,
		"subtype": "noteOff",
		"time": 14398,
		"track": 2
	},
	{
		"deltaTime": 0,
		"channel": 0,
		"type": "channel",
		"subtype": "controller",
		"controllerType": 64,
		"value": 0,
		"time": 14400,
		"track": 1
	},
	{
		"deltaTime": 0,
		"channel": 0,
		"type": "channel",
		"subtype": "controller",
		"controllerType": 64,
		"value": 127,
		"time": 14400,
		"track": 1
	},
	{
		"deltaTime": 0,
		"channel": 0,
		"type": "channel",
		"noteNumber": 69,
		"velocity": 127,
		"subtype": "noteOn",
		"time": 14400,
		"track": 1
	},
	{
		"deltaTime": 0,
		"channel": 0,
		"type": "channel",
		"noteNumber": 72,
		"velocity": 127,
		"subtype": "noteOn",
		"time": 14400,
		"track": 1
	},
	{
		"deltaTime": 0,
		"channel": 1,
		"type": "channel",
		"subtype": "controller",
		"controllerType": 64,
		"value": 0,
		"time": 14400,
		"track": 2
	},
	{
		"deltaTime": 0,
		"channel": 1,
		"type": "channel",
		"subtype": "controller",
		"controllerType": 64,
		"value": 127,
		"time": 14400,
		"track": 2
	},
	{
		"deltaTime": 0,
		"channel": 1,
		"type": "channel",
		"noteNumber": 38,
		"velocity": 127,
		"subtype": "noteOn",
		"time": 14400,
		"track": 2
	},
	{
		"deltaTime": 94,
		"channel": 1,
		"type": "channel",
		"noteNumber": 50,
		"velocity": 127,
		"subtype": "noteOn",
		"time": 14400,
		"track": 2
	},
	{
		"deltaTime": 0,
		"channel": 0,
		"type": "channel",
		"noteNumber": 69,
		"velocity": 0,
		"subtype": "noteOff",
		"time": 14494,
		"track": 1
	},
	{
		"deltaTime": 2,
		"channel": 0,
		"type": "channel",
		"noteNumber": 72,
		"velocity": 0,
		"subtype": "noteOff",
		"time": 14494,
		"track": 1
	},
	{
		"deltaTime": 0,
		"channel": 0,
		"type": "channel",
		"noteNumber": 69,
		"velocity": 127,
		"subtype": "noteOn",
		"time": 14496,
		"track": 1
	},
	{
		"deltaTime": 64,
		"channel": 0,
		"type": "channel",
		"noteNumber": 74,
		"velocity": 127,
		"subtype": "noteOn",
		"time": 14496,
		"track": 1
	},
	{
		"deltaTime": 0,
		"channel": 1,
		"type": "channel",
		"noteNumber": 38,
		"velocity": 0,
		"subtype": "noteOff",
		"time": 14560,
		"track": 2
	},
	{
		"deltaTime": 32,
		"channel": 1,
		"type": "channel",
		"noteNumber": 50,
		"velocity": 0,
		"subtype": "noteOff",
		"time": 14560,
		"track": 2
	},
	{
		"deltaTime": 0,
		"channel": 1,
		"type": "channel",
		"noteNumber": 38,
		"velocity": 127,
		"subtype": "noteOn",
		"time": 14592,
		"track": 2
	},
	{
		"deltaTime": 64,
		"channel": 1,
		"type": "channel",
		"noteNumber": 50,
		"velocity": 127,
		"subtype": "noteOn",
		"time": 14592,
		"track": 2
	},
	{
		"deltaTime": 0,
		"channel": 0,
		"type": "channel",
		"noteNumber": 69,
		"velocity": 0,
		"subtype": "noteOff",
		"time": 14656,
		"track": 1
	},
	{
		"deltaTime": 30,
		"channel": 0,
		"type": "channel",
		"noteNumber": 74,
		"velocity": 0,
		"subtype": "noteOff",
		"time": 14656,
		"track": 1
	},
	{
		"deltaTime": 0,
		"channel": 1,
		"type": "channel",
		"noteNumber": 38,
		"velocity": 0,
		"subtype": "noteOff",
		"time": 14686,
		"track": 2
	},
	{
		"deltaTime": 2,
		"channel": 1,
		"type": "channel",
		"noteNumber": 50,
		"velocity": 0,
		"subtype": "noteOff",
		"time": 14686,
		"track": 2
	},
	{
		"deltaTime": 0,
		"channel": 1,
		"type": "channel",
		"noteNumber": 38,
		"velocity": 127,
		"subtype": "noteOn",
		"time": 14688,
		"track": 2
	},
	{
		"deltaTime": 96,
		"channel": 1,
		"type": "channel",
		"noteNumber": 50,
		"velocity": 127,
		"subtype": "noteOn",
		"time": 14688,
		"track": 2
	},
	{
		"deltaTime": 64,
		"channel": 0,
		"type": "channel",
		"noteNumber": 69,
		"velocity": 127,
		"subtype": "noteOn",
		"time": 14784,
		"track": 1
	},
	{
		"deltaTime": 0,
		"channel": 1,
		"type": "channel",
		"noteNumber": 38,
		"velocity": 0,
		"subtype": "noteOff",
		"time": 14848,
		"track": 2
	},
	{
		"deltaTime": 30,
		"channel": 1,
		"type": "channel",
		"noteNumber": 50,
		"velocity": 0,
		"subtype": "noteOff",
		"time": 14848,
		"track": 2
	},
	{
		"deltaTime": 2,
		"channel": 0,
		"type": "channel",
		"noteNumber": 69,
		"velocity": 0,
		"subtype": "noteOff",
		"time": 14878,
		"track": 1
	},
	{
		"deltaTime": 0,
		"channel": 0,
		"type": "channel",
		"noteNumber": 72,
		"velocity": 127,
		"subtype": "noteOn",
		"time": 14880,
		"track": 1
	},
	{
		"deltaTime": 0,
		"channel": 1,
		"type": "channel",
		"noteNumber": 38,
		"velocity": 127,
		"subtype": "noteOn",
		"time": 14880,
		"track": 2
	},
	{
		"deltaTime": 94,
		"channel": 1,
		"type": "channel",
		"noteNumber": 50,
		"velocity": 127,
		"subtype": "noteOn",
		"time": 14880,
		"track": 2
	},
	{
		"deltaTime": 0,
		"channel": 0,
		"type": "channel",
		"noteNumber": 72,
		"velocity": 0,
		"subtype": "noteOff",
		"time": 14974,
		"track": 1
	},
	{
		"deltaTime": 0,
		"channel": 1,
		"type": "channel",
		"noteNumber": 38,
		"velocity": 0,
		"subtype": "noteOff",
		"time": 14974,
		"track": 2
	},
	{
		"deltaTime": 2,
		"channel": 1,
		"type": "channel",
		"noteNumber": 50,
		"velocity": 0,
		"subtype": "noteOff",
		"time": 14974,
		"track": 2
	},
	{
		"deltaTime": 0,
		"channel": 0,
		"type": "channel",
		"subtype": "controller",
		"controllerType": 64,
		"value": 0,
		"time": 14976,
		"track": 1
	},
	{
		"deltaTime": 0,
		"channel": 0,
		"type": "channel",
		"subtype": "controller",
		"controllerType": 64,
		"value": 127,
		"time": 14976,
		"track": 1
	},
	{
		"deltaTime": 0,
		"channel": 0,
		"type": "channel",
		"noteNumber": 65,
		"velocity": 127,
		"subtype": "noteOn",
		"time": 14976,
		"track": 1
	},
	{
		"deltaTime": 0,
		"channel": 0,
		"type": "channel",
		"noteNumber": 70,
		"velocity": 127,
		"subtype": "noteOn",
		"time": 14976,
		"track": 1
	},
	{
		"deltaTime": 0,
		"channel": 0,
		"type": "channel",
		"noteNumber": 74,
		"velocity": 127,
		"subtype": "noteOn",
		"time": 14976,
		"track": 1
	},
	{
		"deltaTime": 0,
		"channel": 1,
		"type": "channel",
		"subtype": "controller",
		"controllerType": 64,
		"value": 0,
		"time": 14976,
		"track": 2
	},
	{
		"deltaTime": 0,
		"channel": 1,
		"type": "channel",
		"subtype": "controller",
		"controllerType": 64,
		"value": 127,
		"time": 14976,
		"track": 2
	},
	{
		"deltaTime": 0,
		"channel": 1,
		"type": "channel",
		"noteNumber": 34,
		"velocity": 127,
		"subtype": "noteOn",
		"time": 14976,
		"track": 2
	},
	{
		"deltaTime": 160,
		"channel": 1,
		"type": "channel",
		"noteNumber": 46,
		"velocity": 127,
		"subtype": "noteOn",
		"time": 14976,
		"track": 2
	},
	{
		"deltaTime": 0,
		"channel": 0,
		"type": "channel",
		"noteNumber": 65,
		"velocity": 0,
		"subtype": "noteOff",
		"time": 15136,
		"track": 1
	},
	{
		"deltaTime": 0,
		"channel": 0,
		"type": "channel",
		"noteNumber": 70,
		"velocity": 0,
		"subtype": "noteOff",
		"time": 15136,
		"track": 1
	},
	{
		"deltaTime": 0,
		"channel": 0,
		"type": "channel",
		"noteNumber": 74,
		"velocity": 0,
		"subtype": "noteOff",
		"time": 15136,
		"track": 1
	},
	{
		"deltaTime": 0,
		"channel": 1,
		"type": "channel",
		"noteNumber": 34,
		"velocity": 0,
		"subtype": "noteOff",
		"time": 15136,
		"track": 2
	},
	{
		"deltaTime": 32,
		"channel": 1,
		"type": "channel",
		"noteNumber": 46,
		"velocity": 0,
		"subtype": "noteOff",
		"time": 15136,
		"track": 2
	},
	{
		"deltaTime": 0,
		"channel": 0,
		"type": "channel",
		"noteNumber": 65,
		"velocity": 127,
		"subtype": "noteOn",
		"time": 15168,
		"track": 1
	},
	{
		"deltaTime": 0,
		"channel": 0,
		"type": "channel",
		"noteNumber": 70,
		"velocity": 127,
		"subtype": "noteOn",
		"time": 15168,
		"track": 1
	},
	{
		"deltaTime": 0,
		"channel": 0,
		"type": "channel",
		"noteNumber": 74,
		"velocity": 127,
		"subtype": "noteOn",
		"time": 15168,
		"track": 1
	},
	{
		"deltaTime": 0,
		"channel": 1,
		"type": "channel",
		"noteNumber": 34,
		"velocity": 127,
		"subtype": "noteOn",
		"time": 15168,
		"track": 2
	},
	{
		"deltaTime": 94,
		"channel": 1,
		"type": "channel",
		"noteNumber": 46,
		"velocity": 127,
		"subtype": "noteOn",
		"time": 15168,
		"track": 2
	},
	{
		"deltaTime": 0,
		"channel": 1,
		"type": "channel",
		"noteNumber": 34,
		"velocity": 0,
		"subtype": "noteOff",
		"time": 15262,
		"track": 2
	},
	{
		"deltaTime": 2,
		"channel": 1,
		"type": "channel",
		"noteNumber": 46,
		"velocity": 0,
		"subtype": "noteOff",
		"time": 15262,
		"track": 2
	},
	{
		"deltaTime": 0,
		"channel": 1,
		"type": "channel",
		"noteNumber": 34,
		"velocity": 127,
		"subtype": "noteOn",
		"time": 15264,
		"track": 2
	},
	{
		"deltaTime": 64,
		"channel": 1,
		"type": "channel",
		"noteNumber": 46,
		"velocity": 127,
		"subtype": "noteOn",
		"time": 15264,
		"track": 2
	},
	{
		"deltaTime": 0,
		"channel": 0,
		"type": "channel",
		"noteNumber": 65,
		"velocity": 0,
		"subtype": "noteOff",
		"time": 15328,
		"track": 1
	},
	{
		"deltaTime": 0,
		"channel": 0,
		"type": "channel",
		"noteNumber": 70,
		"velocity": 0,
		"subtype": "noteOff",
		"time": 15328,
		"track": 1
	},
	{
		"deltaTime": 32,
		"channel": 0,
		"type": "channel",
		"noteNumber": 74,
		"velocity": 0,
		"subtype": "noteOff",
		"time": 15328,
		"track": 1
	},
	{
		"deltaTime": 0,
		"channel": 0,
		"type": "channel",
		"noteNumber": 70,
		"velocity": 127,
		"subtype": "noteOn",
		"time": 15360,
		"track": 1
	},
	{
		"deltaTime": 64,
		"channel": 0,
		"type": "channel",
		"noteNumber": 74,
		"velocity": 127,
		"subtype": "noteOn",
		"time": 15360,
		"track": 1
	},
	{
		"deltaTime": 0,
		"channel": 1,
		"type": "channel",
		"noteNumber": 34,
		"velocity": 0,
		"subtype": "noteOff",
		"time": 15424,
		"track": 2
	},
	{
		"deltaTime": 30,
		"channel": 1,
		"type": "channel",
		"noteNumber": 46,
		"velocity": 0,
		"subtype": "noteOff",
		"time": 15424,
		"track": 2
	},
	{
		"deltaTime": 0,
		"channel": 0,
		"type": "channel",
		"noteNumber": 70,
		"velocity": 0,
		"subtype": "noteOff",
		"time": 15454,
		"track": 1
	},
	{
		"deltaTime": 2,
		"channel": 0,
		"type": "channel",
		"noteNumber": 74,
		"velocity": 0,
		"subtype": "noteOff",
		"time": 15454,
		"track": 1
	},
	{
		"deltaTime": 0,
		"channel": 0,
		"type": "channel",
		"noteNumber": 70,
		"velocity": 127,
		"subtype": "noteOn",
		"time": 15456,
		"track": 1
	},
	{
		"deltaTime": 0,
		"channel": 0,
		"type": "channel",
		"noteNumber": 76,
		"velocity": 127,
		"subtype": "noteOn",
		"time": 15456,
		"track": 1
	},
	{
		"deltaTime": 0,
		"channel": 1,
		"type": "channel",
		"noteNumber": 34,
		"velocity": 127,
		"subtype": "noteOn",
		"time": 15456,
		"track": 2
	},
	{
		"deltaTime": 94,
		"channel": 1,
		"type": "channel",
		"noteNumber": 46,
		"velocity": 127,
		"subtype": "noteOn",
		"time": 15456,
		"track": 2
	},
	{
		"deltaTime": 0,
		"channel": 0,
		"type": "channel",
		"noteNumber": 70,
		"velocity": 0,
		"subtype": "noteOff",
		"time": 15550,
		"track": 1
	},
	{
		"deltaTime": 0,
		"channel": 0,
		"type": "channel",
		"noteNumber": 76,
		"velocity": 0,
		"subtype": "noteOff",
		"time": 15550,
		"track": 1
	},
	{
		"deltaTime": 0,
		"channel": 1,
		"type": "channel",
		"noteNumber": 34,
		"velocity": 0,
		"subtype": "noteOff",
		"time": 15550,
		"track": 2
	},
	{
		"deltaTime": 2,
		"channel": 1,
		"type": "channel",
		"noteNumber": 46,
		"velocity": 0,
		"subtype": "noteOff",
		"time": 15550,
		"track": 2
	},
	{
		"deltaTime": 0,
		"channel": 0,
		"type": "channel",
		"subtype": "controller",
		"controllerType": 64,
		"value": 0,
		"time": 15552,
		"track": 1
	},
	{
		"deltaTime": 0,
		"channel": 0,
		"type": "channel",
		"subtype": "controller",
		"controllerType": 64,
		"value": 127,
		"time": 15552,
		"track": 1
	},
	{
		"deltaTime": 0,
		"channel": 0,
		"type": "channel",
		"noteNumber": 69,
		"velocity": 127,
		"subtype": "noteOn",
		"time": 15552,
		"track": 1
	},
	{
		"deltaTime": 0,
		"channel": 0,
		"type": "channel",
		"noteNumber": 72,
		"velocity": 127,
		"subtype": "noteOn",
		"time": 15552,
		"track": 1
	},
	{
		"deltaTime": 0,
		"channel": 0,
		"type": "channel",
		"noteNumber": 77,
		"velocity": 127,
		"subtype": "noteOn",
		"time": 15552,
		"track": 1
	},
	{
		"deltaTime": 0,
		"channel": 1,
		"type": "channel",
		"subtype": "controller",
		"controllerType": 64,
		"value": 0,
		"time": 15552,
		"track": 2
	},
	{
		"deltaTime": 0,
		"channel": 1,
		"type": "channel",
		"subtype": "controller",
		"controllerType": 64,
		"value": 127,
		"time": 15552,
		"track": 2
	},
	{
		"deltaTime": 0,
		"channel": 1,
		"type": "channel",
		"noteNumber": 29,
		"velocity": 127,
		"subtype": "noteOn",
		"time": 15552,
		"track": 2
	},
	{
		"deltaTime": 160,
		"channel": 1,
		"type": "channel",
		"noteNumber": 41,
		"velocity": 127,
		"subtype": "noteOn",
		"time": 15552,
		"track": 2
	},
	{
		"deltaTime": 0,
		"channel": 0,
		"type": "channel",
		"noteNumber": 69,
		"velocity": 0,
		"subtype": "noteOff",
		"time": 15712,
		"track": 1
	},
	{
		"deltaTime": 0,
		"channel": 0,
		"type": "channel",
		"noteNumber": 72,
		"velocity": 0,
		"subtype": "noteOff",
		"time": 15712,
		"track": 1
	},
	{
		"deltaTime": 0,
		"channel": 0,
		"type": "channel",
		"noteNumber": 77,
		"velocity": 0,
		"subtype": "noteOff",
		"time": 15712,
		"track": 1
	},
	{
		"deltaTime": 0,
		"channel": 1,
		"type": "channel",
		"noteNumber": 29,
		"velocity": 0,
		"subtype": "noteOff",
		"time": 15712,
		"track": 2
	},
	{
		"deltaTime": 32,
		"channel": 1,
		"type": "channel",
		"noteNumber": 41,
		"velocity": 0,
		"subtype": "noteOff",
		"time": 15712,
		"track": 2
	},
	{
		"deltaTime": 0,
		"channel": 0,
		"type": "channel",
		"noteNumber": 69,
		"velocity": 127,
		"subtype": "noteOn",
		"time": 15744,
		"track": 1
	},
	{
		"deltaTime": 0,
		"channel": 0,
		"type": "channel",
		"noteNumber": 72,
		"velocity": 127,
		"subtype": "noteOn",
		"time": 15744,
		"track": 1
	},
	{
		"deltaTime": 0,
		"channel": 0,
		"type": "channel",
		"noteNumber": 77,
		"velocity": 127,
		"subtype": "noteOn",
		"time": 15744,
		"track": 1
	},
	{
		"deltaTime": 0,
		"channel": 1,
		"type": "channel",
		"noteNumber": 29,
		"velocity": 127,
		"subtype": "noteOn",
		"time": 15744,
		"track": 2
	},
	{
		"deltaTime": 94,
		"channel": 1,
		"type": "channel",
		"noteNumber": 41,
		"velocity": 127,
		"subtype": "noteOn",
		"time": 15744,
		"track": 2
	},
	{
		"deltaTime": 0,
		"channel": 1,
		"type": "channel",
		"noteNumber": 29,
		"velocity": 0,
		"subtype": "noteOff",
		"time": 15838,
		"track": 2
	},
	{
		"deltaTime": 2,
		"channel": 1,
		"type": "channel",
		"noteNumber": 41,
		"velocity": 0,
		"subtype": "noteOff",
		"time": 15838,
		"track": 2
	},
	{
		"deltaTime": 0,
		"channel": 1,
		"type": "channel",
		"noteNumber": 29,
		"velocity": 127,
		"subtype": "noteOn",
		"time": 15840,
		"track": 2
	},
	{
		"deltaTime": 64,
		"channel": 1,
		"type": "channel",
		"noteNumber": 41,
		"velocity": 127,
		"subtype": "noteOn",
		"time": 15840,
		"track": 2
	},
	{
		"deltaTime": 0,
		"channel": 0,
		"type": "channel",
		"noteNumber": 69,
		"velocity": 0,
		"subtype": "noteOff",
		"time": 15904,
		"track": 1
	},
	{
		"deltaTime": 0,
		"channel": 0,
		"type": "channel",
		"noteNumber": 72,
		"velocity": 0,
		"subtype": "noteOff",
		"time": 15904,
		"track": 1
	},
	{
		"deltaTime": 32,
		"channel": 0,
		"type": "channel",
		"noteNumber": 77,
		"velocity": 0,
		"subtype": "noteOff",
		"time": 15904,
		"track": 1
	},
	{
		"deltaTime": 0,
		"channel": 0,
		"type": "channel",
		"noteNumber": 72,
		"velocity": 127,
		"subtype": "noteOn",
		"time": 15936,
		"track": 1
	},
	{
		"deltaTime": 64,
		"channel": 0,
		"type": "channel",
		"noteNumber": 77,
		"velocity": 127,
		"subtype": "noteOn",
		"time": 15936,
		"track": 1
	},
	{
		"deltaTime": 0,
		"channel": 1,
		"type": "channel",
		"noteNumber": 29,
		"velocity": 0,
		"subtype": "noteOff",
		"time": 16000,
		"track": 2
	},
	{
		"deltaTime": 30,
		"channel": 1,
		"type": "channel",
		"noteNumber": 41,
		"velocity": 0,
		"subtype": "noteOff",
		"time": 16000,
		"track": 2
	},
	{
		"deltaTime": 0,
		"channel": 0,
		"type": "channel",
		"noteNumber": 72,
		"velocity": 0,
		"subtype": "noteOff",
		"time": 16030,
		"track": 1
	},
	{
		"deltaTime": 2,
		"channel": 0,
		"type": "channel",
		"noteNumber": 77,
		"velocity": 0,
		"subtype": "noteOff",
		"time": 16030,
		"track": 1
	},
	{
		"deltaTime": 0,
		"channel": 0,
		"type": "channel",
		"noteNumber": 72,
		"velocity": 127,
		"subtype": "noteOn",
		"time": 16032,
		"track": 1
	},
	{
		"deltaTime": 0,
		"channel": 0,
		"type": "channel",
		"noteNumber": 79,
		"velocity": 127,
		"subtype": "noteOn",
		"time": 16032,
		"track": 1
	},
	{
		"deltaTime": 0,
		"channel": 1,
		"type": "channel",
		"noteNumber": 29,
		"velocity": 127,
		"subtype": "noteOn",
		"time": 16032,
		"track": 2
	},
	{
		"deltaTime": 94,
		"channel": 1,
		"type": "channel",
		"noteNumber": 41,
		"velocity": 127,
		"subtype": "noteOn",
		"time": 16032,
		"track": 2
	},
	{
		"deltaTime": 0,
		"channel": 0,
		"type": "channel",
		"noteNumber": 72,
		"velocity": 0,
		"subtype": "noteOff",
		"time": 16126,
		"track": 1
	},
	{
		"deltaTime": 0,
		"channel": 0,
		"type": "channel",
		"noteNumber": 79,
		"velocity": 0,
		"subtype": "noteOff",
		"time": 16126,
		"track": 1
	},
	{
		"deltaTime": 0,
		"channel": 1,
		"type": "channel",
		"noteNumber": 29,
		"velocity": 0,
		"subtype": "noteOff",
		"time": 16126,
		"track": 2
	},
	{
		"deltaTime": 2,
		"channel": 1,
		"type": "channel",
		"noteNumber": 41,
		"velocity": 0,
		"subtype": "noteOff",
		"time": 16126,
		"track": 2
	},
	{
		"deltaTime": 0,
		"channel": 0,
		"type": "channel",
		"subtype": "controller",
		"controllerType": 64,
		"value": 0,
		"time": 16128,
		"track": 1
	},
	{
		"deltaTime": 0,
		"channel": 0,
		"type": "channel",
		"subtype": "controller",
		"controllerType": 64,
		"value": 127,
		"time": 16128,
		"track": 1
	},
	{
		"deltaTime": 0,
		"channel": 0,
		"type": "channel",
		"noteNumber": 72,
		"velocity": 127,
		"subtype": "noteOn",
		"time": 16128,
		"track": 1
	},
	{
		"deltaTime": 0,
		"channel": 0,
		"type": "channel",
		"noteNumber": 76,
		"velocity": 127,
		"subtype": "noteOn",
		"time": 16128,
		"track": 1
	},
	{
		"deltaTime": 0,
		"channel": 1,
		"type": "channel",
		"subtype": "controller",
		"controllerType": 64,
		"value": 0,
		"time": 16128,
		"track": 2
	},
	{
		"deltaTime": 0,
		"channel": 1,
		"type": "channel",
		"subtype": "controller",
		"controllerType": 64,
		"value": 127,
		"time": 16128,
		"track": 2
	},
	{
		"deltaTime": 0,
		"channel": 1,
		"type": "channel",
		"noteNumber": 36,
		"velocity": 127,
		"subtype": "noteOn",
		"time": 16128,
		"track": 2
	},
	{
		"deltaTime": 160,
		"channel": 1,
		"type": "channel",
		"noteNumber": 48,
		"velocity": 127,
		"subtype": "noteOn",
		"time": 16128,
		"track": 2
	},
	{
		"deltaTime": 0,
		"channel": 0,
		"type": "channel",
		"noteNumber": 72,
		"velocity": 0,
		"subtype": "noteOff",
		"time": 16288,
		"track": 1
	},
	{
		"deltaTime": 0,
		"channel": 0,
		"type": "channel",
		"noteNumber": 76,
		"velocity": 0,
		"subtype": "noteOff",
		"time": 16288,
		"track": 1
	},
	{
		"deltaTime": 0,
		"channel": 1,
		"type": "channel",
		"noteNumber": 36,
		"velocity": 0,
		"subtype": "noteOff",
		"time": 16288,
		"track": 2
	},
	{
		"deltaTime": 32,
		"channel": 1,
		"type": "channel",
		"noteNumber": 48,
		"velocity": 0,
		"subtype": "noteOff",
		"time": 16288,
		"track": 2
	},
	{
		"deltaTime": 0,
		"channel": 0,
		"type": "channel",
		"noteNumber": 72,
		"velocity": 127,
		"subtype": "noteOn",
		"time": 16320,
		"track": 1
	},
	{
		"deltaTime": 0,
		"channel": 0,
		"type": "channel",
		"noteNumber": 76,
		"velocity": 127,
		"subtype": "noteOn",
		"time": 16320,
		"track": 1
	},
	{
		"deltaTime": 0,
		"channel": 1,
		"type": "channel",
		"noteNumber": 36,
		"velocity": 127,
		"subtype": "noteOn",
		"time": 16320,
		"track": 2
	},
	{
		"deltaTime": 94,
		"channel": 1,
		"type": "channel",
		"noteNumber": 48,
		"velocity": 127,
		"subtype": "noteOn",
		"time": 16320,
		"track": 2
	},
	{
		"deltaTime": 0,
		"channel": 1,
		"type": "channel",
		"noteNumber": 36,
		"velocity": 0,
		"subtype": "noteOff",
		"time": 16414,
		"track": 2
	},
	{
		"deltaTime": 2,
		"channel": 1,
		"type": "channel",
		"noteNumber": 48,
		"velocity": 0,
		"subtype": "noteOff",
		"time": 16414,
		"track": 2
	},
	{
		"deltaTime": 0,
		"channel": 1,
		"type": "channel",
		"subtype": "controller",
		"controllerType": 64,
		"value": 0,
		"time": 16416,
		"track": 2
	},
	{
		"deltaTime": 0,
		"channel": 1,
		"type": "channel",
		"subtype": "controller",
		"controllerType": 64,
		"value": 127,
		"time": 16416,
		"track": 2
	},
	{
		"deltaTime": 0,
		"channel": 1,
		"type": "channel",
		"noteNumber": 33,
		"velocity": 127,
		"subtype": "noteOn",
		"time": 16416,
		"track": 2
	},
	{
		"deltaTime": 64,
		"channel": 1,
		"type": "channel",
		"noteNumber": 45,
		"velocity": 127,
		"subtype": "noteOn",
		"time": 16416,
		"track": 2
	},
	{
		"deltaTime": 0,
		"channel": 0,
		"type": "channel",
		"noteNumber": 72,
		"velocity": 0,
		"subtype": "noteOff",
		"time": 16480,
		"track": 1
	},
	{
		"deltaTime": 32,
		"channel": 0,
		"type": "channel",
		"noteNumber": 76,
		"velocity": 0,
		"subtype": "noteOff",
		"time": 16480,
		"track": 1
	},
	{
		"deltaTime": 0,
		"channel": 0,
		"type": "channel",
		"noteNumber": 69,
		"velocity": 127,
		"subtype": "noteOn",
		"time": 16512,
		"track": 1
	},
	{
		"deltaTime": 64,
		"channel": 0,
		"type": "channel",
		"noteNumber": 74,
		"velocity": 127,
		"subtype": "noteOn",
		"time": 16512,
		"track": 1
	},
	{
		"deltaTime": 0,
		"channel": 1,
		"type": "channel",
		"noteNumber": 33,
		"velocity": 0,
		"subtype": "noteOff",
		"time": 16576,
		"track": 2
	},
	{
		"deltaTime": 30,
		"channel": 1,
		"type": "channel",
		"noteNumber": 45,
		"velocity": 0,
		"subtype": "noteOff",
		"time": 16576,
		"track": 2
	},
	{
		"deltaTime": 0,
		"channel": 0,
		"type": "channel",
		"noteNumber": 69,
		"velocity": 0,
		"subtype": "noteOff",
		"time": 16606,
		"track": 1
	},
	{
		"deltaTime": 2,
		"channel": 0,
		"type": "channel",
		"noteNumber": 74,
		"velocity": 0,
		"subtype": "noteOff",
		"time": 16606,
		"track": 1
	},
	{
		"deltaTime": 0,
		"channel": 0,
		"type": "channel",
		"noteNumber": 72,
		"velocity": 127,
		"subtype": "noteOn",
		"time": 16608,
		"track": 1
	},
	{
		"deltaTime": 0,
		"channel": 1,
		"type": "channel",
		"noteNumber": 33,
		"velocity": 127,
		"subtype": "noteOn",
		"time": 16608,
		"track": 2
	},
	{
		"deltaTime": 94,
		"channel": 1,
		"type": "channel",
		"noteNumber": 45,
		"velocity": 127,
		"subtype": "noteOn",
		"time": 16608,
		"track": 2
	},
	{
		"deltaTime": 0,
		"channel": 0,
		"type": "channel",
		"noteNumber": 72,
		"velocity": 0,
		"subtype": "noteOff",
		"time": 16702,
		"track": 1
	},
	{
		"deltaTime": 0,
		"channel": 1,
		"type": "channel",
		"noteNumber": 33,
		"velocity": 0,
		"subtype": "noteOff",
		"time": 16702,
		"track": 2
	},
	{
		"deltaTime": 2,
		"channel": 1,
		"type": "channel",
		"noteNumber": 45,
		"velocity": 0,
		"subtype": "noteOff",
		"time": 16702,
		"track": 2
	},
	{
		"deltaTime": 0,
		"channel": 0,
		"type": "channel",
		"subtype": "controller",
		"controllerType": 64,
		"value": 0,
		"time": 16704,
		"track": 1
	},
	{
		"deltaTime": 0,
		"channel": 0,
		"type": "channel",
		"subtype": "controller",
		"controllerType": 64,
		"value": 127,
		"time": 16704,
		"track": 1
	},
	{
		"deltaTime": 0,
		"channel": 0,
		"type": "channel",
		"noteNumber": 65,
		"velocity": 127,
		"subtype": "noteOn",
		"time": 16704,
		"track": 1
	},
	{
		"deltaTime": 0,
		"channel": 0,
		"type": "channel",
		"noteNumber": 69,
		"velocity": 127,
		"subtype": "noteOn",
		"time": 16704,
		"track": 1
	},
	{
		"deltaTime": 0,
		"channel": 0,
		"type": "channel",
		"noteNumber": 74,
		"velocity": 127,
		"subtype": "noteOn",
		"time": 16704,
		"track": 1
	},
	{
		"deltaTime": 0,
		"channel": 1,
		"type": "channel",
		"subtype": "controller",
		"controllerType": 64,
		"value": 0,
		"time": 16704,
		"track": 2
	},
	{
		"deltaTime": 0,
		"channel": 1,
		"type": "channel",
		"subtype": "controller",
		"controllerType": 64,
		"value": 127,
		"time": 16704,
		"track": 2
	},
	{
		"deltaTime": 0,
		"channel": 1,
		"type": "channel",
		"noteNumber": 38,
		"velocity": 127,
		"subtype": "noteOn",
		"time": 16704,
		"track": 2
	},
	{
		"deltaTime": 160,
		"channel": 1,
		"type": "channel",
		"noteNumber": 50,
		"velocity": 127,
		"subtype": "noteOn",
		"time": 16704,
		"track": 2
	},
	{
		"deltaTime": 0,
		"channel": 0,
		"type": "channel",
		"noteNumber": 65,
		"velocity": 0,
		"subtype": "noteOff",
		"time": 16864,
		"track": 1
	},
	{
		"deltaTime": 0,
		"channel": 0,
		"type": "channel",
		"noteNumber": 69,
		"velocity": 0,
		"subtype": "noteOff",
		"time": 16864,
		"track": 1
	},
	{
		"deltaTime": 0,
		"channel": 0,
		"type": "channel",
		"noteNumber": 74,
		"velocity": 0,
		"subtype": "noteOff",
		"time": 16864,
		"track": 1
	},
	{
		"deltaTime": 0,
		"channel": 1,
		"type": "channel",
		"noteNumber": 38,
		"velocity": 0,
		"subtype": "noteOff",
		"time": 16864,
		"track": 2
	},
	{
		"deltaTime": 32,
		"channel": 1,
		"type": "channel",
		"noteNumber": 50,
		"velocity": 0,
		"subtype": "noteOff",
		"time": 16864,
		"track": 2
	},
	{
		"deltaTime": 0,
		"channel": 1,
		"type": "channel",
		"noteNumber": 38,
		"velocity": 127,
		"subtype": "noteOn",
		"time": 16896,
		"track": 2
	},
	{
		"deltaTime": 94,
		"channel": 1,
		"type": "channel",
		"noteNumber": 50,
		"velocity": 127,
		"subtype": "noteOn",
		"time": 16896,
		"track": 2
	},
	{
		"deltaTime": 0,
		"channel": 1,
		"type": "channel",
		"noteNumber": 38,
		"velocity": 0,
		"subtype": "noteOff",
		"time": 16990,
		"track": 2
	},
	{
		"deltaTime": 2,
		"channel": 1,
		"type": "channel",
		"noteNumber": 50,
		"velocity": 0,
		"subtype": "noteOff",
		"time": 16990,
		"track": 2
	},
	{
		"deltaTime": 0,
		"channel": 1,
		"type": "channel",
		"noteNumber": 38,
		"velocity": 127,
		"subtype": "noteOn",
		"time": 16992,
		"track": 2
	},
	{
		"deltaTime": 96,
		"channel": 1,
		"type": "channel",
		"noteNumber": 50,
		"velocity": 127,
		"subtype": "noteOn",
		"time": 16992,
		"track": 2
	},
	{
		"deltaTime": 64,
		"channel": 0,
		"type": "channel",
		"noteNumber": 69,
		"velocity": 127,
		"subtype": "noteOn",
		"time": 17088,
		"track": 1
	},
	{
		"deltaTime": 0,
		"channel": 1,
		"type": "channel",
		"noteNumber": 38,
		"velocity": 0,
		"subtype": "noteOff",
		"time": 17152,
		"track": 2
	},
	{
		"deltaTime": 30,
		"channel": 1,
		"type": "channel",
		"noteNumber": 50,
		"velocity": 0,
		"subtype": "noteOff",
		"time": 17152,
		"track": 2
	},
	{
		"deltaTime": 2,
		"channel": 0,
		"type": "channel",
		"noteNumber": 69,
		"velocity": 0,
		"subtype": "noteOff",
		"time": 17182,
		"track": 1
	},
	{
		"deltaTime": 0,
		"channel": 0,
		"type": "channel",
		"noteNumber": 72,
		"velocity": 127,
		"subtype": "noteOn",
		"time": 17184,
		"track": 1
	},
	{
		"deltaTime": 0,
		"channel": 1,
		"type": "channel",
		"noteNumber": 38,
		"velocity": 127,
		"subtype": "noteOn",
		"time": 17184,
		"track": 2
	},
	{
		"deltaTime": 94,
		"channel": 1,
		"type": "channel",
		"noteNumber": 50,
		"velocity": 127,
		"subtype": "noteOn",
		"time": 17184,
		"track": 2
	},
	{
		"deltaTime": 0,
		"channel": 0,
		"type": "channel",
		"noteNumber": 72,
		"velocity": 0,
		"subtype": "noteOff",
		"time": 17278,
		"track": 1
	},
	{
		"deltaTime": 0,
		"channel": 1,
		"type": "channel",
		"noteNumber": 38,
		"velocity": 0,
		"subtype": "noteOff",
		"time": 17278,
		"track": 2
	},
	{
		"deltaTime": 2,
		"channel": 1,
		"type": "channel",
		"noteNumber": 50,
		"velocity": 0,
		"subtype": "noteOff",
		"time": 17278,
		"track": 2
	},
	{
		"deltaTime": 0,
		"channel": 0,
		"type": "channel",
		"subtype": "controller",
		"controllerType": 64,
		"value": 0,
		"time": 17280,
		"track": 1
	},
	{
		"deltaTime": 0,
		"channel": 0,
		"type": "channel",
		"subtype": "controller",
		"controllerType": 64,
		"value": 127,
		"time": 17280,
		"track": 1
	},
	{
		"deltaTime": 0,
		"channel": 0,
		"type": "channel",
		"noteNumber": 65,
		"velocity": 127,
		"subtype": "noteOn",
		"time": 17280,
		"track": 1
	},
	{
		"deltaTime": 0,
		"channel": 0,
		"type": "channel",
		"noteNumber": 69,
		"velocity": 127,
		"subtype": "noteOn",
		"time": 17280,
		"track": 1
	},
	{
		"deltaTime": 0,
		"channel": 0,
		"type": "channel",
		"noteNumber": 74,
		"velocity": 127,
		"subtype": "noteOn",
		"time": 17280,
		"track": 1
	},
	{
		"deltaTime": 0,
		"channel": 1,
		"type": "channel",
		"subtype": "controller",
		"controllerType": 64,
		"value": 0,
		"time": 17280,
		"track": 2
	},
	{
		"deltaTime": 0,
		"channel": 1,
		"type": "channel",
		"subtype": "controller",
		"controllerType": 64,
		"value": 127,
		"time": 17280,
		"track": 2
	},
	{
		"deltaTime": 0,
		"channel": 1,
		"type": "channel",
		"noteNumber": 38,
		"velocity": 127,
		"subtype": "noteOn",
		"time": 17280,
		"track": 2
	},
	{
		"deltaTime": 160,
		"channel": 1,
		"type": "channel",
		"noteNumber": 50,
		"velocity": 127,
		"subtype": "noteOn",
		"time": 17280,
		"track": 2
	},
	{
		"deltaTime": 0,
		"channel": 0,
		"type": "channel",
		"noteNumber": 65,
		"velocity": 0,
		"subtype": "noteOff",
		"time": 17440,
		"track": 1
	},
	{
		"deltaTime": 0,
		"channel": 0,
		"type": "channel",
		"noteNumber": 69,
		"velocity": 0,
		"subtype": "noteOff",
		"time": 17440,
		"track": 1
	},
	{
		"deltaTime": 0,
		"channel": 0,
		"type": "channel",
		"noteNumber": 74,
		"velocity": 0,
		"subtype": "noteOff",
		"time": 17440,
		"track": 1
	},
	{
		"deltaTime": 0,
		"channel": 1,
		"type": "channel",
		"noteNumber": 38,
		"velocity": 0,
		"subtype": "noteOff",
		"time": 17440,
		"track": 2
	},
	{
		"deltaTime": 32,
		"channel": 1,
		"type": "channel",
		"noteNumber": 50,
		"velocity": 0,
		"subtype": "noteOff",
		"time": 17440,
		"track": 2
	},
	{
		"deltaTime": 0,
		"channel": 0,
		"type": "channel",
		"noteNumber": 65,
		"velocity": 127,
		"subtype": "noteOn",
		"time": 17472,
		"track": 1
	},
	{
		"deltaTime": 0,
		"channel": 0,
		"type": "channel",
		"noteNumber": 69,
		"velocity": 127,
		"subtype": "noteOn",
		"time": 17472,
		"track": 1
	},
	{
		"deltaTime": 0,
		"channel": 0,
		"type": "channel",
		"noteNumber": 74,
		"velocity": 127,
		"subtype": "noteOn",
		"time": 17472,
		"track": 1
	},
	{
		"deltaTime": 0,
		"channel": 1,
		"type": "channel",
		"noteNumber": 38,
		"velocity": 127,
		"subtype": "noteOn",
		"time": 17472,
		"track": 2
	},
	{
		"deltaTime": 94,
		"channel": 1,
		"type": "channel",
		"noteNumber": 50,
		"velocity": 127,
		"subtype": "noteOn",
		"time": 17472,
		"track": 2
	},
	{
		"deltaTime": 0,
		"channel": 1,
		"type": "channel",
		"noteNumber": 38,
		"velocity": 0,
		"subtype": "noteOff",
		"time": 17566,
		"track": 2
	},
	{
		"deltaTime": 2,
		"channel": 1,
		"type": "channel",
		"noteNumber": 50,
		"velocity": 0,
		"subtype": "noteOff",
		"time": 17566,
		"track": 2
	},
	{
		"deltaTime": 0,
		"channel": 1,
		"type": "channel",
		"noteNumber": 38,
		"velocity": 127,
		"subtype": "noteOn",
		"time": 17568,
		"track": 2
	},
	{
		"deltaTime": 64,
		"channel": 1,
		"type": "channel",
		"noteNumber": 50,
		"velocity": 127,
		"subtype": "noteOn",
		"time": 17568,
		"track": 2
	},
	{
		"deltaTime": 0,
		"channel": 0,
		"type": "channel",
		"noteNumber": 65,
		"velocity": 0,
		"subtype": "noteOff",
		"time": 17632,
		"track": 1
	},
	{
		"deltaTime": 0,
		"channel": 0,
		"type": "channel",
		"noteNumber": 69,
		"velocity": 0,
		"subtype": "noteOff",
		"time": 17632,
		"track": 1
	},
	{
		"deltaTime": 32,
		"channel": 0,
		"type": "channel",
		"noteNumber": 74,
		"velocity": 0,
		"subtype": "noteOff",
		"time": 17632,
		"track": 1
	},
	{
		"deltaTime": 0,
		"channel": 0,
		"type": "channel",
		"noteNumber": 69,
		"velocity": 127,
		"subtype": "noteOn",
		"time": 17664,
		"track": 1
	},
	{
		"deltaTime": 64,
		"channel": 0,
		"type": "channel",
		"noteNumber": 74,
		"velocity": 127,
		"subtype": "noteOn",
		"time": 17664,
		"track": 1
	},
	{
		"deltaTime": 0,
		"channel": 1,
		"type": "channel",
		"noteNumber": 38,
		"velocity": 0,
		"subtype": "noteOff",
		"time": 17728,
		"track": 2
	},
	{
		"deltaTime": 30,
		"channel": 1,
		"type": "channel",
		"noteNumber": 50,
		"velocity": 0,
		"subtype": "noteOff",
		"time": 17728,
		"track": 2
	},
	{
		"deltaTime": 0,
		"channel": 0,
		"type": "channel",
		"noteNumber": 69,
		"velocity": 0,
		"subtype": "noteOff",
		"time": 17758,
		"track": 1
	},
	{
		"deltaTime": 2,
		"channel": 0,
		"type": "channel",
		"noteNumber": 74,
		"velocity": 0,
		"subtype": "noteOff",
		"time": 17758,
		"track": 1
	},
	{
		"deltaTime": 0,
		"channel": 0,
		"type": "channel",
		"noteNumber": 69,
		"velocity": 127,
		"subtype": "noteOn",
		"time": 17760,
		"track": 1
	},
	{
		"deltaTime": 0,
		"channel": 0,
		"type": "channel",
		"noteNumber": 77,
		"velocity": 127,
		"subtype": "noteOn",
		"time": 17760,
		"track": 1
	},
	{
		"deltaTime": 0,
		"channel": 1,
		"type": "channel",
		"noteNumber": 38,
		"velocity": 127,
		"subtype": "noteOn",
		"time": 17760,
		"track": 2
	},
	{
		"deltaTime": 94,
		"channel": 1,
		"type": "channel",
		"noteNumber": 50,
		"velocity": 127,
		"subtype": "noteOn",
		"time": 17760,
		"track": 2
	},
	{
		"deltaTime": 0,
		"channel": 0,
		"type": "channel",
		"noteNumber": 69,
		"velocity": 0,
		"subtype": "noteOff",
		"time": 17854,
		"track": 1
	},
	{
		"deltaTime": 0,
		"channel": 0,
		"type": "channel",
		"noteNumber": 77,
		"velocity": 0,
		"subtype": "noteOff",
		"time": 17854,
		"track": 1
	},
	{
		"deltaTime": 0,
		"channel": 1,
		"type": "channel",
		"noteNumber": 38,
		"velocity": 0,
		"subtype": "noteOff",
		"time": 17854,
		"track": 2
	},
	{
		"deltaTime": 2,
		"channel": 1,
		"type": "channel",
		"noteNumber": 50,
		"velocity": 0,
		"subtype": "noteOff",
		"time": 17854,
		"track": 2
	},
	{
		"deltaTime": 0,
		"channel": 0,
		"type": "channel",
		"subtype": "controller",
		"controllerType": 64,
		"value": 0,
		"time": 17856,
		"track": 1
	},
	{
		"deltaTime": 0,
		"channel": 0,
		"type": "channel",
		"subtype": "controller",
		"controllerType": 64,
		"value": 127,
		"time": 17856,
		"track": 1
	},
	{
		"deltaTime": 0,
		"channel": 0,
		"type": "channel",
		"noteNumber": 70,
		"velocity": 127,
		"subtype": "noteOn",
		"time": 17856,
		"track": 1
	},
	{
		"deltaTime": 0,
		"channel": 0,
		"type": "channel",
		"noteNumber": 74,
		"velocity": 127,
		"subtype": "noteOn",
		"time": 17856,
		"track": 1
	},
	{
		"deltaTime": 0,
		"channel": 0,
		"type": "channel",
		"noteNumber": 79,
		"velocity": 127,
		"subtype": "noteOn",
		"time": 17856,
		"track": 1
	},
	{
		"deltaTime": 0,
		"channel": 1,
		"type": "channel",
		"subtype": "controller",
		"controllerType": 64,
		"value": 0,
		"time": 17856,
		"track": 2
	},
	{
		"deltaTime": 0,
		"channel": 1,
		"type": "channel",
		"subtype": "controller",
		"controllerType": 64,
		"value": 127,
		"time": 17856,
		"track": 2
	},
	{
		"deltaTime": 0,
		"channel": 1,
		"type": "channel",
		"noteNumber": 34,
		"velocity": 127,
		"subtype": "noteOn",
		"time": 17856,
		"track": 2
	},
	{
		"deltaTime": 160,
		"channel": 1,
		"type": "channel",
		"noteNumber": 46,
		"velocity": 127,
		"subtype": "noteOn",
		"time": 17856,
		"track": 2
	},
	{
		"deltaTime": 0,
		"channel": 0,
		"type": "channel",
		"noteNumber": 70,
		"velocity": 0,
		"subtype": "noteOff",
		"time": 18016,
		"track": 1
	},
	{
		"deltaTime": 0,
		"channel": 0,
		"type": "channel",
		"noteNumber": 74,
		"velocity": 0,
		"subtype": "noteOff",
		"time": 18016,
		"track": 1
	},
	{
		"deltaTime": 0,
		"channel": 0,
		"type": "channel",
		"noteNumber": 79,
		"velocity": 0,
		"subtype": "noteOff",
		"time": 18016,
		"track": 1
	},
	{
		"deltaTime": 0,
		"channel": 1,
		"type": "channel",
		"noteNumber": 34,
		"velocity": 0,
		"subtype": "noteOff",
		"time": 18016,
		"track": 2
	},
	{
		"deltaTime": 32,
		"channel": 1,
		"type": "channel",
		"noteNumber": 46,
		"velocity": 0,
		"subtype": "noteOff",
		"time": 18016,
		"track": 2
	},
	{
		"deltaTime": 0,
		"channel": 0,
		"type": "channel",
		"noteNumber": 70,
		"velocity": 127,
		"subtype": "noteOn",
		"time": 18048,
		"track": 1
	},
	{
		"deltaTime": 0,
		"channel": 0,
		"type": "channel",
		"noteNumber": 74,
		"velocity": 127,
		"subtype": "noteOn",
		"time": 18048,
		"track": 1
	},
	{
		"deltaTime": 0,
		"channel": 0,
		"type": "channel",
		"noteNumber": 79,
		"velocity": 127,
		"subtype": "noteOn",
		"time": 18048,
		"track": 1
	},
	{
		"deltaTime": 0,
		"channel": 1,
		"type": "channel",
		"noteNumber": 34,
		"velocity": 127,
		"subtype": "noteOn",
		"time": 18048,
		"track": 2
	},
	{
		"deltaTime": 94,
		"channel": 1,
		"type": "channel",
		"noteNumber": 46,
		"velocity": 127,
		"subtype": "noteOn",
		"time": 18048,
		"track": 2
	},
	{
		"deltaTime": 0,
		"channel": 1,
		"type": "channel",
		"noteNumber": 34,
		"velocity": 0,
		"subtype": "noteOff",
		"time": 18142,
		"track": 2
	},
	{
		"deltaTime": 2,
		"channel": 1,
		"type": "channel",
		"noteNumber": 46,
		"velocity": 0,
		"subtype": "noteOff",
		"time": 18142,
		"track": 2
	},
	{
		"deltaTime": 0,
		"channel": 1,
		"type": "channel",
		"noteNumber": 34,
		"velocity": 127,
		"subtype": "noteOn",
		"time": 18144,
		"track": 2
	},
	{
		"deltaTime": 64,
		"channel": 1,
		"type": "channel",
		"noteNumber": 46,
		"velocity": 127,
		"subtype": "noteOn",
		"time": 18144,
		"track": 2
	},
	{
		"deltaTime": 0,
		"channel": 0,
		"type": "channel",
		"noteNumber": 70,
		"velocity": 0,
		"subtype": "noteOff",
		"time": 18208,
		"track": 1
	},
	{
		"deltaTime": 0,
		"channel": 0,
		"type": "channel",
		"noteNumber": 74,
		"velocity": 0,
		"subtype": "noteOff",
		"time": 18208,
		"track": 1
	},
	{
		"deltaTime": 32,
		"channel": 0,
		"type": "channel",
		"noteNumber": 79,
		"velocity": 0,
		"subtype": "noteOff",
		"time": 18208,
		"track": 1
	},
	{
		"deltaTime": 0,
		"channel": 0,
		"type": "channel",
		"noteNumber": 74,
		"velocity": 127,
		"subtype": "noteOn",
		"time": 18240,
		"track": 1
	},
	{
		"deltaTime": 64,
		"channel": 0,
		"type": "channel",
		"noteNumber": 79,
		"velocity": 127,
		"subtype": "noteOn",
		"time": 18240,
		"track": 1
	},
	{
		"deltaTime": 0,
		"channel": 1,
		"type": "channel",
		"noteNumber": 34,
		"velocity": 0,
		"subtype": "noteOff",
		"time": 18304,
		"track": 2
	},
	{
		"deltaTime": 30,
		"channel": 1,
		"type": "channel",
		"noteNumber": 46,
		"velocity": 0,
		"subtype": "noteOff",
		"time": 18304,
		"track": 2
	},
	{
		"deltaTime": 0,
		"channel": 0,
		"type": "channel",
		"noteNumber": 74,
		"velocity": 0,
		"subtype": "noteOff",
		"time": 18334,
		"track": 1
	},
	{
		"deltaTime": 2,
		"channel": 0,
		"type": "channel",
		"noteNumber": 79,
		"velocity": 0,
		"subtype": "noteOff",
		"time": 18334,
		"track": 1
	},
	{
		"deltaTime": 0,
		"channel": 0,
		"type": "channel",
		"noteNumber": 74,
		"velocity": 127,
		"subtype": "noteOn",
		"time": 18336,
		"track": 1
	},
	{
		"deltaTime": 0,
		"channel": 0,
		"type": "channel",
		"noteNumber": 81,
		"velocity": 127,
		"subtype": "noteOn",
		"time": 18336,
		"track": 1
	},
	{
		"deltaTime": 0,
		"channel": 1,
		"type": "channel",
		"noteNumber": 34,
		"velocity": 127,
		"subtype": "noteOn",
		"time": 18336,
		"track": 2
	},
	{
		"deltaTime": 94,
		"channel": 1,
		"type": "channel",
		"noteNumber": 46,
		"velocity": 127,
		"subtype": "noteOn",
		"time": 18336,
		"track": 2
	},
	{
		"deltaTime": 0,
		"channel": 0,
		"type": "channel",
		"noteNumber": 74,
		"velocity": 0,
		"subtype": "noteOff",
		"time": 18430,
		"track": 1
	},
	{
		"deltaTime": 0,
		"channel": 0,
		"type": "channel",
		"noteNumber": 81,
		"velocity": 0,
		"subtype": "noteOff",
		"time": 18430,
		"track": 1
	},
	{
		"deltaTime": 0,
		"channel": 1,
		"type": "channel",
		"noteNumber": 34,
		"velocity": 0,
		"subtype": "noteOff",
		"time": 18430,
		"track": 2
	},
	{
		"deltaTime": 2,
		"channel": 1,
		"type": "channel",
		"noteNumber": 46,
		"velocity": 0,
		"subtype": "noteOff",
		"time": 18430,
		"track": 2
	},
	{
		"deltaTime": 0,
		"channel": 0,
		"type": "channel",
		"subtype": "controller",
		"controllerType": 64,
		"value": 0,
		"time": 18432,
		"track": 1
	},
	{
		"deltaTime": 0,
		"channel": 0,
		"type": "channel",
		"subtype": "controller",
		"controllerType": 64,
		"value": 127,
		"time": 18432,
		"track": 1
	},
	{
		"deltaTime": 0,
		"channel": 0,
		"type": "channel",
		"noteNumber": 74,
		"velocity": 127,
		"subtype": "noteOn",
		"time": 18432,
		"track": 1
	},
	{
		"deltaTime": 0,
		"channel": 0,
		"type": "channel",
		"noteNumber": 79,
		"velocity": 127,
		"subtype": "noteOn",
		"time": 18432,
		"track": 1
	},
	{
		"deltaTime": 0,
		"channel": 0,
		"type": "channel",
		"noteNumber": 82,
		"velocity": 127,
		"subtype": "noteOn",
		"time": 18432,
		"track": 1
	},
	{
		"deltaTime": 0,
		"channel": 1,
		"type": "channel",
		"subtype": "controller",
		"controllerType": 64,
		"value": 0,
		"time": 18432,
		"track": 2
	},
	{
		"deltaTime": 0,
		"channel": 1,
		"type": "channel",
		"subtype": "controller",
		"controllerType": 64,
		"value": 127,
		"time": 18432,
		"track": 2
	},
	{
		"deltaTime": 0,
		"channel": 1,
		"type": "channel",
		"noteNumber": 31,
		"velocity": 127,
		"subtype": "noteOn",
		"time": 18432,
		"track": 2
	},
	{
		"deltaTime": 160,
		"channel": 1,
		"type": "channel",
		"noteNumber": 43,
		"velocity": 127,
		"subtype": "noteOn",
		"time": 18432,
		"track": 2
	},
	{
		"deltaTime": 0,
		"channel": 0,
		"type": "channel",
		"noteNumber": 74,
		"velocity": 0,
		"subtype": "noteOff",
		"time": 18592,
		"track": 1
	},
	{
		"deltaTime": 0,
		"channel": 0,
		"type": "channel",
		"noteNumber": 79,
		"velocity": 0,
		"subtype": "noteOff",
		"time": 18592,
		"track": 1
	},
	{
		"deltaTime": 0,
		"channel": 0,
		"type": "channel",
		"noteNumber": 82,
		"velocity": 0,
		"subtype": "noteOff",
		"time": 18592,
		"track": 1
	},
	{
		"deltaTime": 0,
		"channel": 1,
		"type": "channel",
		"noteNumber": 31,
		"velocity": 0,
		"subtype": "noteOff",
		"time": 18592,
		"track": 2
	},
	{
		"deltaTime": 32,
		"channel": 1,
		"type": "channel",
		"noteNumber": 43,
		"velocity": 0,
		"subtype": "noteOff",
		"time": 18592,
		"track": 2
	},
	{
		"deltaTime": 0,
		"channel": 0,
		"type": "channel",
		"noteNumber": 74,
		"velocity": 127,
		"subtype": "noteOn",
		"time": 18624,
		"track": 1
	},
	{
		"deltaTime": 0,
		"channel": 0,
		"type": "channel",
		"noteNumber": 79,
		"velocity": 127,
		"subtype": "noteOn",
		"time": 18624,
		"track": 1
	},
	{
		"deltaTime": 0,
		"channel": 0,
		"type": "channel",
		"noteNumber": 82,
		"velocity": 127,
		"subtype": "noteOn",
		"time": 18624,
		"track": 1
	},
	{
		"deltaTime": 0,
		"channel": 1,
		"type": "channel",
		"noteNumber": 31,
		"velocity": 127,
		"subtype": "noteOn",
		"time": 18624,
		"track": 2
	},
	{
		"deltaTime": 94,
		"channel": 1,
		"type": "channel",
		"noteNumber": 43,
		"velocity": 127,
		"subtype": "noteOn",
		"time": 18624,
		"track": 2
	},
	{
		"deltaTime": 0,
		"channel": 1,
		"type": "channel",
		"noteNumber": 31,
		"velocity": 0,
		"subtype": "noteOff",
		"time": 18718,
		"track": 2
	},
	{
		"deltaTime": 2,
		"channel": 1,
		"type": "channel",
		"noteNumber": 43,
		"velocity": 0,
		"subtype": "noteOff",
		"time": 18718,
		"track": 2
	},
	{
		"deltaTime": 0,
		"channel": 1,
		"type": "channel",
		"noteNumber": 31,
		"velocity": 127,
		"subtype": "noteOn",
		"time": 18720,
		"track": 2
	},
	{
		"deltaTime": 64,
		"channel": 1,
		"type": "channel",
		"noteNumber": 43,
		"velocity": 127,
		"subtype": "noteOn",
		"time": 18720,
		"track": 2
	},
	{
		"deltaTime": 0,
		"channel": 0,
		"type": "channel",
		"noteNumber": 74,
		"velocity": 0,
		"subtype": "noteOff",
		"time": 18784,
		"track": 1
	},
	{
		"deltaTime": 0,
		"channel": 0,
		"type": "channel",
		"noteNumber": 79,
		"velocity": 0,
		"subtype": "noteOff",
		"time": 18784,
		"track": 1
	},
	{
		"deltaTime": 32,
		"channel": 0,
		"type": "channel",
		"noteNumber": 82,
		"velocity": 0,
		"subtype": "noteOff",
		"time": 18784,
		"track": 1
	},
	{
		"deltaTime": 0,
		"channel": 0,
		"type": "channel",
		"noteNumber": 77,
		"velocity": 127,
		"subtype": "noteOn",
		"time": 18816,
		"track": 1
	},
	{
		"deltaTime": 64,
		"channel": 0,
		"type": "channel",
		"noteNumber": 81,
		"velocity": 127,
		"subtype": "noteOn",
		"time": 18816,
		"track": 1
	},
	{
		"deltaTime": 0,
		"channel": 1,
		"type": "channel",
		"noteNumber": 31,
		"velocity": 0,
		"subtype": "noteOff",
		"time": 18880,
		"track": 2
	},
	{
		"deltaTime": 30,
		"channel": 1,
		"type": "channel",
		"noteNumber": 43,
		"velocity": 0,
		"subtype": "noteOff",
		"time": 18880,
		"track": 2
	},
	{
		"deltaTime": 0,
		"channel": 0,
		"type": "channel",
		"noteNumber": 77,
		"velocity": 0,
		"subtype": "noteOff",
		"time": 18910,
		"track": 1
	},
	{
		"deltaTime": 2,
		"channel": 0,
		"type": "channel",
		"noteNumber": 81,
		"velocity": 0,
		"subtype": "noteOff",
		"time": 18910,
		"track": 1
	},
	{
		"deltaTime": 0,
		"channel": 0,
		"type": "channel",
		"noteNumber": 76,
		"velocity": 127,
		"subtype": "noteOn",
		"time": 18912,
		"track": 1
	},
	{
		"deltaTime": 0,
		"channel": 0,
		"type": "channel",
		"noteNumber": 79,
		"velocity": 127,
		"subtype": "noteOn",
		"time": 18912,
		"track": 1
	},
	{
		"deltaTime": 0,
		"channel": 1,
		"type": "channel",
		"noteNumber": 31,
		"velocity": 127,
		"subtype": "noteOn",
		"time": 18912,
		"track": 2
	},
	{
		"deltaTime": 94,
		"channel": 1,
		"type": "channel",
		"noteNumber": 43,
		"velocity": 127,
		"subtype": "noteOn",
		"time": 18912,
		"track": 2
	},
	{
		"deltaTime": 0,
		"channel": 0,
		"type": "channel",
		"noteNumber": 76,
		"velocity": 0,
		"subtype": "noteOff",
		"time": 19006,
		"track": 1
	},
	{
		"deltaTime": 0,
		"channel": 0,
		"type": "channel",
		"noteNumber": 79,
		"velocity": 0,
		"subtype": "noteOff",
		"time": 19006,
		"track": 1
	},
	{
		"deltaTime": 0,
		"channel": 1,
		"type": "channel",
		"noteNumber": 31,
		"velocity": 0,
		"subtype": "noteOff",
		"time": 19006,
		"track": 2
	},
	{
		"deltaTime": 2,
		"channel": 1,
		"type": "channel",
		"noteNumber": 43,
		"velocity": 0,
		"subtype": "noteOff",
		"time": 19006,
		"track": 2
	},
	{
		"deltaTime": 0,
		"channel": 0,
		"type": "channel",
		"subtype": "controller",
		"controllerType": 64,
		"value": 0,
		"time": 19008,
		"track": 1
	},
	{
		"deltaTime": 0,
		"channel": 0,
		"type": "channel",
		"subtype": "controller",
		"controllerType": 64,
		"value": 127,
		"time": 19008,
		"track": 1
	},
	{
		"deltaTime": 0,
		"channel": 0,
		"type": "channel",
		"noteNumber": 77,
		"velocity": 127,
		"subtype": "noteOn",
		"time": 19008,
		"track": 1
	},
	{
		"deltaTime": 0,
		"channel": 0,
		"type": "channel",
		"noteNumber": 81,
		"velocity": 127,
		"subtype": "noteOn",
		"time": 19008,
		"track": 1
	},
	{
		"deltaTime": 0,
		"channel": 1,
		"type": "channel",
		"subtype": "controller",
		"controllerType": 64,
		"value": 0,
		"time": 19008,
		"track": 2
	},
	{
		"deltaTime": 0,
		"channel": 1,
		"type": "channel",
		"subtype": "controller",
		"controllerType": 64,
		"value": 127,
		"time": 19008,
		"track": 2
	},
	{
		"deltaTime": 0,
		"channel": 1,
		"type": "channel",
		"noteNumber": 38,
		"velocity": 127,
		"subtype": "noteOn",
		"time": 19008,
		"track": 2
	},
	{
		"deltaTime": 94,
		"channel": 1,
		"type": "channel",
		"noteNumber": 50,
		"velocity": 127,
		"subtype": "noteOn",
		"time": 19008,
		"track": 2
	},
	{
		"deltaTime": 0,
		"channel": 0,
		"type": "channel",
		"noteNumber": 77,
		"velocity": 0,
		"subtype": "noteOff",
		"time": 19102,
		"track": 1
	},
	{
		"deltaTime": 2,
		"channel": 0,
		"type": "channel",
		"noteNumber": 81,
		"velocity": 0,
		"subtype": "noteOff",
		"time": 19102,
		"track": 1
	},
	{
		"deltaTime": 64,
		"channel": 0,
		"type": "channel",
		"noteNumber": 74,
		"velocity": 127,
		"subtype": "noteOn",
		"time": 19104,
		"track": 1
	},
	{
		"deltaTime": 0,
		"channel": 1,
		"type": "channel",
		"noteNumber": 38,
		"velocity": 0,
		"subtype": "noteOff",
		"time": 19168,
		"track": 2
	},
	{
		"deltaTime": 32,
		"channel": 1,
		"type": "channel",
		"noteNumber": 50,
		"velocity": 0,
		"subtype": "noteOff",
		"time": 19168,
		"track": 2
	},
	{
		"deltaTime": 0,
		"channel": 1,
		"type": "channel",
		"noteNumber": 38,
		"velocity": 127,
		"subtype": "noteOn",
		"time": 19200,
		"track": 2
	},
	{
		"deltaTime": 64,
		"channel": 1,
		"type": "channel",
		"noteNumber": 50,
		"velocity": 127,
		"subtype": "noteOn",
		"time": 19200,
		"track": 2
	},
	{
		"deltaTime": 30,
		"channel": 0,
		"type": "channel",
		"noteNumber": 74,
		"velocity": 0,
		"subtype": "noteOff",
		"time": 19264,
		"track": 1
	},
	{
		"deltaTime": 0,
		"channel": 1,
		"type": "channel",
		"noteNumber": 38,
		"velocity": 0,
		"subtype": "noteOff",
		"time": 19294,
		"track": 2
	},
	{
		"deltaTime": 2,
		"channel": 1,
		"type": "channel",
		"noteNumber": 50,
		"velocity": 0,
		"subtype": "noteOff",
		"time": 19294,
		"track": 2
	},
	{
		"deltaTime": 0,
		"channel": 1,
		"type": "channel",
		"noteNumber": 38,
		"velocity": 127,
		"subtype": "noteOn",
		"time": 19296,
		"track": 2
	},
	{
		"deltaTime": 96,
		"channel": 1,
		"type": "channel",
		"noteNumber": 50,
		"velocity": 127,
		"subtype": "noteOn",
		"time": 19296,
		"track": 2
	},
	{
		"deltaTime": 64,
		"channel": 0,
		"type": "channel",
		"noteNumber": 74,
		"velocity": 127,
		"subtype": "noteOn",
		"time": 19392,
		"track": 1
	},
	{
		"deltaTime": 0,
		"channel": 1,
		"type": "channel",
		"noteNumber": 38,
		"velocity": 0,
		"subtype": "noteOff",
		"time": 19456,
		"track": 2
	},
	{
		"deltaTime": 30,
		"channel": 1,
		"type": "channel",
		"noteNumber": 50,
		"velocity": 0,
		"subtype": "noteOff",
		"time": 19456,
		"track": 2
	},
	{
		"deltaTime": 2,
		"channel": 0,
		"type": "channel",
		"noteNumber": 74,
		"velocity": 0,
		"subtype": "noteOff",
		"time": 19486,
		"track": 1
	},
	{
		"deltaTime": 0,
		"channel": 0,
		"type": "channel",
		"noteNumber": 76,
		"velocity": 127,
		"subtype": "noteOn",
		"time": 19488,
		"track": 1
	},
	{
		"deltaTime": 0,
		"channel": 1,
		"type": "channel",
		"noteNumber": 38,
		"velocity": 127,
		"subtype": "noteOn",
		"time": 19488,
		"track": 2
	},
	{
		"deltaTime": 94,
		"channel": 1,
		"type": "channel",
		"noteNumber": 50,
		"velocity": 127,
		"subtype": "noteOn",
		"time": 19488,
		"track": 2
	},
	{
		"deltaTime": 0,
		"channel": 0,
		"type": "channel",
		"noteNumber": 76,
		"velocity": 0,
		"subtype": "noteOff",
		"time": 19582,
		"track": 1
	},
	{
		"deltaTime": 0,
		"channel": 1,
		"type": "channel",
		"noteNumber": 38,
		"velocity": 0,
		"subtype": "noteOff",
		"time": 19582,
		"track": 2
	},
	{
		"deltaTime": 2,
		"channel": 1,
		"type": "channel",
		"noteNumber": 50,
		"velocity": 0,
		"subtype": "noteOff",
		"time": 19582,
		"track": 2
	},
	{
		"deltaTime": 0,
		"channel": 0,
		"type": "channel",
		"subtype": "controller",
		"controllerType": 64,
		"value": 0,
		"time": 19584,
		"track": 1
	},
	{
		"deltaTime": 0,
		"channel": 0,
		"type": "channel",
		"subtype": "controller",
		"controllerType": 64,
		"value": 127,
		"time": 19584,
		"track": 1
	},
	{
		"deltaTime": 0,
		"channel": 0,
		"type": "channel",
		"noteNumber": 70,
		"velocity": 127,
		"subtype": "noteOn",
		"time": 19584,
		"track": 1
	},
	{
		"deltaTime": 0,
		"channel": 0,
		"type": "channel",
		"noteNumber": 74,
		"velocity": 127,
		"subtype": "noteOn",
		"time": 19584,
		"track": 1
	},
	{
		"deltaTime": 0,
		"channel": 0,
		"type": "channel",
		"noteNumber": 77,
		"velocity": 127,
		"subtype": "noteOn",
		"time": 19584,
		"track": 1
	},
	{
		"deltaTime": 0,
		"channel": 1,
		"type": "channel",
		"subtype": "controller",
		"controllerType": 64,
		"value": 0,
		"time": 19584,
		"track": 2
	},
	{
		"deltaTime": 0,
		"channel": 1,
		"type": "channel",
		"subtype": "controller",
		"controllerType": 64,
		"value": 127,
		"time": 19584,
		"track": 2
	},
	{
		"deltaTime": 0,
		"channel": 1,
		"type": "channel",
		"noteNumber": 34,
		"velocity": 127,
		"subtype": "noteOn",
		"time": 19584,
		"track": 2
	},
	{
		"deltaTime": 160,
		"channel": 1,
		"type": "channel",
		"noteNumber": 46,
		"velocity": 127,
		"subtype": "noteOn",
		"time": 19584,
		"track": 2
	},
	{
		"deltaTime": 0,
		"channel": 0,
		"type": "channel",
		"noteNumber": 70,
		"velocity": 0,
		"subtype": "noteOff",
		"time": 19744,
		"track": 1
	},
	{
		"deltaTime": 0,
		"channel": 0,
		"type": "channel",
		"noteNumber": 74,
		"velocity": 0,
		"subtype": "noteOff",
		"time": 19744,
		"track": 1
	},
	{
		"deltaTime": 0,
		"channel": 0,
		"type": "channel",
		"noteNumber": 77,
		"velocity": 0,
		"subtype": "noteOff",
		"time": 19744,
		"track": 1
	},
	{
		"deltaTime": 0,
		"channel": 1,
		"type": "channel",
		"noteNumber": 34,
		"velocity": 0,
		"subtype": "noteOff",
		"time": 19744,
		"track": 2
	},
	{
		"deltaTime": 32,
		"channel": 1,
		"type": "channel",
		"noteNumber": 46,
		"velocity": 0,
		"subtype": "noteOff",
		"time": 19744,
		"track": 2
	},
	{
		"deltaTime": 0,
		"channel": 0,
		"type": "channel",
		"noteNumber": 70,
		"velocity": 127,
		"subtype": "noteOn",
		"time": 19776,
		"track": 1
	},
	{
		"deltaTime": 0,
		"channel": 0,
		"type": "channel",
		"noteNumber": 74,
		"velocity": 127,
		"subtype": "noteOn",
		"time": 19776,
		"track": 1
	},
	{
		"deltaTime": 0,
		"channel": 0,
		"type": "channel",
		"noteNumber": 77,
		"velocity": 127,
		"subtype": "noteOn",
		"time": 19776,
		"track": 1
	},
	{
		"deltaTime": 0,
		"channel": 1,
		"type": "channel",
		"noteNumber": 34,
		"velocity": 127,
		"subtype": "noteOn",
		"time": 19776,
		"track": 2
	},
	{
		"deltaTime": 94,
		"channel": 1,
		"type": "channel",
		"noteNumber": 46,
		"velocity": 127,
		"subtype": "noteOn",
		"time": 19776,
		"track": 2
	},
	{
		"deltaTime": 0,
		"channel": 1,
		"type": "channel",
		"noteNumber": 34,
		"velocity": 0,
		"subtype": "noteOff",
		"time": 19870,
		"track": 2
	},
	{
		"deltaTime": 2,
		"channel": 1,
		"type": "channel",
		"noteNumber": 46,
		"velocity": 0,
		"subtype": "noteOff",
		"time": 19870,
		"track": 2
	},
	{
		"deltaTime": 0,
		"channel": 1,
		"type": "channel",
		"noteNumber": 34,
		"velocity": 127,
		"subtype": "noteOn",
		"time": 19872,
		"track": 2
	},
	{
		"deltaTime": 64,
		"channel": 1,
		"type": "channel",
		"noteNumber": 46,
		"velocity": 127,
		"subtype": "noteOn",
		"time": 19872,
		"track": 2
	},
	{
		"deltaTime": 0,
		"channel": 0,
		"type": "channel",
		"noteNumber": 70,
		"velocity": 0,
		"subtype": "noteOff",
		"time": 19936,
		"track": 1
	},
	{
		"deltaTime": 0,
		"channel": 0,
		"type": "channel",
		"noteNumber": 74,
		"velocity": 0,
		"subtype": "noteOff",
		"time": 19936,
		"track": 1
	},
	{
		"deltaTime": 32,
		"channel": 0,
		"type": "channel",
		"noteNumber": 77,
		"velocity": 0,
		"subtype": "noteOff",
		"time": 19936,
		"track": 1
	},
	{
		"deltaTime": 0,
		"channel": 0,
		"type": "channel",
		"noteNumber": 70,
		"velocity": 127,
		"subtype": "noteOn",
		"time": 19968,
		"track": 1
	},
	{
		"deltaTime": 0,
		"channel": 0,
		"type": "channel",
		"noteNumber": 74,
		"velocity": 127,
		"subtype": "noteOn",
		"time": 19968,
		"track": 1
	},
	{
		"deltaTime": 64,
		"channel": 0,
		"type": "channel",
		"noteNumber": 79,
		"velocity": 127,
		"subtype": "noteOn",
		"time": 19968,
		"track": 1
	},
	{
		"deltaTime": 0,
		"channel": 1,
		"type": "channel",
		"noteNumber": 34,
		"velocity": 0,
		"subtype": "noteOff",
		"time": 20032,
		"track": 2
	},
	{
		"deltaTime": 32,
		"channel": 1,
		"type": "channel",
		"noteNumber": 46,
		"velocity": 0,
		"subtype": "noteOff",
		"time": 20032,
		"track": 2
	},
	{
		"deltaTime": 0,
		"channel": 1,
		"type": "channel",
		"noteNumber": 34,
		"velocity": 127,
		"subtype": "noteOn",
		"time": 20064,
		"track": 2
	},
	{
		"deltaTime": 64,
		"channel": 1,
		"type": "channel",
		"noteNumber": 46,
		"velocity": 127,
		"subtype": "noteOn",
		"time": 20064,
		"track": 2
	},
	{
		"deltaTime": 0,
		"channel": 0,
		"type": "channel",
		"noteNumber": 70,
		"velocity": 0,
		"subtype": "noteOff",
		"time": 20128,
		"track": 1
	},
	{
		"deltaTime": 0,
		"channel": 0,
		"type": "channel",
		"noteNumber": 74,
		"velocity": 0,
		"subtype": "noteOff",
		"time": 20128,
		"track": 1
	},
	{
		"deltaTime": 30,
		"channel": 0,
		"type": "channel",
		"noteNumber": 79,
		"velocity": 0,
		"subtype": "noteOff",
		"time": 20128,
		"track": 1
	},
	{
		"deltaTime": 0,
		"channel": 1,
		"type": "channel",
		"noteNumber": 34,
		"velocity": 0,
		"subtype": "noteOff",
		"time": 20158,
		"track": 2
	},
	{
		"deltaTime": 2,
		"channel": 1,
		"type": "channel",
		"noteNumber": 46,
		"velocity": 0,
		"subtype": "noteOff",
		"time": 20158,
		"track": 2
	},
	{
		"deltaTime": 0,
		"channel": 0,
		"type": "channel",
		"subtype": "controller",
		"controllerType": 64,
		"value": 0,
		"time": 20160,
		"track": 1
	},
	{
		"deltaTime": 0,
		"channel": 0,
		"type": "channel",
		"subtype": "controller",
		"controllerType": 64,
		"value": 127,
		"time": 20160,
		"track": 1
	},
	{
		"deltaTime": 0,
		"channel": 0,
		"type": "channel",
		"noteNumber": 77,
		"velocity": 127,
		"subtype": "noteOn",
		"time": 20160,
		"track": 1
	},
	{
		"deltaTime": 0,
		"channel": 0,
		"type": "channel",
		"noteNumber": 81,
		"velocity": 127,
		"subtype": "noteOn",
		"time": 20160,
		"track": 1
	},
	{
		"deltaTime": 0,
		"channel": 1,
		"type": "channel",
		"subtype": "controller",
		"controllerType": 64,
		"value": 0,
		"time": 20160,
		"track": 2
	},
	{
		"deltaTime": 0,
		"channel": 1,
		"type": "channel",
		"subtype": "controller",
		"controllerType": 64,
		"value": 127,
		"time": 20160,
		"track": 2
	},
	{
		"deltaTime": 0,
		"channel": 1,
		"type": "channel",
		"noteNumber": 38,
		"velocity": 127,
		"subtype": "noteOn",
		"time": 20160,
		"track": 2
	},
	{
		"deltaTime": 94,
		"channel": 1,
		"type": "channel",
		"noteNumber": 50,
		"velocity": 127,
		"subtype": "noteOn",
		"time": 20160,
		"track": 2
	},
	{
		"deltaTime": 0,
		"channel": 0,
		"type": "channel",
		"noteNumber": 77,
		"velocity": 0,
		"subtype": "noteOff",
		"time": 20254,
		"track": 1
	},
	{
		"deltaTime": 2,
		"channel": 0,
		"type": "channel",
		"noteNumber": 81,
		"velocity": 0,
		"subtype": "noteOff",
		"time": 20254,
		"track": 1
	},
	{
		"deltaTime": 64,
		"channel": 0,
		"type": "channel",
		"noteNumber": 74,
		"velocity": 127,
		"subtype": "noteOn",
		"time": 20256,
		"track": 1
	},
	{
		"deltaTime": 0,
		"channel": 1,
		"type": "channel",
		"noteNumber": 38,
		"velocity": 0,
		"subtype": "noteOff",
		"time": 20320,
		"track": 2
	},
	{
		"deltaTime": 32,
		"channel": 1,
		"type": "channel",
		"noteNumber": 50,
		"velocity": 0,
		"subtype": "noteOff",
		"time": 20320,
		"track": 2
	},
	{
		"deltaTime": 0,
		"channel": 1,
		"type": "channel",
		"noteNumber": 38,
		"velocity": 127,
		"subtype": "noteOn",
		"time": 20352,
		"track": 2
	},
	{
		"deltaTime": 64,
		"channel": 1,
		"type": "channel",
		"noteNumber": 50,
		"velocity": 127,
		"subtype": "noteOn",
		"time": 20352,
		"track": 2
	},
	{
		"deltaTime": 30,
		"channel": 0,
		"type": "channel",
		"noteNumber": 74,
		"velocity": 0,
		"subtype": "noteOff",
		"time": 20416,
		"track": 1
	},
	{
		"deltaTime": 0,
		"channel": 1,
		"type": "channel",
		"noteNumber": 38,
		"velocity": 0,
		"subtype": "noteOff",
		"time": 20446,
		"track": 2
	},
	{
		"deltaTime": 2,
		"channel": 1,
		"type": "channel",
		"noteNumber": 50,
		"velocity": 0,
		"subtype": "noteOff",
		"time": 20446,
		"track": 2
	},
	{
		"deltaTime": 0,
		"channel": 1,
		"type": "channel",
		"noteNumber": 38,
		"velocity": 127,
		"subtype": "noteOn",
		"time": 20448,
		"track": 2
	},
	{
		"deltaTime": 96,
		"channel": 1,
		"type": "channel",
		"noteNumber": 50,
		"velocity": 127,
		"subtype": "noteOn",
		"time": 20448,
		"track": 2
	},
	{
		"deltaTime": 64,
		"channel": 0,
		"type": "channel",
		"noteNumber": 74,
		"velocity": 127,
		"subtype": "noteOn",
		"time": 20544,
		"track": 1
	},
	{
		"deltaTime": 0,
		"channel": 1,
		"type": "channel",
		"noteNumber": 38,
		"velocity": 0,
		"subtype": "noteOff",
		"time": 20608,
		"track": 2
	},
	{
		"deltaTime": 30,
		"channel": 1,
		"type": "channel",
		"noteNumber": 50,
		"velocity": 0,
		"subtype": "noteOff",
		"time": 20608,
		"track": 2
	},
	{
		"deltaTime": 2,
		"channel": 0,
		"type": "channel",
		"noteNumber": 74,
		"velocity": 0,
		"subtype": "noteOff",
		"time": 20638,
		"track": 1
	},
	{
		"deltaTime": 0,
		"channel": 0,
		"type": "channel",
		"noteNumber": 77,
		"velocity": 127,
		"subtype": "noteOn",
		"time": 20640,
		"track": 1
	},
	{
		"deltaTime": 0,
		"channel": 1,
		"type": "channel",
		"noteNumber": 38,
		"velocity": 127,
		"subtype": "noteOn",
		"time": 20640,
		"track": 2
	},
	{
		"deltaTime": 94,
		"channel": 1,
		"type": "channel",
		"noteNumber": 50,
		"velocity": 127,
		"subtype": "noteOn",
		"time": 20640,
		"track": 2
	},
	{
		"deltaTime": 0,
		"channel": 0,
		"type": "channel",
		"noteNumber": 77,
		"velocity": 0,
		"subtype": "noteOff",
		"time": 20734,
		"track": 1
	},
	{
		"deltaTime": 0,
		"channel": 1,
		"type": "channel",
		"noteNumber": 38,
		"velocity": 0,
		"subtype": "noteOff",
		"time": 20734,
		"track": 2
	},
	{
		"deltaTime": 2,
		"channel": 1,
		"type": "channel",
		"noteNumber": 50,
		"velocity": 0,
		"subtype": "noteOff",
		"time": 20734,
		"track": 2
	},
	{
		"deltaTime": 0,
		"channel": 0,
		"type": "channel",
		"subtype": "controller",
		"controllerType": 64,
		"value": 0,
		"time": 20736,
		"track": 1
	},
	{
		"deltaTime": 0,
		"channel": 0,
		"type": "channel",
		"subtype": "controller",
		"controllerType": 64,
		"value": 127,
		"time": 20736,
		"track": 1
	},
	{
		"deltaTime": 0,
		"channel": 0,
		"type": "channel",
		"noteNumber": 69,
		"velocity": 127,
		"subtype": "noteOn",
		"time": 20736,
		"track": 1
	},
	{
		"deltaTime": 0,
		"channel": 0,
		"type": "channel",
		"noteNumber": 73,
		"velocity": 127,
		"subtype": "noteOn",
		"time": 20736,
		"track": 1
	},
	{
		"deltaTime": 0,
		"channel": 0,
		"type": "channel",
		"noteNumber": 76,
		"velocity": 127,
		"subtype": "noteOn",
		"time": 20736,
		"track": 1
	},
	{
		"deltaTime": 0,
		"channel": 1,
		"type": "channel",
		"subtype": "controller",
		"controllerType": 64,
		"value": 0,
		"time": 20736,
		"track": 2
	},
	{
		"deltaTime": 0,
		"channel": 1,
		"type": "channel",
		"subtype": "controller",
		"controllerType": 64,
		"value": 127,
		"time": 20736,
		"track": 2
	},
	{
		"deltaTime": 0,
		"channel": 1,
		"type": "channel",
		"noteNumber": 33,
		"velocity": 127,
		"subtype": "noteOn",
		"time": 20736,
		"track": 2
	},
	{
		"deltaTime": 160,
		"channel": 1,
		"type": "channel",
		"noteNumber": 45,
		"velocity": 127,
		"subtype": "noteOn",
		"time": 20736,
		"track": 2
	},
	{
		"deltaTime": 0,
		"channel": 0,
		"type": "channel",
		"noteNumber": 69,
		"velocity": 0,
		"subtype": "noteOff",
		"time": 20896,
		"track": 1
	},
	{
		"deltaTime": 0,
		"channel": 0,
		"type": "channel",
		"noteNumber": 73,
		"velocity": 0,
		"subtype": "noteOff",
		"time": 20896,
		"track": 1
	},
	{
		"deltaTime": 0,
		"channel": 0,
		"type": "channel",
		"noteNumber": 76,
		"velocity": 0,
		"subtype": "noteOff",
		"time": 20896,
		"track": 1
	},
	{
		"deltaTime": 0,
		"channel": 1,
		"type": "channel",
		"noteNumber": 33,
		"velocity": 0,
		"subtype": "noteOff",
		"time": 20896,
		"track": 2
	},
	{
		"deltaTime": 32,
		"channel": 1,
		"type": "channel",
		"noteNumber": 45,
		"velocity": 0,
		"subtype": "noteOff",
		"time": 20896,
		"track": 2
	},
	{
		"deltaTime": 0,
		"channel": 0,
		"type": "channel",
		"noteNumber": 69,
		"velocity": 127,
		"subtype": "noteOn",
		"time": 20928,
		"track": 1
	},
	{
		"deltaTime": 0,
		"channel": 0,
		"type": "channel",
		"noteNumber": 73,
		"velocity": 127,
		"subtype": "noteOn",
		"time": 20928,
		"track": 1
	},
	{
		"deltaTime": 0,
		"channel": 0,
		"type": "channel",
		"noteNumber": 76,
		"velocity": 127,
		"subtype": "noteOn",
		"time": 20928,
		"track": 1
	},
	{
		"deltaTime": 0,
		"channel": 1,
		"type": "channel",
		"noteNumber": 33,
		"velocity": 127,
		"subtype": "noteOn",
		"time": 20928,
		"track": 2
	},
	{
		"deltaTime": 94,
		"channel": 1,
		"type": "channel",
		"noteNumber": 45,
		"velocity": 127,
		"subtype": "noteOn",
		"time": 20928,
		"track": 2
	},
	{
		"deltaTime": 0,
		"channel": 1,
		"type": "channel",
		"noteNumber": 33,
		"velocity": 0,
		"subtype": "noteOff",
		"time": 21022,
		"track": 2
	},
	{
		"deltaTime": 2,
		"channel": 1,
		"type": "channel",
		"noteNumber": 45,
		"velocity": 0,
		"subtype": "noteOff",
		"time": 21022,
		"track": 2
	},
	{
		"deltaTime": 0,
		"channel": 1,
		"type": "channel",
		"noteNumber": 33,
		"velocity": 127,
		"subtype": "noteOn",
		"time": 21024,
		"track": 2
	},
	{
		"deltaTime": 64,
		"channel": 1,
		"type": "channel",
		"noteNumber": 45,
		"velocity": 127,
		"subtype": "noteOn",
		"time": 21024,
		"track": 2
	},
	{
		"deltaTime": 0,
		"channel": 0,
		"type": "channel",
		"noteNumber": 69,
		"velocity": 0,
		"subtype": "noteOff",
		"time": 21088,
		"track": 1
	},
	{
		"deltaTime": 0,
		"channel": 0,
		"type": "channel",
		"noteNumber": 73,
		"velocity": 0,
		"subtype": "noteOff",
		"time": 21088,
		"track": 1
	},
	{
		"deltaTime": 32,
		"channel": 0,
		"type": "channel",
		"noteNumber": 76,
		"velocity": 0,
		"subtype": "noteOff",
		"time": 21088,
		"track": 1
	},
	{
		"deltaTime": 64,
		"channel": 0,
		"type": "channel",
		"noteNumber": 74,
		"velocity": 127,
		"subtype": "noteOn",
		"time": 21120,
		"track": 1
	},
	{
		"deltaTime": 0,
		"channel": 1,
		"type": "channel",
		"noteNumber": 33,
		"velocity": 0,
		"subtype": "noteOff",
		"time": 21184,
		"track": 2
	},
	{
		"deltaTime": 30,
		"channel": 1,
		"type": "channel",
		"noteNumber": 45,
		"velocity": 0,
		"subtype": "noteOff",
		"time": 21184,
		"track": 2
	},
	{
		"deltaTime": 2,
		"channel": 0,
		"type": "channel",
		"noteNumber": 74,
		"velocity": 0,
		"subtype": "noteOff",
		"time": 21214,
		"track": 1
	},
	{
		"deltaTime": 0,
		"channel": 0,
		"type": "channel",
		"noteNumber": 73,
		"velocity": 127,
		"subtype": "noteOn",
		"time": 21216,
		"track": 1
	},
	{
		"deltaTime": 0,
		"channel": 1,
		"type": "channel",
		"noteNumber": 33,
		"velocity": 127,
		"subtype": "noteOn",
		"time": 21216,
		"track": 2
	},
	{
		"deltaTime": 94,
		"channel": 1,
		"type": "channel",
		"noteNumber": 45,
		"velocity": 127,
		"subtype": "noteOn",
		"time": 21216,
		"track": 2
	},
	{
		"deltaTime": 0,
		"channel": 0,
		"type": "channel",
		"noteNumber": 73,
		"velocity": 0,
		"subtype": "noteOff",
		"time": 21310,
		"track": 1
	},
	{
		"deltaTime": 0,
		"channel": 1,
		"type": "channel",
		"noteNumber": 33,
		"velocity": 0,
		"subtype": "noteOff",
		"time": 21310,
		"track": 2
	},
	{
		"deltaTime": 2,
		"channel": 1,
		"type": "channel",
		"noteNumber": 45,
		"velocity": 0,
		"subtype": "noteOff",
		"time": 21310,
		"track": 2
	},
	{
		"deltaTime": 0,
		"channel": 0,
		"type": "channel",
		"subtype": "controller",
		"controllerType": 64,
		"value": 0,
		"time": 21312,
		"track": 1
	},
	{
		"deltaTime": 0,
		"channel": 0,
		"type": "channel",
		"subtype": "controller",
		"controllerType": 64,
		"value": 127,
		"time": 21312,
		"track": 1
	},
	{
		"deltaTime": 0,
		"channel": 0,
		"type": "channel",
		"noteNumber": 69,
		"velocity": 127,
		"subtype": "noteOn",
		"time": 21312,
		"track": 1
	},
	{
		"deltaTime": 0,
		"channel": 0,
		"type": "channel",
		"noteNumber": 74,
		"velocity": 127,
		"subtype": "noteOn",
		"time": 21312,
		"track": 1
	},
	{
		"deltaTime": 0,
		"channel": 1,
		"type": "channel",
		"subtype": "controller",
		"controllerType": 64,
		"value": 0,
		"time": 21312,
		"track": 2
	},
	{
		"deltaTime": 0,
		"channel": 1,
		"type": "channel",
		"subtype": "controller",
		"controllerType": 64,
		"value": 127,
		"time": 21312,
		"track": 2
	},
	{
		"deltaTime": 0,
		"channel": 1,
		"type": "channel",
		"noteNumber": 38,
		"velocity": 127,
		"subtype": "noteOn",
		"time": 21312,
		"track": 2
	},
	{
		"deltaTime": 160,
		"channel": 1,
		"type": "channel",
		"noteNumber": 50,
		"velocity": 127,
		"subtype": "noteOn",
		"time": 21312,
		"track": 2
	},
	{
		"deltaTime": 0,
		"channel": 0,
		"type": "channel",
		"noteNumber": 69,
		"velocity": 0,
		"subtype": "noteOff",
		"time": 21472,
		"track": 1
	},
	{
		"deltaTime": 0,
		"channel": 0,
		"type": "channel",
		"noteNumber": 74,
		"velocity": 0,
		"subtype": "noteOff",
		"time": 21472,
		"track": 1
	},
	{
		"deltaTime": 0,
		"channel": 1,
		"type": "channel",
		"noteNumber": 38,
		"velocity": 0,
		"subtype": "noteOff",
		"time": 21472,
		"track": 2
	},
	{
		"deltaTime": 32,
		"channel": 1,
		"type": "channel",
		"noteNumber": 50,
		"velocity": 0,
		"subtype": "noteOff",
		"time": 21472,
		"track": 2
	},
	{
		"deltaTime": 0,
		"channel": 0,
		"type": "channel",
		"noteNumber": 69,
		"velocity": 127,
		"subtype": "noteOn",
		"time": 21504,
		"track": 1
	},
	{
		"deltaTime": 0,
		"channel": 0,
		"type": "channel",
		"noteNumber": 74,
		"velocity": 127,
		"subtype": "noteOn",
		"time": 21504,
		"track": 1
	},
	{
		"deltaTime": 0,
		"channel": 1,
		"type": "channel",
		"noteNumber": 38,
		"velocity": 127,
		"subtype": "noteOn",
		"time": 21504,
		"track": 2
	},
	{
		"deltaTime": 160,
		"channel": 1,
		"type": "channel",
		"noteNumber": 50,
		"velocity": 127,
		"subtype": "noteOn",
		"time": 21504,
		"track": 2
	},
	{
		"deltaTime": 0,
		"channel": 0,
		"type": "channel",
		"noteNumber": 69,
		"velocity": 0,
		"subtype": "noteOff",
		"time": 21664,
		"track": 1
	},
	{
		"deltaTime": 0,
		"channel": 0,
		"type": "channel",
		"noteNumber": 74,
		"velocity": 0,
		"subtype": "noteOff",
		"time": 21664,
		"track": 1
	},
	{
		"deltaTime": 0,
		"channel": 1,
		"type": "channel",
		"noteNumber": 38,
		"velocity": 0,
		"subtype": "noteOff",
		"time": 21664,
		"track": 2
	},
	{
		"deltaTime": 32,
		"channel": 1,
		"type": "channel",
		"noteNumber": 50,
		"velocity": 0,
		"subtype": "noteOff",
		"time": 21664,
		"track": 2
	},
	{
		"deltaTime": 0,
		"channel": 0,
		"type": "channel",
		"subtype": "controller",
		"controllerType": 64,
		"value": 0,
		"time": 21696,
		"track": 1
	},
	{
		"deltaTime": 0,
		"channel": 0,
		"type": "channel",
		"subtype": "controller",
		"controllerType": 64,
		"value": 127,
		"time": 21696,
		"track": 1
	},
	{
		"deltaTime": 0,
		"channel": 0,
		"type": "channel",
		"noteNumber": 69,
		"velocity": 127,
		"subtype": "noteOn",
		"time": 21696,
		"track": 1
	},
	{
		"deltaTime": 0,
		"channel": 0,
		"type": "channel",
		"noteNumber": 72,
		"velocity": 127,
		"subtype": "noteOn",
		"time": 21696,
		"track": 1
	},
	{
		"deltaTime": 0,
		"channel": 0,
		"type": "channel",
		"noteNumber": 76,
		"velocity": 127,
		"subtype": "noteOn",
		"time": 21696,
		"track": 1
	},
	{
		"deltaTime": 0,
		"channel": 1,
		"type": "channel",
		"subtype": "controller",
		"controllerType": 64,
		"value": 0,
		"time": 21696,
		"track": 2
	},
	{
		"deltaTime": 0,
		"channel": 1,
		"type": "channel",
		"subtype": "controller",
		"controllerType": 64,
		"value": 127,
		"time": 21696,
		"track": 2
	},
	{
		"deltaTime": 0,
		"channel": 1,
		"type": "channel",
		"noteNumber": 36,
		"velocity": 127,
		"subtype": "noteOn",
		"time": 21696,
		"track": 2
	},
	{
		"deltaTime": 160,
		"channel": 1,
		"type": "channel",
		"noteNumber": 48,
		"velocity": 127,
		"subtype": "noteOn",
		"time": 21696,
		"track": 2
	},
	{
		"deltaTime": 0,
		"channel": 0,
		"type": "channel",
		"noteNumber": 69,
		"velocity": 0,
		"subtype": "noteOff",
		"time": 21856,
		"track": 1
	},
	{
		"deltaTime": 0,
		"channel": 0,
		"type": "channel",
		"noteNumber": 72,
		"velocity": 0,
		"subtype": "noteOff",
		"time": 21856,
		"track": 1
	},
	{
		"deltaTime": 0,
		"channel": 0,
		"type": "channel",
		"noteNumber": 76,
		"velocity": 0,
		"subtype": "noteOff",
		"time": 21856,
		"track": 1
	},
	{
		"deltaTime": 0,
		"channel": 1,
		"type": "channel",
		"noteNumber": 36,
		"velocity": 0,
		"subtype": "noteOff",
		"time": 21856,
		"track": 2
	},
	{
		"deltaTime": 32,
		"channel": 1,
		"type": "channel",
		"noteNumber": 48,
		"velocity": 0,
		"subtype": "noteOff",
		"time": 21856,
		"track": 2
	},
	{
		"deltaTime": 0,
		"channel": 0,
		"type": "channel",
		"subtype": "controller",
		"controllerType": 64,
		"value": 0,
		"time": 21888,
		"track": 1
	},
	{
		"deltaTime": 0,
		"channel": 0,
		"type": "channel",
		"subtype": "controller",
		"controllerType": 64,
		"value": 127,
		"time": 21888,
		"track": 1
	},
	{
		"deltaTime": 0,
		"channel": 0,
		"type": "channel",
		"noteNumber": 72,
		"velocity": 127,
		"subtype": "noteOn",
		"time": 21888,
		"track": 1
	},
	{
		"deltaTime": 0,
		"channel": 0,
		"type": "channel",
		"noteNumber": 74,
		"velocity": 127,
		"subtype": "noteOn",
		"time": 21888,
		"track": 1
	},
	{
		"deltaTime": 0,
		"channel": 0,
		"type": "channel",
		"noteNumber": 77,
		"velocity": 127,
		"subtype": "noteOn",
		"time": 21888,
		"track": 1
	},
	{
		"deltaTime": 0,
		"channel": 1,
		"type": "channel",
		"noteNumber": 36,
		"velocity": 127,
		"subtype": "noteOn",
		"time": 21888,
		"track": 2
	},
	{
		"deltaTime": 160,
		"channel": 1,
		"type": "channel",
		"noteNumber": 48,
		"velocity": 127,
		"subtype": "noteOn",
		"time": 21888,
		"track": 2
	},
	{
		"deltaTime": 0,
		"channel": 0,
		"type": "channel",
		"noteNumber": 72,
		"velocity": 0,
		"subtype": "noteOff",
		"time": 22048,
		"track": 1
	},
	{
		"deltaTime": 0,
		"channel": 0,
		"type": "channel",
		"noteNumber": 74,
		"velocity": 0,
		"subtype": "noteOff",
		"time": 22048,
		"track": 1
	},
	{
		"deltaTime": 0,
		"channel": 0,
		"type": "channel",
		"noteNumber": 77,
		"velocity": 0,
		"subtype": "noteOff",
		"time": 22048,
		"track": 1
	},
	{
		"deltaTime": 0,
		"channel": 1,
		"type": "channel",
		"noteNumber": 36,
		"velocity": 0,
		"subtype": "noteOff",
		"time": 22048,
		"track": 2
	},
	{
		"deltaTime": 32,
		"channel": 1,
		"type": "channel",
		"noteNumber": 48,
		"velocity": 0,
		"subtype": "noteOff",
		"time": 22048,
		"track": 2
	},
	{
		"deltaTime": 0,
		"channel": 0,
		"type": "channel",
		"noteNumber": 77,
		"velocity": 127,
		"subtype": "noteOn",
		"time": 22080,
		"track": 1
	},
	{
		"deltaTime": 0,
		"channel": 1,
		"type": "channel",
		"noteNumber": 36,
		"velocity": 127,
		"subtype": "noteOn",
		"time": 22080,
		"track": 2
	},
	{
		"deltaTime": 94,
		"channel": 1,
		"type": "channel",
		"noteNumber": 48,
		"velocity": 127,
		"subtype": "noteOn",
		"time": 22080,
		"track": 2
	},
	{
		"deltaTime": 2,
		"channel": 0,
		"type": "channel",
		"noteNumber": 77,
		"velocity": 0,
		"subtype": "noteOff",
		"time": 22174,
		"track": 1
	},
	{
		"deltaTime": 64,
		"channel": 0,
		"type": "channel",
		"noteNumber": 77,
		"velocity": 127,
		"subtype": "noteOn",
		"time": 22176,
		"track": 1
	},
	{
		"deltaTime": 0,
		"channel": 1,
		"type": "channel",
		"noteNumber": 36,
		"velocity": 0,
		"subtype": "noteOff",
		"time": 22240,
		"track": 2
	},
	{
		"deltaTime": 30,
		"channel": 1,
		"type": "channel",
		"noteNumber": 48,
		"velocity": 0,
		"subtype": "noteOff",
		"time": 22240,
		"track": 2
	},
	{
		"deltaTime": 2,
		"channel": 0,
		"type": "channel",
		"noteNumber": 77,
		"velocity": 0,
		"subtype": "noteOff",
		"time": 22270,
		"track": 1
	},
	{
		"deltaTime": 0,
		"channel": 0,
		"type": "channel",
		"subtype": "controller",
		"controllerType": 64,
		"value": 0,
		"time": 22272,
		"track": 1
	},
	{
		"deltaTime": 0,
		"channel": 0,
		"type": "channel",
		"subtype": "controller",
		"controllerType": 64,
		"value": 127,
		"time": 22272,
		"track": 1
	},
	{
		"deltaTime": 0,
		"channel": 0,
		"type": "channel",
		"noteNumber": 70,
		"velocity": 127,
		"subtype": "noteOn",
		"time": 22272,
		"track": 1
	},
	{
		"deltaTime": 0,
		"channel": 0,
		"type": "channel",
		"noteNumber": 74,
		"velocity": 127,
		"subtype": "noteOn",
		"time": 22272,
		"track": 1
	},
	{
		"deltaTime": 0,
		"channel": 0,
		"type": "channel",
		"noteNumber": 79,
		"velocity": 127,
		"subtype": "noteOn",
		"time": 22272,
		"track": 1
	},
	{
		"deltaTime": 0,
		"channel": 1,
		"type": "channel",
		"subtype": "controller",
		"controllerType": 64,
		"value": 0,
		"time": 22272,
		"track": 2
	},
	{
		"deltaTime": 0,
		"channel": 1,
		"type": "channel",
		"subtype": "controller",
		"controllerType": 64,
		"value": 127,
		"time": 22272,
		"track": 2
	},
	{
		"deltaTime": 0,
		"channel": 1,
		"type": "channel",
		"noteNumber": 34,
		"velocity": 127,
		"subtype": "noteOn",
		"time": 22272,
		"track": 2
	},
	{
		"deltaTime": 160,
		"channel": 1,
		"type": "channel",
		"noteNumber": 46,
		"velocity": 127,
		"subtype": "noteOn",
		"time": 22272,
		"track": 2
	},
	{
		"deltaTime": 0,
		"channel": 0,
		"type": "channel",
		"noteNumber": 70,
		"velocity": 0,
		"subtype": "noteOff",
		"time": 22432,
		"track": 1
	},
	{
		"deltaTime": 0,
		"channel": 0,
		"type": "channel",
		"noteNumber": 74,
		"velocity": 0,
		"subtype": "noteOff",
		"time": 22432,
		"track": 1
	},
	{
		"deltaTime": 0,
		"channel": 0,
		"type": "channel",
		"noteNumber": 79,
		"velocity": 0,
		"subtype": "noteOff",
		"time": 22432,
		"track": 1
	},
	{
		"deltaTime": 0,
		"channel": 1,
		"type": "channel",
		"noteNumber": 34,
		"velocity": 0,
		"subtype": "noteOff",
		"time": 22432,
		"track": 2
	},
	{
		"deltaTime": 32,
		"channel": 1,
		"type": "channel",
		"noteNumber": 46,
		"velocity": 0,
		"subtype": "noteOff",
		"time": 22432,
		"track": 2
	},
	{
		"deltaTime": 0,
		"channel": 0,
		"type": "channel",
		"subtype": "controller",
		"controllerType": 64,
		"value": 0,
		"time": 22464,
		"track": 1
	},
	{
		"deltaTime": 0,
		"channel": 0,
		"type": "channel",
		"subtype": "controller",
		"controllerType": 64,
		"value": 127,
		"time": 22464,
		"track": 1
	},
	{
		"deltaTime": 0,
		"channel": 0,
		"type": "channel",
		"noteNumber": 74,
		"velocity": 127,
		"subtype": "noteOn",
		"time": 22464,
		"track": 1
	},
	{
		"deltaTime": 0,
		"channel": 0,
		"type": "channel",
		"noteNumber": 81,
		"velocity": 127,
		"subtype": "noteOn",
		"time": 22464,
		"track": 1
	},
	{
		"deltaTime": 0,
		"channel": 1,
		"type": "channel",
		"subtype": "controller",
		"controllerType": 64,
		"value": 0,
		"time": 22464,
		"track": 2
	},
	{
		"deltaTime": 0,
		"channel": 1,
		"type": "channel",
		"subtype": "controller",
		"controllerType": 64,
		"value": 127,
		"time": 22464,
		"track": 2
	},
	{
		"deltaTime": 0,
		"channel": 1,
		"type": "channel",
		"noteNumber": 33,
		"velocity": 127,
		"subtype": "noteOn",
		"time": 22464,
		"track": 2
	},
	{
		"deltaTime": 94,
		"channel": 1,
		"type": "channel",
		"noteNumber": 45,
		"velocity": 127,
		"subtype": "noteOn",
		"time": 22464,
		"track": 2
	},
	{
		"deltaTime": 0,
		"channel": 0,
		"type": "channel",
		"noteNumber": 74,
		"velocity": 0,
		"subtype": "noteOff",
		"time": 22558,
		"track": 1
	},
	{
		"deltaTime": 2,
		"channel": 0,
		"type": "channel",
		"noteNumber": 81,
		"velocity": 0,
		"subtype": "noteOff",
		"time": 22558,
		"track": 1
	},
	{
		"deltaTime": 64,
		"channel": 0,
		"type": "channel",
		"noteNumber": 77,
		"velocity": 127,
		"subtype": "noteOn",
		"time": 22560,
		"track": 1
	},
	{
		"deltaTime": 0,
		"channel": 1,
		"type": "channel",
		"noteNumber": 33,
		"velocity": 0,
		"subtype": "noteOff",
		"time": 22624,
		"track": 2
	},
	{
		"deltaTime": 30,
		"channel": 1,
		"type": "channel",
		"noteNumber": 45,
		"velocity": 0,
		"subtype": "noteOff",
		"time": 22624,
		"track": 2
	},
	{
		"deltaTime": 2,
		"channel": 0,
		"type": "channel",
		"noteNumber": 77,
		"velocity": 0,
		"subtype": "noteOff",
		"time": 22654,
		"track": 1
	},
	{
		"deltaTime": 0,
		"channel": 1,
		"type": "channel",
		"noteNumber": 33,
		"velocity": 127,
		"subtype": "noteOn",
		"time": 22656,
		"track": 2
	},
	{
		"deltaTime": 94,
		"channel": 1,
		"type": "channel",
		"noteNumber": 45,
		"velocity": 127,
		"subtype": "noteOn",
		"time": 22656,
		"track": 2
	},
	{
		"deltaTime": 0,
		"channel": 1,
		"type": "channel",
		"noteNumber": 33,
		"velocity": 0,
		"subtype": "noteOff",
		"time": 22750,
		"track": 2
	},
	{
		"deltaTime": 2,
		"channel": 1,
		"type": "channel",
		"noteNumber": 45,
		"velocity": 0,
		"subtype": "noteOff",
		"time": 22750,
		"track": 2
	},
	{
		"deltaTime": 0,
		"channel": 1,
		"type": "channel",
		"noteNumber": 33,
		"velocity": 127,
		"subtype": "noteOn",
		"time": 22752,
		"track": 2
	},
	{
		"deltaTime": 96,
		"channel": 1,
		"type": "channel",
		"noteNumber": 45,
		"velocity": 127,
		"subtype": "noteOn",
		"time": 22752,
		"track": 2
	},
	{
		"deltaTime": 0,
		"channel": 0,
		"type": "channel",
		"noteNumber": 69,
		"velocity": 127,
		"subtype": "noteOn",
		"time": 22848,
		"track": 1
	},
	{
		"deltaTime": 64,
		"channel": 0,
		"type": "channel",
		"noteNumber": 77,
		"velocity": 127,
		"subtype": "noteOn",
		"time": 22848,
		"track": 1
	},
	{
		"deltaTime": 0,
		"channel": 1,
		"type": "channel",
		"noteNumber": 33,
		"velocity": 0,
		"subtype": "noteOff",
		"time": 22912,
		"track": 2
	},
	{
		"deltaTime": 30,
		"channel": 1,
		"type": "channel",
		"noteNumber": 45,
		"velocity": 0,
		"subtype": "noteOff",
		"time": 22912,
		"track": 2
	},
	{
		"deltaTime": 0,
		"channel": 0,
		"type": "channel",
		"noteNumber": 69,
		"velocity": 0,
		"subtype": "noteOff",
		"time": 22942,
		"track": 1
	},
	{
		"deltaTime": 2,
		"channel": 0,
		"type": "channel",
		"noteNumber": 77,
		"velocity": 0,
		"subtype": "noteOff",
		"time": 22942,
		"track": 1
	},
	{
		"deltaTime": 0,
		"channel": 0,
		"type": "channel",
		"noteNumber": 69,
		"velocity": 127,
		"subtype": "noteOn",
		"time": 22944,
		"track": 1
	},
	{
		"deltaTime": 0,
		"channel": 0,
		"type": "channel",
		"noteNumber": 74,
		"velocity": 127,
		"subtype": "noteOn",
		"time": 22944,
		"track": 1
	},
	{
		"deltaTime": 0,
		"channel": 1,
		"type": "channel",
		"noteNumber": 33,
		"velocity": 127,
		"subtype": "noteOn",
		"time": 22944,
		"track": 2
	},
	{
		"deltaTime": 94,
		"channel": 1,
		"type": "channel",
		"noteNumber": 45,
		"velocity": 127,
		"subtype": "noteOn",
		"time": 22944,
		"track": 2
	},
	{
		"deltaTime": 0,
		"channel": 0,
		"type": "channel",
		"noteNumber": 69,
		"velocity": 0,
		"subtype": "noteOff",
		"time": 23038,
		"track": 1
	},
	{
		"deltaTime": 0,
		"channel": 0,
		"type": "channel",
		"noteNumber": 74,
		"velocity": 0,
		"subtype": "noteOff",
		"time": 23038,
		"track": 1
	},
	{
		"deltaTime": 0,
		"channel": 1,
		"type": "channel",
		"noteNumber": 33,
		"velocity": 0,
		"subtype": "noteOff",
		"time": 23038,
		"track": 2
	},
	{
		"deltaTime": 2,
		"channel": 1,
		"type": "channel",
		"noteNumber": 45,
		"velocity": 0,
		"subtype": "noteOff",
		"time": 23038,
		"track": 2
	},
	{
		"deltaTime": 0,
		"channel": 0,
		"type": "channel",
		"noteNumber": 69,
		"velocity": 127,
		"subtype": "noteOn",
		"time": 23040,
		"track": 1
	},
	{
		"deltaTime": 0,
		"channel": 1,
		"type": "channel",
		"noteNumber": 33,
		"velocity": 127,
		"subtype": "noteOn",
		"time": 23040,
		"track": 2
	},
	{
		"deltaTime": 94,
		"channel": 1,
		"type": "channel",
		"noteNumber": 45,
		"velocity": 127,
		"subtype": "noteOn",
		"time": 23040,
		"track": 2
	},
	{
		"deltaTime": 66,
		"channel": 0,
		"type": "channel",
		"noteNumber": 69,
		"velocity": 0,
		"subtype": "noteOff",
		"time": 23134,
		"track": 1
	},
	{
		"deltaTime": 0,
		"channel": 1,
		"type": "channel",
		"noteNumber": 33,
		"velocity": 0,
		"subtype": "noteOff",
		"time": 23200,
		"track": 2
	},
	{
		"deltaTime": 32,
		"channel": 1,
		"type": "channel",
		"noteNumber": 45,
		"velocity": 0,
		"subtype": "noteOff",
		"time": 23200,
		"track": 2
	},
	{
		"deltaTime": 0,
		"channel": 1,
		"type": "channel",
		"noteNumber": 33,
		"velocity": 127,
		"subtype": "noteOn",
		"time": 23232,
		"track": 2
	},
	{
		"deltaTime": 94,
		"channel": 1,
		"type": "channel",
		"noteNumber": 45,
		"velocity": 127,
		"subtype": "noteOn",
		"time": 23232,
		"track": 2
	},
	{
		"deltaTime": 0,
		"channel": 1,
		"type": "channel",
		"noteNumber": 33,
		"velocity": 0,
		"subtype": "noteOff",
		"time": 23326,
		"track": 2
	},
	{
		"deltaTime": 2,
		"channel": 1,
		"type": "channel",
		"noteNumber": 45,
		"velocity": 0,
		"subtype": "noteOff",
		"time": 23326,
		"track": 2
	},
	{
		"deltaTime": 0,
		"channel": 1,
		"type": "channel",
		"noteNumber": 33,
		"velocity": 127,
		"subtype": "noteOn",
		"time": 23328,
		"track": 2
	},
	{
		"deltaTime": 160,
		"channel": 1,
		"type": "channel",
		"noteNumber": 45,
		"velocity": 127,
		"subtype": "noteOn",
		"time": 23328,
		"track": 2
	},
	{
		"deltaTime": 0,
		"channel": 1,
		"type": "channel",
		"noteNumber": 33,
		"velocity": 0,
		"subtype": "noteOff",
		"time": 23488,
		"track": 2
	},
	{
		"deltaTime": 32,
		"channel": 1,
		"type": "channel",
		"noteNumber": 45,
		"velocity": 0,
		"subtype": "noteOff",
		"time": 23488,
		"track": 2
	},
	{
		"deltaTime": 0,
		"channel": 1,
		"type": "channel",
		"noteNumber": 33,
		"velocity": 127,
		"subtype": "noteOn",
		"time": 23520,
		"track": 2
	},
	{
		"deltaTime": 94,
		"channel": 1,
		"type": "channel",
		"noteNumber": 45,
		"velocity": 127,
		"subtype": "noteOn",
		"time": 23520,
		"track": 2
	},
	{
		"deltaTime": 0,
		"channel": 1,
		"type": "channel",
		"noteNumber": 33,
		"velocity": 0,
		"subtype": "noteOff",
		"time": 23614,
		"track": 2
	},
	{
		"deltaTime": 2,
		"channel": 1,
		"type": "channel",
		"noteNumber": 45,
		"velocity": 0,
		"subtype": "noteOff",
		"time": 23614,
		"track": 2
	},
	{
		"deltaTime": 0,
		"channel": 0,
		"type": "channel",
		"subtype": "controller",
		"controllerType": 64,
		"value": 0,
		"time": 23616,
		"track": 1
	},
	{
		"deltaTime": 0,
		"channel": 0,
		"type": "channel",
		"subtype": "controller",
		"controllerType": 64,
		"value": 127,
		"time": 23616,
		"track": 1
	},
	{
		"deltaTime": 0,
		"channel": 0,
		"type": "channel",
		"noteNumber": 74,
		"velocity": 127,
		"subtype": "noteOn",
		"time": 23616,
		"track": 1
	},
	{
		"deltaTime": 0,
		"channel": 0,
		"type": "channel",
		"noteNumber": 79,
		"velocity": 127,
		"subtype": "noteOn",
		"time": 23616,
		"track": 1
	},
	{
		"deltaTime": 0,
		"channel": 0,
		"type": "channel",
		"noteNumber": 82,
		"velocity": 127,
		"subtype": "noteOn",
		"time": 23616,
		"track": 1
	},
	{
		"deltaTime": 0,
		"channel": 1,
		"type": "channel",
		"subtype": "controller",
		"controllerType": 64,
		"value": 0,
		"time": 23616,
		"track": 2
	},
	{
		"deltaTime": 0,
		"channel": 1,
		"type": "channel",
		"subtype": "controller",
		"controllerType": 64,
		"value": 127,
		"time": 23616,
		"track": 2
	},
	{
		"deltaTime": 0,
		"channel": 1,
		"type": "channel",
		"noteNumber": 31,
		"velocity": 127,
		"subtype": "noteOn",
		"time": 23616,
		"track": 2
	},
	{
		"deltaTime": 94,
		"channel": 1,
		"type": "channel",
		"noteNumber": 43,
		"velocity": 127,
		"subtype": "noteOn",
		"time": 23616,
		"track": 2
	},
	{
		"deltaTime": 0,
		"channel": 0,
		"type": "channel",
		"noteNumber": 74,
		"velocity": 0,
		"subtype": "noteOff",
		"time": 23710,
		"track": 1
	},
	{
		"deltaTime": 0,
		"channel": 0,
		"type": "channel",
		"noteNumber": 79,
		"velocity": 0,
		"subtype": "noteOff",
		"time": 23710,
		"track": 1
	},
	{
		"deltaTime": 66,
		"channel": 0,
		"type": "channel",
		"noteNumber": 82,
		"velocity": 0,
		"subtype": "noteOff",
		"time": 23710,
		"track": 1
	},
	{
		"deltaTime": 0,
		"channel": 1,
		"type": "channel",
		"noteNumber": 31,
		"velocity": 0,
		"subtype": "noteOff",
		"time": 23776,
		"track": 2
	},
	{
		"deltaTime": 32,
		"channel": 1,
		"type": "channel",
		"noteNumber": 43,
		"velocity": 0,
		"subtype": "noteOff",
		"time": 23776,
		"track": 2
	},
	{
		"deltaTime": 0,
		"channel": 1,
		"type": "channel",
		"noteNumber": 31,
		"velocity": 127,
		"subtype": "noteOn",
		"time": 23808,
		"track": 2
	},
	{
		"deltaTime": 94,
		"channel": 1,
		"type": "channel",
		"noteNumber": 43,
		"velocity": 127,
		"subtype": "noteOn",
		"time": 23808,
		"track": 2
	},
	{
		"deltaTime": 0,
		"channel": 1,
		"type": "channel",
		"noteNumber": 31,
		"velocity": 0,
		"subtype": "noteOff",
		"time": 23902,
		"track": 2
	},
	{
		"deltaTime": 2,
		"channel": 1,
		"type": "channel",
		"noteNumber": 43,
		"velocity": 0,
		"subtype": "noteOff",
		"time": 23902,
		"track": 2
	},
	{
		"deltaTime": 0,
		"channel": 1,
		"type": "channel",
		"noteNumber": 31,
		"velocity": 127,
		"subtype": "noteOn",
		"time": 23904,
		"track": 2
	},
	{
		"deltaTime": 96,
		"channel": 1,
		"type": "channel",
		"noteNumber": 43,
		"velocity": 127,
		"subtype": "noteOn",
		"time": 23904,
		"track": 2
	},
	{
		"deltaTime": 0,
		"channel": 0,
		"type": "channel",
		"noteNumber": 70,
		"velocity": 127,
		"subtype": "noteOn",
		"time": 24000,
		"track": 1
	},
	{
		"deltaTime": 64,
		"channel": 0,
		"type": "channel",
		"noteNumber": 79,
		"velocity": 127,
		"subtype": "noteOn",
		"time": 24000,
		"track": 1
	},
	{
		"deltaTime": 0,
		"channel": 1,
		"type": "channel",
		"noteNumber": 31,
		"velocity": 0,
		"subtype": "noteOff",
		"time": 24064,
		"track": 2
	},
	{
		"deltaTime": 30,
		"channel": 1,
		"type": "channel",
		"noteNumber": 43,
		"velocity": 0,
		"subtype": "noteOff",
		"time": 24064,
		"track": 2
	},
	{
		"deltaTime": 0,
		"channel": 0,
		"type": "channel",
		"noteNumber": 70,
		"velocity": 0,
		"subtype": "noteOff",
		"time": 24094,
		"track": 1
	},
	{
		"deltaTime": 2,
		"channel": 0,
		"type": "channel",
		"noteNumber": 79,
		"velocity": 0,
		"subtype": "noteOff",
		"time": 24094,
		"track": 1
	},
	{
		"deltaTime": 0,
		"channel": 0,
		"type": "channel",
		"noteNumber": 70,
		"velocity": 127,
		"subtype": "noteOn",
		"time": 24096,
		"track": 1
	},
	{
		"deltaTime": 0,
		"channel": 0,
		"type": "channel",
		"noteNumber": 74,
		"velocity": 127,
		"subtype": "noteOn",
		"time": 24096,
		"track": 1
	},
	{
		"deltaTime": 0,
		"channel": 1,
		"type": "channel",
		"noteNumber": 31,
		"velocity": 127,
		"subtype": "noteOn",
		"time": 24096,
		"track": 2
	},
	{
		"deltaTime": 94,
		"channel": 1,
		"type": "channel",
		"noteNumber": 43,
		"velocity": 127,
		"subtype": "noteOn",
		"time": 24096,
		"track": 2
	},
	{
		"deltaTime": 0,
		"channel": 0,
		"type": "channel",
		"noteNumber": 70,
		"velocity": 0,
		"subtype": "noteOff",
		"time": 24190,
		"track": 1
	},
	{
		"deltaTime": 0,
		"channel": 0,
		"type": "channel",
		"noteNumber": 74,
		"velocity": 0,
		"subtype": "noteOff",
		"time": 24190,
		"track": 1
	},
	{
		"deltaTime": 0,
		"channel": 1,
		"type": "channel",
		"noteNumber": 31,
		"velocity": 0,
		"subtype": "noteOff",
		"time": 24190,
		"track": 2
	},
	{
		"deltaTime": 2,
		"channel": 1,
		"type": "channel",
		"noteNumber": 43,
		"velocity": 0,
		"subtype": "noteOff",
		"time": 24190,
		"track": 2
	},
	{
		"deltaTime": 0,
		"channel": 0,
		"type": "channel",
		"noteNumber": 70,
		"velocity": 127,
		"subtype": "noteOn",
		"time": 24192,
		"track": 1
	},
	{
		"deltaTime": 0,
		"channel": 1,
		"type": "channel",
		"noteNumber": 31,
		"velocity": 127,
		"subtype": "noteOn",
		"time": 24192,
		"track": 2
	},
	{
		"deltaTime": 94,
		"channel": 1,
		"type": "channel",
		"noteNumber": 43,
		"velocity": 127,
		"subtype": "noteOn",
		"time": 24192,
		"track": 2
	},
	{
		"deltaTime": 66,
		"channel": 0,
		"type": "channel",
		"noteNumber": 70,
		"velocity": 0,
		"subtype": "noteOff",
		"time": 24286,
		"track": 1
	},
	{
		"deltaTime": 0,
		"channel": 1,
		"type": "channel",
		"noteNumber": 31,
		"velocity": 0,
		"subtype": "noteOff",
		"time": 24352,
		"track": 2
	},
	{
		"deltaTime": 32,
		"channel": 1,
		"type": "channel",
		"noteNumber": 43,
		"velocity": 0,
		"subtype": "noteOff",
		"time": 24352,
		"track": 2
	},
	{
		"deltaTime": 0,
		"channel": 1,
		"type": "channel",
		"noteNumber": 31,
		"velocity": 127,
		"subtype": "noteOn",
		"time": 24384,
		"track": 2
	},
	{
		"deltaTime": 94,
		"channel": 1,
		"type": "channel",
		"noteNumber": 43,
		"velocity": 127,
		"subtype": "noteOn",
		"time": 24384,
		"track": 2
	},
	{
		"deltaTime": 0,
		"channel": 1,
		"type": "channel",
		"noteNumber": 31,
		"velocity": 0,
		"subtype": "noteOff",
		"time": 24478,
		"track": 2
	},
	{
		"deltaTime": 2,
		"channel": 1,
		"type": "channel",
		"noteNumber": 43,
		"velocity": 0,
		"subtype": "noteOff",
		"time": 24478,
		"track": 2
	},
	{
		"deltaTime": 0,
		"channel": 1,
		"type": "channel",
		"noteNumber": 31,
		"velocity": 127,
		"subtype": "noteOn",
		"time": 24480,
		"track": 2
	},
	{
		"deltaTime": 160,
		"channel": 1,
		"type": "channel",
		"noteNumber": 43,
		"velocity": 127,
		"subtype": "noteOn",
		"time": 24480,
		"track": 2
	},
	{
		"deltaTime": 0,
		"channel": 1,
		"type": "channel",
		"noteNumber": 31,
		"velocity": 0,
		"subtype": "noteOff",
		"time": 24640,
		"track": 2
	},
	{
		"deltaTime": 32,
		"channel": 1,
		"type": "channel",
		"noteNumber": 43,
		"velocity": 0,
		"subtype": "noteOff",
		"time": 24640,
		"track": 2
	},
	{
		"deltaTime": 0,
		"channel": 1,
		"type": "channel",
		"noteNumber": 31,
		"velocity": 127,
		"subtype": "noteOn",
		"time": 24672,
		"track": 2
	},
	{
		"deltaTime": 94,
		"channel": 1,
		"type": "channel",
		"noteNumber": 43,
		"velocity": 127,
		"subtype": "noteOn",
		"time": 24672,
		"track": 2
	},
	{
		"deltaTime": 0,
		"channel": 1,
		"type": "channel",
		"noteNumber": 31,
		"velocity": 0,
		"subtype": "noteOff",
		"time": 24766,
		"track": 2
	},
	{
		"deltaTime": 2,
		"channel": 1,
		"type": "channel",
		"noteNumber": 43,
		"velocity": 0,
		"subtype": "noteOff",
		"time": 24766,
		"track": 2
	},
	{
		"deltaTime": 0,
		"channel": 0,
		"type": "channel",
		"subtype": "controller",
		"controllerType": 64,
		"value": 0,
		"time": 24768,
		"track": 1
	},
	{
		"deltaTime": 0,
		"channel": 0,
		"type": "channel",
		"subtype": "controller",
		"controllerType": 64,
		"value": 127,
		"time": 24768,
		"track": 1
	},
	{
		"deltaTime": 0,
		"channel": 0,
		"type": "channel",
		"noteNumber": 61,
		"velocity": 127,
		"subtype": "noteOn",
		"time": 24768,
		"track": 1
	},
	{
		"deltaTime": 0,
		"channel": 0,
		"type": "channel",
		"noteNumber": 64,
		"velocity": 127,
		"subtype": "noteOn",
		"time": 24768,
		"track": 1
	},
	{
		"deltaTime": 0,
		"channel": 1,
		"type": "channel",
		"subtype": "controller",
		"controllerType": 64,
		"value": 0,
		"time": 24768,
		"track": 2
	},
	{
		"deltaTime": 0,
		"channel": 1,
		"type": "channel",
		"subtype": "controller",
		"controllerType": 64,
		"value": 127,
		"time": 24768,
		"track": 2
	},
	{
		"deltaTime": 0,
		"channel": 1,
		"type": "channel",
		"noteNumber": 33,
		"velocity": 127,
		"subtype": "noteOn",
		"time": 24768,
		"track": 2
	},
	{
		"deltaTime": 94,
		"channel": 1,
		"type": "channel",
		"noteNumber": 45,
		"velocity": 127,
		"subtype": "noteOn",
		"time": 24768,
		"track": 2
	},
	{
		"deltaTime": 0,
		"channel": 0,
		"type": "channel",
		"noteNumber": 61,
		"velocity": 0,
		"subtype": "noteOff",
		"time": 24862,
		"track": 1
	},
	{
		"deltaTime": 2,
		"channel": 0,
		"type": "channel",
		"noteNumber": 64,
		"velocity": 0,
		"subtype": "noteOff",
		"time": 24862,
		"track": 1
	},
	{
		"deltaTime": 0,
		"channel": 0,
		"type": "channel",
		"noteNumber": 61,
		"velocity": 127,
		"subtype": "noteOn",
		"time": 24864,
		"track": 1
	},
	{
		"deltaTime": 64,
		"channel": 0,
		"type": "channel",
		"noteNumber": 64,
		"velocity": 127,
		"subtype": "noteOn",
		"time": 24864,
		"track": 1
	},
	{
		"deltaTime": 0,
		"channel": 1,
		"type": "channel",
		"noteNumber": 33,
		"velocity": 0,
		"subtype": "noteOff",
		"time": 24928,
		"track": 2
	},
	{
		"deltaTime": 32,
		"channel": 1,
		"type": "channel",
		"noteNumber": 45,
		"velocity": 0,
		"subtype": "noteOff",
		"time": 24928,
		"track": 2
	},
	{
		"deltaTime": 0,
		"channel": 1,
		"type": "channel",
		"noteNumber": 33,
		"velocity": 127,
		"subtype": "noteOn",
		"time": 24960,
		"track": 2
	},
	{
		"deltaTime": 64,
		"channel": 1,
		"type": "channel",
		"noteNumber": 45,
		"velocity": 127,
		"subtype": "noteOn",
		"time": 24960,
		"track": 2
	},
	{
		"deltaTime": 0,
		"channel": 0,
		"type": "channel",
		"noteNumber": 61,
		"velocity": 0,
		"subtype": "noteOff",
		"time": 25024,
		"track": 1
	},
	{
		"deltaTime": 30,
		"channel": 0,
		"type": "channel",
		"noteNumber": 64,
		"velocity": 0,
		"subtype": "noteOff",
		"time": 25024,
		"track": 1
	},
	{
		"deltaTime": 0,
		"channel": 1,
		"type": "channel",
		"noteNumber": 33,
		"velocity": 0,
		"subtype": "noteOff",
		"time": 25054,
		"track": 2
	},
	{
		"deltaTime": 2,
		"channel": 1,
		"type": "channel",
		"noteNumber": 45,
		"velocity": 0,
		"subtype": "noteOff",
		"time": 25054,
		"track": 2
	},
	{
		"deltaTime": 0,
		"channel": 0,
		"type": "channel",
		"noteNumber": 55,
		"velocity": 127,
		"subtype": "noteOn",
		"time": 25056,
		"track": 1
	},
	{
		"deltaTime": 0,
		"channel": 0,
		"type": "channel",
		"noteNumber": 62,
		"velocity": 127,
		"subtype": "noteOn",
		"time": 25056,
		"track": 1
	},
	{
		"deltaTime": 0,
		"channel": 1,
		"type": "channel",
		"subtype": "controller",
		"controllerType": 64,
		"value": 0,
		"time": 25056,
		"track": 2
	},
	{
		"deltaTime": 0,
		"channel": 1,
		"type": "channel",
		"subtype": "controller",
		"controllerType": 64,
		"value": 127,
		"time": 25056,
		"track": 2
	},
	{
		"deltaTime": 0,
		"channel": 1,
		"type": "channel",
		"noteNumber": 33,
		"velocity": 127,
		"subtype": "noteOn",
		"time": 25056,
		"track": 2
	},
	{
		"deltaTime": 160,
		"channel": 1,
		"type": "channel",
		"noteNumber": 45,
		"velocity": 127,
		"subtype": "noteOn",
		"time": 25056,
		"track": 2
	},
	{
		"deltaTime": 0,
		"channel": 1,
		"type": "channel",
		"noteNumber": 33,
		"velocity": 0,
		"subtype": "noteOff",
		"time": 25216,
		"track": 2
	},
	{
		"deltaTime": 32,
		"channel": 1,
		"type": "channel",
		"noteNumber": 45,
		"velocity": 0,
		"subtype": "noteOff",
		"time": 25216,
		"track": 2
	},
	{
		"deltaTime": 0,
		"channel": 1,
		"type": "channel",
		"noteNumber": 33,
		"velocity": 127,
		"subtype": "noteOn",
		"time": 25248,
		"track": 2
	},
	{
		"deltaTime": 64,
		"channel": 1,
		"type": "channel",
		"noteNumber": 45,
		"velocity": 127,
		"subtype": "noteOn",
		"time": 25248,
		"track": 2
	},
	{
		"deltaTime": 0,
		"channel": 0,
		"type": "channel",
		"noteNumber": 55,
		"velocity": 0,
		"subtype": "noteOff",
		"time": 25312,
		"track": 1
	},
	{
		"deltaTime": 30,
		"channel": 0,
		"type": "channel",
		"noteNumber": 62,
		"velocity": 0,
		"subtype": "noteOff",
		"time": 25312,
		"track": 1
	},
	{
		"deltaTime": 0,
		"channel": 1,
		"type": "channel",
		"noteNumber": 33,
		"velocity": 0,
		"subtype": "noteOff",
		"time": 25342,
		"track": 2
	},
	{
		"deltaTime": 2,
		"channel": 1,
		"type": "channel",
		"noteNumber": 45,
		"velocity": 0,
		"subtype": "noteOff",
		"time": 25342,
		"track": 2
	},
	{
		"deltaTime": 0,
		"channel": 0,
		"type": "channel",
		"subtype": "controller",
		"controllerType": 64,
		"value": 0,
		"time": 25344,
		"track": 1
	},
	{
		"deltaTime": 0,
		"channel": 0,
		"type": "channel",
		"subtype": "controller",
		"controllerType": 64,
		"value": 127,
		"time": 25344,
		"track": 1
	},
	{
		"deltaTime": 0,
		"channel": 0,
		"type": "channel",
		"noteNumber": 57,
		"velocity": 127,
		"subtype": "noteOn",
		"time": 25344,
		"track": 1
	},
	{
		"deltaTime": 0,
		"channel": 0,
		"type": "channel",
		"noteNumber": 61,
		"velocity": 127,
		"subtype": "noteOn",
		"time": 25344,
		"track": 1
	},
	{
		"deltaTime": 0,
		"channel": 0,
		"type": "channel",
		"noteNumber": 65,
		"velocity": 127,
		"subtype": "noteOn",
		"time": 25344,
		"track": 1
	},
	{
		"deltaTime": 0,
		"channel": 1,
		"type": "channel",
		"noteNumber": 33,
		"velocity": 127,
		"subtype": "noteOn",
		"time": 25344,
		"track": 2
	},
	{
		"deltaTime": 160,
		"channel": 1,
		"type": "channel",
		"noteNumber": 45,
		"velocity": 127,
		"subtype": "noteOn",
		"time": 25344,
		"track": 2
	},
	{
		"deltaTime": 0,
		"channel": 1,
		"type": "channel",
		"noteNumber": 33,
		"velocity": 0,
		"subtype": "noteOff",
		"time": 25504,
		"track": 2
	},
	{
		"deltaTime": 32,
		"channel": 1,
		"type": "channel",
		"noteNumber": 45,
		"velocity": 0,
		"subtype": "noteOff",
		"time": 25504,
		"track": 2
	},
	{
		"deltaTime": 0,
		"channel": 1,
		"type": "channel",
		"noteNumber": 33,
		"velocity": 127,
		"subtype": "noteOn",
		"time": 25536,
		"track": 2
	},
	{
		"deltaTime": 64,
		"channel": 1,
		"type": "channel",
		"noteNumber": 45,
		"velocity": 127,
		"subtype": "noteOn",
		"time": 25536,
		"track": 2
	},
	{
		"deltaTime": 0,
		"channel": 0,
		"type": "channel",
		"noteNumber": 57,
		"velocity": 0,
		"subtype": "noteOff",
		"time": 25600,
		"track": 1
	},
	{
		"deltaTime": 0,
		"channel": 0,
		"type": "channel",
		"noteNumber": 61,
		"velocity": 0,
		"subtype": "noteOff",
		"time": 25600,
		"track": 1
	},
	{
		"deltaTime": 30,
		"channel": 0,
		"type": "channel",
		"noteNumber": 65,
		"velocity": 0,
		"subtype": "noteOff",
		"time": 25600,
		"track": 1
	},
	{
		"deltaTime": 0,
		"channel": 1,
		"type": "channel",
		"noteNumber": 33,
		"velocity": 0,
		"subtype": "noteOff",
		"time": 25630,
		"track": 2
	},
	{
		"deltaTime": 2,
		"channel": 1,
		"type": "channel",
		"noteNumber": 45,
		"velocity": 0,
		"subtype": "noteOff",
		"time": 25630,
		"track": 2
	},
	{
		"deltaTime": 0,
		"channel": 1,
		"type": "channel",
		"noteNumber": 33,
		"velocity": 127,
		"subtype": "noteOn",
		"time": 25632,
		"track": 2
	},
	{
		"deltaTime": 96,
		"channel": 1,
		"type": "channel",
		"noteNumber": 45,
		"velocity": 127,
		"subtype": "noteOn",
		"time": 25632,
		"track": 2
	},
	{
		"deltaTime": 64,
		"channel": 0,
		"type": "channel",
		"noteNumber": 65,
		"velocity": 127,
		"subtype": "noteOn",
		"time": 25728,
		"track": 1
	},
	{
		"deltaTime": 0,
		"channel": 1,
		"type": "channel",
		"noteNumber": 33,
		"velocity": 0,
		"subtype": "noteOff",
		"time": 25792,
		"track": 2
	},
	{
		"deltaTime": 30,
		"channel": 1,
		"type": "channel",
		"noteNumber": 45,
		"velocity": 0,
		"subtype": "noteOff",
		"time": 25792,
		"track": 2
	},
	{
		"deltaTime": 2,
		"channel": 0,
		"type": "channel",
		"noteNumber": 65,
		"velocity": 0,
		"subtype": "noteOff",
		"time": 25822,
		"track": 1
	},
	{
		"deltaTime": 0,
		"channel": 0,
		"type": "channel",
		"noteNumber": 67,
		"velocity": 127,
		"subtype": "noteOn",
		"time": 25824,
		"track": 1
	},
	{
		"deltaTime": 0,
		"channel": 1,
		"type": "channel",
		"noteNumber": 33,
		"velocity": 127,
		"subtype": "noteOn",
		"time": 25824,
		"track": 2
	},
	{
		"deltaTime": 94,
		"channel": 1,
		"type": "channel",
		"noteNumber": 45,
		"velocity": 127,
		"subtype": "noteOn",
		"time": 25824,
		"track": 2
	},
	{
		"deltaTime": 0,
		"channel": 0,
		"type": "channel",
		"noteNumber": 67,
		"velocity": 0,
		"subtype": "noteOff",
		"time": 25918,
		"track": 1
	},
	{
		"deltaTime": 0,
		"channel": 1,
		"type": "channel",
		"noteNumber": 33,
		"velocity": 0,
		"subtype": "noteOff",
		"time": 25918,
		"track": 2
	},
	{
		"deltaTime": 2,
		"channel": 1,
		"type": "channel",
		"noteNumber": 45,
		"velocity": 0,
		"subtype": "noteOff",
		"time": 25918,
		"track": 2
	},
	{
		"deltaTime": 0,
		"channel": 0,
		"type": "channel",
		"subtype": "controller",
		"controllerType": 64,
		"value": 0,
		"time": 25920,
		"track": 1
	},
	{
		"deltaTime": 0,
		"channel": 0,
		"type": "channel",
		"subtype": "controller",
		"controllerType": 64,
		"value": 127,
		"time": 25920,
		"track": 1
	},
	{
		"deltaTime": 0,
		"channel": 0,
		"type": "channel",
		"noteNumber": 62,
		"velocity": 127,
		"subtype": "noteOn",
		"time": 25920,
		"track": 1
	},
	{
		"deltaTime": 0,
		"channel": 0,
		"type": "channel",
		"noteNumber": 65,
		"velocity": 127,
		"subtype": "noteOn",
		"time": 25920,
		"track": 1
	},
	{
		"deltaTime": 0,
		"channel": 0,
		"type": "channel",
		"noteNumber": 69,
		"velocity": 127,
		"subtype": "noteOn",
		"time": 25920,
		"track": 1
	},
	{
		"deltaTime": 0,
		"channel": 1,
		"type": "channel",
		"subtype": "controller",
		"controllerType": 64,
		"value": 0,
		"time": 25920,
		"track": 2
	},
	{
		"deltaTime": 0,
		"channel": 1,
		"type": "channel",
		"subtype": "controller",
		"controllerType": 64,
		"value": 127,
		"time": 25920,
		"track": 2
	},
	{
		"deltaTime": 0,
		"channel": 1,
		"type": "channel",
		"noteNumber": 38,
		"velocity": 127,
		"subtype": "noteOn",
		"time": 25920,
		"track": 2
	},
	{
		"deltaTime": 160,
		"channel": 1,
		"type": "channel",
		"noteNumber": 50,
		"velocity": 127,
		"subtype": "noteOn",
		"time": 25920,
		"track": 2
	},
	{
		"deltaTime": 0,
		"channel": 0,
		"type": "channel",
		"noteNumber": 62,
		"velocity": 0,
		"subtype": "noteOff",
		"time": 26080,
		"track": 1
	},
	{
		"deltaTime": 0,
		"channel": 0,
		"type": "channel",
		"noteNumber": 65,
		"velocity": 0,
		"subtype": "noteOff",
		"time": 26080,
		"track": 1
	},
	{
		"deltaTime": 0,
		"channel": 0,
		"type": "channel",
		"noteNumber": 69,
		"velocity": 0,
		"subtype": "noteOff",
		"time": 26080,
		"track": 1
	},
	{
		"deltaTime": 0,
		"channel": 1,
		"type": "channel",
		"noteNumber": 38,
		"velocity": 0,
		"subtype": "noteOff",
		"time": 26080,
		"track": 2
	},
	{
		"deltaTime": 32,
		"channel": 1,
		"type": "channel",
		"noteNumber": 50,
		"velocity": 0,
		"subtype": "noteOff",
		"time": 26080,
		"track": 2
	},
	{
		"deltaTime": 0,
		"channel": 0,
		"type": "channel",
		"noteNumber": 62,
		"velocity": 127,
		"subtype": "noteOn",
		"time": 26112,
		"track": 1
	},
	{
		"deltaTime": 0,
		"channel": 0,
		"type": "channel",
		"noteNumber": 65,
		"velocity": 127,
		"subtype": "noteOn",
		"time": 26112,
		"track": 1
	},
	{
		"deltaTime": 0,
		"channel": 0,
		"type": "channel",
		"noteNumber": 69,
		"velocity": 127,
		"subtype": "noteOn",
		"time": 26112,
		"track": 1
	},
	{
		"deltaTime": 0,
		"channel": 1,
		"type": "channel",
		"noteNumber": 38,
		"velocity": 127,
		"subtype": "noteOn",
		"time": 26112,
		"track": 2
	},
	{
		"deltaTime": 94,
		"channel": 1,
		"type": "channel",
		"noteNumber": 50,
		"velocity": 127,
		"subtype": "noteOn",
		"time": 26112,
		"track": 2
	},
	{
		"deltaTime": 0,
		"channel": 1,
		"type": "channel",
		"noteNumber": 38,
		"velocity": 0,
		"subtype": "noteOff",
		"time": 26206,
		"track": 2
	},
	{
		"deltaTime": 2,
		"channel": 1,
		"type": "channel",
		"noteNumber": 50,
		"velocity": 0,
		"subtype": "noteOff",
		"time": 26206,
		"track": 2
	},
	{
		"deltaTime": 0,
		"channel": 1,
		"type": "channel",
		"noteNumber": 38,
		"velocity": 127,
		"subtype": "noteOn",
		"time": 26208,
		"track": 2
	},
	{
		"deltaTime": 64,
		"channel": 1,
		"type": "channel",
		"noteNumber": 50,
		"velocity": 127,
		"subtype": "noteOn",
		"time": 26208,
		"track": 2
	},
	{
		"deltaTime": 0,
		"channel": 0,
		"type": "channel",
		"noteNumber": 62,
		"velocity": 0,
		"subtype": "noteOff",
		"time": 26272,
		"track": 1
	},
	{
		"deltaTime": 0,
		"channel": 0,
		"type": "channel",
		"noteNumber": 65,
		"velocity": 0,
		"subtype": "noteOff",
		"time": 26272,
		"track": 1
	},
	{
		"deltaTime": 32,
		"channel": 0,
		"type": "channel",
		"noteNumber": 69,
		"velocity": 0,
		"subtype": "noteOff",
		"time": 26272,
		"track": 1
	},
	{
		"deltaTime": 0,
		"channel": 0,
		"type": "channel",
		"noteNumber": 62,
		"velocity": 127,
		"subtype": "noteOn",
		"time": 26304,
		"track": 1
	},
	{
		"deltaTime": 0,
		"channel": 0,
		"type": "channel",
		"noteNumber": 65,
		"velocity": 127,
		"subtype": "noteOn",
		"time": 26304,
		"track": 1
	},
	{
		"deltaTime": 64,
		"channel": 0,
		"type": "channel",
		"noteNumber": 69,
		"velocity": 127,
		"subtype": "noteOn",
		"time": 26304,
		"track": 1
	},
	{
		"deltaTime": 0,
		"channel": 1,
		"type": "channel",
		"noteNumber": 38,
		"velocity": 0,
		"subtype": "noteOff",
		"time": 26368,
		"track": 2
	},
	{
		"deltaTime": 32,
		"channel": 1,
		"type": "channel",
		"noteNumber": 50,
		"velocity": 0,
		"subtype": "noteOff",
		"time": 26368,
		"track": 2
	},
	{
		"deltaTime": 0,
		"channel": 1,
		"type": "channel",
		"noteNumber": 38,
		"velocity": 127,
		"subtype": "noteOn",
		"time": 26400,
		"track": 2
	},
	{
		"deltaTime": 64,
		"channel": 1,
		"type": "channel",
		"noteNumber": 50,
		"velocity": 127,
		"subtype": "noteOn",
		"time": 26400,
		"track": 2
	},
	{
		"deltaTime": 0,
		"channel": 0,
		"type": "channel",
		"noteNumber": 62,
		"velocity": 0,
		"subtype": "noteOff",
		"time": 26464,
		"track": 1
	},
	{
		"deltaTime": 0,
		"channel": 0,
		"type": "channel",
		"noteNumber": 65,
		"velocity": 0,
		"subtype": "noteOff",
		"time": 26464,
		"track": 1
	},
	{
		"deltaTime": 30,
		"channel": 0,
		"type": "channel",
		"noteNumber": 69,
		"velocity": 0,
		"subtype": "noteOff",
		"time": 26464,
		"track": 1
	},
	{
		"deltaTime": 0,
		"channel": 1,
		"type": "channel",
		"noteNumber": 38,
		"velocity": 0,
		"subtype": "noteOff",
		"time": 26494,
		"track": 2
	},
	{
		"deltaTime": 2,
		"channel": 1,
		"type": "channel",
		"noteNumber": 50,
		"velocity": 0,
		"subtype": "noteOff",
		"time": 26494,
		"track": 2
	},
	{
		"deltaTime": 0,
		"channel": 0,
		"type": "channel",
		"noteNumber": 62,
		"velocity": 127,
		"subtype": "noteOn",
		"time": 26496,
		"track": 1
	},
	{
		"deltaTime": 0,
		"channel": 0,
		"type": "channel",
		"noteNumber": 65,
		"velocity": 127,
		"subtype": "noteOn",
		"time": 26496,
		"track": 1
	},
	{
		"deltaTime": 0,
		"channel": 0,
		"type": "channel",
		"noteNumber": 70,
		"velocity": 127,
		"subtype": "noteOn",
		"time": 26496,
		"track": 1
	},
	{
		"deltaTime": 0,
		"channel": 1,
		"type": "channel",
		"noteNumber": 38,
		"velocity": 127,
		"subtype": "noteOn",
		"time": 26496,
		"track": 2
	},
	{
		"deltaTime": 94,
		"channel": 1,
		"type": "channel",
		"noteNumber": 50,
		"velocity": 127,
		"subtype": "noteOn",
		"time": 26496,
		"track": 2
	},
	{
		"deltaTime": 0,
		"channel": 0,
		"type": "channel",
		"noteNumber": 62,
		"velocity": 0,
		"subtype": "noteOff",
		"time": 26590,
		"track": 1
	},
	{
		"deltaTime": 0,
		"channel": 0,
		"type": "channel",
		"noteNumber": 65,
		"velocity": 0,
		"subtype": "noteOff",
		"time": 26590,
		"track": 1
	},
	{
		"deltaTime": 2,
		"channel": 0,
		"type": "channel",
		"noteNumber": 70,
		"velocity": 0,
		"subtype": "noteOff",
		"time": 26590,
		"track": 1
	},
	{
		"deltaTime": 0,
		"channel": 0,
		"type": "channel",
		"subtype": "controller",
		"controllerType": 64,
		"value": 0,
		"time": 26592,
		"track": 1
	},
	{
		"deltaTime": 0,
		"channel": 0,
		"type": "channel",
		"subtype": "controller",
		"controllerType": 64,
		"value": 127,
		"time": 26592,
		"track": 1
	},
	{
		"deltaTime": 0,
		"channel": 0,
		"type": "channel",
		"noteNumber": 62,
		"velocity": 127,
		"subtype": "noteOn",
		"time": 26592,
		"track": 1
	},
	{
		"deltaTime": 0,
		"channel": 0,
		"type": "channel",
		"noteNumber": 65,
		"velocity": 127,
		"subtype": "noteOn",
		"time": 26592,
		"track": 1
	},
	{
		"deltaTime": 64,
		"channel": 0,
		"type": "channel",
		"noteNumber": 69,
		"velocity": 127,
		"subtype": "noteOn",
		"time": 26592,
		"track": 1
	},
	{
		"deltaTime": 0,
		"channel": 1,
		"type": "channel",
		"noteNumber": 38,
		"velocity": 0,
		"subtype": "noteOff",
		"time": 26656,
		"track": 2
	},
	{
		"deltaTime": 30,
		"channel": 1,
		"type": "channel",
		"noteNumber": 50,
		"velocity": 0,
		"subtype": "noteOff",
		"time": 26656,
		"track": 2
	},
	{
		"deltaTime": 0,
		"channel": 0,
		"type": "channel",
		"noteNumber": 62,
		"velocity": 0,
		"subtype": "noteOff",
		"time": 26686,
		"track": 1
	},
	{
		"deltaTime": 0,
		"channel": 0,
		"type": "channel",
		"noteNumber": 65,
		"velocity": 0,
		"subtype": "noteOff",
		"time": 26686,
		"track": 1
	},
	{
		"deltaTime": 2,
		"channel": 0,
		"type": "channel",
		"noteNumber": 69,
		"velocity": 0,
		"subtype": "noteOff",
		"time": 26686,
		"track": 1
	},
	{
		"deltaTime": 0,
		"channel": 1,
		"type": "channel",
		"noteNumber": 38,
		"velocity": 127,
		"subtype": "noteOn",
		"time": 26688,
		"track": 2
	},
	{
		"deltaTime": 94,
		"channel": 1,
		"type": "channel",
		"noteNumber": 50,
		"velocity": 127,
		"subtype": "noteOn",
		"time": 26688,
		"track": 2
	},
	{
		"deltaTime": 0,
		"channel": 1,
		"type": "channel",
		"noteNumber": 38,
		"velocity": 0,
		"subtype": "noteOff",
		"time": 26782,
		"track": 2
	},
	{
		"deltaTime": 2,
		"channel": 1,
		"type": "channel",
		"noteNumber": 50,
		"velocity": 0,
		"subtype": "noteOff",
		"time": 26782,
		"track": 2
	},
	{
		"deltaTime": 0,
		"channel": 1,
		"type": "channel",
		"noteNumber": 38,
		"velocity": 127,
		"subtype": "noteOn",
		"time": 26784,
		"track": 2
	},
	{
		"deltaTime": 94,
		"channel": 1,
		"type": "channel",
		"noteNumber": 50,
		"velocity": 127,
		"subtype": "noteOn",
		"time": 26784,
		"track": 2
	},
	{
		"deltaTime": 0,
		"channel": 1,
		"type": "channel",
		"noteNumber": 38,
		"velocity": 0,
		"subtype": "noteOff",
		"time": 26878,
		"track": 2
	},
	{
		"deltaTime": 2,
		"channel": 1,
		"type": "channel",
		"noteNumber": 50,
		"velocity": 0,
		"subtype": "noteOff",
		"time": 26878,
		"track": 2
	},
	{
		"deltaTime": 0,
		"channel": 1,
		"type": "channel",
		"noteNumber": 38,
		"velocity": 127,
		"subtype": "noteOn",
		"time": 26880,
		"track": 2
	},
	{
		"deltaTime": 94,
		"channel": 1,
		"type": "channel",
		"noteNumber": 50,
		"velocity": 127,
		"subtype": "noteOn",
		"time": 26880,
		"track": 2
	},
	{
		"deltaTime": 0,
		"channel": 1,
		"type": "channel",
		"noteNumber": 38,
		"velocity": 0,
		"subtype": "noteOff",
		"time": 26974,
		"track": 2
	},
	{
		"deltaTime": 2,
		"channel": 1,
		"type": "channel",
		"noteNumber": 50,
		"velocity": 0,
		"subtype": "noteOff",
		"time": 26974,
		"track": 2
	},
	{
		"deltaTime": 0,
		"channel": 1,
		"type": "channel",
		"noteNumber": 38,
		"velocity": 127,
		"subtype": "noteOn",
		"time": 26976,
		"track": 2
	},
	{
		"deltaTime": 94,
		"channel": 1,
		"type": "channel",
		"noteNumber": 50,
		"velocity": 127,
		"subtype": "noteOn",
		"time": 26976,
		"track": 2
	},
	{
		"deltaTime": 0,
		"channel": 1,
		"type": "channel",
		"noteNumber": 38,
		"velocity": 0,
		"subtype": "noteOff",
		"time": 27070,
		"track": 2
	},
	{
		"deltaTime": 2,
		"channel": 1,
		"type": "channel",
		"noteNumber": 50,
		"velocity": 0,
		"subtype": "noteOff",
		"time": 27070,
		"track": 2
	},
	{
		"deltaTime": 0,
		"channel": 0,
		"type": "channel",
		"subtype": "controller",
		"controllerType": 64,
		"value": 0,
		"time": 27072,
		"track": 1
	},
	{
		"deltaTime": 0,
		"channel": 0,
		"type": "channel",
		"subtype": "controller",
		"controllerType": 64,
		"value": 127,
		"time": 27072,
		"track": 1
	},
	{
		"deltaTime": 0,
		"channel": 0,
		"type": "channel",
		"noteNumber": 60,
		"velocity": 127,
		"subtype": "noteOn",
		"time": 27072,
		"track": 1
	},
	{
		"deltaTime": 0,
		"channel": 0,
		"type": "channel",
		"noteNumber": 64,
		"velocity": 127,
		"subtype": "noteOn",
		"time": 27072,
		"track": 1
	},
	{
		"deltaTime": 0,
		"channel": 0,
		"type": "channel",
		"noteNumber": 67,
		"velocity": 127,
		"subtype": "noteOn",
		"time": 27072,
		"track": 1
	},
	{
		"deltaTime": 0,
		"channel": 1,
		"type": "channel",
		"subtype": "controller",
		"controllerType": 64,
		"value": 0,
		"time": 27072,
		"track": 2
	},
	{
		"deltaTime": 0,
		"channel": 1,
		"type": "channel",
		"subtype": "controller",
		"controllerType": 64,
		"value": 127,
		"time": 27072,
		"track": 2
	},
	{
		"deltaTime": 0,
		"channel": 1,
		"type": "channel",
		"noteNumber": 36,
		"velocity": 127,
		"subtype": "noteOn",
		"time": 27072,
		"track": 2
	},
	{
		"deltaTime": 160,
		"channel": 1,
		"type": "channel",
		"noteNumber": 48,
		"velocity": 127,
		"subtype": "noteOn",
		"time": 27072,
		"track": 2
	},
	{
		"deltaTime": 0,
		"channel": 0,
		"type": "channel",
		"noteNumber": 60,
		"velocity": 0,
		"subtype": "noteOff",
		"time": 27232,
		"track": 1
	},
	{
		"deltaTime": 0,
		"channel": 0,
		"type": "channel",
		"noteNumber": 64,
		"velocity": 0,
		"subtype": "noteOff",
		"time": 27232,
		"track": 1
	},
	{
		"deltaTime": 0,
		"channel": 0,
		"type": "channel",
		"noteNumber": 67,
		"velocity": 0,
		"subtype": "noteOff",
		"time": 27232,
		"track": 1
	},
	{
		"deltaTime": 0,
		"channel": 1,
		"type": "channel",
		"noteNumber": 36,
		"velocity": 0,
		"subtype": "noteOff",
		"time": 27232,
		"track": 2
	},
	{
		"deltaTime": 32,
		"channel": 1,
		"type": "channel",
		"noteNumber": 48,
		"velocity": 0,
		"subtype": "noteOff",
		"time": 27232,
		"track": 2
	},
	{
		"deltaTime": 0,
		"channel": 0,
		"type": "channel",
		"noteNumber": 60,
		"velocity": 127,
		"subtype": "noteOn",
		"time": 27264,
		"track": 1
	},
	{
		"deltaTime": 0,
		"channel": 0,
		"type": "channel",
		"noteNumber": 64,
		"velocity": 127,
		"subtype": "noteOn",
		"time": 27264,
		"track": 1
	},
	{
		"deltaTime": 0,
		"channel": 0,
		"type": "channel",
		"noteNumber": 67,
		"velocity": 127,
		"subtype": "noteOn",
		"time": 27264,
		"track": 1
	},
	{
		"deltaTime": 0,
		"channel": 1,
		"type": "channel",
		"noteNumber": 36,
		"velocity": 127,
		"subtype": "noteOn",
		"time": 27264,
		"track": 2
	},
	{
		"deltaTime": 94,
		"channel": 1,
		"type": "channel",
		"noteNumber": 48,
		"velocity": 127,
		"subtype": "noteOn",
		"time": 27264,
		"track": 2
	},
	{
		"deltaTime": 0,
		"channel": 1,
		"type": "channel",
		"noteNumber": 36,
		"velocity": 0,
		"subtype": "noteOff",
		"time": 27358,
		"track": 2
	},
	{
		"deltaTime": 2,
		"channel": 1,
		"type": "channel",
		"noteNumber": 48,
		"velocity": 0,
		"subtype": "noteOff",
		"time": 27358,
		"track": 2
	},
	{
		"deltaTime": 0,
		"channel": 1,
		"type": "channel",
		"noteNumber": 36,
		"velocity": 127,
		"subtype": "noteOn",
		"time": 27360,
		"track": 2
	},
	{
		"deltaTime": 64,
		"channel": 1,
		"type": "channel",
		"noteNumber": 48,
		"velocity": 127,
		"subtype": "noteOn",
		"time": 27360,
		"track": 2
	},
	{
		"deltaTime": 0,
		"channel": 0,
		"type": "channel",
		"noteNumber": 60,
		"velocity": 0,
		"subtype": "noteOff",
		"time": 27424,
		"track": 1
	},
	{
		"deltaTime": 0,
		"channel": 0,
		"type": "channel",
		"noteNumber": 64,
		"velocity": 0,
		"subtype": "noteOff",
		"time": 27424,
		"track": 1
	},
	{
		"deltaTime": 32,
		"channel": 0,
		"type": "channel",
		"noteNumber": 67,
		"velocity": 0,
		"subtype": "noteOff",
		"time": 27424,
		"track": 1
	},
	{
		"deltaTime": 0,
		"channel": 0,
		"type": "channel",
		"noteNumber": 60,
		"velocity": 127,
		"subtype": "noteOn",
		"time": 27456,
		"track": 1
	},
	{
		"deltaTime": 0,
		"channel": 0,
		"type": "channel",
		"noteNumber": 64,
		"velocity": 127,
		"subtype": "noteOn",
		"time": 27456,
		"track": 1
	},
	{
		"deltaTime": 64,
		"channel": 0,
		"type": "channel",
		"noteNumber": 67,
		"velocity": 127,
		"subtype": "noteOn",
		"time": 27456,
		"track": 1
	},
	{
		"deltaTime": 0,
		"channel": 1,
		"type": "channel",
		"noteNumber": 36,
		"velocity": 0,
		"subtype": "noteOff",
		"time": 27520,
		"track": 2
	},
	{
		"deltaTime": 32,
		"channel": 1,
		"type": "channel",
		"noteNumber": 48,
		"velocity": 0,
		"subtype": "noteOff",
		"time": 27520,
		"track": 2
	},
	{
		"deltaTime": 0,
		"channel": 1,
		"type": "channel",
		"noteNumber": 36,
		"velocity": 127,
		"subtype": "noteOn",
		"time": 27552,
		"track": 2
	},
	{
		"deltaTime": 64,
		"channel": 1,
		"type": "channel",
		"noteNumber": 48,
		"velocity": 127,
		"subtype": "noteOn",
		"time": 27552,
		"track": 2
	},
	{
		"deltaTime": 0,
		"channel": 0,
		"type": "channel",
		"noteNumber": 60,
		"velocity": 0,
		"subtype": "noteOff",
		"time": 27616,
		"track": 1
	},
	{
		"deltaTime": 0,
		"channel": 0,
		"type": "channel",
		"noteNumber": 64,
		"velocity": 0,
		"subtype": "noteOff",
		"time": 27616,
		"track": 1
	},
	{
		"deltaTime": 30,
		"channel": 0,
		"type": "channel",
		"noteNumber": 67,
		"velocity": 0,
		"subtype": "noteOff",
		"time": 27616,
		"track": 1
	},
	{
		"deltaTime": 0,
		"channel": 1,
		"type": "channel",
		"noteNumber": 36,
		"velocity": 0,
		"subtype": "noteOff",
		"time": 27646,
		"track": 2
	},
	{
		"deltaTime": 2,
		"channel": 1,
		"type": "channel",
		"noteNumber": 48,
		"velocity": 0,
		"subtype": "noteOff",
		"time": 27646,
		"track": 2
	},
	{
		"deltaTime": 0,
		"channel": 0,
		"type": "channel",
		"noteNumber": 60,
		"velocity": 127,
		"subtype": "noteOn",
		"time": 27648,
		"track": 1
	},
	{
		"deltaTime": 0,
		"channel": 0,
		"type": "channel",
		"noteNumber": 64,
		"velocity": 127,
		"subtype": "noteOn",
		"time": 27648,
		"track": 1
	},
	{
		"deltaTime": 0,
		"channel": 0,
		"type": "channel",
		"noteNumber": 67,
		"velocity": 127,
		"subtype": "noteOn",
		"time": 27648,
		"track": 1
	},
	{
		"deltaTime": 0,
		"channel": 1,
		"type": "channel",
		"subtype": "controller",
		"controllerType": 64,
		"value": 0,
		"time": 27648,
		"track": 2
	},
	{
		"deltaTime": 0,
		"channel": 1,
		"type": "channel",
		"subtype": "controller",
		"controllerType": 64,
		"value": 127,
		"time": 27648,
		"track": 2
	},
	{
		"deltaTime": 0,
		"channel": 1,
		"type": "channel",
		"noteNumber": 41,
		"velocity": 127,
		"subtype": "noteOn",
		"time": 27648,
		"track": 2
	},
	{
		"deltaTime": 94,
		"channel": 1,
		"type": "channel",
		"noteNumber": 53,
		"velocity": 127,
		"subtype": "noteOn",
		"time": 27648,
		"track": 2
	},
	{
		"deltaTime": 0,
		"channel": 0,
		"type": "channel",
		"noteNumber": 60,
		"velocity": 0,
		"subtype": "noteOff",
		"time": 27742,
		"track": 1
	},
	{
		"deltaTime": 0,
		"channel": 0,
		"type": "channel",
		"noteNumber": 64,
		"velocity": 0,
		"subtype": "noteOff",
		"time": 27742,
		"track": 1
	},
	{
		"deltaTime": 2,
		"channel": 0,
		"type": "channel",
		"noteNumber": 67,
		"velocity": 0,
		"subtype": "noteOff",
		"time": 27742,
		"track": 1
	},
	{
		"deltaTime": 0,
		"channel": 0,
		"type": "channel",
		"subtype": "controller",
		"controllerType": 64,
		"value": 0,
		"time": 27744,
		"track": 1
	},
	{
		"deltaTime": 0,
		"channel": 0,
		"type": "channel",
		"subtype": "controller",
		"controllerType": 64,
		"value": 127,
		"time": 27744,
		"track": 1
	},
	{
		"deltaTime": 0,
		"channel": 0,
		"type": "channel",
		"noteNumber": 60,
		"velocity": 127,
		"subtype": "noteOn",
		"time": 27744,
		"track": 1
	},
	{
		"deltaTime": 0,
		"channel": 0,
		"type": "channel",
		"noteNumber": 65,
		"velocity": 127,
		"subtype": "noteOn",
		"time": 27744,
		"track": 1
	},
	{
		"deltaTime": 64,
		"channel": 0,
		"type": "channel",
		"noteNumber": 69,
		"velocity": 127,
		"subtype": "noteOn",
		"time": 27744,
		"track": 1
	},
	{
		"deltaTime": 0,
		"channel": 1,
		"type": "channel",
		"noteNumber": 41,
		"velocity": 0,
		"subtype": "noteOff",
		"time": 27808,
		"track": 2
	},
	{
		"deltaTime": 30,
		"channel": 1,
		"type": "channel",
		"noteNumber": 53,
		"velocity": 0,
		"subtype": "noteOff",
		"time": 27808,
		"track": 2
	},
	{
		"deltaTime": 0,
		"channel": 0,
		"type": "channel",
		"noteNumber": 60,
		"velocity": 0,
		"subtype": "noteOff",
		"time": 27838,
		"track": 1
	},
	{
		"deltaTime": 0,
		"channel": 0,
		"type": "channel",
		"noteNumber": 65,
		"velocity": 0,
		"subtype": "noteOff",
		"time": 27838,
		"track": 1
	},
	{
		"deltaTime": 2,
		"channel": 0,
		"type": "channel",
		"noteNumber": 69,
		"velocity": 0,
		"subtype": "noteOff",
		"time": 27838,
		"track": 1
	},
	{
		"deltaTime": 0,
		"channel": 1,
		"type": "channel",
		"noteNumber": 41,
		"velocity": 127,
		"subtype": "noteOn",
		"time": 27840,
		"track": 2
	},
	{
		"deltaTime": 94,
		"channel": 1,
		"type": "channel",
		"noteNumber": 53,
		"velocity": 127,
		"subtype": "noteOn",
		"time": 27840,
		"track": 2
	},
	{
		"deltaTime": 0,
		"channel": 1,
		"type": "channel",
		"noteNumber": 41,
		"velocity": 0,
		"subtype": "noteOff",
		"time": 27934,
		"track": 2
	},
	{
		"deltaTime": 2,
		"channel": 1,
		"type": "channel",
		"noteNumber": 53,
		"velocity": 0,
		"subtype": "noteOff",
		"time": 27934,
		"track": 2
	},
	{
		"deltaTime": 0,
		"channel": 1,
		"type": "channel",
		"noteNumber": 41,
		"velocity": 127,
		"subtype": "noteOn",
		"time": 27936,
		"track": 2
	},
	{
		"deltaTime": 94,
		"channel": 1,
		"type": "channel",
		"noteNumber": 53,
		"velocity": 127,
		"subtype": "noteOn",
		"time": 27936,
		"track": 2
	},
	{
		"deltaTime": 0,
		"channel": 1,
		"type": "channel",
		"noteNumber": 41,
		"velocity": 0,
		"subtype": "noteOff",
		"time": 28030,
		"track": 2
	},
	{
		"deltaTime": 2,
		"channel": 1,
		"type": "channel",
		"noteNumber": 53,
		"velocity": 0,
		"subtype": "noteOff",
		"time": 28030,
		"track": 2
	},
	{
		"deltaTime": 0,
		"channel": 1,
		"type": "channel",
		"noteNumber": 41,
		"velocity": 127,
		"subtype": "noteOn",
		"time": 28032,
		"track": 2
	},
	{
		"deltaTime": 94,
		"channel": 1,
		"type": "channel",
		"noteNumber": 53,
		"velocity": 127,
		"subtype": "noteOn",
		"time": 28032,
		"track": 2
	},
	{
		"deltaTime": 0,
		"channel": 1,
		"type": "channel",
		"noteNumber": 41,
		"velocity": 0,
		"subtype": "noteOff",
		"time": 28126,
		"track": 2
	},
	{
		"deltaTime": 2,
		"channel": 1,
		"type": "channel",
		"noteNumber": 53,
		"velocity": 0,
		"subtype": "noteOff",
		"time": 28126,
		"track": 2
	},
	{
		"deltaTime": 0,
		"channel": 1,
		"type": "channel",
		"noteNumber": 41,
		"velocity": 127,
		"subtype": "noteOn",
		"time": 28128,
		"track": 2
	},
	{
		"deltaTime": 94,
		"channel": 1,
		"type": "channel",
		"noteNumber": 53,
		"velocity": 127,
		"subtype": "noteOn",
		"time": 28128,
		"track": 2
	},
	{
		"deltaTime": 0,
		"channel": 1,
		"type": "channel",
		"noteNumber": 41,
		"velocity": 0,
		"subtype": "noteOff",
		"time": 28222,
		"track": 2
	},
	{
		"deltaTime": 2,
		"channel": 1,
		"type": "channel",
		"noteNumber": 53,
		"velocity": 0,
		"subtype": "noteOff",
		"time": 28222,
		"track": 2
	},
	{
		"deltaTime": 0,
		"channel": 0,
		"type": "channel",
		"subtype": "controller",
		"controllerType": 64,
		"value": 0,
		"time": 28224,
		"track": 1
	},
	{
		"deltaTime": 0,
		"channel": 0,
		"type": "channel",
		"subtype": "controller",
		"controllerType": 64,
		"value": 127,
		"time": 28224,
		"track": 1
	},
	{
		"deltaTime": 0,
		"channel": 0,
		"type": "channel",
		"noteNumber": 62,
		"velocity": 127,
		"subtype": "noteOn",
		"time": 28224,
		"track": 1
	},
	{
		"deltaTime": 0,
		"channel": 0,
		"type": "channel",
		"noteNumber": 65,
		"velocity": 127,
		"subtype": "noteOn",
		"time": 28224,
		"track": 1
	},
	{
		"deltaTime": 0,
		"channel": 0,
		"type": "channel",
		"noteNumber": 69,
		"velocity": 127,
		"subtype": "noteOn",
		"time": 28224,
		"track": 1
	},
	{
		"deltaTime": 0,
		"channel": 1,
		"type": "channel",
		"subtype": "controller",
		"controllerType": 64,
		"value": 0,
		"time": 28224,
		"track": 2
	},
	{
		"deltaTime": 0,
		"channel": 1,
		"type": "channel",
		"subtype": "controller",
		"controllerType": 64,
		"value": 127,
		"time": 28224,
		"track": 2
	},
	{
		"deltaTime": 0,
		"channel": 1,
		"type": "channel",
		"noteNumber": 38,
		"velocity": 127,
		"subtype": "noteOn",
		"time": 28224,
		"track": 2
	},
	{
		"deltaTime": 160,
		"channel": 1,
		"type": "channel",
		"noteNumber": 50,
		"velocity": 127,
		"subtype": "noteOn",
		"time": 28224,
		"track": 2
	},
	{
		"deltaTime": 0,
		"channel": 0,
		"type": "channel",
		"noteNumber": 62,
		"velocity": 0,
		"subtype": "noteOff",
		"time": 28384,
		"track": 1
	},
	{
		"deltaTime": 0,
		"channel": 0,
		"type": "channel",
		"noteNumber": 65,
		"velocity": 0,
		"subtype": "noteOff",
		"time": 28384,
		"track": 1
	},
	{
		"deltaTime": 0,
		"channel": 0,
		"type": "channel",
		"noteNumber": 69,
		"velocity": 0,
		"subtype": "noteOff",
		"time": 28384,
		"track": 1
	},
	{
		"deltaTime": 0,
		"channel": 1,
		"type": "channel",
		"noteNumber": 38,
		"velocity": 0,
		"subtype": "noteOff",
		"time": 28384,
		"track": 2
	},
	{
		"deltaTime": 32,
		"channel": 1,
		"type": "channel",
		"noteNumber": 50,
		"velocity": 0,
		"subtype": "noteOff",
		"time": 28384,
		"track": 2
	},
	{
		"deltaTime": 0,
		"channel": 0,
		"type": "channel",
		"noteNumber": 62,
		"velocity": 127,
		"subtype": "noteOn",
		"time": 28416,
		"track": 1
	},
	{
		"deltaTime": 0,
		"channel": 0,
		"type": "channel",
		"noteNumber": 65,
		"velocity": 127,
		"subtype": "noteOn",
		"time": 28416,
		"track": 1
	},
	{
		"deltaTime": 0,
		"channel": 0,
		"type": "channel",
		"noteNumber": 69,
		"velocity": 127,
		"subtype": "noteOn",
		"time": 28416,
		"track": 1
	},
	{
		"deltaTime": 0,
		"channel": 1,
		"type": "channel",
		"noteNumber": 38,
		"velocity": 127,
		"subtype": "noteOn",
		"time": 28416,
		"track": 2
	},
	{
		"deltaTime": 94,
		"channel": 1,
		"type": "channel",
		"noteNumber": 50,
		"velocity": 127,
		"subtype": "noteOn",
		"time": 28416,
		"track": 2
	},
	{
		"deltaTime": 0,
		"channel": 1,
		"type": "channel",
		"noteNumber": 38,
		"velocity": 0,
		"subtype": "noteOff",
		"time": 28510,
		"track": 2
	},
	{
		"deltaTime": 2,
		"channel": 1,
		"type": "channel",
		"noteNumber": 50,
		"velocity": 0,
		"subtype": "noteOff",
		"time": 28510,
		"track": 2
	},
	{
		"deltaTime": 0,
		"channel": 1,
		"type": "channel",
		"noteNumber": 38,
		"velocity": 127,
		"subtype": "noteOn",
		"time": 28512,
		"track": 2
	},
	{
		"deltaTime": 64,
		"channel": 1,
		"type": "channel",
		"noteNumber": 50,
		"velocity": 127,
		"subtype": "noteOn",
		"time": 28512,
		"track": 2
	},
	{
		"deltaTime": 0,
		"channel": 0,
		"type": "channel",
		"noteNumber": 62,
		"velocity": 0,
		"subtype": "noteOff",
		"time": 28576,
		"track": 1
	},
	{
		"deltaTime": 0,
		"channel": 0,
		"type": "channel",
		"noteNumber": 65,
		"velocity": 0,
		"subtype": "noteOff",
		"time": 28576,
		"track": 1
	},
	{
		"deltaTime": 32,
		"channel": 0,
		"type": "channel",
		"noteNumber": 69,
		"velocity": 0,
		"subtype": "noteOff",
		"time": 28576,
		"track": 1
	},
	{
		"deltaTime": 0,
		"channel": 0,
		"type": "channel",
		"noteNumber": 62,
		"velocity": 127,
		"subtype": "noteOn",
		"time": 28608,
		"track": 1
	},
	{
		"deltaTime": 0,
		"channel": 0,
		"type": "channel",
		"noteNumber": 65,
		"velocity": 127,
		"subtype": "noteOn",
		"time": 28608,
		"track": 1
	},
	{
		"deltaTime": 64,
		"channel": 0,
		"type": "channel",
		"noteNumber": 69,
		"velocity": 127,
		"subtype": "noteOn",
		"time": 28608,
		"track": 1
	},
	{
		"deltaTime": 0,
		"channel": 1,
		"type": "channel",
		"noteNumber": 38,
		"velocity": 0,
		"subtype": "noteOff",
		"time": 28672,
		"track": 2
	},
	{
		"deltaTime": 32,
		"channel": 1,
		"type": "channel",
		"noteNumber": 50,
		"velocity": 0,
		"subtype": "noteOff",
		"time": 28672,
		"track": 2
	},
	{
		"deltaTime": 0,
		"channel": 1,
		"type": "channel",
		"noteNumber": 38,
		"velocity": 127,
		"subtype": "noteOn",
		"time": 28704,
		"track": 2
	},
	{
		"deltaTime": 64,
		"channel": 1,
		"type": "channel",
		"noteNumber": 50,
		"velocity": 127,
		"subtype": "noteOn",
		"time": 28704,
		"track": 2
	},
	{
		"deltaTime": 0,
		"channel": 0,
		"type": "channel",
		"noteNumber": 62,
		"velocity": 0,
		"subtype": "noteOff",
		"time": 28768,
		"track": 1
	},
	{
		"deltaTime": 0,
		"channel": 0,
		"type": "channel",
		"noteNumber": 65,
		"velocity": 0,
		"subtype": "noteOff",
		"time": 28768,
		"track": 1
	},
	{
		"deltaTime": 30,
		"channel": 0,
		"type": "channel",
		"noteNumber": 69,
		"velocity": 0,
		"subtype": "noteOff",
		"time": 28768,
		"track": 1
	},
	{
		"deltaTime": 0,
		"channel": 1,
		"type": "channel",
		"noteNumber": 38,
		"velocity": 0,
		"subtype": "noteOff",
		"time": 28798,
		"track": 2
	},
	{
		"deltaTime": 2,
		"channel": 1,
		"type": "channel",
		"noteNumber": 50,
		"velocity": 0,
		"subtype": "noteOff",
		"time": 28798,
		"track": 2
	},
	{
		"deltaTime": 0,
		"channel": 0,
		"type": "channel",
		"noteNumber": 62,
		"velocity": 127,
		"subtype": "noteOn",
		"time": 28800,
		"track": 1
	},
	{
		"deltaTime": 0,
		"channel": 0,
		"type": "channel",
		"noteNumber": 65,
		"velocity": 127,
		"subtype": "noteOn",
		"time": 28800,
		"track": 1
	},
	{
		"deltaTime": 0,
		"channel": 0,
		"type": "channel",
		"noteNumber": 70,
		"velocity": 127,
		"subtype": "noteOn",
		"time": 28800,
		"track": 1
	},
	{
		"deltaTime": 0,
		"channel": 1,
		"type": "channel",
		"noteNumber": 38,
		"velocity": 127,
		"subtype": "noteOn",
		"time": 28800,
		"track": 2
	},
	{
		"deltaTime": 94,
		"channel": 1,
		"type": "channel",
		"noteNumber": 50,
		"velocity": 127,
		"subtype": "noteOn",
		"time": 28800,
		"track": 2
	},
	{
		"deltaTime": 0,
		"channel": 0,
		"type": "channel",
		"noteNumber": 62,
		"velocity": 0,
		"subtype": "noteOff",
		"time": 28894,
		"track": 1
	},
	{
		"deltaTime": 0,
		"channel": 0,
		"type": "channel",
		"noteNumber": 65,
		"velocity": 0,
		"subtype": "noteOff",
		"time": 28894,
		"track": 1
	},
	{
		"deltaTime": 2,
		"channel": 0,
		"type": "channel",
		"noteNumber": 70,
		"velocity": 0,
		"subtype": "noteOff",
		"time": 28894,
		"track": 1
	},
	{
		"deltaTime": 0,
		"channel": 0,
		"type": "channel",
		"subtype": "controller",
		"controllerType": 64,
		"value": 0,
		"time": 28896,
		"track": 1
	},
	{
		"deltaTime": 0,
		"channel": 0,
		"type": "channel",
		"subtype": "controller",
		"controllerType": 64,
		"value": 127,
		"time": 28896,
		"track": 1
	},
	{
		"deltaTime": 0,
		"channel": 0,
		"type": "channel",
		"noteNumber": 62,
		"velocity": 127,
		"subtype": "noteOn",
		"time": 28896,
		"track": 1
	},
	{
		"deltaTime": 0,
		"channel": 0,
		"type": "channel",
		"noteNumber": 65,
		"velocity": 127,
		"subtype": "noteOn",
		"time": 28896,
		"track": 1
	},
	{
		"deltaTime": 64,
		"channel": 0,
		"type": "channel",
		"noteNumber": 69,
		"velocity": 127,
		"subtype": "noteOn",
		"time": 28896,
		"track": 1
	},
	{
		"deltaTime": 0,
		"channel": 1,
		"type": "channel",
		"noteNumber": 38,
		"velocity": 0,
		"subtype": "noteOff",
		"time": 28960,
		"track": 2
	},
	{
		"deltaTime": 30,
		"channel": 1,
		"type": "channel",
		"noteNumber": 50,
		"velocity": 0,
		"subtype": "noteOff",
		"time": 28960,
		"track": 2
	},
	{
		"deltaTime": 0,
		"channel": 0,
		"type": "channel",
		"noteNumber": 62,
		"velocity": 0,
		"subtype": "noteOff",
		"time": 28990,
		"track": 1
	},
	{
		"deltaTime": 0,
		"channel": 0,
		"type": "channel",
		"noteNumber": 65,
		"velocity": 0,
		"subtype": "noteOff",
		"time": 28990,
		"track": 1
	},
	{
		"deltaTime": 2,
		"channel": 0,
		"type": "channel",
		"noteNumber": 69,
		"velocity": 0,
		"subtype": "noteOff",
		"time": 28990,
		"track": 1
	},
	{
		"deltaTime": 0,
		"channel": 1,
		"type": "channel",
		"noteNumber": 38,
		"velocity": 127,
		"subtype": "noteOn",
		"time": 28992,
		"track": 2
	},
	{
		"deltaTime": 94,
		"channel": 1,
		"type": "channel",
		"noteNumber": 50,
		"velocity": 127,
		"subtype": "noteOn",
		"time": 28992,
		"track": 2
	},
	{
		"deltaTime": 0,
		"channel": 1,
		"type": "channel",
		"noteNumber": 38,
		"velocity": 0,
		"subtype": "noteOff",
		"time": 29086,
		"track": 2
	},
	{
		"deltaTime": 2,
		"channel": 1,
		"type": "channel",
		"noteNumber": 50,
		"velocity": 0,
		"subtype": "noteOff",
		"time": 29086,
		"track": 2
	},
	{
		"deltaTime": 0,
		"channel": 1,
		"type": "channel",
		"noteNumber": 38,
		"velocity": 127,
		"subtype": "noteOn",
		"time": 29088,
		"track": 2
	},
	{
		"deltaTime": 94,
		"channel": 1,
		"type": "channel",
		"noteNumber": 50,
		"velocity": 127,
		"subtype": "noteOn",
		"time": 29088,
		"track": 2
	},
	{
		"deltaTime": 0,
		"channel": 1,
		"type": "channel",
		"noteNumber": 38,
		"velocity": 0,
		"subtype": "noteOff",
		"time": 29182,
		"track": 2
	},
	{
		"deltaTime": 2,
		"channel": 1,
		"type": "channel",
		"noteNumber": 50,
		"velocity": 0,
		"subtype": "noteOff",
		"time": 29182,
		"track": 2
	},
	{
		"deltaTime": 0,
		"channel": 1,
		"type": "channel",
		"noteNumber": 38,
		"velocity": 127,
		"subtype": "noteOn",
		"time": 29184,
		"track": 2
	},
	{
		"deltaTime": 94,
		"channel": 1,
		"type": "channel",
		"noteNumber": 50,
		"velocity": 127,
		"subtype": "noteOn",
		"time": 29184,
		"track": 2
	},
	{
		"deltaTime": 0,
		"channel": 1,
		"type": "channel",
		"noteNumber": 38,
		"velocity": 0,
		"subtype": "noteOff",
		"time": 29278,
		"track": 2
	},
	{
		"deltaTime": 2,
		"channel": 1,
		"type": "channel",
		"noteNumber": 50,
		"velocity": 0,
		"subtype": "noteOff",
		"time": 29278,
		"track": 2
	},
	{
		"deltaTime": 0,
		"channel": 1,
		"type": "channel",
		"noteNumber": 38,
		"velocity": 127,
		"subtype": "noteOn",
		"time": 29280,
		"track": 2
	},
	{
		"deltaTime": 94,
		"channel": 1,
		"type": "channel",
		"noteNumber": 50,
		"velocity": 127,
		"subtype": "noteOn",
		"time": 29280,
		"track": 2
	},
	{
		"deltaTime": 0,
		"channel": 1,
		"type": "channel",
		"noteNumber": 38,
		"velocity": 0,
		"subtype": "noteOff",
		"time": 29374,
		"track": 2
	},
	{
		"deltaTime": 2,
		"channel": 1,
		"type": "channel",
		"noteNumber": 50,
		"velocity": 0,
		"subtype": "noteOff",
		"time": 29374,
		"track": 2
	},
	{
		"deltaTime": 0,
		"channel": 0,
		"type": "channel",
		"subtype": "controller",
		"controllerType": 64,
		"value": 0,
		"time": 29376,
		"track": 1
	},
	{
		"deltaTime": 0,
		"channel": 0,
		"type": "channel",
		"subtype": "controller",
		"controllerType": 64,
		"value": 127,
		"time": 29376,
		"track": 1
	},
	{
		"deltaTime": 0,
		"channel": 0,
		"type": "channel",
		"noteNumber": 61,
		"velocity": 127,
		"subtype": "noteOn",
		"time": 29376,
		"track": 1
	},
	{
		"deltaTime": 0,
		"channel": 0,
		"type": "channel",
		"noteNumber": 64,
		"velocity": 127,
		"subtype": "noteOn",
		"time": 29376,
		"track": 1
	},
	{
		"deltaTime": 0,
		"channel": 0,
		"type": "channel",
		"noteNumber": 67,
		"velocity": 127,
		"subtype": "noteOn",
		"time": 29376,
		"track": 1
	},
	{
		"deltaTime": 0,
		"channel": 1,
		"type": "channel",
		"subtype": "controller",
		"controllerType": 64,
		"value": 0,
		"time": 29376,
		"track": 2
	},
	{
		"deltaTime": 0,
		"channel": 1,
		"type": "channel",
		"subtype": "controller",
		"controllerType": 64,
		"value": 127,
		"time": 29376,
		"track": 2
	},
	{
		"deltaTime": 0,
		"channel": 1,
		"type": "channel",
		"noteNumber": 33,
		"velocity": 127,
		"subtype": "noteOn",
		"time": 29376,
		"track": 2
	},
	{
		"deltaTime": 160,
		"channel": 1,
		"type": "channel",
		"noteNumber": 45,
		"velocity": 127,
		"subtype": "noteOn",
		"time": 29376,
		"track": 2
	},
	{
		"deltaTime": 0,
		"channel": 0,
		"type": "channel",
		"noteNumber": 61,
		"velocity": 0,
		"subtype": "noteOff",
		"time": 29536,
		"track": 1
	},
	{
		"deltaTime": 0,
		"channel": 0,
		"type": "channel",
		"noteNumber": 64,
		"velocity": 0,
		"subtype": "noteOff",
		"time": 29536,
		"track": 1
	},
	{
		"deltaTime": 0,
		"channel": 0,
		"type": "channel",
		"noteNumber": 67,
		"velocity": 0,
		"subtype": "noteOff",
		"time": 29536,
		"track": 1
	},
	{
		"deltaTime": 0,
		"channel": 1,
		"type": "channel",
		"noteNumber": 33,
		"velocity": 0,
		"subtype": "noteOff",
		"time": 29536,
		"track": 2
	},
	{
		"deltaTime": 32,
		"channel": 1,
		"type": "channel",
		"noteNumber": 45,
		"velocity": 0,
		"subtype": "noteOff",
		"time": 29536,
		"track": 2
	},
	{
		"deltaTime": 0,
		"channel": 0,
		"type": "channel",
		"noteNumber": 61,
		"velocity": 127,
		"subtype": "noteOn",
		"time": 29568,
		"track": 1
	},
	{
		"deltaTime": 0,
		"channel": 0,
		"type": "channel",
		"noteNumber": 65,
		"velocity": 127,
		"subtype": "noteOn",
		"time": 29568,
		"track": 1
	},
	{
		"deltaTime": 0,
		"channel": 1,
		"type": "channel",
		"noteNumber": 33,
		"velocity": 127,
		"subtype": "noteOn",
		"time": 29568,
		"track": 2
	},
	{
		"deltaTime": 94,
		"channel": 1,
		"type": "channel",
		"noteNumber": 45,
		"velocity": 127,
		"subtype": "noteOn",
		"time": 29568,
		"track": 2
	},
	{
		"deltaTime": 0,
		"channel": 1,
		"type": "channel",
		"noteNumber": 33,
		"velocity": 0,
		"subtype": "noteOff",
		"time": 29662,
		"track": 2
	},
	{
		"deltaTime": 2,
		"channel": 1,
		"type": "channel",
		"noteNumber": 45,
		"velocity": 0,
		"subtype": "noteOff",
		"time": 29662,
		"track": 2
	},
	{
		"deltaTime": 0,
		"channel": 1,
		"type": "channel",
		"noteNumber": 33,
		"velocity": 127,
		"subtype": "noteOn",
		"time": 29664,
		"track": 2
	},
	{
		"deltaTime": 64,
		"channel": 1,
		"type": "channel",
		"noteNumber": 45,
		"velocity": 127,
		"subtype": "noteOn",
		"time": 29664,
		"track": 2
	},
	{
		"deltaTime": 0,
		"channel": 0,
		"type": "channel",
		"noteNumber": 61,
		"velocity": 0,
		"subtype": "noteOff",
		"time": 29728,
		"track": 1
	},
	{
		"deltaTime": 32,
		"channel": 0,
		"type": "channel",
		"noteNumber": 65,
		"velocity": 0,
		"subtype": "noteOff",
		"time": 29728,
		"track": 1
	},
	{
		"deltaTime": 0,
		"channel": 0,
		"type": "channel",
		"noteNumber": 57,
		"velocity": 127,
		"subtype": "noteOn",
		"time": 29760,
		"track": 1
	},
	{
		"deltaTime": 64,
		"channel": 0,
		"type": "channel",
		"noteNumber": 64,
		"velocity": 127,
		"subtype": "noteOn",
		"time": 29760,
		"track": 1
	},
	{
		"deltaTime": 0,
		"channel": 1,
		"type": "channel",
		"noteNumber": 33,
		"velocity": 0,
		"subtype": "noteOff",
		"time": 29824,
		"track": 2
	},
	{
		"deltaTime": 32,
		"channel": 1,
		"type": "channel",
		"noteNumber": 45,
		"velocity": 0,
		"subtype": "noteOff",
		"time": 29824,
		"track": 2
	},
	{
		"deltaTime": 0,
		"channel": 1,
		"type": "channel",
		"noteNumber": 33,
		"velocity": 127,
		"subtype": "noteOn",
		"time": 29856,
		"track": 2
	},
	{
		"deltaTime": 64,
		"channel": 1,
		"type": "channel",
		"noteNumber": 45,
		"velocity": 127,
		"subtype": "noteOn",
		"time": 29856,
		"track": 2
	},
	{
		"deltaTime": 0,
		"channel": 0,
		"type": "channel",
		"noteNumber": 57,
		"velocity": 0,
		"subtype": "noteOff",
		"time": 29920,
		"track": 1
	},
	{
		"deltaTime": 30,
		"channel": 0,
		"type": "channel",
		"noteNumber": 64,
		"velocity": 0,
		"subtype": "noteOff",
		"time": 29920,
		"track": 1
	},
	{
		"deltaTime": 0,
		"channel": 1,
		"type": "channel",
		"noteNumber": 33,
		"velocity": 0,
		"subtype": "noteOff",
		"time": 29950,
		"track": 2
	},
	{
		"deltaTime": 2,
		"channel": 1,
		"type": "channel",
		"noteNumber": 45,
		"velocity": 0,
		"subtype": "noteOff",
		"time": 29950,
		"track": 2
	},
	{
		"deltaTime": 0,
		"channel": 0,
		"type": "channel",
		"subtype": "controller",
		"controllerType": 64,
		"value": 0,
		"time": 29952,
		"track": 1
	},
	{
		"deltaTime": 0,
		"channel": 0,
		"type": "channel",
		"subtype": "controller",
		"controllerType": 64,
		"value": 127,
		"time": 29952,
		"track": 1
	},
	{
		"deltaTime": 0,
		"channel": 0,
		"type": "channel",
		"noteNumber": 53,
		"velocity": 127,
		"subtype": "noteOn",
		"time": 29952,
		"track": 1
	},
	{
		"deltaTime": 0,
		"channel": 0,
		"type": "channel",
		"noteNumber": 57,
		"velocity": 127,
		"subtype": "noteOn",
		"time": 29952,
		"track": 1
	},
	{
		"deltaTime": 0,
		"channel": 0,
		"type": "channel",
		"noteNumber": 62,
		"velocity": 127,
		"subtype": "noteOn",
		"time": 29952,
		"track": 1
	},
	{
		"deltaTime": 0,
		"channel": 1,
		"type": "channel",
		"subtype": "controller",
		"controllerType": 64,
		"value": 0,
		"time": 29952,
		"track": 2
	},
	{
		"deltaTime": 0,
		"channel": 1,
		"type": "channel",
		"subtype": "controller",
		"controllerType": 64,
		"value": 127,
		"time": 29952,
		"track": 2
	},
	{
		"deltaTime": 0,
		"channel": 1,
		"type": "channel",
		"noteNumber": 38,
		"velocity": 127,
		"subtype": "noteOn",
		"time": 29952,
		"track": 2
	},
	{
		"deltaTime": 160,
		"channel": 1,
		"type": "channel",
		"noteNumber": 50,
		"velocity": 127,
		"subtype": "noteOn",
		"time": 29952,
		"track": 2
	},
	{
		"deltaTime": 0,
		"channel": 0,
		"type": "channel",
		"noteNumber": 53,
		"velocity": 0,
		"subtype": "noteOff",
		"time": 30112,
		"track": 1
	},
	{
		"deltaTime": 0,
		"channel": 0,
		"type": "channel",
		"noteNumber": 57,
		"velocity": 0,
		"subtype": "noteOff",
		"time": 30112,
		"track": 1
	},
	{
		"deltaTime": 0,
		"channel": 0,
		"type": "channel",
		"noteNumber": 62,
		"velocity": 0,
		"subtype": "noteOff",
		"time": 30112,
		"track": 1
	},
	{
		"deltaTime": 0,
		"channel": 1,
		"type": "channel",
		"noteNumber": 38,
		"velocity": 0,
		"subtype": "noteOff",
		"time": 30112,
		"track": 2
	},
	{
		"deltaTime": 32,
		"channel": 1,
		"type": "channel",
		"noteNumber": 50,
		"velocity": 0,
		"subtype": "noteOff",
		"time": 30112,
		"track": 2
	},
	{
		"deltaTime": 0,
		"channel": 1,
		"type": "channel",
		"noteNumber": 38,
		"velocity": 127,
		"subtype": "noteOn",
		"time": 30144,
		"track": 2
	},
	{
		"deltaTime": 94,
		"channel": 1,
		"type": "channel",
		"noteNumber": 50,
		"velocity": 127,
		"subtype": "noteOn",
		"time": 30144,
		"track": 2
	},
	{
		"deltaTime": 0,
		"channel": 1,
		"type": "channel",
		"noteNumber": 38,
		"velocity": 0,
		"subtype": "noteOff",
		"time": 30238,
		"track": 2
	},
	{
		"deltaTime": 2,
		"channel": 1,
		"type": "channel",
		"noteNumber": 50,
		"velocity": 0,
		"subtype": "noteOff",
		"time": 30238,
		"track": 2
	},
	{
		"deltaTime": 0,
		"channel": 1,
		"type": "channel",
		"noteNumber": 38,
		"velocity": 127,
		"subtype": "noteOn",
		"time": 30240,
		"track": 2
	},
	{
		"deltaTime": 96,
		"channel": 1,
		"type": "channel",
		"noteNumber": 50,
		"velocity": 127,
		"subtype": "noteOn",
		"time": 30240,
		"track": 2
	},
	{
		"deltaTime": 64,
		"channel": 0,
		"type": "channel",
		"noteNumber": 62,
		"velocity": 127,
		"subtype": "noteOn",
		"time": 30336,
		"track": 1
	},
	{
		"deltaTime": 0,
		"channel": 1,
		"type": "channel",
		"noteNumber": 38,
		"velocity": 0,
		"subtype": "noteOff",
		"time": 30400,
		"track": 2
	},
	{
		"deltaTime": 30,
		"channel": 1,
		"type": "channel",
		"noteNumber": 50,
		"velocity": 0,
		"subtype": "noteOff",
		"time": 30400,
		"track": 2
	},
	{
		"deltaTime": 2,
		"channel": 0,
		"type": "channel",
		"noteNumber": 62,
		"velocity": 0,
		"subtype": "noteOff",
		"time": 30430,
		"track": 1
	},
	{
		"deltaTime": 0,
		"channel": 0,
		"type": "channel",
		"noteNumber": 64,
		"velocity": 127,
		"subtype": "noteOn",
		"time": 30432,
		"track": 1
	},
	{
		"deltaTime": 0,
		"channel": 1,
		"type": "channel",
		"noteNumber": 38,
		"velocity": 127,
		"subtype": "noteOn",
		"time": 30432,
		"track": 2
	},
	{
		"deltaTime": 94,
		"channel": 1,
		"type": "channel",
		"noteNumber": 50,
		"velocity": 127,
		"subtype": "noteOn",
		"time": 30432,
		"track": 2
	},
	{
		"deltaTime": 0,
		"channel": 0,
		"type": "channel",
		"noteNumber": 64,
		"velocity": 0,
		"subtype": "noteOff",
		"time": 30526,
		"track": 1
	},
	{
		"deltaTime": 0,
		"channel": 1,
		"type": "channel",
		"noteNumber": 38,
		"velocity": 0,
		"subtype": "noteOff",
		"time": 30526,
		"track": 2
	},
	{
		"deltaTime": 2,
		"channel": 1,
		"type": "channel",
		"noteNumber": 50,
		"velocity": 0,
		"subtype": "noteOff",
		"time": 30526,
		"track": 2
	},
	{
		"deltaTime": 0,
		"channel": 0,
		"type": "channel",
		"subtype": "controller",
		"controllerType": 64,
		"value": 0,
		"time": 30528,
		"track": 1
	},
	{
		"deltaTime": 0,
		"channel": 0,
		"type": "channel",
		"subtype": "controller",
		"controllerType": 64,
		"value": 127,
		"time": 30528,
		"track": 1
	},
	{
		"deltaTime": 0,
		"channel": 0,
		"type": "channel",
		"noteNumber": 57,
		"velocity": 127,
		"subtype": "noteOn",
		"time": 30528,
		"track": 1
	},
	{
		"deltaTime": 0,
		"channel": 0,
		"type": "channel",
		"noteNumber": 62,
		"velocity": 127,
		"subtype": "noteOn",
		"time": 30528,
		"track": 1
	},
	{
		"deltaTime": 0,
		"channel": 0,
		"type": "channel",
		"noteNumber": 65,
		"velocity": 127,
		"subtype": "noteOn",
		"time": 30528,
		"track": 1
	},
	{
		"deltaTime": 0,
		"channel": 1,
		"type": "channel",
		"subtype": "controller",
		"controllerType": 64,
		"value": 0,
		"time": 30528,
		"track": 2
	},
	{
		"deltaTime": 0,
		"channel": 1,
		"type": "channel",
		"subtype": "controller",
		"controllerType": 64,
		"value": 127,
		"time": 30528,
		"track": 2
	},
	{
		"deltaTime": 0,
		"channel": 1,
		"type": "channel",
		"noteNumber": 38,
		"velocity": 127,
		"subtype": "noteOn",
		"time": 30528,
		"track": 2
	},
	{
		"deltaTime": 160,
		"channel": 1,
		"type": "channel",
		"noteNumber": 50,
		"velocity": 127,
		"subtype": "noteOn",
		"time": 30528,
		"track": 2
	},
	{
		"deltaTime": 0,
		"channel": 1,
		"type": "channel",
		"noteNumber": 38,
		"velocity": 0,
		"subtype": "noteOff",
		"time": 30688,
		"track": 2
	},
	{
		"deltaTime": 32,
		"channel": 1,
		"type": "channel",
		"noteNumber": 50,
		"velocity": 0,
		"subtype": "noteOff",
		"time": 30688,
		"track": 2
	},
	{
		"deltaTime": 0,
		"channel": 1,
		"type": "channel",
		"noteNumber": 38,
		"velocity": 127,
		"subtype": "noteOn",
		"time": 30720,
		"track": 2
	},
	{
		"deltaTime": 94,
		"channel": 1,
		"type": "channel",
		"noteNumber": 50,
		"velocity": 127,
		"subtype": "noteOn",
		"time": 30720,
		"track": 2
	},
	{
		"deltaTime": 0,
		"channel": 1,
		"type": "channel",
		"noteNumber": 38,
		"velocity": 0,
		"subtype": "noteOff",
		"time": 30814,
		"track": 2
	},
	{
		"deltaTime": 2,
		"channel": 1,
		"type": "channel",
		"noteNumber": 50,
		"velocity": 0,
		"subtype": "noteOff",
		"time": 30814,
		"track": 2
	},
	{
		"deltaTime": 0,
		"channel": 1,
		"type": "channel",
		"noteNumber": 38,
		"velocity": 127,
		"subtype": "noteOn",
		"time": 30816,
		"track": 2
	},
	{
		"deltaTime": 48,
		"channel": 1,
		"type": "channel",
		"noteNumber": 50,
		"velocity": 127,
		"subtype": "noteOn",
		"time": 30816,
		"track": 2
	},
	{
		"deltaTime": 0,
		"channel": 0,
		"type": "channel",
		"noteNumber": 57,
		"velocity": 0,
		"subtype": "noteOff",
		"time": 30864,
		"track": 1
	},
	{
		"deltaTime": 0,
		"channel": 0,
		"type": "channel",
		"noteNumber": 62,
		"velocity": 0,
		"subtype": "noteOff",
		"time": 30864,
		"track": 1
	},
	{
		"deltaTime": 48,
		"channel": 0,
		"type": "channel",
		"noteNumber": 65,
		"velocity": 0,
		"subtype": "noteOff",
		"time": 30864,
		"track": 1
	},
	{
		"deltaTime": 64,
		"channel": 0,
		"type": "channel",
		"noteNumber": 67,
		"velocity": 127,
		"subtype": "noteOn",
		"time": 30912,
		"track": 1
	},
	{
		"deltaTime": 0,
		"channel": 1,
		"type": "channel",
		"noteNumber": 38,
		"velocity": 0,
		"subtype": "noteOff",
		"time": 30976,
		"track": 2
	},
	{
		"deltaTime": 30,
		"channel": 1,
		"type": "channel",
		"noteNumber": 50,
		"velocity": 0,
		"subtype": "noteOff",
		"time": 30976,
		"track": 2
	},
	{
		"deltaTime": 2,
		"channel": 0,
		"type": "channel",
		"noteNumber": 67,
		"velocity": 0,
		"subtype": "noteOff",
		"time": 31006,
		"track": 1
	},
	{
		"deltaTime": 0,
		"channel": 0,
		"type": "channel",
		"noteNumber": 69,
		"velocity": 127,
		"subtype": "noteOn",
		"time": 31008,
		"track": 1
	},
	{
		"deltaTime": 0,
		"channel": 1,
		"type": "channel",
		"noteNumber": 38,
		"velocity": 127,
		"subtype": "noteOn",
		"time": 31008,
		"track": 2
	},
	{
		"deltaTime": 94,
		"channel": 1,
		"type": "channel",
		"noteNumber": 50,
		"velocity": 127,
		"subtype": "noteOn",
		"time": 31008,
		"track": 2
	},
	{
		"deltaTime": 0,
		"channel": 0,
		"type": "channel",
		"noteNumber": 69,
		"velocity": 0,
		"subtype": "noteOff",
		"time": 31102,
		"track": 1
	},
	{
		"deltaTime": 0,
		"channel": 1,
		"type": "channel",
		"noteNumber": 38,
		"velocity": 0,
		"subtype": "noteOff",
		"time": 31102,
		"track": 2
	},
	{
		"deltaTime": 2,
		"channel": 1,
		"type": "channel",
		"noteNumber": 50,
		"velocity": 0,
		"subtype": "noteOff",
		"time": 31102,
		"track": 2
	},
	{
		"deltaTime": 0,
		"channel": 0,
		"type": "channel",
		"subtype": "controller",
		"controllerType": 64,
		"value": 0,
		"time": 31104,
		"track": 1
	},
	{
		"deltaTime": 0,
		"channel": 0,
		"type": "channel",
		"subtype": "controller",
		"controllerType": 64,
		"value": 127,
		"time": 31104,
		"track": 1
	},
	{
		"deltaTime": 0,
		"channel": 0,
		"type": "channel",
		"noteNumber": 60,
		"velocity": 127,
		"subtype": "noteOn",
		"time": 31104,
		"track": 1
	},
	{
		"deltaTime": 0,
		"channel": 0,
		"type": "channel",
		"noteNumber": 67,
		"velocity": 127,
		"subtype": "noteOn",
		"time": 31104,
		"track": 1
	},
	{
		"deltaTime": 0,
		"channel": 1,
		"type": "channel",
		"subtype": "controller",
		"controllerType": 64,
		"value": 0,
		"time": 31104,
		"track": 2
	},
	{
		"deltaTime": 0,
		"channel": 1,
		"type": "channel",
		"subtype": "controller",
		"controllerType": 64,
		"value": 127,
		"time": 31104,
		"track": 2
	},
	{
		"deltaTime": 0,
		"channel": 1,
		"type": "channel",
		"noteNumber": 36,
		"velocity": 127,
		"subtype": "noteOn",
		"time": 31104,
		"track": 2
	},
	{
		"deltaTime": 160,
		"channel": 1,
		"type": "channel",
		"noteNumber": 48,
		"velocity": 127,
		"subtype": "noteOn",
		"time": 31104,
		"track": 2
	},
	{
		"deltaTime": 0,
		"channel": 0,
		"type": "channel",
		"noteNumber": 60,
		"velocity": 0,
		"subtype": "noteOff",
		"time": 31264,
		"track": 1
	},
	{
		"deltaTime": 0,
		"channel": 0,
		"type": "channel",
		"noteNumber": 67,
		"velocity": 0,
		"subtype": "noteOff",
		"time": 31264,
		"track": 1
	},
	{
		"deltaTime": 0,
		"channel": 1,
		"type": "channel",
		"noteNumber": 36,
		"velocity": 0,
		"subtype": "noteOff",
		"time": 31264,
		"track": 2
	},
	{
		"deltaTime": 32,
		"channel": 1,
		"type": "channel",
		"noteNumber": 48,
		"velocity": 0,
		"subtype": "noteOff",
		"time": 31264,
		"track": 2
	},
	{
		"deltaTime": 0,
		"channel": 0,
		"type": "channel",
		"noteNumber": 60,
		"velocity": 127,
		"subtype": "noteOn",
		"time": 31296,
		"track": 1
	},
	{
		"deltaTime": 0,
		"channel": 0,
		"type": "channel",
		"noteNumber": 65,
		"velocity": 127,
		"subtype": "noteOn",
		"time": 31296,
		"track": 1
	},
	{
		"deltaTime": 0,
		"channel": 1,
		"type": "channel",
		"noteNumber": 36,
		"velocity": 127,
		"subtype": "noteOn",
		"time": 31296,
		"track": 2
	},
	{
		"deltaTime": 94,
		"channel": 1,
		"type": "channel",
		"noteNumber": 48,
		"velocity": 127,
		"subtype": "noteOn",
		"time": 31296,
		"track": 2
	},
	{
		"deltaTime": 0,
		"channel": 1,
		"type": "channel",
		"noteNumber": 36,
		"velocity": 0,
		"subtype": "noteOff",
		"time": 31390,
		"track": 2
	},
	{
		"deltaTime": 2,
		"channel": 1,
		"type": "channel",
		"noteNumber": 48,
		"velocity": 0,
		"subtype": "noteOff",
		"time": 31390,
		"track": 2
	},
	{
		"deltaTime": 0,
		"channel": 1,
		"type": "channel",
		"noteNumber": 36,
		"velocity": 127,
		"subtype": "noteOn",
		"time": 31392,
		"track": 2
	},
	{
		"deltaTime": 64,
		"channel": 1,
		"type": "channel",
		"noteNumber": 48,
		"velocity": 127,
		"subtype": "noteOn",
		"time": 31392,
		"track": 2
	},
	{
		"deltaTime": 0,
		"channel": 0,
		"type": "channel",
		"noteNumber": 60,
		"velocity": 0,
		"subtype": "noteOff",
		"time": 31456,
		"track": 1
	},
	{
		"deltaTime": 30,
		"channel": 0,
		"type": "channel",
		"noteNumber": 65,
		"velocity": 0,
		"subtype": "noteOff",
		"time": 31456,
		"track": 1
	},
	{
		"deltaTime": 0,
		"channel": 1,
		"type": "channel",
		"noteNumber": 36,
		"velocity": 0,
		"subtype": "noteOff",
		"time": 31486,
		"track": 2
	},
	{
		"deltaTime": 2,
		"channel": 1,
		"type": "channel",
		"noteNumber": 48,
		"velocity": 0,
		"subtype": "noteOff",
		"time": 31486,
		"track": 2
	},
	{
		"deltaTime": 0,
		"channel": 0,
		"type": "channel",
		"noteNumber": 60,
		"velocity": 127,
		"subtype": "noteOn",
		"time": 31488,
		"track": 1
	},
	{
		"deltaTime": 0,
		"channel": 0,
		"type": "channel",
		"noteNumber": 64,
		"velocity": 127,
		"subtype": "noteOn",
		"time": 31488,
		"track": 1
	},
	{
		"deltaTime": 0,
		"channel": 1,
		"type": "channel",
		"noteNumber": 36,
		"velocity": 127,
		"subtype": "noteOn",
		"time": 31488,
		"track": 2
	},
	{
		"deltaTime": 94,
		"channel": 1,
		"type": "channel",
		"noteNumber": 48,
		"velocity": 127,
		"subtype": "noteOn",
		"time": 31488,
		"track": 2
	},
	{
		"deltaTime": 0,
		"channel": 1,
		"type": "channel",
		"noteNumber": 36,
		"velocity": 0,
		"subtype": "noteOff",
		"time": 31582,
		"track": 2
	},
	{
		"deltaTime": 2,
		"channel": 1,
		"type": "channel",
		"noteNumber": 48,
		"velocity": 0,
		"subtype": "noteOff",
		"time": 31582,
		"track": 2
	},
	{
		"deltaTime": 0,
		"channel": 1,
		"type": "channel",
		"noteNumber": 36,
		"velocity": 127,
		"subtype": "noteOn",
		"time": 31584,
		"track": 2
	},
	{
		"deltaTime": 64,
		"channel": 1,
		"type": "channel",
		"noteNumber": 48,
		"velocity": 127,
		"subtype": "noteOn",
		"time": 31584,
		"track": 2
	},
	{
		"deltaTime": 0,
		"channel": 0,
		"type": "channel",
		"noteNumber": 60,
		"velocity": 0,
		"subtype": "noteOff",
		"time": 31648,
		"track": 1
	},
	{
		"deltaTime": 30,
		"channel": 0,
		"type": "channel",
		"noteNumber": 64,
		"velocity": 0,
		"subtype": "noteOff",
		"time": 31648,
		"track": 1
	},
	{
		"deltaTime": 0,
		"channel": 1,
		"type": "channel",
		"noteNumber": 36,
		"velocity": 0,
		"subtype": "noteOff",
		"time": 31678,
		"track": 2
	},
	{
		"deltaTime": 2,
		"channel": 1,
		"type": "channel",
		"noteNumber": 48,
		"velocity": 0,
		"subtype": "noteOff",
		"time": 31678,
		"track": 2
	},
	{
		"deltaTime": 0,
		"channel": 0,
		"type": "channel",
		"subtype": "controller",
		"controllerType": 64,
		"value": 0,
		"time": 31680,
		"track": 1
	},
	{
		"deltaTime": 0,
		"channel": 0,
		"type": "channel",
		"subtype": "controller",
		"controllerType": 64,
		"value": 127,
		"time": 31680,
		"track": 1
	},
	{
		"deltaTime": 0,
		"channel": 0,
		"type": "channel",
		"noteNumber": 57,
		"velocity": 127,
		"subtype": "noteOn",
		"time": 31680,
		"track": 1
	},
	{
		"deltaTime": 0,
		"channel": 0,
		"type": "channel",
		"noteNumber": 60,
		"velocity": 127,
		"subtype": "noteOn",
		"time": 31680,
		"track": 1
	},
	{
		"deltaTime": 0,
		"channel": 0,
		"type": "channel",
		"noteNumber": 65,
		"velocity": 127,
		"subtype": "noteOn",
		"time": 31680,
		"track": 1
	},
	{
		"deltaTime": 0,
		"channel": 1,
		"type": "channel",
		"subtype": "controller",
		"controllerType": 64,
		"value": 0,
		"time": 31680,
		"track": 2
	},
	{
		"deltaTime": 0,
		"channel": 1,
		"type": "channel",
		"subtype": "controller",
		"controllerType": 64,
		"value": 127,
		"time": 31680,
		"track": 2
	},
	{
		"deltaTime": 0,
		"channel": 1,
		"type": "channel",
		"noteNumber": 41,
		"velocity": 127,
		"subtype": "noteOn",
		"time": 31680,
		"track": 2
	},
	{
		"deltaTime": 160,
		"channel": 1,
		"type": "channel",
		"noteNumber": 53,
		"velocity": 127,
		"subtype": "noteOn",
		"time": 31680,
		"track": 2
	},
	{
		"deltaTime": 0,
		"channel": 0,
		"type": "channel",
		"noteNumber": 57,
		"velocity": 0,
		"subtype": "noteOff",
		"time": 31840,
		"track": 1
	},
	{
		"deltaTime": 0,
		"channel": 0,
		"type": "channel",
		"noteNumber": 60,
		"velocity": 0,
		"subtype": "noteOff",
		"time": 31840,
		"track": 1
	},
	{
		"deltaTime": 0,
		"channel": 0,
		"type": "channel",
		"noteNumber": 65,
		"velocity": 0,
		"subtype": "noteOff",
		"time": 31840,
		"track": 1
	},
	{
		"deltaTime": 0,
		"channel": 1,
		"type": "channel",
		"noteNumber": 41,
		"velocity": 0,
		"subtype": "noteOff",
		"time": 31840,
		"track": 2
	},
	{
		"deltaTime": 32,
		"channel": 1,
		"type": "channel",
		"noteNumber": 53,
		"velocity": 0,
		"subtype": "noteOff",
		"time": 31840,
		"track": 2
	},
	{
		"deltaTime": 0,
		"channel": 0,
		"type": "channel",
		"noteNumber": 57,
		"velocity": 127,
		"subtype": "noteOn",
		"time": 31872,
		"track": 1
	},
	{
		"deltaTime": 0,
		"channel": 0,
		"type": "channel",
		"noteNumber": 60,
		"velocity": 127,
		"subtype": "noteOn",
		"time": 31872,
		"track": 1
	},
	{
		"deltaTime": 0,
		"channel": 0,
		"type": "channel",
		"noteNumber": 67,
		"velocity": 127,
		"subtype": "noteOn",
		"time": 31872,
		"track": 1
	},
	{
		"deltaTime": 0,
		"channel": 1,
		"type": "channel",
		"noteNumber": 41,
		"velocity": 127,
		"subtype": "noteOn",
		"time": 31872,
		"track": 2
	},
	{
		"deltaTime": 94,
		"channel": 1,
		"type": "channel",
		"noteNumber": 53,
		"velocity": 127,
		"subtype": "noteOn",
		"time": 31872,
		"track": 2
	},
	{
		"deltaTime": 0,
		"channel": 1,
		"type": "channel",
		"noteNumber": 41,
		"velocity": 0,
		"subtype": "noteOff",
		"time": 31966,
		"track": 2
	},
	{
		"deltaTime": 2,
		"channel": 1,
		"type": "channel",
		"noteNumber": 53,
		"velocity": 0,
		"subtype": "noteOff",
		"time": 31966,
		"track": 2
	},
	{
		"deltaTime": 0,
		"channel": 1,
		"type": "channel",
		"noteNumber": 41,
		"velocity": 127,
		"subtype": "noteOn",
		"time": 31968,
		"track": 2
	},
	{
		"deltaTime": 64,
		"channel": 1,
		"type": "channel",
		"noteNumber": 53,
		"velocity": 127,
		"subtype": "noteOn",
		"time": 31968,
		"track": 2
	},
	{
		"deltaTime": 0,
		"channel": 0,
		"type": "channel",
		"noteNumber": 57,
		"velocity": 0,
		"subtype": "noteOff",
		"time": 32032,
		"track": 1
	},
	{
		"deltaTime": 0,
		"channel": 0,
		"type": "channel",
		"noteNumber": 60,
		"velocity": 0,
		"subtype": "noteOff",
		"time": 32032,
		"track": 1
	},
	{
		"deltaTime": 30,
		"channel": 0,
		"type": "channel",
		"noteNumber": 67,
		"velocity": 0,
		"subtype": "noteOff",
		"time": 32032,
		"track": 1
	},
	{
		"deltaTime": 0,
		"channel": 1,
		"type": "channel",
		"noteNumber": 41,
		"velocity": 0,
		"subtype": "noteOff",
		"time": 32062,
		"track": 2
	},
	{
		"deltaTime": 2,
		"channel": 1,
		"type": "channel",
		"noteNumber": 53,
		"velocity": 0,
		"subtype": "noteOff",
		"time": 32062,
		"track": 2
	},
	{
		"deltaTime": 0,
		"channel": 0,
		"type": "channel",
		"noteNumber": 57,
		"velocity": 127,
		"subtype": "noteOn",
		"time": 32064,
		"track": 1
	},
	{
		"deltaTime": 0,
		"channel": 0,
		"type": "channel",
		"noteNumber": 60,
		"velocity": 127,
		"subtype": "noteOn",
		"time": 32064,
		"track": 1
	},
	{
		"deltaTime": 0,
		"channel": 0,
		"type": "channel",
		"noteNumber": 69,
		"velocity": 127,
		"subtype": "noteOn",
		"time": 32064,
		"track": 1
	},
	{
		"deltaTime": 0,
		"channel": 1,
		"type": "channel",
		"noteNumber": 41,
		"velocity": 127,
		"subtype": "noteOn",
		"time": 32064,
		"track": 2
	},
	{
		"deltaTime": 94,
		"channel": 1,
		"type": "channel",
		"noteNumber": 53,
		"velocity": 127,
		"subtype": "noteOn",
		"time": 32064,
		"track": 2
	},
	{
		"deltaTime": 0,
		"channel": 1,
		"type": "channel",
		"noteNumber": 41,
		"velocity": 0,
		"subtype": "noteOff",
		"time": 32158,
		"track": 2
	},
	{
		"deltaTime": 2,
		"channel": 1,
		"type": "channel",
		"noteNumber": 53,
		"velocity": 0,
		"subtype": "noteOff",
		"time": 32158,
		"track": 2
	},
	{
		"deltaTime": 0,
		"channel": 1,
		"type": "channel",
		"noteNumber": 41,
		"velocity": 127,
		"subtype": "noteOn",
		"time": 32160,
		"track": 2
	},
	{
		"deltaTime": 64,
		"channel": 1,
		"type": "channel",
		"noteNumber": 53,
		"velocity": 127,
		"subtype": "noteOn",
		"time": 32160,
		"track": 2
	},
	{
		"deltaTime": 0,
		"channel": 0,
		"type": "channel",
		"noteNumber": 57,
		"velocity": 0,
		"subtype": "noteOff",
		"time": 32224,
		"track": 1
	},
	{
		"deltaTime": 0,
		"channel": 0,
		"type": "channel",
		"noteNumber": 60,
		"velocity": 0,
		"subtype": "noteOff",
		"time": 32224,
		"track": 1
	},
	{
		"deltaTime": 30,
		"channel": 0,
		"type": "channel",
		"noteNumber": 69,
		"velocity": 0,
		"subtype": "noteOff",
		"time": 32224,
		"track": 1
	},
	{
		"deltaTime": 0,
		"channel": 1,
		"type": "channel",
		"noteNumber": 41,
		"velocity": 0,
		"subtype": "noteOff",
		"time": 32254,
		"track": 2
	},
	{
		"deltaTime": 2,
		"channel": 1,
		"type": "channel",
		"noteNumber": 53,
		"velocity": 0,
		"subtype": "noteOff",
		"time": 32254,
		"track": 2
	},
	{
		"deltaTime": 0,
		"channel": 0,
		"type": "channel",
		"subtype": "controller",
		"controllerType": 64,
		"value": 0,
		"time": 32256,
		"track": 1
	},
	{
		"deltaTime": 0,
		"channel": 0,
		"type": "channel",
		"subtype": "controller",
		"controllerType": 64,
		"value": 127,
		"time": 32256,
		"track": 1
	},
	{
		"deltaTime": 0,
		"channel": 0,
		"type": "channel",
		"noteNumber": 60,
		"velocity": 127,
		"subtype": "noteOn",
		"time": 32256,
		"track": 1
	},
	{
		"deltaTime": 0,
		"channel": 0,
		"type": "channel",
		"noteNumber": 64,
		"velocity": 127,
		"subtype": "noteOn",
		"time": 32256,
		"track": 1
	},
	{
		"deltaTime": 0,
		"channel": 0,
		"type": "channel",
		"noteNumber": 67,
		"velocity": 127,
		"subtype": "noteOn",
		"time": 32256,
		"track": 1
	},
	{
		"deltaTime": 0,
		"channel": 1,
		"type": "channel",
		"subtype": "controller",
		"controllerType": 64,
		"value": 0,
		"time": 32256,
		"track": 2
	},
	{
		"deltaTime": 0,
		"channel": 1,
		"type": "channel",
		"subtype": "controller",
		"controllerType": 64,
		"value": 127,
		"time": 32256,
		"track": 2
	},
	{
		"deltaTime": 0,
		"channel": 1,
		"type": "channel",
		"noteNumber": 36,
		"velocity": 127,
		"subtype": "noteOn",
		"time": 32256,
		"track": 2
	},
	{
		"deltaTime": 160,
		"channel": 1,
		"type": "channel",
		"noteNumber": 48,
		"velocity": 127,
		"subtype": "noteOn",
		"time": 32256,
		"track": 2
	},
	{
		"deltaTime": 0,
		"channel": 0,
		"type": "channel",
		"noteNumber": 60,
		"velocity": 0,
		"subtype": "noteOff",
		"time": 32416,
		"track": 1
	},
	{
		"deltaTime": 0,
		"channel": 0,
		"type": "channel",
		"noteNumber": 64,
		"velocity": 0,
		"subtype": "noteOff",
		"time": 32416,
		"track": 1
	},
	{
		"deltaTime": 0,
		"channel": 0,
		"type": "channel",
		"noteNumber": 67,
		"velocity": 0,
		"subtype": "noteOff",
		"time": 32416,
		"track": 1
	},
	{
		"deltaTime": 0,
		"channel": 1,
		"type": "channel",
		"noteNumber": 36,
		"velocity": 0,
		"subtype": "noteOff",
		"time": 32416,
		"track": 2
	},
	{
		"deltaTime": 32,
		"channel": 1,
		"type": "channel",
		"noteNumber": 48,
		"velocity": 0,
		"subtype": "noteOff",
		"time": 32416,
		"track": 2
	},
	{
		"deltaTime": 0,
		"channel": 1,
		"type": "channel",
		"noteNumber": 36,
		"velocity": 127,
		"subtype": "noteOn",
		"time": 32448,
		"track": 2
	},
	{
		"deltaTime": 94,
		"channel": 1,
		"type": "channel",
		"noteNumber": 48,
		"velocity": 127,
		"subtype": "noteOn",
		"time": 32448,
		"track": 2
	},
	{
		"deltaTime": 0,
		"channel": 1,
		"type": "channel",
		"noteNumber": 36,
		"velocity": 0,
		"subtype": "noteOff",
		"time": 32542,
		"track": 2
	},
	{
		"deltaTime": 2,
		"channel": 1,
		"type": "channel",
		"noteNumber": 48,
		"velocity": 0,
		"subtype": "noteOff",
		"time": 32542,
		"track": 2
	},
	{
		"deltaTime": 0,
		"channel": 1,
		"type": "channel",
		"noteNumber": 36,
		"velocity": 127,
		"subtype": "noteOn",
		"time": 32544,
		"track": 2
	},
	{
		"deltaTime": 94,
		"channel": 1,
		"type": "channel",
		"noteNumber": 48,
		"velocity": 127,
		"subtype": "noteOn",
		"time": 32544,
		"track": 2
	},
	{
		"deltaTime": 0,
		"channel": 1,
		"type": "channel",
		"noteNumber": 36,
		"velocity": 0,
		"subtype": "noteOff",
		"time": 32638,
		"track": 2
	},
	{
		"deltaTime": 2,
		"channel": 1,
		"type": "channel",
		"noteNumber": 48,
		"velocity": 0,
		"subtype": "noteOff",
		"time": 32638,
		"track": 2
	},
	{
		"deltaTime": 0,
		"channel": 0,
		"type": "channel",
		"noteNumber": 65,
		"velocity": 127,
		"subtype": "noteOn",
		"time": 32640,
		"track": 1
	},
	{
		"deltaTime": 0,
		"channel": 1,
		"type": "channel",
		"noteNumber": 36,
		"velocity": 127,
		"subtype": "noteOn",
		"time": 32640,
		"track": 2
	},
	{
		"deltaTime": 94,
		"channel": 1,
		"type": "channel",
		"noteNumber": 48,
		"velocity": 127,
		"subtype": "noteOn",
		"time": 32640,
		"track": 2
	},
	{
		"deltaTime": 0,
		"channel": 0,
		"type": "channel",
		"noteNumber": 65,
		"velocity": 0,
		"subtype": "noteOff",
		"time": 32734,
		"track": 1
	},
	{
		"deltaTime": 0,
		"channel": 1,
		"type": "channel",
		"noteNumber": 36,
		"velocity": 0,
		"subtype": "noteOff",
		"time": 32734,
		"track": 2
	},
	{
		"deltaTime": 2,
		"channel": 1,
		"type": "channel",
		"noteNumber": 48,
		"velocity": 0,
		"subtype": "noteOff",
		"time": 32734,
		"track": 2
	},
	{
		"deltaTime": 0,
		"channel": 0,
		"type": "channel",
		"noteNumber": 67,
		"velocity": 127,
		"subtype": "noteOn",
		"time": 32736,
		"track": 1
	},
	{
		"deltaTime": 0,
		"channel": 1,
		"type": "channel",
		"noteNumber": 36,
		"velocity": 127,
		"subtype": "noteOn",
		"time": 32736,
		"track": 2
	},
	{
		"deltaTime": 94,
		"channel": 1,
		"type": "channel",
		"noteNumber": 48,
		"velocity": 127,
		"subtype": "noteOn",
		"time": 32736,
		"track": 2
	},
	{
		"deltaTime": 0,
		"channel": 0,
		"type": "channel",
		"noteNumber": 67,
		"velocity": 0,
		"subtype": "noteOff",
		"time": 32830,
		"track": 1
	},
	{
		"deltaTime": 0,
		"channel": 1,
		"type": "channel",
		"noteNumber": 36,
		"velocity": 0,
		"subtype": "noteOff",
		"time": 32830,
		"track": 2
	},
	{
		"deltaTime": 2,
		"channel": 1,
		"type": "channel",
		"noteNumber": 48,
		"velocity": 0,
		"subtype": "noteOff",
		"time": 32830,
		"track": 2
	},
	{
		"deltaTime": 0,
		"channel": 0,
		"type": "channel",
		"subtype": "controller",
		"controllerType": 64,
		"value": 0,
		"time": 32832,
		"track": 1
	},
	{
		"deltaTime": 0,
		"channel": 0,
		"type": "channel",
		"subtype": "controller",
		"controllerType": 64,
		"value": 127,
		"time": 32832,
		"track": 1
	},
	{
		"deltaTime": 0,
		"channel": 0,
		"type": "channel",
		"noteNumber": 60,
		"velocity": 127,
		"subtype": "noteOn",
		"time": 32832,
		"track": 1
	},
	{
		"deltaTime": 0,
		"channel": 0,
		"type": "channel",
		"noteNumber": 65,
		"velocity": 127,
		"subtype": "noteOn",
		"time": 32832,
		"track": 1
	},
	{
		"deltaTime": 0,
		"channel": 0,
		"type": "channel",
		"noteNumber": 69,
		"velocity": 127,
		"subtype": "noteOn",
		"time": 32832,
		"track": 1
	},
	{
		"deltaTime": 0,
		"channel": 1,
		"type": "channel",
		"subtype": "controller",
		"controllerType": 64,
		"value": 0,
		"time": 32832,
		"track": 2
	},
	{
		"deltaTime": 0,
		"channel": 1,
		"type": "channel",
		"subtype": "controller",
		"controllerType": 64,
		"value": 127,
		"time": 32832,
		"track": 2
	},
	{
		"deltaTime": 0,
		"channel": 1,
		"type": "channel",
		"noteNumber": 41,
		"velocity": 127,
		"subtype": "noteOn",
		"time": 32832,
		"track": 2
	},
	{
		"deltaTime": 160,
		"channel": 1,
		"type": "channel",
		"noteNumber": 53,
		"velocity": 127,
		"subtype": "noteOn",
		"time": 32832,
		"track": 2
	},
	{
		"deltaTime": 0,
		"channel": 0,
		"type": "channel",
		"noteNumber": 60,
		"velocity": 0,
		"subtype": "noteOff",
		"time": 32992,
		"track": 1
	},
	{
		"deltaTime": 0,
		"channel": 0,
		"type": "channel",
		"noteNumber": 65,
		"velocity": 0,
		"subtype": "noteOff",
		"time": 32992,
		"track": 1
	},
	{
		"deltaTime": 0,
		"channel": 0,
		"type": "channel",
		"noteNumber": 69,
		"velocity": 0,
		"subtype": "noteOff",
		"time": 32992,
		"track": 1
	},
	{
		"deltaTime": 0,
		"channel": 1,
		"type": "channel",
		"noteNumber": 41,
		"velocity": 0,
		"subtype": "noteOff",
		"time": 32992,
		"track": 2
	},
	{
		"deltaTime": 32,
		"channel": 1,
		"type": "channel",
		"noteNumber": 53,
		"velocity": 0,
		"subtype": "noteOff",
		"time": 32992,
		"track": 2
	},
	{
		"deltaTime": 0,
		"channel": 1,
		"type": "channel",
		"noteNumber": 41,
		"velocity": 127,
		"subtype": "noteOn",
		"time": 33024,
		"track": 2
	},
	{
		"deltaTime": 94,
		"channel": 1,
		"type": "channel",
		"noteNumber": 53,
		"velocity": 127,
		"subtype": "noteOn",
		"time": 33024,
		"track": 2
	},
	{
		"deltaTime": 0,
		"channel": 1,
		"type": "channel",
		"noteNumber": 41,
		"velocity": 0,
		"subtype": "noteOff",
		"time": 33118,
		"track": 2
	},
	{
		"deltaTime": 2,
		"channel": 1,
		"type": "channel",
		"noteNumber": 53,
		"velocity": 0,
		"subtype": "noteOff",
		"time": 33118,
		"track": 2
	},
	{
		"deltaTime": 0,
		"channel": 1,
		"type": "channel",
		"noteNumber": 41,
		"velocity": 127,
		"subtype": "noteOn",
		"time": 33120,
		"track": 2
	},
	{
		"deltaTime": 94,
		"channel": 1,
		"type": "channel",
		"noteNumber": 53,
		"velocity": 127,
		"subtype": "noteOn",
		"time": 33120,
		"track": 2
	},
	{
		"deltaTime": 0,
		"channel": 1,
		"type": "channel",
		"noteNumber": 41,
		"velocity": 0,
		"subtype": "noteOff",
		"time": 33214,
		"track": 2
	},
	{
		"deltaTime": 2,
		"channel": 1,
		"type": "channel",
		"noteNumber": 53,
		"velocity": 0,
		"subtype": "noteOff",
		"time": 33214,
		"track": 2
	},
	{
		"deltaTime": 0,
		"channel": 0,
		"type": "channel",
		"noteNumber": 67,
		"velocity": 127,
		"subtype": "noteOn",
		"time": 33216,
		"track": 1
	},
	{
		"deltaTime": 0,
		"channel": 1,
		"type": "channel",
		"noteNumber": 41,
		"velocity": 127,
		"subtype": "noteOn",
		"time": 33216,
		"track": 2
	},
	{
		"deltaTime": 94,
		"channel": 1,
		"type": "channel",
		"noteNumber": 53,
		"velocity": 127,
		"subtype": "noteOn",
		"time": 33216,
		"track": 2
	},
	{
		"deltaTime": 0,
		"channel": 0,
		"type": "channel",
		"noteNumber": 67,
		"velocity": 0,
		"subtype": "noteOff",
		"time": 33310,
		"track": 1
	},
	{
		"deltaTime": 0,
		"channel": 1,
		"type": "channel",
		"noteNumber": 41,
		"velocity": 0,
		"subtype": "noteOff",
		"time": 33310,
		"track": 2
	},
	{
		"deltaTime": 2,
		"channel": 1,
		"type": "channel",
		"noteNumber": 53,
		"velocity": 0,
		"subtype": "noteOff",
		"time": 33310,
		"track": 2
	},
	{
		"deltaTime": 0,
		"channel": 0,
		"type": "channel",
		"noteNumber": 65,
		"velocity": 127,
		"subtype": "noteOn",
		"time": 33312,
		"track": 1
	},
	{
		"deltaTime": 0,
		"channel": 1,
		"type": "channel",
		"noteNumber": 41,
		"velocity": 127,
		"subtype": "noteOn",
		"time": 33312,
		"track": 2
	},
	{
		"deltaTime": 94,
		"channel": 1,
		"type": "channel",
		"noteNumber": 53,
		"velocity": 127,
		"subtype": "noteOn",
		"time": 33312,
		"track": 2
	},
	{
		"deltaTime": 0,
		"channel": 0,
		"type": "channel",
		"noteNumber": 65,
		"velocity": 0,
		"subtype": "noteOff",
		"time": 33406,
		"track": 1
	},
	{
		"deltaTime": 0,
		"channel": 1,
		"type": "channel",
		"noteNumber": 41,
		"velocity": 0,
		"subtype": "noteOff",
		"time": 33406,
		"track": 2
	},
	{
		"deltaTime": 2,
		"channel": 1,
		"type": "channel",
		"noteNumber": 53,
		"velocity": 0,
		"subtype": "noteOff",
		"time": 33406,
		"track": 2
	},
	{
		"deltaTime": 0,
		"channel": 0,
		"type": "channel",
		"subtype": "controller",
		"controllerType": 64,
		"value": 0,
		"time": 33408,
		"track": 1
	},
	{
		"deltaTime": 0,
		"channel": 0,
		"type": "channel",
		"subtype": "controller",
		"controllerType": 64,
		"value": 127,
		"time": 33408,
		"track": 1
	},
	{
		"deltaTime": 0,
		"channel": 0,
		"type": "channel",
		"noteNumber": 61,
		"velocity": 127,
		"subtype": "noteOn",
		"time": 33408,
		"track": 1
	},
	{
		"deltaTime": 0,
		"channel": 0,
		"type": "channel",
		"noteNumber": 64,
		"velocity": 127,
		"subtype": "noteOn",
		"time": 33408,
		"track": 1
	},
	{
		"deltaTime": 0,
		"channel": 1,
		"type": "channel",
		"subtype": "controller",
		"controllerType": 64,
		"value": 0,
		"time": 33408,
		"track": 2
	},
	{
		"deltaTime": 0,
		"channel": 1,
		"type": "channel",
		"subtype": "controller",
		"controllerType": 64,
		"value": 127,
		"time": 33408,
		"track": 2
	},
	{
		"deltaTime": 0,
		"channel": 1,
		"type": "channel",
		"noteNumber": 33,
		"velocity": 127,
		"subtype": "noteOn",
		"time": 33408,
		"track": 2
	},
	{
		"deltaTime": 160,
		"channel": 1,
		"type": "channel",
		"noteNumber": 45,
		"velocity": 127,
		"subtype": "noteOn",
		"time": 33408,
		"track": 2
	},
	{
		"deltaTime": 0,
		"channel": 0,
		"type": "channel",
		"noteNumber": 61,
		"velocity": 0,
		"subtype": "noteOff",
		"time": 33568,
		"track": 1
	},
	{
		"deltaTime": 0,
		"channel": 0,
		"type": "channel",
		"noteNumber": 64,
		"velocity": 0,
		"subtype": "noteOff",
		"time": 33568,
		"track": 1
	},
	{
		"deltaTime": 0,
		"channel": 1,
		"type": "channel",
		"noteNumber": 33,
		"velocity": 0,
		"subtype": "noteOff",
		"time": 33568,
		"track": 2
	},
	{
		"deltaTime": 32,
		"channel": 1,
		"type": "channel",
		"noteNumber": 45,
		"velocity": 0,
		"subtype": "noteOff",
		"time": 33568,
		"track": 2
	},
	{
		"deltaTime": 0,
		"channel": 0,
		"type": "channel",
		"noteNumber": 61,
		"velocity": 127,
		"subtype": "noteOn",
		"time": 33600,
		"track": 1
	},
	{
		"deltaTime": 0,
		"channel": 0,
		"type": "channel",
		"noteNumber": 65,
		"velocity": 127,
		"subtype": "noteOn",
		"time": 33600,
		"track": 1
	},
	{
		"deltaTime": 0,
		"channel": 1,
		"type": "channel",
		"noteNumber": 33,
		"velocity": 127,
		"subtype": "noteOn",
		"time": 33600,
		"track": 2
	},
	{
		"deltaTime": 94,
		"channel": 1,
		"type": "channel",
		"noteNumber": 45,
		"velocity": 127,
		"subtype": "noteOn",
		"time": 33600,
		"track": 2
	},
	{
		"deltaTime": 0,
		"channel": 1,
		"type": "channel",
		"noteNumber": 33,
		"velocity": 0,
		"subtype": "noteOff",
		"time": 33694,
		"track": 2
	},
	{
		"deltaTime": 2,
		"channel": 1,
		"type": "channel",
		"noteNumber": 45,
		"velocity": 0,
		"subtype": "noteOff",
		"time": 33694,
		"track": 2
	},
	{
		"deltaTime": 0,
		"channel": 1,
		"type": "channel",
		"noteNumber": 33,
		"velocity": 127,
		"subtype": "noteOn",
		"time": 33696,
		"track": 2
	},
	{
		"deltaTime": 64,
		"channel": 1,
		"type": "channel",
		"noteNumber": 45,
		"velocity": 127,
		"subtype": "noteOn",
		"time": 33696,
		"track": 2
	},
	{
		"deltaTime": 0,
		"channel": 0,
		"type": "channel",
		"noteNumber": 61,
		"velocity": 0,
		"subtype": "noteOff",
		"time": 33760,
		"track": 1
	},
	{
		"deltaTime": 30,
		"channel": 0,
		"type": "channel",
		"noteNumber": 65,
		"velocity": 0,
		"subtype": "noteOff",
		"time": 33760,
		"track": 1
	},
	{
		"deltaTime": 0,
		"channel": 1,
		"type": "channel",
		"noteNumber": 33,
		"velocity": 0,
		"subtype": "noteOff",
		"time": 33790,
		"track": 2
	},
	{
		"deltaTime": 2,
		"channel": 1,
		"type": "channel",
		"noteNumber": 45,
		"velocity": 0,
		"subtype": "noteOff",
		"time": 33790,
		"track": 2
	},
	{
		"deltaTime": 0,
		"channel": 0,
		"type": "channel",
		"noteNumber": 61,
		"velocity": 127,
		"subtype": "noteOn",
		"time": 33792,
		"track": 1
	},
	{
		"deltaTime": 0,
		"channel": 0,
		"type": "channel",
		"noteNumber": 64,
		"velocity": 127,
		"subtype": "noteOn",
		"time": 33792,
		"track": 1
	},
	{
		"deltaTime": 0,
		"channel": 1,
		"type": "channel",
		"noteNumber": 33,
		"velocity": 127,
		"subtype": "noteOn",
		"time": 33792,
		"track": 2
	},
	{
		"deltaTime": 94,
		"channel": 1,
		"type": "channel",
		"noteNumber": 45,
		"velocity": 127,
		"subtype": "noteOn",
		"time": 33792,
		"track": 2
	},
	{
		"deltaTime": 0,
		"channel": 1,
		"type": "channel",
		"noteNumber": 33,
		"velocity": 0,
		"subtype": "noteOff",
		"time": 33886,
		"track": 2
	},
	{
		"deltaTime": 2,
		"channel": 1,
		"type": "channel",
		"noteNumber": 45,
		"velocity": 0,
		"subtype": "noteOff",
		"time": 33886,
		"track": 2
	},
	{
		"deltaTime": 0,
		"channel": 1,
		"type": "channel",
		"noteNumber": 33,
		"velocity": 127,
		"subtype": "noteOn",
		"time": 33888,
		"track": 2
	},
	{
		"deltaTime": 64,
		"channel": 1,
		"type": "channel",
		"noteNumber": 45,
		"velocity": 127,
		"subtype": "noteOn",
		"time": 33888,
		"track": 2
	},
	{
		"deltaTime": 0,
		"channel": 0,
		"type": "channel",
		"noteNumber": 61,
		"velocity": 0,
		"subtype": "noteOff",
		"time": 33952,
		"track": 1
	},
	{
		"deltaTime": 30,
		"channel": 0,
		"type": "channel",
		"noteNumber": 64,
		"velocity": 0,
		"subtype": "noteOff",
		"time": 33952,
		"track": 1
	},
	{
		"deltaTime": 0,
		"channel": 1,
		"type": "channel",
		"noteNumber": 33,
		"velocity": 0,
		"subtype": "noteOff",
		"time": 33982,
		"track": 2
	},
	{
		"deltaTime": 2,
		"channel": 1,
		"type": "channel",
		"noteNumber": 45,
		"velocity": 0,
		"subtype": "noteOff",
		"time": 33982,
		"track": 2
	},
	{
		"deltaTime": 0,
		"channel": 0,
		"type": "channel",
		"subtype": "controller",
		"controllerType": 64,
		"value": 0,
		"time": 33984,
		"track": 1
	},
	{
		"deltaTime": 0,
		"channel": 0,
		"type": "channel",
		"subtype": "controller",
		"controllerType": 64,
		"value": 127,
		"time": 33984,
		"track": 1
	},
	{
		"deltaTime": 0,
		"channel": 0,
		"type": "channel",
		"noteNumber": 53,
		"velocity": 127,
		"subtype": "noteOn",
		"time": 33984,
		"track": 1
	},
	{
		"deltaTime": 0,
		"channel": 0,
		"type": "channel",
		"noteNumber": 57,
		"velocity": 127,
		"subtype": "noteOn",
		"time": 33984,
		"track": 1
	},
	{
		"deltaTime": 0,
		"channel": 0,
		"type": "channel",
		"noteNumber": 62,
		"velocity": 127,
		"subtype": "noteOn",
		"time": 33984,
		"track": 1
	},
	{
		"deltaTime": 0,
		"channel": 1,
		"type": "channel",
		"subtype": "controller",
		"controllerType": 64,
		"value": 0,
		"time": 33984,
		"track": 2
	},
	{
		"deltaTime": 0,
		"channel": 1,
		"type": "channel",
		"subtype": "controller",
		"controllerType": 64,
		"value": 127,
		"time": 33984,
		"track": 2
	},
	{
		"deltaTime": 0,
		"channel": 1,
		"type": "channel",
		"noteNumber": 38,
		"velocity": 127,
		"subtype": "noteOn",
		"time": 33984,
		"track": 2
	},
	{
		"deltaTime": 160,
		"channel": 1,
		"type": "channel",
		"noteNumber": 50,
		"velocity": 127,
		"subtype": "noteOn",
		"time": 33984,
		"track": 2
	},
	{
		"deltaTime": 0,
		"channel": 0,
		"type": "channel",
		"noteNumber": 53,
		"velocity": 0,
		"subtype": "noteOff",
		"time": 34144,
		"track": 1
	},
	{
		"deltaTime": 0,
		"channel": 0,
		"type": "channel",
		"noteNumber": 57,
		"velocity": 0,
		"subtype": "noteOff",
		"time": 34144,
		"track": 1
	},
	{
		"deltaTime": 0,
		"channel": 0,
		"type": "channel",
		"noteNumber": 62,
		"velocity": 0,
		"subtype": "noteOff",
		"time": 34144,
		"track": 1
	},
	{
		"deltaTime": 0,
		"channel": 1,
		"type": "channel",
		"noteNumber": 38,
		"velocity": 0,
		"subtype": "noteOff",
		"time": 34144,
		"track": 2
	},
	{
		"deltaTime": 32,
		"channel": 1,
		"type": "channel",
		"noteNumber": 50,
		"velocity": 0,
		"subtype": "noteOff",
		"time": 34144,
		"track": 2
	},
	{
		"deltaTime": 0,
		"channel": 1,
		"type": "channel",
		"noteNumber": 38,
		"velocity": 127,
		"subtype": "noteOn",
		"time": 34176,
		"track": 2
	},
	{
		"deltaTime": 94,
		"channel": 1,
		"type": "channel",
		"noteNumber": 50,
		"velocity": 127,
		"subtype": "noteOn",
		"time": 34176,
		"track": 2
	},
	{
		"deltaTime": 0,
		"channel": 1,
		"type": "channel",
		"noteNumber": 38,
		"velocity": 0,
		"subtype": "noteOff",
		"time": 34270,
		"track": 2
	},
	{
		"deltaTime": 2,
		"channel": 1,
		"type": "channel",
		"noteNumber": 50,
		"velocity": 0,
		"subtype": "noteOff",
		"time": 34270,
		"track": 2
	},
	{
		"deltaTime": 0,
		"channel": 1,
		"type": "channel",
		"noteNumber": 38,
		"velocity": 127,
		"subtype": "noteOn",
		"time": 34272,
		"track": 2
	},
	{
		"deltaTime": 96,
		"channel": 1,
		"type": "channel",
		"noteNumber": 50,
		"velocity": 127,
		"subtype": "noteOn",
		"time": 34272,
		"track": 2
	},
	{
		"deltaTime": 64,
		"channel": 0,
		"type": "channel",
		"noteNumber": 64,
		"velocity": 127,
		"subtype": "noteOn",
		"time": 34368,
		"track": 1
	},
	{
		"deltaTime": 0,
		"channel": 1,
		"type": "channel",
		"noteNumber": 38,
		"velocity": 0,
		"subtype": "noteOff",
		"time": 34432,
		"track": 2
	},
	{
		"deltaTime": 30,
		"channel": 1,
		"type": "channel",
		"noteNumber": 50,
		"velocity": 0,
		"subtype": "noteOff",
		"time": 34432,
		"track": 2
	},
	{
		"deltaTime": 2,
		"channel": 0,
		"type": "channel",
		"noteNumber": 64,
		"velocity": 0,
		"subtype": "noteOff",
		"time": 34462,
		"track": 1
	},
	{
		"deltaTime": 0,
		"channel": 0,
		"type": "channel",
		"noteNumber": 60,
		"velocity": 127,
		"subtype": "noteOn",
		"time": 34464,
		"track": 1
	},
	{
		"deltaTime": 0,
		"channel": 1,
		"type": "channel",
		"noteNumber": 38,
		"velocity": 127,
		"subtype": "noteOn",
		"time": 34464,
		"track": 2
	},
	{
		"deltaTime": 94,
		"channel": 1,
		"type": "channel",
		"noteNumber": 50,
		"velocity": 127,
		"subtype": "noteOn",
		"time": 34464,
		"track": 2
	},
	{
		"deltaTime": 0,
		"channel": 0,
		"type": "channel",
		"noteNumber": 60,
		"velocity": 0,
		"subtype": "noteOff",
		"time": 34558,
		"track": 1
	},
	{
		"deltaTime": 0,
		"channel": 1,
		"type": "channel",
		"noteNumber": 38,
		"velocity": 0,
		"subtype": "noteOff",
		"time": 34558,
		"track": 2
	},
	{
		"deltaTime": 2,
		"channel": 1,
		"type": "channel",
		"noteNumber": 50,
		"velocity": 0,
		"subtype": "noteOff",
		"time": 34558,
		"track": 2
	},
	{
		"deltaTime": 0,
		"channel": 0,
		"type": "channel",
		"subtype": "controller",
		"controllerType": 64,
		"value": 0,
		"time": 34560,
		"track": 1
	},
	{
		"deltaTime": 0,
		"channel": 0,
		"type": "channel",
		"subtype": "controller",
		"controllerType": 64,
		"value": 127,
		"time": 34560,
		"track": 1
	},
	{
		"deltaTime": 0,
		"channel": 0,
		"type": "channel",
		"noteNumber": 53,
		"velocity": 127,
		"subtype": "noteOn",
		"time": 34560,
		"track": 1
	},
	{
		"deltaTime": 0,
		"channel": 0,
		"type": "channel",
		"noteNumber": 57,
		"velocity": 127,
		"subtype": "noteOn",
		"time": 34560,
		"track": 1
	},
	{
		"deltaTime": 0,
		"channel": 0,
		"type": "channel",
		"noteNumber": 62,
		"velocity": 127,
		"subtype": "noteOn",
		"time": 34560,
		"track": 1
	},
	{
		"deltaTime": 0,
		"channel": 1,
		"type": "channel",
		"subtype": "controller",
		"controllerType": 64,
		"value": 0,
		"time": 34560,
		"track": 2
	},
	{
		"deltaTime": 0,
		"channel": 1,
		"type": "channel",
		"subtype": "controller",
		"controllerType": 64,
		"value": 127,
		"time": 34560,
		"track": 2
	},
	{
		"deltaTime": 0,
		"channel": 1,
		"type": "channel",
		"noteNumber": 38,
		"velocity": 127,
		"subtype": "noteOn",
		"time": 34560,
		"track": 2
	},
	{
		"deltaTime": 94,
		"channel": 1,
		"type": "channel",
		"noteNumber": 50,
		"velocity": 127,
		"subtype": "noteOn",
		"time": 34560,
		"track": 2
	},
	{
		"deltaTime": 0,
		"channel": 0,
		"type": "channel",
		"noteNumber": 53,
		"velocity": 0,
		"subtype": "noteOff",
		"time": 34654,
		"track": 1
	},
	{
		"deltaTime": 0,
		"channel": 0,
		"type": "channel",
		"noteNumber": 57,
		"velocity": 0,
		"subtype": "noteOff",
		"time": 34654,
		"track": 1
	},
	{
		"deltaTime": 66,
		"channel": 0,
		"type": "channel",
		"noteNumber": 62,
		"velocity": 0,
		"subtype": "noteOff",
		"time": 34654,
		"track": 1
	},
	{
		"deltaTime": 0,
		"channel": 1,
		"type": "channel",
		"noteNumber": 38,
		"velocity": 0,
		"subtype": "noteOff",
		"time": 34720,
		"track": 2
	},
	{
		"deltaTime": 32,
		"channel": 1,
		"type": "channel",
		"noteNumber": 50,
		"velocity": 0,
		"subtype": "noteOff",
		"time": 34720,
		"track": 2
	},
	{
		"deltaTime": 0,
		"channel": 1,
		"type": "channel",
		"noteNumber": 38,
		"velocity": 127,
		"subtype": "noteOn",
		"time": 34752,
		"track": 2
	},
	{
		"deltaTime": 94,
		"channel": 1,
		"type": "channel",
		"noteNumber": 50,
		"velocity": 127,
		"subtype": "noteOn",
		"time": 34752,
		"track": 2
	},
	{
		"deltaTime": 0,
		"channel": 1,
		"type": "channel",
		"noteNumber": 38,
		"velocity": 0,
		"subtype": "noteOff",
		"time": 34846,
		"track": 2
	},
	{
		"deltaTime": 2,
		"channel": 1,
		"type": "channel",
		"noteNumber": 50,
		"velocity": 0,
		"subtype": "noteOff",
		"time": 34846,
		"track": 2
	},
	{
		"deltaTime": 0,
		"channel": 1,
		"type": "channel",
		"noteNumber": 38,
		"velocity": 127,
		"subtype": "noteOn",
		"time": 34848,
		"track": 2
	},
	{
		"deltaTime": 94,
		"channel": 1,
		"type": "channel",
		"noteNumber": 50,
		"velocity": 127,
		"subtype": "noteOn",
		"time": 34848,
		"track": 2
	},
	{
		"deltaTime": 0,
		"channel": 1,
		"type": "channel",
		"noteNumber": 38,
		"velocity": 0,
		"subtype": "noteOff",
		"time": 34942,
		"track": 2
	},
	{
		"deltaTime": 2,
		"channel": 1,
		"type": "channel",
		"noteNumber": 50,
		"velocity": 0,
		"subtype": "noteOff",
		"time": 34942,
		"track": 2
	},
	{
		"deltaTime": 0,
		"channel": 0,
		"type": "channel",
		"noteNumber": 74,
		"velocity": 127,
		"subtype": "noteOn",
		"time": 34944,
		"track": 1
	},
	{
		"deltaTime": 0,
		"channel": 1,
		"type": "channel",
		"noteNumber": 38,
		"velocity": 127,
		"subtype": "noteOn",
		"time": 34944,
		"track": 2
	},
	{
		"deltaTime": 94,
		"channel": 1,
		"type": "channel",
		"noteNumber": 50,
		"velocity": 127,
		"subtype": "noteOn",
		"time": 34944,
		"track": 2
	},
	{
		"deltaTime": 0,
		"channel": 0,
		"type": "channel",
		"noteNumber": 74,
		"velocity": 0,
		"subtype": "noteOff",
		"time": 35038,
		"track": 1
	},
	{
		"deltaTime": 0,
		"channel": 1,
		"type": "channel",
		"noteNumber": 38,
		"velocity": 0,
		"subtype": "noteOff",
		"time": 35038,
		"track": 2
	},
	{
		"deltaTime": 2,
		"channel": 1,
		"type": "channel",
		"noteNumber": 50,
		"velocity": 0,
		"subtype": "noteOff",
		"time": 35038,
		"track": 2
	},
	{
		"deltaTime": 0,
		"channel": 0,
		"type": "channel",
		"noteNumber": 76,
		"velocity": 127,
		"subtype": "noteOn",
		"time": 35040,
		"track": 1
	},
	{
		"deltaTime": 0,
		"channel": 1,
		"type": "channel",
		"noteNumber": 38,
		"velocity": 127,
		"subtype": "noteOn",
		"time": 35040,
		"track": 2
	},
	{
		"deltaTime": 94,
		"channel": 1,
		"type": "channel",
		"noteNumber": 50,
		"velocity": 127,
		"subtype": "noteOn",
		"time": 35040,
		"track": 2
	},
	{
		"deltaTime": 0,
		"channel": 0,
		"type": "channel",
		"noteNumber": 76,
		"velocity": 0,
		"subtype": "noteOff",
		"time": 35134,
		"track": 1
	},
	{
		"deltaTime": 0,
		"channel": 1,
		"type": "channel",
		"noteNumber": 38,
		"velocity": 0,
		"subtype": "noteOff",
		"time": 35134,
		"track": 2
	},
	{
		"deltaTime": 2,
		"channel": 1,
		"type": "channel",
		"noteNumber": 50,
		"velocity": 0,
		"subtype": "noteOff",
		"time": 35134,
		"track": 2
	},
	{
		"deltaTime": 0,
		"channel": 0,
		"type": "channel",
		"subtype": "controller",
		"controllerType": 64,
		"value": 0,
		"time": 35136,
		"track": 1
	},
	{
		"deltaTime": 0,
		"channel": 0,
		"type": "channel",
		"subtype": "controller",
		"controllerType": 64,
		"value": 127,
		"time": 35136,
		"track": 1
	},
	{
		"deltaTime": 0,
		"channel": 0,
		"type": "channel",
		"noteNumber": 69,
		"velocity": 127,
		"subtype": "noteOn",
		"time": 35136,
		"track": 1
	},
	{
		"deltaTime": 0,
		"channel": 0,
		"type": "channel",
		"noteNumber": 74,
		"velocity": 127,
		"subtype": "noteOn",
		"time": 35136,
		"track": 1
	},
	{
		"deltaTime": 0,
		"channel": 0,
		"type": "channel",
		"noteNumber": 77,
		"velocity": 127,
		"subtype": "noteOn",
		"time": 35136,
		"track": 1
	},
	{
		"deltaTime": 0,
		"channel": 1,
		"type": "channel",
		"subtype": "controller",
		"controllerType": 64,
		"value": 0,
		"time": 35136,
		"track": 2
	},
	{
		"deltaTime": 0,
		"channel": 1,
		"type": "channel",
		"subtype": "controller",
		"controllerType": 64,
		"value": 127,
		"time": 35136,
		"track": 2
	},
	{
		"deltaTime": 0,
		"channel": 1,
		"type": "channel",
		"noteNumber": 38,
		"velocity": 127,
		"subtype": "noteOn",
		"time": 35136,
		"track": 2
	},
	{
		"deltaTime": 160,
		"channel": 1,
		"type": "channel",
		"noteNumber": 50,
		"velocity": 127,
		"subtype": "noteOn",
		"time": 35136,
		"track": 2
	},
	{
		"deltaTime": 0,
		"channel": 0,
		"type": "channel",
		"noteNumber": 69,
		"velocity": 0,
		"subtype": "noteOff",
		"time": 35296,
		"track": 1
	},
	{
		"deltaTime": 0,
		"channel": 0,
		"type": "channel",
		"noteNumber": 74,
		"velocity": 0,
		"subtype": "noteOff",
		"time": 35296,
		"track": 1
	},
	{
		"deltaTime": 0,
		"channel": 0,
		"type": "channel",
		"noteNumber": 77,
		"velocity": 0,
		"subtype": "noteOff",
		"time": 35296,
		"track": 1
	},
	{
		"deltaTime": 0,
		"channel": 1,
		"type": "channel",
		"noteNumber": 38,
		"velocity": 0,
		"subtype": "noteOff",
		"time": 35296,
		"track": 2
	},
	{
		"deltaTime": 32,
		"channel": 1,
		"type": "channel",
		"noteNumber": 50,
		"velocity": 0,
		"subtype": "noteOff",
		"time": 35296,
		"track": 2
	},
	{
		"deltaTime": 0,
		"channel": 1,
		"type": "channel",
		"noteNumber": 38,
		"velocity": 127,
		"subtype": "noteOn",
		"time": 35328,
		"track": 2
	},
	{
		"deltaTime": 94,
		"channel": 1,
		"type": "channel",
		"noteNumber": 50,
		"velocity": 127,
		"subtype": "noteOn",
		"time": 35328,
		"track": 2
	},
	{
		"deltaTime": 0,
		"channel": 1,
		"type": "channel",
		"noteNumber": 38,
		"velocity": 0,
		"subtype": "noteOff",
		"time": 35422,
		"track": 2
	},
	{
		"deltaTime": 2,
		"channel": 1,
		"type": "channel",
		"noteNumber": 50,
		"velocity": 0,
		"subtype": "noteOff",
		"time": 35422,
		"track": 2
	},
	{
		"deltaTime": 0,
		"channel": 1,
		"type": "channel",
		"noteNumber": 38,
		"velocity": 127,
		"subtype": "noteOn",
		"time": 35424,
		"track": 2
	},
	{
		"deltaTime": 94,
		"channel": 1,
		"type": "channel",
		"noteNumber": 50,
		"velocity": 127,
		"subtype": "noteOn",
		"time": 35424,
		"track": 2
	},
	{
		"deltaTime": 0,
		"channel": 1,
		"type": "channel",
		"noteNumber": 38,
		"velocity": 0,
		"subtype": "noteOff",
		"time": 35518,
		"track": 2
	},
	{
		"deltaTime": 2,
		"channel": 1,
		"type": "channel",
		"noteNumber": 50,
		"velocity": 0,
		"subtype": "noteOff",
		"time": 35518,
		"track": 2
	},
	{
		"deltaTime": 0,
		"channel": 0,
		"type": "channel",
		"noteNumber": 76,
		"velocity": 127,
		"subtype": "noteOn",
		"time": 35520,
		"track": 1
	},
	{
		"deltaTime": 0,
		"channel": 1,
		"type": "channel",
		"noteNumber": 38,
		"velocity": 127,
		"subtype": "noteOn",
		"time": 35520,
		"track": 2
	},
	{
		"deltaTime": 94,
		"channel": 1,
		"type": "channel",
		"noteNumber": 50,
		"velocity": 127,
		"subtype": "noteOn",
		"time": 35520,
		"track": 2
	},
	{
		"deltaTime": 0,
		"channel": 0,
		"type": "channel",
		"noteNumber": 76,
		"velocity": 0,
		"subtype": "noteOff",
		"time": 35614,
		"track": 1
	},
	{
		"deltaTime": 0,
		"channel": 1,
		"type": "channel",
		"noteNumber": 38,
		"velocity": 0,
		"subtype": "noteOff",
		"time": 35614,
		"track": 2
	},
	{
		"deltaTime": 2,
		"channel": 1,
		"type": "channel",
		"noteNumber": 50,
		"velocity": 0,
		"subtype": "noteOff",
		"time": 35614,
		"track": 2
	},
	{
		"deltaTime": 0,
		"channel": 0,
		"type": "channel",
		"noteNumber": 77,
		"velocity": 127,
		"subtype": "noteOn",
		"time": 35616,
		"track": 1
	},
	{
		"deltaTime": 0,
		"channel": 1,
		"type": "channel",
		"noteNumber": 38,
		"velocity": 127,
		"subtype": "noteOn",
		"time": 35616,
		"track": 2
	},
	{
		"deltaTime": 94,
		"channel": 1,
		"type": "channel",
		"noteNumber": 50,
		"velocity": 127,
		"subtype": "noteOn",
		"time": 35616,
		"track": 2
	},
	{
		"deltaTime": 0,
		"channel": 0,
		"type": "channel",
		"noteNumber": 77,
		"velocity": 0,
		"subtype": "noteOff",
		"time": 35710,
		"track": 1
	},
	{
		"deltaTime": 0,
		"channel": 1,
		"type": "channel",
		"noteNumber": 38,
		"velocity": 0,
		"subtype": "noteOff",
		"time": 35710,
		"track": 2
	},
	{
		"deltaTime": 2,
		"channel": 1,
		"type": "channel",
		"noteNumber": 50,
		"velocity": 0,
		"subtype": "noteOff",
		"time": 35710,
		"track": 2
	},
	{
		"deltaTime": 0,
		"channel": 0,
		"type": "channel",
		"subtype": "controller",
		"controllerType": 64,
		"value": 0,
		"time": 35712,
		"track": 1
	},
	{
		"deltaTime": 0,
		"channel": 0,
		"type": "channel",
		"subtype": "controller",
		"controllerType": 64,
		"value": 127,
		"time": 35712,
		"track": 1
	},
	{
		"deltaTime": 0,
		"channel": 0,
		"type": "channel",
		"noteNumber": 72,
		"velocity": 127,
		"subtype": "noteOn",
		"time": 35712,
		"track": 1
	},
	{
		"deltaTime": 0,
		"channel": 0,
		"type": "channel",
		"noteNumber": 79,
		"velocity": 127,
		"subtype": "noteOn",
		"time": 35712,
		"track": 1
	},
	{
		"deltaTime": 0,
		"channel": 1,
		"type": "channel",
		"subtype": "controller",
		"controllerType": 64,
		"value": 0,
		"time": 35712,
		"track": 2
	},
	{
		"deltaTime": 0,
		"channel": 1,
		"type": "channel",
		"subtype": "controller",
		"controllerType": 64,
		"value": 127,
		"time": 35712,
		"track": 2
	},
	{
		"deltaTime": 0,
		"channel": 1,
		"type": "channel",
		"noteNumber": 36,
		"velocity": 127,
		"subtype": "noteOn",
		"time": 35712,
		"track": 2
	},
	{
		"deltaTime": 160,
		"channel": 1,
		"type": "channel",
		"noteNumber": 48,
		"velocity": 127,
		"subtype": "noteOn",
		"time": 35712,
		"track": 2
	},
	{
		"deltaTime": 0,
		"channel": 0,
		"type": "channel",
		"noteNumber": 72,
		"velocity": 0,
		"subtype": "noteOff",
		"time": 35872,
		"track": 1
	},
	{
		"deltaTime": 0,
		"channel": 0,
		"type": "channel",
		"noteNumber": 79,
		"velocity": 0,
		"subtype": "noteOff",
		"time": 35872,
		"track": 1
	},
	{
		"deltaTime": 0,
		"channel": 1,
		"type": "channel",
		"noteNumber": 36,
		"velocity": 0,
		"subtype": "noteOff",
		"time": 35872,
		"track": 2
	},
	{
		"deltaTime": 32,
		"channel": 1,
		"type": "channel",
		"noteNumber": 48,
		"velocity": 0,
		"subtype": "noteOff",
		"time": 35872,
		"track": 2
	},
	{
		"deltaTime": 0,
		"channel": 0,
		"type": "channel",
		"noteNumber": 72,
		"velocity": 127,
		"subtype": "noteOn",
		"time": 35904,
		"track": 1
	},
	{
		"deltaTime": 0,
		"channel": 0,
		"type": "channel",
		"noteNumber": 77,
		"velocity": 127,
		"subtype": "noteOn",
		"time": 35904,
		"track": 1
	},
	{
		"deltaTime": 0,
		"channel": 1,
		"type": "channel",
		"noteNumber": 36,
		"velocity": 127,
		"subtype": "noteOn",
		"time": 35904,
		"track": 2
	},
	{
		"deltaTime": 94,
		"channel": 1,
		"type": "channel",
		"noteNumber": 48,
		"velocity": 127,
		"subtype": "noteOn",
		"time": 35904,
		"track": 2
	},
	{
		"deltaTime": 0,
		"channel": 1,
		"type": "channel",
		"noteNumber": 36,
		"velocity": 0,
		"subtype": "noteOff",
		"time": 35998,
		"track": 2
	},
	{
		"deltaTime": 2,
		"channel": 1,
		"type": "channel",
		"noteNumber": 48,
		"velocity": 0,
		"subtype": "noteOff",
		"time": 35998,
		"track": 2
	},
	{
		"deltaTime": 0,
		"channel": 1,
		"type": "channel",
		"noteNumber": 36,
		"velocity": 127,
		"subtype": "noteOn",
		"time": 36000,
		"track": 2
	},
	{
		"deltaTime": 64,
		"channel": 1,
		"type": "channel",
		"noteNumber": 48,
		"velocity": 127,
		"subtype": "noteOn",
		"time": 36000,
		"track": 2
	},
	{
		"deltaTime": 0,
		"channel": 0,
		"type": "channel",
		"noteNumber": 72,
		"velocity": 0,
		"subtype": "noteOff",
		"time": 36064,
		"track": 1
	},
	{
		"deltaTime": 30,
		"channel": 0,
		"type": "channel",
		"noteNumber": 77,
		"velocity": 0,
		"subtype": "noteOff",
		"time": 36064,
		"track": 1
	},
	{
		"deltaTime": 0,
		"channel": 1,
		"type": "channel",
		"noteNumber": 36,
		"velocity": 0,
		"subtype": "noteOff",
		"time": 36094,
		"track": 2
	},
	{
		"deltaTime": 2,
		"channel": 1,
		"type": "channel",
		"noteNumber": 48,
		"velocity": 0,
		"subtype": "noteOff",
		"time": 36094,
		"track": 2
	},
	{
		"deltaTime": 0,
		"channel": 0,
		"type": "channel",
		"noteNumber": 72,
		"velocity": 127,
		"subtype": "noteOn",
		"time": 36096,
		"track": 1
	},
	{
		"deltaTime": 0,
		"channel": 0,
		"type": "channel",
		"noteNumber": 79,
		"velocity": 127,
		"subtype": "noteOn",
		"time": 36096,
		"track": 1
	},
	{
		"deltaTime": 0,
		"channel": 1,
		"type": "channel",
		"noteNumber": 36,
		"velocity": 127,
		"subtype": "noteOn",
		"time": 36096,
		"track": 2
	},
	{
		"deltaTime": 94,
		"channel": 1,
		"type": "channel",
		"noteNumber": 48,
		"velocity": 127,
		"subtype": "noteOn",
		"time": 36096,
		"track": 2
	},
	{
		"deltaTime": 0,
		"channel": 1,
		"type": "channel",
		"noteNumber": 36,
		"velocity": 0,
		"subtype": "noteOff",
		"time": 36190,
		"track": 2
	},
	{
		"deltaTime": 2,
		"channel": 1,
		"type": "channel",
		"noteNumber": 48,
		"velocity": 0,
		"subtype": "noteOff",
		"time": 36190,
		"track": 2
	},
	{
		"deltaTime": 0,
		"channel": 1,
		"type": "channel",
		"noteNumber": 36,
		"velocity": 127,
		"subtype": "noteOn",
		"time": 36192,
		"track": 2
	},
	{
		"deltaTime": 64,
		"channel": 1,
		"type": "channel",
		"noteNumber": 48,
		"velocity": 127,
		"subtype": "noteOn",
		"time": 36192,
		"track": 2
	},
	{
		"deltaTime": 0,
		"channel": 0,
		"type": "channel",
		"noteNumber": 72,
		"velocity": 0,
		"subtype": "noteOff",
		"time": 36256,
		"track": 1
	},
	{
		"deltaTime": 30,
		"channel": 0,
		"type": "channel",
		"noteNumber": 79,
		"velocity": 0,
		"subtype": "noteOff",
		"time": 36256,
		"track": 1
	},
	{
		"deltaTime": 0,
		"channel": 1,
		"type": "channel",
		"noteNumber": 36,
		"velocity": 0,
		"subtype": "noteOff",
		"time": 36286,
		"track": 2
	},
	{
		"deltaTime": 2,
		"channel": 1,
		"type": "channel",
		"noteNumber": 48,
		"velocity": 0,
		"subtype": "noteOff",
		"time": 36286,
		"track": 2
	},
	{
		"deltaTime": 0,
		"channel": 0,
		"type": "channel",
		"subtype": "controller",
		"controllerType": 64,
		"value": 0,
		"time": 36288,
		"track": 1
	},
	{
		"deltaTime": 0,
		"channel": 0,
		"type": "channel",
		"subtype": "controller",
		"controllerType": 64,
		"value": 127,
		"time": 36288,
		"track": 1
	},
	{
		"deltaTime": 0,
		"channel": 0,
		"type": "channel",
		"noteNumber": 77,
		"velocity": 127,
		"subtype": "noteOn",
		"time": 36288,
		"track": 1
	},
	{
		"deltaTime": 0,
		"channel": 0,
		"type": "channel",
		"noteNumber": 81,
		"velocity": 127,
		"subtype": "noteOn",
		"time": 36288,
		"track": 1
	},
	{
		"deltaTime": 0,
		"channel": 1,
		"type": "channel",
		"subtype": "controller",
		"controllerType": 64,
		"value": 0,
		"time": 36288,
		"track": 2
	},
	{
		"deltaTime": 0,
		"channel": 1,
		"type": "channel",
		"subtype": "controller",
		"controllerType": 64,
		"value": 127,
		"time": 36288,
		"track": 2
	},
	{
		"deltaTime": 0,
		"channel": 1,
		"type": "channel",
		"noteNumber": 41,
		"velocity": 127,
		"subtype": "noteOn",
		"time": 36288,
		"track": 2
	},
	{
		"deltaTime": 160,
		"channel": 1,
		"type": "channel",
		"noteNumber": 53,
		"velocity": 127,
		"subtype": "noteOn",
		"time": 36288,
		"track": 2
	},
	{
		"deltaTime": 0,
		"channel": 0,
		"type": "channel",
		"noteNumber": 77,
		"velocity": 0,
		"subtype": "noteOff",
		"time": 36448,
		"track": 1
	},
	{
		"deltaTime": 0,
		"channel": 0,
		"type": "channel",
		"noteNumber": 81,
		"velocity": 0,
		"subtype": "noteOff",
		"time": 36448,
		"track": 1
	},
	{
		"deltaTime": 0,
		"channel": 1,
		"type": "channel",
		"noteNumber": 41,
		"velocity": 0,
		"subtype": "noteOff",
		"time": 36448,
		"track": 2
	},
	{
		"deltaTime": 32,
		"channel": 1,
		"type": "channel",
		"noteNumber": 53,
		"velocity": 0,
		"subtype": "noteOff",
		"time": 36448,
		"track": 2
	},
	{
		"deltaTime": 0,
		"channel": 0,
		"type": "channel",
		"noteNumber": 72,
		"velocity": 127,
		"subtype": "noteOn",
		"time": 36480,
		"track": 1
	},
	{
		"deltaTime": 0,
		"channel": 0,
		"type": "channel",
		"noteNumber": 79,
		"velocity": 127,
		"subtype": "noteOn",
		"time": 36480,
		"track": 1
	},
	{
		"deltaTime": 0,
		"channel": 1,
		"type": "channel",
		"noteNumber": 41,
		"velocity": 127,
		"subtype": "noteOn",
		"time": 36480,
		"track": 2
	},
	{
		"deltaTime": 94,
		"channel": 1,
		"type": "channel",
		"noteNumber": 53,
		"velocity": 127,
		"subtype": "noteOn",
		"time": 36480,
		"track": 2
	},
	{
		"deltaTime": 0,
		"channel": 1,
		"type": "channel",
		"noteNumber": 41,
		"velocity": 0,
		"subtype": "noteOff",
		"time": 36574,
		"track": 2
	},
	{
		"deltaTime": 2,
		"channel": 1,
		"type": "channel",
		"noteNumber": 53,
		"velocity": 0,
		"subtype": "noteOff",
		"time": 36574,
		"track": 2
	},
	{
		"deltaTime": 0,
		"channel": 1,
		"type": "channel",
		"noteNumber": 41,
		"velocity": 127,
		"subtype": "noteOn",
		"time": 36576,
		"track": 2
	},
	{
		"deltaTime": 64,
		"channel": 1,
		"type": "channel",
		"noteNumber": 53,
		"velocity": 127,
		"subtype": "noteOn",
		"time": 36576,
		"track": 2
	},
	{
		"deltaTime": 0,
		"channel": 0,
		"type": "channel",
		"noteNumber": 72,
		"velocity": 0,
		"subtype": "noteOff",
		"time": 36640,
		"track": 1
	},
	{
		"deltaTime": 30,
		"channel": 0,
		"type": "channel",
		"noteNumber": 79,
		"velocity": 0,
		"subtype": "noteOff",
		"time": 36640,
		"track": 1
	},
	{
		"deltaTime": 0,
		"channel": 1,
		"type": "channel",
		"noteNumber": 41,
		"velocity": 0,
		"subtype": "noteOff",
		"time": 36670,
		"track": 2
	},
	{
		"deltaTime": 2,
		"channel": 1,
		"type": "channel",
		"noteNumber": 53,
		"velocity": 0,
		"subtype": "noteOff",
		"time": 36670,
		"track": 2
	},
	{
		"deltaTime": 0,
		"channel": 0,
		"type": "channel",
		"noteNumber": 72,
		"velocity": 127,
		"subtype": "noteOn",
		"time": 36672,
		"track": 1
	},
	{
		"deltaTime": 0,
		"channel": 0,
		"type": "channel",
		"noteNumber": 77,
		"velocity": 127,
		"subtype": "noteOn",
		"time": 36672,
		"track": 1
	},
	{
		"deltaTime": 0,
		"channel": 1,
		"type": "channel",
		"noteNumber": 41,
		"velocity": 127,
		"subtype": "noteOn",
		"time": 36672,
		"track": 2
	},
	{
		"deltaTime": 94,
		"channel": 1,
		"type": "channel",
		"noteNumber": 53,
		"velocity": 127,
		"subtype": "noteOn",
		"time": 36672,
		"track": 2
	},
	{
		"deltaTime": 0,
		"channel": 1,
		"type": "channel",
		"noteNumber": 41,
		"velocity": 0,
		"subtype": "noteOff",
		"time": 36766,
		"track": 2
	},
	{
		"deltaTime": 2,
		"channel": 1,
		"type": "channel",
		"noteNumber": 53,
		"velocity": 0,
		"subtype": "noteOff",
		"time": 36766,
		"track": 2
	},
	{
		"deltaTime": 0,
		"channel": 1,
		"type": "channel",
		"noteNumber": 41,
		"velocity": 127,
		"subtype": "noteOn",
		"time": 36768,
		"track": 2
	},
	{
		"deltaTime": 64,
		"channel": 1,
		"type": "channel",
		"noteNumber": 53,
		"velocity": 127,
		"subtype": "noteOn",
		"time": 36768,
		"track": 2
	},
	{
		"deltaTime": 0,
		"channel": 0,
		"type": "channel",
		"noteNumber": 72,
		"velocity": 0,
		"subtype": "noteOff",
		"time": 36832,
		"track": 1
	},
	{
		"deltaTime": 30,
		"channel": 0,
		"type": "channel",
		"noteNumber": 77,
		"velocity": 0,
		"subtype": "noteOff",
		"time": 36832,
		"track": 1
	},
	{
		"deltaTime": 0,
		"channel": 1,
		"type": "channel",
		"noteNumber": 41,
		"velocity": 0,
		"subtype": "noteOff",
		"time": 36862,
		"track": 2
	},
	{
		"deltaTime": 2,
		"channel": 1,
		"type": "channel",
		"noteNumber": 53,
		"velocity": 0,
		"subtype": "noteOff",
		"time": 36862,
		"track": 2
	},
	{
		"deltaTime": 0,
		"channel": 0,
		"type": "channel",
		"subtype": "controller",
		"controllerType": 64,
		"value": 0,
		"time": 36864,
		"track": 1
	},
	{
		"deltaTime": 0,
		"channel": 0,
		"type": "channel",
		"subtype": "controller",
		"controllerType": 64,
		"value": 127,
		"time": 36864,
		"track": 1
	},
	{
		"deltaTime": 0,
		"channel": 0,
		"type": "channel",
		"noteNumber": 65,
		"velocity": 127,
		"subtype": "noteOn",
		"time": 36864,
		"track": 1
	},
	{
		"deltaTime": 0,
		"channel": 0,
		"type": "channel",
		"noteNumber": 70,
		"velocity": 127,
		"subtype": "noteOn",
		"time": 36864,
		"track": 1
	},
	{
		"deltaTime": 0,
		"channel": 0,
		"type": "channel",
		"noteNumber": 74,
		"velocity": 127,
		"subtype": "noteOn",
		"time": 36864,
		"track": 1
	},
	{
		"deltaTime": 0,
		"channel": 1,
		"type": "channel",
		"subtype": "controller",
		"controllerType": 64,
		"value": 0,
		"time": 36864,
		"track": 2
	},
	{
		"deltaTime": 0,
		"channel": 1,
		"type": "channel",
		"subtype": "controller",
		"controllerType": 64,
		"value": 127,
		"time": 36864,
		"track": 2
	},
	{
		"deltaTime": 0,
		"channel": 1,
		"type": "channel",
		"noteNumber": 34,
		"velocity": 127,
		"subtype": "noteOn",
		"time": 36864,
		"track": 2
	},
	{
		"deltaTime": 160,
		"channel": 1,
		"type": "channel",
		"noteNumber": 46,
		"velocity": 127,
		"subtype": "noteOn",
		"time": 36864,
		"track": 2
	},
	{
		"deltaTime": 0,
		"channel": 0,
		"type": "channel",
		"noteNumber": 65,
		"velocity": 0,
		"subtype": "noteOff",
		"time": 37024,
		"track": 1
	},
	{
		"deltaTime": 0,
		"channel": 0,
		"type": "channel",
		"noteNumber": 70,
		"velocity": 0,
		"subtype": "noteOff",
		"time": 37024,
		"track": 1
	},
	{
		"deltaTime": 0,
		"channel": 0,
		"type": "channel",
		"noteNumber": 74,
		"velocity": 0,
		"subtype": "noteOff",
		"time": 37024,
		"track": 1
	},
	{
		"deltaTime": 0,
		"channel": 1,
		"type": "channel",
		"noteNumber": 34,
		"velocity": 0,
		"subtype": "noteOff",
		"time": 37024,
		"track": 2
	},
	{
		"deltaTime": 32,
		"channel": 1,
		"type": "channel",
		"noteNumber": 46,
		"velocity": 0,
		"subtype": "noteOff",
		"time": 37024,
		"track": 2
	},
	{
		"deltaTime": 0,
		"channel": 1,
		"type": "channel",
		"noteNumber": 34,
		"velocity": 127,
		"subtype": "noteOn",
		"time": 37056,
		"track": 2
	},
	{
		"deltaTime": 94,
		"channel": 1,
		"type": "channel",
		"noteNumber": 46,
		"velocity": 127,
		"subtype": "noteOn",
		"time": 37056,
		"track": 2
	},
	{
		"deltaTime": 0,
		"channel": 1,
		"type": "channel",
		"noteNumber": 34,
		"velocity": 0,
		"subtype": "noteOff",
		"time": 37150,
		"track": 2
	},
	{
		"deltaTime": 2,
		"channel": 1,
		"type": "channel",
		"noteNumber": 46,
		"velocity": 0,
		"subtype": "noteOff",
		"time": 37150,
		"track": 2
	},
	{
		"deltaTime": 0,
		"channel": 1,
		"type": "channel",
		"noteNumber": 34,
		"velocity": 127,
		"subtype": "noteOn",
		"time": 37152,
		"track": 2
	},
	{
		"deltaTime": 94,
		"channel": 1,
		"type": "channel",
		"noteNumber": 46,
		"velocity": 127,
		"subtype": "noteOn",
		"time": 37152,
		"track": 2
	},
	{
		"deltaTime": 0,
		"channel": 1,
		"type": "channel",
		"noteNumber": 34,
		"velocity": 0,
		"subtype": "noteOff",
		"time": 37246,
		"track": 2
	},
	{
		"deltaTime": 2,
		"channel": 1,
		"type": "channel",
		"noteNumber": 46,
		"velocity": 0,
		"subtype": "noteOff",
		"time": 37246,
		"track": 2
	},
	{
		"deltaTime": 0,
		"channel": 0,
		"type": "channel",
		"noteNumber": 74,
		"velocity": 127,
		"subtype": "noteOn",
		"time": 37248,
		"track": 1
	},
	{
		"deltaTime": 0,
		"channel": 1,
		"type": "channel",
		"noteNumber": 34,
		"velocity": 127,
		"subtype": "noteOn",
		"time": 37248,
		"track": 2
	},
	{
		"deltaTime": 94,
		"channel": 1,
		"type": "channel",
		"noteNumber": 46,
		"velocity": 127,
		"subtype": "noteOn",
		"time": 37248,
		"track": 2
	},
	{
		"deltaTime": 0,
		"channel": 0,
		"type": "channel",
		"noteNumber": 74,
		"velocity": 0,
		"subtype": "noteOff",
		"time": 37342,
		"track": 1
	},
	{
		"deltaTime": 0,
		"channel": 1,
		"type": "channel",
		"noteNumber": 34,
		"velocity": 0,
		"subtype": "noteOff",
		"time": 37342,
		"track": 2
	},
	{
		"deltaTime": 2,
		"channel": 1,
		"type": "channel",
		"noteNumber": 46,
		"velocity": 0,
		"subtype": "noteOff",
		"time": 37342,
		"track": 2
	},
	{
		"deltaTime": 0,
		"channel": 0,
		"type": "channel",
		"noteNumber": 76,
		"velocity": 127,
		"subtype": "noteOn",
		"time": 37344,
		"track": 1
	},
	{
		"deltaTime": 0,
		"channel": 1,
		"type": "channel",
		"noteNumber": 34,
		"velocity": 127,
		"subtype": "noteOn",
		"time": 37344,
		"track": 2
	},
	{
		"deltaTime": 94,
		"channel": 1,
		"type": "channel",
		"noteNumber": 46,
		"velocity": 127,
		"subtype": "noteOn",
		"time": 37344,
		"track": 2
	},
	{
		"deltaTime": 0,
		"channel": 0,
		"type": "channel",
		"noteNumber": 76,
		"velocity": 0,
		"subtype": "noteOff",
		"time": 37438,
		"track": 1
	},
	{
		"deltaTime": 0,
		"channel": 1,
		"type": "channel",
		"noteNumber": 34,
		"velocity": 0,
		"subtype": "noteOff",
		"time": 37438,
		"track": 2
	},
	{
		"deltaTime": 2,
		"channel": 1,
		"type": "channel",
		"noteNumber": 46,
		"velocity": 0,
		"subtype": "noteOff",
		"time": 37438,
		"track": 2
	},
	{
		"deltaTime": 0,
		"channel": 0,
		"type": "channel",
		"subtype": "controller",
		"controllerType": 64,
		"value": 0,
		"time": 37440,
		"track": 1
	},
	{
		"deltaTime": 0,
		"channel": 0,
		"type": "channel",
		"subtype": "controller",
		"controllerType": 64,
		"value": 127,
		"time": 37440,
		"track": 1
	},
	{
		"deltaTime": 0,
		"channel": 0,
		"type": "channel",
		"noteNumber": 69,
		"velocity": 127,
		"subtype": "noteOn",
		"time": 37440,
		"track": 1
	},
	{
		"deltaTime": 0,
		"channel": 0,
		"type": "channel",
		"noteNumber": 74,
		"velocity": 127,
		"subtype": "noteOn",
		"time": 37440,
		"track": 1
	},
	{
		"deltaTime": 0,
		"channel": 0,
		"type": "channel",
		"noteNumber": 77,
		"velocity": 127,
		"subtype": "noteOn",
		"time": 37440,
		"track": 1
	},
	{
		"deltaTime": 0,
		"channel": 1,
		"type": "channel",
		"subtype": "controller",
		"controllerType": 64,
		"value": 0,
		"time": 37440,
		"track": 2
	},
	{
		"deltaTime": 0,
		"channel": 1,
		"type": "channel",
		"subtype": "controller",
		"controllerType": 64,
		"value": 127,
		"time": 37440,
		"track": 2
	},
	{
		"deltaTime": 0,
		"channel": 1,
		"type": "channel",
		"noteNumber": 38,
		"velocity": 127,
		"subtype": "noteOn",
		"time": 37440,
		"track": 2
	},
	{
		"deltaTime": 160,
		"channel": 1,
		"type": "channel",
		"noteNumber": 50,
		"velocity": 127,
		"subtype": "noteOn",
		"time": 37440,
		"track": 2
	},
	{
		"deltaTime": 0,
		"channel": 0,
		"type": "channel",
		"noteNumber": 69,
		"velocity": 0,
		"subtype": "noteOff",
		"time": 37600,
		"track": 1
	},
	{
		"deltaTime": 0,
		"channel": 0,
		"type": "channel",
		"noteNumber": 74,
		"velocity": 0,
		"subtype": "noteOff",
		"time": 37600,
		"track": 1
	},
	{
		"deltaTime": 0,
		"channel": 0,
		"type": "channel",
		"noteNumber": 77,
		"velocity": 0,
		"subtype": "noteOff",
		"time": 37600,
		"track": 1
	},
	{
		"deltaTime": 0,
		"channel": 1,
		"type": "channel",
		"noteNumber": 38,
		"velocity": 0,
		"subtype": "noteOff",
		"time": 37600,
		"track": 2
	},
	{
		"deltaTime": 32,
		"channel": 1,
		"type": "channel",
		"noteNumber": 50,
		"velocity": 0,
		"subtype": "noteOff",
		"time": 37600,
		"track": 2
	},
	{
		"deltaTime": 0,
		"channel": 0,
		"type": "channel",
		"noteNumber": 69,
		"velocity": 127,
		"subtype": "noteOn",
		"time": 37632,
		"track": 1
	},
	{
		"deltaTime": 0,
		"channel": 0,
		"type": "channel",
		"noteNumber": 74,
		"velocity": 127,
		"subtype": "noteOn",
		"time": 37632,
		"track": 1
	},
	{
		"deltaTime": 0,
		"channel": 0,
		"type": "channel",
		"noteNumber": 79,
		"velocity": 127,
		"subtype": "noteOn",
		"time": 37632,
		"track": 1
	},
	{
		"deltaTime": 0,
		"channel": 1,
		"type": "channel",
		"noteNumber": 38,
		"velocity": 127,
		"subtype": "noteOn",
		"time": 37632,
		"track": 2
	},
	{
		"deltaTime": 94,
		"channel": 1,
		"type": "channel",
		"noteNumber": 50,
		"velocity": 127,
		"subtype": "noteOn",
		"time": 37632,
		"track": 2
	},
	{
		"deltaTime": 0,
		"channel": 1,
		"type": "channel",
		"noteNumber": 38,
		"velocity": 0,
		"subtype": "noteOff",
		"time": 37726,
		"track": 2
	},
	{
		"deltaTime": 2,
		"channel": 1,
		"type": "channel",
		"noteNumber": 50,
		"velocity": 0,
		"subtype": "noteOff",
		"time": 37726,
		"track": 2
	},
	{
		"deltaTime": 0,
		"channel": 1,
		"type": "channel",
		"noteNumber": 38,
		"velocity": 127,
		"subtype": "noteOn",
		"time": 37728,
		"track": 2
	},
	{
		"deltaTime": 64,
		"channel": 1,
		"type": "channel",
		"noteNumber": 50,
		"velocity": 127,
		"subtype": "noteOn",
		"time": 37728,
		"track": 2
	},
	{
		"deltaTime": 0,
		"channel": 0,
		"type": "channel",
		"noteNumber": 69,
		"velocity": 0,
		"subtype": "noteOff",
		"time": 37792,
		"track": 1
	},
	{
		"deltaTime": 0,
		"channel": 0,
		"type": "channel",
		"noteNumber": 74,
		"velocity": 0,
		"subtype": "noteOff",
		"time": 37792,
		"track": 1
	},
	{
		"deltaTime": 30,
		"channel": 0,
		"type": "channel",
		"noteNumber": 79,
		"velocity": 0,
		"subtype": "noteOff",
		"time": 37792,
		"track": 1
	},
	{
		"deltaTime": 0,
		"channel": 1,
		"type": "channel",
		"noteNumber": 38,
		"velocity": 0,
		"subtype": "noteOff",
		"time": 37822,
		"track": 2
	},
	{
		"deltaTime": 2,
		"channel": 1,
		"type": "channel",
		"noteNumber": 50,
		"velocity": 0,
		"subtype": "noteOff",
		"time": 37822,
		"track": 2
	},
	{
		"deltaTime": 0,
		"channel": 0,
		"type": "channel",
		"noteNumber": 74,
		"velocity": 127,
		"subtype": "noteOn",
		"time": 37824,
		"track": 1
	},
	{
		"deltaTime": 0,
		"channel": 0,
		"type": "channel",
		"noteNumber": 81,
		"velocity": 127,
		"subtype": "noteOn",
		"time": 37824,
		"track": 1
	},
	{
		"deltaTime": 0,
		"channel": 1,
		"type": "channel",
		"noteNumber": 38,
		"velocity": 127,
		"subtype": "noteOn",
		"time": 37824,
		"track": 2
	},
	{
		"deltaTime": 94,
		"channel": 1,
		"type": "channel",
		"noteNumber": 50,
		"velocity": 127,
		"subtype": "noteOn",
		"time": 37824,
		"track": 2
	},
	{
		"deltaTime": 0,
		"channel": 1,
		"type": "channel",
		"noteNumber": 38,
		"velocity": 0,
		"subtype": "noteOff",
		"time": 37918,
		"track": 2
	},
	{
		"deltaTime": 2,
		"channel": 1,
		"type": "channel",
		"noteNumber": 50,
		"velocity": 0,
		"subtype": "noteOff",
		"time": 37918,
		"track": 2
	},
	{
		"deltaTime": 0,
		"channel": 1,
		"type": "channel",
		"noteNumber": 38,
		"velocity": 127,
		"subtype": "noteOn",
		"time": 37920,
		"track": 2
	},
	{
		"deltaTime": 64,
		"channel": 1,
		"type": "channel",
		"noteNumber": 50,
		"velocity": 127,
		"subtype": "noteOn",
		"time": 37920,
		"track": 2
	},
	{
		"deltaTime": 0,
		"channel": 0,
		"type": "channel",
		"noteNumber": 74,
		"velocity": 0,
		"subtype": "noteOff",
		"time": 37984,
		"track": 1
	},
	{
		"deltaTime": 30,
		"channel": 0,
		"type": "channel",
		"noteNumber": 81,
		"velocity": 0,
		"subtype": "noteOff",
		"time": 37984,
		"track": 1
	},
	{
		"deltaTime": 0,
		"channel": 1,
		"type": "channel",
		"noteNumber": 38,
		"velocity": 0,
		"subtype": "noteOff",
		"time": 38014,
		"track": 2
	},
	{
		"deltaTime": 2,
		"channel": 1,
		"type": "channel",
		"noteNumber": 50,
		"velocity": 0,
		"subtype": "noteOff",
		"time": 38014,
		"track": 2
	},
	{
		"deltaTime": 0,
		"channel": 0,
		"type": "channel",
		"subtype": "controller",
		"controllerType": 64,
		"value": 0,
		"time": 38016,
		"track": 1
	},
	{
		"deltaTime": 0,
		"channel": 0,
		"type": "channel",
		"subtype": "controller",
		"controllerType": 64,
		"value": 127,
		"time": 38016,
		"track": 1
	},
	{
		"deltaTime": 0,
		"channel": 0,
		"type": "channel",
		"noteNumber": 70,
		"velocity": 127,
		"subtype": "noteOn",
		"time": 38016,
		"track": 1
	},
	{
		"deltaTime": 0,
		"channel": 0,
		"type": "channel",
		"noteNumber": 74,
		"velocity": 127,
		"subtype": "noteOn",
		"time": 38016,
		"track": 1
	},
	{
		"deltaTime": 0,
		"channel": 0,
		"type": "channel",
		"noteNumber": 82,
		"velocity": 127,
		"subtype": "noteOn",
		"time": 38016,
		"track": 1
	},
	{
		"deltaTime": 0,
		"channel": 1,
		"type": "channel",
		"subtype": "controller",
		"controllerType": 64,
		"value": 0,
		"time": 38016,
		"track": 2
	},
	{
		"deltaTime": 0,
		"channel": 1,
		"type": "channel",
		"subtype": "controller",
		"controllerType": 64,
		"value": 127,
		"time": 38016,
		"track": 2
	},
	{
		"deltaTime": 0,
		"channel": 1,
		"type": "channel",
		"noteNumber": 31,
		"velocity": 127,
		"subtype": "noteOn",
		"time": 38016,
		"track": 2
	},
	{
		"deltaTime": 160,
		"channel": 1,
		"type": "channel",
		"noteNumber": 43,
		"velocity": 127,
		"subtype": "noteOn",
		"time": 38016,
		"track": 2
	},
	{
		"deltaTime": 0,
		"channel": 0,
		"type": "channel",
		"noteNumber": 70,
		"velocity": 0,
		"subtype": "noteOff",
		"time": 38176,
		"track": 1
	},
	{
		"deltaTime": 0,
		"channel": 0,
		"type": "channel",
		"noteNumber": 74,
		"velocity": 0,
		"subtype": "noteOff",
		"time": 38176,
		"track": 1
	},
	{
		"deltaTime": 0,
		"channel": 0,
		"type": "channel",
		"noteNumber": 82,
		"velocity": 0,
		"subtype": "noteOff",
		"time": 38176,
		"track": 1
	},
	{
		"deltaTime": 0,
		"channel": 1,
		"type": "channel",
		"noteNumber": 31,
		"velocity": 0,
		"subtype": "noteOff",
		"time": 38176,
		"track": 2
	},
	{
		"deltaTime": 32,
		"channel": 1,
		"type": "channel",
		"noteNumber": 43,
		"velocity": 0,
		"subtype": "noteOff",
		"time": 38176,
		"track": 2
	},
	{
		"deltaTime": 0,
		"channel": 0,
		"type": "channel",
		"noteNumber": 70,
		"velocity": 127,
		"subtype": "noteOn",
		"time": 38208,
		"track": 1
	},
	{
		"deltaTime": 0,
		"channel": 0,
		"type": "channel",
		"noteNumber": 74,
		"velocity": 127,
		"subtype": "noteOn",
		"time": 38208,
		"track": 1
	},
	{
		"deltaTime": 0,
		"channel": 1,
		"type": "channel",
		"noteNumber": 31,
		"velocity": 127,
		"subtype": "noteOn",
		"time": 38208,
		"track": 2
	},
	{
		"deltaTime": 94,
		"channel": 1,
		"type": "channel",
		"noteNumber": 43,
		"velocity": 127,
		"subtype": "noteOn",
		"time": 38208,
		"track": 2
	},
	{
		"deltaTime": 0,
		"channel": 1,
		"type": "channel",
		"noteNumber": 31,
		"velocity": 0,
		"subtype": "noteOff",
		"time": 38302,
		"track": 2
	},
	{
		"deltaTime": 2,
		"channel": 1,
		"type": "channel",
		"noteNumber": 43,
		"velocity": 0,
		"subtype": "noteOff",
		"time": 38302,
		"track": 2
	},
	{
		"deltaTime": 0,
		"channel": 1,
		"type": "channel",
		"noteNumber": 31,
		"velocity": 127,
		"subtype": "noteOn",
		"time": 38304,
		"track": 2
	},
	{
		"deltaTime": 64,
		"channel": 1,
		"type": "channel",
		"noteNumber": 43,
		"velocity": 127,
		"subtype": "noteOn",
		"time": 38304,
		"track": 2
	},
	{
		"deltaTime": 0,
		"channel": 0,
		"type": "channel",
		"noteNumber": 70,
		"velocity": 0,
		"subtype": "noteOff",
		"time": 38368,
		"track": 1
	},
	{
		"deltaTime": 30,
		"channel": 0,
		"type": "channel",
		"noteNumber": 74,
		"velocity": 0,
		"subtype": "noteOff",
		"time": 38368,
		"track": 1
	},
	{
		"deltaTime": 0,
		"channel": 1,
		"type": "channel",
		"noteNumber": 31,
		"velocity": 0,
		"subtype": "noteOff",
		"time": 38398,
		"track": 2
	},
	{
		"deltaTime": 2,
		"channel": 1,
		"type": "channel",
		"noteNumber": 43,
		"velocity": 0,
		"subtype": "noteOff",
		"time": 38398,
		"track": 2
	},
	{
		"deltaTime": 0,
		"channel": 0,
		"type": "channel",
		"noteNumber": 70,
		"velocity": 127,
		"subtype": "noteOn",
		"time": 38400,
		"track": 1
	},
	{
		"deltaTime": 0,
		"channel": 0,
		"type": "channel",
		"noteNumber": 79,
		"velocity": 127,
		"subtype": "noteOn",
		"time": 38400,
		"track": 1
	},
	{
		"deltaTime": 0,
		"channel": 1,
		"type": "channel",
		"noteNumber": 31,
		"velocity": 127,
		"subtype": "noteOn",
		"time": 38400,
		"track": 2
	},
	{
		"deltaTime": 94,
		"channel": 1,
		"type": "channel",
		"noteNumber": 43,
		"velocity": 127,
		"subtype": "noteOn",
		"time": 38400,
		"track": 2
	},
	{
		"deltaTime": 0,
		"channel": 1,
		"type": "channel",
		"noteNumber": 31,
		"velocity": 0,
		"subtype": "noteOff",
		"time": 38494,
		"track": 2
	},
	{
		"deltaTime": 2,
		"channel": 1,
		"type": "channel",
		"noteNumber": 43,
		"velocity": 0,
		"subtype": "noteOff",
		"time": 38494,
		"track": 2
	},
	{
		"deltaTime": 0,
		"channel": 1,
		"type": "channel",
		"noteNumber": 31,
		"velocity": 127,
		"subtype": "noteOn",
		"time": 38496,
		"track": 2
	},
	{
		"deltaTime": 64,
		"channel": 1,
		"type": "channel",
		"noteNumber": 43,
		"velocity": 127,
		"subtype": "noteOn",
		"time": 38496,
		"track": 2
	},
	{
		"deltaTime": 0,
		"channel": 0,
		"type": "channel",
		"noteNumber": 70,
		"velocity": 0,
		"subtype": "noteOff",
		"time": 38560,
		"track": 1
	},
	{
		"deltaTime": 30,
		"channel": 0,
		"type": "channel",
		"noteNumber": 79,
		"velocity": 0,
		"subtype": "noteOff",
		"time": 38560,
		"track": 1
	},
	{
		"deltaTime": 0,
		"channel": 1,
		"type": "channel",
		"noteNumber": 31,
		"velocity": 0,
		"subtype": "noteOff",
		"time": 38590,
		"track": 2
	},
	{
		"deltaTime": 2,
		"channel": 1,
		"type": "channel",
		"noteNumber": 43,
		"velocity": 0,
		"subtype": "noteOff",
		"time": 38590,
		"track": 2
	},
	{
		"deltaTime": 0,
		"channel": 0,
		"type": "channel",
		"subtype": "controller",
		"controllerType": 64,
		"value": 0,
		"time": 38592,
		"track": 1
	},
	{
		"deltaTime": 0,
		"channel": 0,
		"type": "channel",
		"subtype": "controller",
		"controllerType": 64,
		"value": 127,
		"time": 38592,
		"track": 1
	},
	{
		"deltaTime": 0,
		"channel": 0,
		"type": "channel",
		"noteNumber": 69,
		"velocity": 127,
		"subtype": "noteOn",
		"time": 38592,
		"track": 1
	},
	{
		"deltaTime": 0,
		"channel": 0,
		"type": "channel",
		"noteNumber": 77,
		"velocity": 127,
		"subtype": "noteOn",
		"time": 38592,
		"track": 1
	},
	{
		"deltaTime": 0,
		"channel": 1,
		"type": "channel",
		"subtype": "controller",
		"controllerType": 64,
		"value": 0,
		"time": 38592,
		"track": 2
	},
	{
		"deltaTime": 0,
		"channel": 1,
		"type": "channel",
		"subtype": "controller",
		"controllerType": 64,
		"value": 127,
		"time": 38592,
		"track": 2
	},
	{
		"deltaTime": 0,
		"channel": 1,
		"type": "channel",
		"noteNumber": 33,
		"velocity": 127,
		"subtype": "noteOn",
		"time": 38592,
		"track": 2
	},
	{
		"deltaTime": 160,
		"channel": 1,
		"type": "channel",
		"noteNumber": 45,
		"velocity": 127,
		"subtype": "noteOn",
		"time": 38592,
		"track": 2
	},
	{
		"deltaTime": 0,
		"channel": 0,
		"type": "channel",
		"noteNumber": 69,
		"velocity": 0,
		"subtype": "noteOff",
		"time": 38752,
		"track": 1
	},
	{
		"deltaTime": 0,
		"channel": 0,
		"type": "channel",
		"noteNumber": 77,
		"velocity": 0,
		"subtype": "noteOff",
		"time": 38752,
		"track": 1
	},
	{
		"deltaTime": 0,
		"channel": 1,
		"type": "channel",
		"noteNumber": 33,
		"velocity": 0,
		"subtype": "noteOff",
		"time": 38752,
		"track": 2
	},
	{
		"deltaTime": 32,
		"channel": 1,
		"type": "channel",
		"noteNumber": 45,
		"velocity": 0,
		"subtype": "noteOff",
		"time": 38752,
		"track": 2
	},
	{
		"deltaTime": 0,
		"channel": 1,
		"type": "channel",
		"noteNumber": 33,
		"velocity": 127,
		"subtype": "noteOn",
		"time": 38784,
		"track": 2
	},
	{
		"deltaTime": 94,
		"channel": 1,
		"type": "channel",
		"noteNumber": 45,
		"velocity": 127,
		"subtype": "noteOn",
		"time": 38784,
		"track": 2
	},
	{
		"deltaTime": 0,
		"channel": 1,
		"type": "channel",
		"noteNumber": 33,
		"velocity": 0,
		"subtype": "noteOff",
		"time": 38878,
		"track": 2
	},
	{
		"deltaTime": 2,
		"channel": 1,
		"type": "channel",
		"noteNumber": 45,
		"velocity": 0,
		"subtype": "noteOff",
		"time": 38878,
		"track": 2
	},
	{
		"deltaTime": 0,
		"channel": 1,
		"type": "channel",
		"noteNumber": 33,
		"velocity": 127,
		"subtype": "noteOn",
		"time": 38880,
		"track": 2
	},
	{
		"deltaTime": 94,
		"channel": 1,
		"type": "channel",
		"noteNumber": 45,
		"velocity": 127,
		"subtype": "noteOn",
		"time": 38880,
		"track": 2
	},
	{
		"deltaTime": 0,
		"channel": 1,
		"type": "channel",
		"noteNumber": 33,
		"velocity": 0,
		"subtype": "noteOff",
		"time": 38974,
		"track": 2
	},
	{
		"deltaTime": 2,
		"channel": 1,
		"type": "channel",
		"noteNumber": 45,
		"velocity": 0,
		"subtype": "noteOff",
		"time": 38974,
		"track": 2
	},
	{
		"deltaTime": 0,
		"channel": 0,
		"type": "channel",
		"noteNumber": 79,
		"velocity": 127,
		"subtype": "noteOn",
		"time": 38976,
		"track": 1
	},
	{
		"deltaTime": 0,
		"channel": 1,
		"type": "channel",
		"noteNumber": 33,
		"velocity": 127,
		"subtype": "noteOn",
		"time": 38976,
		"track": 2
	},
	{
		"deltaTime": 94,
		"channel": 1,
		"type": "channel",
		"noteNumber": 45,
		"velocity": 127,
		"subtype": "noteOn",
		"time": 38976,
		"track": 2
	},
	{
		"deltaTime": 0,
		"channel": 0,
		"type": "channel",
		"noteNumber": 79,
		"velocity": 0,
		"subtype": "noteOff",
		"time": 39070,
		"track": 1
	},
	{
		"deltaTime": 0,
		"channel": 1,
		"type": "channel",
		"noteNumber": 33,
		"velocity": 0,
		"subtype": "noteOff",
		"time": 39070,
		"track": 2
	},
	{
		"deltaTime": 2,
		"channel": 1,
		"type": "channel",
		"noteNumber": 45,
		"velocity": 0,
		"subtype": "noteOff",
		"time": 39070,
		"track": 2
	},
	{
		"deltaTime": 0,
		"channel": 0,
		"type": "channel",
		"noteNumber": 76,
		"velocity": 127,
		"subtype": "noteOn",
		"time": 39072,
		"track": 1
	},
	{
		"deltaTime": 0,
		"channel": 1,
		"type": "channel",
		"noteNumber": 33,
		"velocity": 127,
		"subtype": "noteOn",
		"time": 39072,
		"track": 2
	},
	{
		"deltaTime": 94,
		"channel": 1,
		"type": "channel",
		"noteNumber": 45,
		"velocity": 127,
		"subtype": "noteOn",
		"time": 39072,
		"track": 2
	},
	{
		"deltaTime": 0,
		"channel": 0,
		"type": "channel",
		"noteNumber": 76,
		"velocity": 0,
		"subtype": "noteOff",
		"time": 39166,
		"track": 1
	},
	{
		"deltaTime": 0,
		"channel": 1,
		"type": "channel",
		"noteNumber": 33,
		"velocity": 0,
		"subtype": "noteOff",
		"time": 39166,
		"track": 2
	},
	{
		"deltaTime": 2,
		"channel": 1,
		"type": "channel",
		"noteNumber": 45,
		"velocity": 0,
		"subtype": "noteOff",
		"time": 39166,
		"track": 2
	},
	{
		"deltaTime": 0,
		"channel": 0,
		"type": "channel",
		"subtype": "controller",
		"controllerType": 64,
		"value": 0,
		"time": 39168,
		"track": 1
	},
	{
		"deltaTime": 0,
		"channel": 0,
		"type": "channel",
		"subtype": "controller",
		"controllerType": 64,
		"value": 127,
		"time": 39168,
		"track": 1
	},
	{
		"deltaTime": 0,
		"channel": 0,
		"type": "channel",
		"noteNumber": 69,
		"velocity": 127,
		"subtype": "noteOn",
		"time": 39168,
		"track": 1
	},
	{
		"deltaTime": 0,
		"channel": 0,
		"type": "channel",
		"noteNumber": 74,
		"velocity": 127,
		"subtype": "noteOn",
		"time": 39168,
		"track": 1
	},
	{
		"deltaTime": 0,
		"channel": 1,
		"type": "channel",
		"subtype": "controller",
		"controllerType": 64,
		"value": 0,
		"time": 39168,
		"track": 2
	},
	{
		"deltaTime": 0,
		"channel": 1,
		"type": "channel",
		"subtype": "controller",
		"controllerType": 64,
		"value": 127,
		"time": 39168,
		"track": 2
	},
	{
		"deltaTime": 0,
		"channel": 1,
		"type": "channel",
		"noteNumber": 33,
		"velocity": 127,
		"subtype": "noteOn",
		"time": 39168,
		"track": 2
	},
	{
		"deltaTime": 160,
		"channel": 1,
		"type": "channel",
		"noteNumber": 45,
		"velocity": 127,
		"subtype": "noteOn",
		"time": 39168,
		"track": 2
	},
	{
		"deltaTime": 0,
		"channel": 0,
		"type": "channel",
		"noteNumber": 69,
		"velocity": 0,
		"subtype": "noteOff",
		"time": 39328,
		"track": 1
	},
	{
		"deltaTime": 0,
		"channel": 0,
		"type": "channel",
		"noteNumber": 74,
		"velocity": 0,
		"subtype": "noteOff",
		"time": 39328,
		"track": 1
	},
	{
		"deltaTime": 0,
		"channel": 1,
		"type": "channel",
		"noteNumber": 33,
		"velocity": 0,
		"subtype": "noteOff",
		"time": 39328,
		"track": 2
	},
	{
		"deltaTime": 32,
		"channel": 1,
		"type": "channel",
		"noteNumber": 45,
		"velocity": 0,
		"subtype": "noteOff",
		"time": 39328,
		"track": 2
	},
	{
		"deltaTime": 0,
		"channel": 1,
		"type": "channel",
		"noteNumber": 33,
		"velocity": 127,
		"subtype": "noteOn",
		"time": 39360,
		"track": 2
	},
	{
		"deltaTime": 94,
		"channel": 1,
		"type": "channel",
		"noteNumber": 45,
		"velocity": 127,
		"subtype": "noteOn",
		"time": 39360,
		"track": 2
	},
	{
		"deltaTime": 0,
		"channel": 1,
		"type": "channel",
		"noteNumber": 33,
		"velocity": 0,
		"subtype": "noteOff",
		"time": 39454,
		"track": 2
	},
	{
		"deltaTime": 2,
		"channel": 1,
		"type": "channel",
		"noteNumber": 45,
		"velocity": 0,
		"subtype": "noteOff",
		"time": 39454,
		"track": 2
	},
	{
		"deltaTime": 0,
		"channel": 1,
		"type": "channel",
		"noteNumber": 33,
		"velocity": 127,
		"subtype": "noteOn",
		"time": 39456,
		"track": 2
	},
	{
		"deltaTime": 94,
		"channel": 1,
		"type": "channel",
		"noteNumber": 45,
		"velocity": 127,
		"subtype": "noteOn",
		"time": 39456,
		"track": 2
	},
	{
		"deltaTime": 0,
		"channel": 1,
		"type": "channel",
		"noteNumber": 33,
		"velocity": 0,
		"subtype": "noteOff",
		"time": 39550,
		"track": 2
	},
	{
		"deltaTime": 2,
		"channel": 1,
		"type": "channel",
		"noteNumber": 45,
		"velocity": 0,
		"subtype": "noteOff",
		"time": 39550,
		"track": 2
	},
	{
		"deltaTime": 0,
		"channel": 0,
		"type": "channel",
		"noteNumber": 76,
		"velocity": 127,
		"subtype": "noteOn",
		"time": 39552,
		"track": 1
	},
	{
		"deltaTime": 0,
		"channel": 1,
		"type": "channel",
		"noteNumber": 33,
		"velocity": 127,
		"subtype": "noteOn",
		"time": 39552,
		"track": 2
	},
	{
		"deltaTime": 94,
		"channel": 1,
		"type": "channel",
		"noteNumber": 45,
		"velocity": 127,
		"subtype": "noteOn",
		"time": 39552,
		"track": 2
	},
	{
		"deltaTime": 0,
		"channel": 0,
		"type": "channel",
		"noteNumber": 76,
		"velocity": 0,
		"subtype": "noteOff",
		"time": 39646,
		"track": 1
	},
	{
		"deltaTime": 0,
		"channel": 1,
		"type": "channel",
		"noteNumber": 33,
		"velocity": 0,
		"subtype": "noteOff",
		"time": 39646,
		"track": 2
	},
	{
		"deltaTime": 2,
		"channel": 1,
		"type": "channel",
		"noteNumber": 45,
		"velocity": 0,
		"subtype": "noteOff",
		"time": 39646,
		"track": 2
	},
	{
		"deltaTime": 0,
		"channel": 0,
		"type": "channel",
		"noteNumber": 73,
		"velocity": 127,
		"subtype": "noteOn",
		"time": 39648,
		"track": 1
	},
	{
		"deltaTime": 0,
		"channel": 1,
		"type": "channel",
		"noteNumber": 33,
		"velocity": 127,
		"subtype": "noteOn",
		"time": 39648,
		"track": 2
	},
	{
		"deltaTime": 94,
		"channel": 1,
		"type": "channel",
		"noteNumber": 45,
		"velocity": 127,
		"subtype": "noteOn",
		"time": 39648,
		"track": 2
	},
	{
		"deltaTime": 0,
		"channel": 0,
		"type": "channel",
		"noteNumber": 73,
		"velocity": 0,
		"subtype": "noteOff",
		"time": 39742,
		"track": 1
	},
	{
		"deltaTime": 0,
		"channel": 1,
		"type": "channel",
		"noteNumber": 33,
		"velocity": 0,
		"subtype": "noteOff",
		"time": 39742,
		"track": 2
	},
	{
		"deltaTime": 2,
		"channel": 1,
		"type": "channel",
		"noteNumber": 45,
		"velocity": 0,
		"subtype": "noteOff",
		"time": 39742,
		"track": 2
	},
	{
		"deltaTime": 0,
		"channel": 0,
		"type": "channel",
		"subtype": "controller",
		"controllerType": 64,
		"value": 0,
		"time": 39744,
		"track": 1
	},
	{
		"deltaTime": 0,
		"channel": 0,
		"type": "channel",
		"subtype": "controller",
		"controllerType": 64,
		"value": 127,
		"time": 39744,
		"track": 1
	},
	{
		"deltaTime": 0,
		"channel": 0,
		"type": "channel",
		"noteNumber": 74,
		"velocity": 127,
		"subtype": "noteOn",
		"time": 39744,
		"track": 1
	},
	{
		"deltaTime": 0,
		"channel": 0,
		"type": "channel",
		"noteNumber": 77,
		"velocity": 127,
		"subtype": "noteOn",
		"time": 39744,
		"track": 1
	},
	{
		"deltaTime": 0,
		"channel": 0,
		"type": "channel",
		"noteNumber": 81,
		"velocity": 127,
		"subtype": "noteOn",
		"time": 39744,
		"track": 1
	},
	{
		"deltaTime": 0,
		"channel": 1,
		"type": "channel",
		"subtype": "controller",
		"controllerType": 64,
		"value": 0,
		"time": 39744,
		"track": 2
	},
	{
		"deltaTime": 0,
		"channel": 1,
		"type": "channel",
		"subtype": "controller",
		"controllerType": 64,
		"value": 127,
		"time": 39744,
		"track": 2
	},
	{
		"deltaTime": 0,
		"channel": 1,
		"type": "channel",
		"noteNumber": 38,
		"velocity": 127,
		"subtype": "noteOn",
		"time": 39744,
		"track": 2
	},
	{
		"deltaTime": 160,
		"channel": 1,
		"type": "channel",
		"noteNumber": 50,
		"velocity": 127,
		"subtype": "noteOn",
		"time": 39744,
		"track": 2
	},
	{
		"deltaTime": 0,
		"channel": 0,
		"type": "channel",
		"noteNumber": 74,
		"velocity": 0,
		"subtype": "noteOff",
		"time": 39904,
		"track": 1
	},
	{
		"deltaTime": 0,
		"channel": 0,
		"type": "channel",
		"noteNumber": 77,
		"velocity": 0,
		"subtype": "noteOff",
		"time": 39904,
		"track": 1
	},
	{
		"deltaTime": 0,
		"channel": 0,
		"type": "channel",
		"noteNumber": 81,
		"velocity": 0,
		"subtype": "noteOff",
		"time": 39904,
		"track": 1
	},
	{
		"deltaTime": 0,
		"channel": 1,
		"type": "channel",
		"noteNumber": 38,
		"velocity": 0,
		"subtype": "noteOff",
		"time": 39904,
		"track": 2
	},
	{
		"deltaTime": 32,
		"channel": 1,
		"type": "channel",
		"noteNumber": 50,
		"velocity": 0,
		"subtype": "noteOff",
		"time": 39904,
		"track": 2
	},
	{
		"deltaTime": 0,
		"channel": 1,
		"type": "channel",
		"noteNumber": 38,
		"velocity": 127,
		"subtype": "noteOn",
		"time": 39936,
		"track": 2
	},
	{
		"deltaTime": 94,
		"channel": 1,
		"type": "channel",
		"noteNumber": 50,
		"velocity": 127,
		"subtype": "noteOn",
		"time": 39936,
		"track": 2
	},
	{
		"deltaTime": 0,
		"channel": 1,
		"type": "channel",
		"noteNumber": 38,
		"velocity": 0,
		"subtype": "noteOff",
		"time": 40030,
		"track": 2
	},
	{
		"deltaTime": 2,
		"channel": 1,
		"type": "channel",
		"noteNumber": 50,
		"velocity": 0,
		"subtype": "noteOff",
		"time": 40030,
		"track": 2
	},
	{
		"deltaTime": 0,
		"channel": 1,
		"type": "channel",
		"noteNumber": 38,
		"velocity": 127,
		"subtype": "noteOn",
		"time": 40032,
		"track": 2
	},
	{
		"deltaTime": 94,
		"channel": 1,
		"type": "channel",
		"noteNumber": 50,
		"velocity": 127,
		"subtype": "noteOn",
		"time": 40032,
		"track": 2
	},
	{
		"deltaTime": 0,
		"channel": 1,
		"type": "channel",
		"noteNumber": 38,
		"velocity": 0,
		"subtype": "noteOff",
		"time": 40126,
		"track": 2
	},
	{
		"deltaTime": 2,
		"channel": 1,
		"type": "channel",
		"noteNumber": 50,
		"velocity": 0,
		"subtype": "noteOff",
		"time": 40126,
		"track": 2
	},
	{
		"deltaTime": 0,
		"channel": 1,
		"type": "channel",
		"noteNumber": 38,
		"velocity": 127,
		"subtype": "noteOn",
		"time": 40128,
		"track": 2
	},
	{
		"deltaTime": 94,
		"channel": 1,
		"type": "channel",
		"noteNumber": 50,
		"velocity": 127,
		"subtype": "noteOn",
		"time": 40128,
		"track": 2
	},
	{
		"deltaTime": 0,
		"channel": 1,
		"type": "channel",
		"noteNumber": 38,
		"velocity": 0,
		"subtype": "noteOff",
		"time": 40222,
		"track": 2
	},
	{
		"deltaTime": 2,
		"channel": 1,
		"type": "channel",
		"noteNumber": 50,
		"velocity": 0,
		"subtype": "noteOff",
		"time": 40222,
		"track": 2
	},
	{
		"deltaTime": 0,
		"channel": 1,
		"type": "channel",
		"noteNumber": 38,
		"velocity": 127,
		"subtype": "noteOn",
		"time": 40224,
		"track": 2
	},
	{
		"deltaTime": 94,
		"channel": 1,
		"type": "channel",
		"noteNumber": 50,
		"velocity": 127,
		"subtype": "noteOn",
		"time": 40224,
		"track": 2
	},
	{
		"deltaTime": 0,
		"channel": 1,
		"type": "channel",
		"noteNumber": 38,
		"velocity": 0,
		"subtype": "noteOff",
		"time": 40318,
		"track": 2
	},
	{
		"deltaTime": 2,
		"channel": 1,
		"type": "channel",
		"noteNumber": 50,
		"velocity": 0,
		"subtype": "noteOff",
		"time": 40318,
		"track": 2
	},
	{
		"deltaTime": 0,
		"channel": 0,
		"type": "channel",
		"subtype": "controller",
		"controllerType": 64,
		"value": 0,
		"time": 40320,
		"track": 1
	},
	{
		"deltaTime": 0,
		"channel": 0,
		"type": "channel",
		"subtype": "controller",
		"controllerType": 64,
		"value": 127,
		"time": 40320,
		"track": 1
	},
	{
		"deltaTime": 0,
		"channel": 0,
		"type": "channel",
		"noteNumber": 74,
		"velocity": 127,
		"subtype": "noteOn",
		"time": 40320,
		"track": 1
	},
	{
		"deltaTime": 0,
		"channel": 0,
		"type": "channel",
		"noteNumber": 79,
		"velocity": 127,
		"subtype": "noteOn",
		"time": 40320,
		"track": 1
	},
	{
		"deltaTime": 0,
		"channel": 0,
		"type": "channel",
		"noteNumber": 82,
		"velocity": 127,
		"subtype": "noteOn",
		"time": 40320,
		"track": 1
	},
	{
		"deltaTime": 0,
		"channel": 1,
		"type": "channel",
		"subtype": "controller",
		"controllerType": 64,
		"value": 0,
		"time": 40320,
		"track": 2
	},
	{
		"deltaTime": 0,
		"channel": 1,
		"type": "channel",
		"subtype": "controller",
		"controllerType": 64,
		"value": 127,
		"time": 40320,
		"track": 2
	},
	{
		"deltaTime": 0,
		"channel": 1,
		"type": "channel",
		"noteNumber": 31,
		"velocity": 127,
		"subtype": "noteOn",
		"time": 40320,
		"track": 2
	},
	{
		"deltaTime": 160,
		"channel": 1,
		"type": "channel",
		"noteNumber": 43,
		"velocity": 127,
		"subtype": "noteOn",
		"time": 40320,
		"track": 2
	},
	{
		"deltaTime": 0,
		"channel": 0,
		"type": "channel",
		"noteNumber": 74,
		"velocity": 0,
		"subtype": "noteOff",
		"time": 40480,
		"track": 1
	},
	{
		"deltaTime": 0,
		"channel": 0,
		"type": "channel",
		"noteNumber": 79,
		"velocity": 0,
		"subtype": "noteOff",
		"time": 40480,
		"track": 1
	},
	{
		"deltaTime": 0,
		"channel": 0,
		"type": "channel",
		"noteNumber": 82,
		"velocity": 0,
		"subtype": "noteOff",
		"time": 40480,
		"track": 1
	},
	{
		"deltaTime": 0,
		"channel": 1,
		"type": "channel",
		"noteNumber": 31,
		"velocity": 0,
		"subtype": "noteOff",
		"time": 40480,
		"track": 2
	},
	{
		"deltaTime": 32,
		"channel": 1,
		"type": "channel",
		"noteNumber": 43,
		"velocity": 0,
		"subtype": "noteOff",
		"time": 40480,
		"track": 2
	},
	{
		"deltaTime": 0,
		"channel": 1,
		"type": "channel",
		"noteNumber": 31,
		"velocity": 127,
		"subtype": "noteOn",
		"time": 40512,
		"track": 2
	},
	{
		"deltaTime": 94,
		"channel": 1,
		"type": "channel",
		"noteNumber": 43,
		"velocity": 127,
		"subtype": "noteOn",
		"time": 40512,
		"track": 2
	},
	{
		"deltaTime": 0,
		"channel": 1,
		"type": "channel",
		"noteNumber": 31,
		"velocity": 0,
		"subtype": "noteOff",
		"time": 40606,
		"track": 2
	},
	{
		"deltaTime": 2,
		"channel": 1,
		"type": "channel",
		"noteNumber": 43,
		"velocity": 0,
		"subtype": "noteOff",
		"time": 40606,
		"track": 2
	},
	{
		"deltaTime": 0,
		"channel": 1,
		"type": "channel",
		"noteNumber": 31,
		"velocity": 127,
		"subtype": "noteOn",
		"time": 40608,
		"track": 2
	},
	{
		"deltaTime": 94,
		"channel": 1,
		"type": "channel",
		"noteNumber": 43,
		"velocity": 127,
		"subtype": "noteOn",
		"time": 40608,
		"track": 2
	},
	{
		"deltaTime": 0,
		"channel": 1,
		"type": "channel",
		"noteNumber": 31,
		"velocity": 0,
		"subtype": "noteOff",
		"time": 40702,
		"track": 2
	},
	{
		"deltaTime": 2,
		"channel": 1,
		"type": "channel",
		"noteNumber": 43,
		"velocity": 0,
		"subtype": "noteOff",
		"time": 40702,
		"track": 2
	},
	{
		"deltaTime": 0,
		"channel": 1,
		"type": "channel",
		"noteNumber": 31,
		"velocity": 127,
		"subtype": "noteOn",
		"time": 40704,
		"track": 2
	},
	{
		"deltaTime": 94,
		"channel": 1,
		"type": "channel",
		"noteNumber": 43,
		"velocity": 127,
		"subtype": "noteOn",
		"time": 40704,
		"track": 2
	},
	{
		"deltaTime": 0,
		"channel": 1,
		"type": "channel",
		"noteNumber": 31,
		"velocity": 0,
		"subtype": "noteOff",
		"time": 40798,
		"track": 2
	},
	{
		"deltaTime": 2,
		"channel": 1,
		"type": "channel",
		"noteNumber": 43,
		"velocity": 0,
		"subtype": "noteOff",
		"time": 40798,
		"track": 2
	},
	{
		"deltaTime": 0,
		"channel": 1,
		"type": "channel",
		"noteNumber": 31,
		"velocity": 127,
		"subtype": "noteOn",
		"time": 40800,
		"track": 2
	},
	{
		"deltaTime": 94,
		"channel": 1,
		"type": "channel",
		"noteNumber": 43,
		"velocity": 127,
		"subtype": "noteOn",
		"time": 40800,
		"track": 2
	},
	{
		"deltaTime": 0,
		"channel": 1,
		"type": "channel",
		"noteNumber": 31,
		"velocity": 0,
		"subtype": "noteOff",
		"time": 40894,
		"track": 2
	},
	{
		"deltaTime": 2,
		"channel": 1,
		"type": "channel",
		"noteNumber": 43,
		"velocity": 0,
		"subtype": "noteOff",
		"time": 40894,
		"track": 2
	},
	{
		"deltaTime": 0,
		"channel": 0,
		"type": "channel",
		"subtype": "controller",
		"controllerType": 64,
		"value": 0,
		"time": 40896,
		"track": 1
	},
	{
		"deltaTime": 0,
		"channel": 0,
		"type": "channel",
		"subtype": "controller",
		"controllerType": 64,
		"value": 127,
		"time": 40896,
		"track": 1
	},
	{
		"deltaTime": 0,
		"channel": 0,
		"type": "channel",
		"noteNumber": 72,
		"velocity": 127,
		"subtype": "noteOn",
		"time": 40896,
		"track": 1
	},
	{
		"deltaTime": 0,
		"channel": 0,
		"type": "channel",
		"noteNumber": 77,
		"velocity": 127,
		"subtype": "noteOn",
		"time": 40896,
		"track": 1
	},
	{
		"deltaTime": 0,
		"channel": 0,
		"type": "channel",
		"noteNumber": 81,
		"velocity": 127,
		"subtype": "noteOn",
		"time": 40896,
		"track": 1
	},
	{
		"deltaTime": 0,
		"channel": 1,
		"type": "channel",
		"subtype": "controller",
		"controllerType": 64,
		"value": 0,
		"time": 40896,
		"track": 2
	},
	{
		"deltaTime": 0,
		"channel": 1,
		"type": "channel",
		"subtype": "controller",
		"controllerType": 64,
		"value": 127,
		"time": 40896,
		"track": 2
	},
	{
		"deltaTime": 0,
		"channel": 1,
		"type": "channel",
		"noteNumber": 41,
		"velocity": 127,
		"subtype": "noteOn",
		"time": 40896,
		"track": 2
	},
	{
		"deltaTime": 160,
		"channel": 1,
		"type": "channel",
		"noteNumber": 53,
		"velocity": 127,
		"subtype": "noteOn",
		"time": 40896,
		"track": 2
	},
	{
		"deltaTime": 0,
		"channel": 0,
		"type": "channel",
		"noteNumber": 72,
		"velocity": 0,
		"subtype": "noteOff",
		"time": 41056,
		"track": 1
	},
	{
		"deltaTime": 0,
		"channel": 0,
		"type": "channel",
		"noteNumber": 77,
		"velocity": 0,
		"subtype": "noteOff",
		"time": 41056,
		"track": 1
	},
	{
		"deltaTime": 0,
		"channel": 0,
		"type": "channel",
		"noteNumber": 81,
		"velocity": 0,
		"subtype": "noteOff",
		"time": 41056,
		"track": 1
	},
	{
		"deltaTime": 0,
		"channel": 1,
		"type": "channel",
		"noteNumber": 41,
		"velocity": 0,
		"subtype": "noteOff",
		"time": 41056,
		"track": 2
	},
	{
		"deltaTime": 32,
		"channel": 1,
		"type": "channel",
		"noteNumber": 53,
		"velocity": 0,
		"subtype": "noteOff",
		"time": 41056,
		"track": 2
	},
	{
		"deltaTime": 0,
		"channel": 0,
		"type": "channel",
		"noteNumber": 72,
		"velocity": 127,
		"subtype": "noteOn",
		"time": 41088,
		"track": 1
	},
	{
		"deltaTime": 0,
		"channel": 0,
		"type": "channel",
		"noteNumber": 77,
		"velocity": 127,
		"subtype": "noteOn",
		"time": 41088,
		"track": 1
	},
	{
		"deltaTime": 0,
		"channel": 0,
		"type": "channel",
		"noteNumber": 81,
		"velocity": 127,
		"subtype": "noteOn",
		"time": 41088,
		"track": 1
	},
	{
		"deltaTime": 0,
		"channel": 1,
		"type": "channel",
		"noteNumber": 41,
		"velocity": 127,
		"subtype": "noteOn",
		"time": 41088,
		"track": 2
	},
	{
		"deltaTime": 94,
		"channel": 1,
		"type": "channel",
		"noteNumber": 53,
		"velocity": 127,
		"subtype": "noteOn",
		"time": 41088,
		"track": 2
	},
	{
		"deltaTime": 0,
		"channel": 1,
		"type": "channel",
		"noteNumber": 41,
		"velocity": 0,
		"subtype": "noteOff",
		"time": 41182,
		"track": 2
	},
	{
		"deltaTime": 2,
		"channel": 1,
		"type": "channel",
		"noteNumber": 53,
		"velocity": 0,
		"subtype": "noteOff",
		"time": 41182,
		"track": 2
	},
	{
		"deltaTime": 0,
		"channel": 1,
		"type": "channel",
		"noteNumber": 41,
		"velocity": 127,
		"subtype": "noteOn",
		"time": 41184,
		"track": 2
	},
	{
		"deltaTime": 64,
		"channel": 1,
		"type": "channel",
		"noteNumber": 53,
		"velocity": 127,
		"subtype": "noteOn",
		"time": 41184,
		"track": 2
	},
	{
		"deltaTime": 0,
		"channel": 0,
		"type": "channel",
		"noteNumber": 72,
		"velocity": 0,
		"subtype": "noteOff",
		"time": 41248,
		"track": 1
	},
	{
		"deltaTime": 0,
		"channel": 0,
		"type": "channel",
		"noteNumber": 77,
		"velocity": 0,
		"subtype": "noteOff",
		"time": 41248,
		"track": 1
	},
	{
		"deltaTime": 32,
		"channel": 0,
		"type": "channel",
		"noteNumber": 81,
		"velocity": 0,
		"subtype": "noteOff",
		"time": 41248,
		"track": 1
	},
	{
		"deltaTime": 0,
		"channel": 0,
		"type": "channel",
		"noteNumber": 72,
		"velocity": 127,
		"subtype": "noteOn",
		"time": 41280,
		"track": 1
	},
	{
		"deltaTime": 0,
		"channel": 0,
		"type": "channel",
		"noteNumber": 77,
		"velocity": 127,
		"subtype": "noteOn",
		"time": 41280,
		"track": 1
	},
	{
		"deltaTime": 64,
		"channel": 0,
		"type": "channel",
		"noteNumber": 81,
		"velocity": 127,
		"subtype": "noteOn",
		"time": 41280,
		"track": 1
	},
	{
		"deltaTime": 0,
		"channel": 1,
		"type": "channel",
		"noteNumber": 41,
		"velocity": 0,
		"subtype": "noteOff",
		"time": 41344,
		"track": 2
	},
	{
		"deltaTime": 32,
		"channel": 1,
		"type": "channel",
		"noteNumber": 53,
		"velocity": 0,
		"subtype": "noteOff",
		"time": 41344,
		"track": 2
	},
	{
		"deltaTime": 0,
		"channel": 1,
		"type": "channel",
		"noteNumber": 41,
		"velocity": 127,
		"subtype": "noteOn",
		"time": 41376,
		"track": 2
	},
	{
		"deltaTime": 64,
		"channel": 1,
		"type": "channel",
		"noteNumber": 53,
		"velocity": 127,
		"subtype": "noteOn",
		"time": 41376,
		"track": 2
	},
	{
		"deltaTime": 0,
		"channel": 0,
		"type": "channel",
		"noteNumber": 72,
		"velocity": 0,
		"subtype": "noteOff",
		"time": 41440,
		"track": 1
	},
	{
		"deltaTime": 0,
		"channel": 0,
		"type": "channel",
		"noteNumber": 77,
		"velocity": 0,
		"subtype": "noteOff",
		"time": 41440,
		"track": 1
	},
	{
		"deltaTime": 30,
		"channel": 0,
		"type": "channel",
		"noteNumber": 81,
		"velocity": 0,
		"subtype": "noteOff",
		"time": 41440,
		"track": 1
	},
	{
		"deltaTime": 0,
		"channel": 1,
		"type": "channel",
		"noteNumber": 41,
		"velocity": 0,
		"subtype": "noteOff",
		"time": 41470,
		"track": 2
	},
	{
		"deltaTime": 2,
		"channel": 1,
		"type": "channel",
		"noteNumber": 53,
		"velocity": 0,
		"subtype": "noteOff",
		"time": 41470,
		"track": 2
	},
	{
		"deltaTime": 0,
		"channel": 0,
		"type": "channel",
		"noteNumber": 72,
		"velocity": 127,
		"subtype": "noteOn",
		"time": 41472,
		"track": 1
	},
	{
		"deltaTime": 0,
		"channel": 0,
		"type": "channel",
		"noteNumber": 76,
		"velocity": 127,
		"subtype": "noteOn",
		"time": 41472,
		"track": 1
	},
	{
		"deltaTime": 0,
		"channel": 0,
		"type": "channel",
		"noteNumber": 81,
		"velocity": 127,
		"subtype": "noteOn",
		"time": 41472,
		"track": 1
	},
	{
		"deltaTime": 0,
		"channel": 1,
		"type": "channel",
		"subtype": "controller",
		"controllerType": 64,
		"value": 0,
		"time": 41472,
		"track": 2
	},
	{
		"deltaTime": 0,
		"channel": 1,
		"type": "channel",
		"subtype": "controller",
		"controllerType": 64,
		"value": 127,
		"time": 41472,
		"track": 2
	},
	{
		"deltaTime": 0,
		"channel": 1,
		"type": "channel",
		"noteNumber": 36,
		"velocity": 127,
		"subtype": "noteOn",
		"time": 41472,
		"track": 2
	},
	{
		"deltaTime": 94,
		"channel": 1,
		"type": "channel",
		"noteNumber": 48,
		"velocity": 127,
		"subtype": "noteOn",
		"time": 41472,
		"track": 2
	},
	{
		"deltaTime": 0,
		"channel": 0,
		"type": "channel",
		"noteNumber": 72,
		"velocity": 0,
		"subtype": "noteOff",
		"time": 41566,
		"track": 1
	},
	{
		"deltaTime": 0,
		"channel": 0,
		"type": "channel",
		"noteNumber": 76,
		"velocity": 0,
		"subtype": "noteOff",
		"time": 41566,
		"track": 1
	},
	{
		"deltaTime": 2,
		"channel": 0,
		"type": "channel",
		"noteNumber": 81,
		"velocity": 0,
		"subtype": "noteOff",
		"time": 41566,
		"track": 1
	},
	{
		"deltaTime": 0,
		"channel": 0,
		"type": "channel",
		"subtype": "controller",
		"controllerType": 64,
		"value": 0,
		"time": 41568,
		"track": 1
	},
	{
		"deltaTime": 0,
		"channel": 0,
		"type": "channel",
		"subtype": "controller",
		"controllerType": 64,
		"value": 127,
		"time": 41568,
		"track": 1
	},
	{
		"deltaTime": 64,
		"channel": 0,
		"type": "channel",
		"noteNumber": 79,
		"velocity": 127,
		"subtype": "noteOn",
		"time": 41568,
		"track": 1
	},
	{
		"deltaTime": 0,
		"channel": 1,
		"type": "channel",
		"noteNumber": 36,
		"velocity": 0,
		"subtype": "noteOff",
		"time": 41632,
		"track": 2
	},
	{
		"deltaTime": 30,
		"channel": 1,
		"type": "channel",
		"noteNumber": 48,
		"velocity": 0,
		"subtype": "noteOff",
		"time": 41632,
		"track": 2
	},
	{
		"deltaTime": 2,
		"channel": 0,
		"type": "channel",
		"noteNumber": 79,
		"velocity": 0,
		"subtype": "noteOff",
		"time": 41662,
		"track": 1
	},
	{
		"deltaTime": 0,
		"channel": 1,
		"type": "channel",
		"noteNumber": 36,
		"velocity": 127,
		"subtype": "noteOn",
		"time": 41664,
		"track": 2
	},
	{
		"deltaTime": 94,
		"channel": 1,
		"type": "channel",
		"noteNumber": 48,
		"velocity": 127,
		"subtype": "noteOn",
		"time": 41664,
		"track": 2
	},
	{
		"deltaTime": 0,
		"channel": 1,
		"type": "channel",
		"noteNumber": 36,
		"velocity": 0,
		"subtype": "noteOff",
		"time": 41758,
		"track": 2
	},
	{
		"deltaTime": 2,
		"channel": 1,
		"type": "channel",
		"noteNumber": 48,
		"velocity": 0,
		"subtype": "noteOff",
		"time": 41758,
		"track": 2
	},
	{
		"deltaTime": 0,
		"channel": 1,
		"type": "channel",
		"noteNumber": 36,
		"velocity": 127,
		"subtype": "noteOn",
		"time": 41760,
		"track": 2
	},
	{
		"deltaTime": 94,
		"channel": 1,
		"type": "channel",
		"noteNumber": 48,
		"velocity": 127,
		"subtype": "noteOn",
		"time": 41760,
		"track": 2
	},
	{
		"deltaTime": 0,
		"channel": 1,
		"type": "channel",
		"noteNumber": 36,
		"velocity": 0,
		"subtype": "noteOff",
		"time": 41854,
		"track": 2
	},
	{
		"deltaTime": 2,
		"channel": 1,
		"type": "channel",
		"noteNumber": 48,
		"velocity": 0,
		"subtype": "noteOff",
		"time": 41854,
		"track": 2
	},
	{
		"deltaTime": 0,
		"channel": 1,
		"type": "channel",
		"noteNumber": 36,
		"velocity": 127,
		"subtype": "noteOn",
		"time": 41856,
		"track": 2
	},
	{
		"deltaTime": 94,
		"channel": 1,
		"type": "channel",
		"noteNumber": 48,
		"velocity": 127,
		"subtype": "noteOn",
		"time": 41856,
		"track": 2
	},
	{
		"deltaTime": 0,
		"channel": 1,
		"type": "channel",
		"noteNumber": 36,
		"velocity": 0,
		"subtype": "noteOff",
		"time": 41950,
		"track": 2
	},
	{
		"deltaTime": 2,
		"channel": 1,
		"type": "channel",
		"noteNumber": 48,
		"velocity": 0,
		"subtype": "noteOff",
		"time": 41950,
		"track": 2
	},
	{
		"deltaTime": 0,
		"channel": 1,
		"type": "channel",
		"noteNumber": 36,
		"velocity": 127,
		"subtype": "noteOn",
		"time": 41952,
		"track": 2
	},
	{
		"deltaTime": 94,
		"channel": 1,
		"type": "channel",
		"noteNumber": 48,
		"velocity": 127,
		"subtype": "noteOn",
		"time": 41952,
		"track": 2
	},
	{
		"deltaTime": 0,
		"channel": 1,
		"type": "channel",
		"noteNumber": 36,
		"velocity": 0,
		"subtype": "noteOff",
		"time": 42046,
		"track": 2
	},
	{
		"deltaTime": 2,
		"channel": 1,
		"type": "channel",
		"noteNumber": 48,
		"velocity": 0,
		"subtype": "noteOff",
		"time": 42046,
		"track": 2
	},
	{
		"deltaTime": 0,
		"channel": 0,
		"type": "channel",
		"subtype": "controller",
		"controllerType": 64,
		"value": 0,
		"time": 42048,
		"track": 1
	},
	{
		"deltaTime": 0,
		"channel": 0,
		"type": "channel",
		"subtype": "controller",
		"controllerType": 64,
		"value": 127,
		"time": 42048,
		"track": 1
	},
	{
		"deltaTime": 0,
		"channel": 0,
		"type": "channel",
		"noteNumber": 70,
		"velocity": 127,
		"subtype": "noteOn",
		"time": 42048,
		"track": 1
	},
	{
		"deltaTime": 0,
		"channel": 0,
		"type": "channel",
		"noteNumber": 74,
		"velocity": 127,
		"subtype": "noteOn",
		"time": 42048,
		"track": 1
	},
	{
		"deltaTime": 0,
		"channel": 0,
		"type": "channel",
		"noteNumber": 79,
		"velocity": 127,
		"subtype": "noteOn",
		"time": 42048,
		"track": 1
	},
	{
		"deltaTime": 0,
		"channel": 1,
		"type": "channel",
		"subtype": "controller",
		"controllerType": 64,
		"value": 0,
		"time": 42048,
		"track": 2
	},
	{
		"deltaTime": 0,
		"channel": 1,
		"type": "channel",
		"subtype": "controller",
		"controllerType": 64,
		"value": 127,
		"time": 42048,
		"track": 2
	},
	{
		"deltaTime": 0,
		"channel": 1,
		"type": "channel",
		"noteNumber": 31,
		"velocity": 127,
		"subtype": "noteOn",
		"time": 42048,
		"track": 2
	},
	{
		"deltaTime": 160,
		"channel": 1,
		"type": "channel",
		"noteNumber": 43,
		"velocity": 127,
		"subtype": "noteOn",
		"time": 42048,
		"track": 2
	},
	{
		"deltaTime": 0,
		"channel": 0,
		"type": "channel",
		"noteNumber": 70,
		"velocity": 0,
		"subtype": "noteOff",
		"time": 42208,
		"track": 1
	},
	{
		"deltaTime": 0,
		"channel": 0,
		"type": "channel",
		"noteNumber": 74,
		"velocity": 0,
		"subtype": "noteOff",
		"time": 42208,
		"track": 1
	},
	{
		"deltaTime": 0,
		"channel": 0,
		"type": "channel",
		"noteNumber": 79,
		"velocity": 0,
		"subtype": "noteOff",
		"time": 42208,
		"track": 1
	},
	{
		"deltaTime": 0,
		"channel": 1,
		"type": "channel",
		"noteNumber": 31,
		"velocity": 0,
		"subtype": "noteOff",
		"time": 42208,
		"track": 2
	},
	{
		"deltaTime": 32,
		"channel": 1,
		"type": "channel",
		"noteNumber": 43,
		"velocity": 0,
		"subtype": "noteOff",
		"time": 42208,
		"track": 2
	},
	{
		"deltaTime": 0,
		"channel": 1,
		"type": "channel",
		"noteNumber": 31,
		"velocity": 127,
		"subtype": "noteOn",
		"time": 42240,
		"track": 2
	},
	{
		"deltaTime": 94,
		"channel": 1,
		"type": "channel",
		"noteNumber": 43,
		"velocity": 127,
		"subtype": "noteOn",
		"time": 42240,
		"track": 2
	},
	{
		"deltaTime": 0,
		"channel": 1,
		"type": "channel",
		"noteNumber": 31,
		"velocity": 0,
		"subtype": "noteOff",
		"time": 42334,
		"track": 2
	},
	{
		"deltaTime": 2,
		"channel": 1,
		"type": "channel",
		"noteNumber": 43,
		"velocity": 0,
		"subtype": "noteOff",
		"time": 42334,
		"track": 2
	},
	{
		"deltaTime": 0,
		"channel": 1,
		"type": "channel",
		"noteNumber": 31,
		"velocity": 127,
		"subtype": "noteOn",
		"time": 42336,
		"track": 2
	},
	{
		"deltaTime": 94,
		"channel": 1,
		"type": "channel",
		"noteNumber": 43,
		"velocity": 127,
		"subtype": "noteOn",
		"time": 42336,
		"track": 2
	},
	{
		"deltaTime": 0,
		"channel": 1,
		"type": "channel",
		"noteNumber": 31,
		"velocity": 0,
		"subtype": "noteOff",
		"time": 42430,
		"track": 2
	},
	{
		"deltaTime": 2,
		"channel": 1,
		"type": "channel",
		"noteNumber": 43,
		"velocity": 0,
		"subtype": "noteOff",
		"time": 42430,
		"track": 2
	},
	{
		"deltaTime": 0,
		"channel": 1,
		"type": "channel",
		"noteNumber": 31,
		"velocity": 127,
		"subtype": "noteOn",
		"time": 42432,
		"track": 2
	},
	{
		"deltaTime": 94,
		"channel": 1,
		"type": "channel",
		"noteNumber": 43,
		"velocity": 127,
		"subtype": "noteOn",
		"time": 42432,
		"track": 2
	},
	{
		"deltaTime": 0,
		"channel": 1,
		"type": "channel",
		"noteNumber": 31,
		"velocity": 0,
		"subtype": "noteOff",
		"time": 42526,
		"track": 2
	},
	{
		"deltaTime": 2,
		"channel": 1,
		"type": "channel",
		"noteNumber": 43,
		"velocity": 0,
		"subtype": "noteOff",
		"time": 42526,
		"track": 2
	},
	{
		"deltaTime": 0,
		"channel": 1,
		"type": "channel",
		"noteNumber": 31,
		"velocity": 127,
		"subtype": "noteOn",
		"time": 42528,
		"track": 2
	},
	{
		"deltaTime": 94,
		"channel": 1,
		"type": "channel",
		"noteNumber": 43,
		"velocity": 127,
		"subtype": "noteOn",
		"time": 42528,
		"track": 2
	},
	{
		"deltaTime": 0,
		"channel": 1,
		"type": "channel",
		"noteNumber": 31,
		"velocity": 0,
		"subtype": "noteOff",
		"time": 42622,
		"track": 2
	},
	{
		"deltaTime": 2,
		"channel": 1,
		"type": "channel",
		"noteNumber": 43,
		"velocity": 0,
		"subtype": "noteOff",
		"time": 42622,
		"track": 2
	},
	{
		"deltaTime": 0,
		"channel": 0,
		"type": "channel",
		"subtype": "controller",
		"controllerType": 64,
		"value": 0,
		"time": 42624,
		"track": 1
	},
	{
		"deltaTime": 0,
		"channel": 0,
		"type": "channel",
		"subtype": "controller",
		"controllerType": 64,
		"value": 127,
		"time": 42624,
		"track": 1
	},
	{
		"deltaTime": 0,
		"channel": 0,
		"type": "channel",
		"noteNumber": 69,
		"velocity": 127,
		"subtype": "noteOn",
		"time": 42624,
		"track": 1
	},
	{
		"deltaTime": 0,
		"channel": 0,
		"type": "channel",
		"noteNumber": 74,
		"velocity": 127,
		"subtype": "noteOn",
		"time": 42624,
		"track": 1
	},
	{
		"deltaTime": 0,
		"channel": 0,
		"type": "channel",
		"noteNumber": 77,
		"velocity": 127,
		"subtype": "noteOn",
		"time": 42624,
		"track": 1
	},
	{
		"deltaTime": 0,
		"channel": 1,
		"type": "channel",
		"subtype": "controller",
		"controllerType": 64,
		"value": 0,
		"time": 42624,
		"track": 2
	},
	{
		"deltaTime": 0,
		"channel": 1,
		"type": "channel",
		"subtype": "controller",
		"controllerType": 64,
		"value": 127,
		"time": 42624,
		"track": 2
	},
	{
		"deltaTime": 0,
		"channel": 1,
		"type": "channel",
		"noteNumber": 33,
		"velocity": 127,
		"subtype": "noteOn",
		"time": 42624,
		"track": 2
	},
	{
		"deltaTime": 160,
		"channel": 1,
		"type": "channel",
		"noteNumber": 45,
		"velocity": 127,
		"subtype": "noteOn",
		"time": 42624,
		"track": 2
	},
	{
		"deltaTime": 0,
		"channel": 0,
		"type": "channel",
		"noteNumber": 69,
		"velocity": 0,
		"subtype": "noteOff",
		"time": 42784,
		"track": 1
	},
	{
		"deltaTime": 0,
		"channel": 0,
		"type": "channel",
		"noteNumber": 74,
		"velocity": 0,
		"subtype": "noteOff",
		"time": 42784,
		"track": 1
	},
	{
		"deltaTime": 0,
		"channel": 0,
		"type": "channel",
		"noteNumber": 77,
		"velocity": 0,
		"subtype": "noteOff",
		"time": 42784,
		"track": 1
	},
	{
		"deltaTime": 0,
		"channel": 1,
		"type": "channel",
		"noteNumber": 33,
		"velocity": 0,
		"subtype": "noteOff",
		"time": 42784,
		"track": 2
	},
	{
		"deltaTime": 32,
		"channel": 1,
		"type": "channel",
		"noteNumber": 45,
		"velocity": 0,
		"subtype": "noteOff",
		"time": 42784,
		"track": 2
	},
	{
		"deltaTime": 0,
		"channel": 1,
		"type": "channel",
		"noteNumber": 33,
		"velocity": 127,
		"subtype": "noteOn",
		"time": 42816,
		"track": 2
	},
	{
		"deltaTime": 94,
		"channel": 1,
		"type": "channel",
		"noteNumber": 45,
		"velocity": 127,
		"subtype": "noteOn",
		"time": 42816,
		"track": 2
	},
	{
		"deltaTime": 0,
		"channel": 1,
		"type": "channel",
		"noteNumber": 33,
		"velocity": 0,
		"subtype": "noteOff",
		"time": 42910,
		"track": 2
	},
	{
		"deltaTime": 2,
		"channel": 1,
		"type": "channel",
		"noteNumber": 45,
		"velocity": 0,
		"subtype": "noteOff",
		"time": 42910,
		"track": 2
	},
	{
		"deltaTime": 0,
		"channel": 1,
		"type": "channel",
		"noteNumber": 33,
		"velocity": 127,
		"subtype": "noteOn",
		"time": 42912,
		"track": 2
	},
	{
		"deltaTime": 94,
		"channel": 1,
		"type": "channel",
		"noteNumber": 45,
		"velocity": 127,
		"subtype": "noteOn",
		"time": 42912,
		"track": 2
	},
	{
		"deltaTime": 0,
		"channel": 1,
		"type": "channel",
		"noteNumber": 33,
		"velocity": 0,
		"subtype": "noteOff",
		"time": 43006,
		"track": 2
	},
	{
		"deltaTime": 2,
		"channel": 1,
		"type": "channel",
		"noteNumber": 45,
		"velocity": 0,
		"subtype": "noteOff",
		"time": 43006,
		"track": 2
	},
	{
		"deltaTime": 0,
		"channel": 1,
		"type": "channel",
		"noteNumber": 33,
		"velocity": 127,
		"subtype": "noteOn",
		"time": 43008,
		"track": 2
	},
	{
		"deltaTime": 94,
		"channel": 1,
		"type": "channel",
		"noteNumber": 45,
		"velocity": 127,
		"subtype": "noteOn",
		"time": 43008,
		"track": 2
	},
	{
		"deltaTime": 0,
		"channel": 1,
		"type": "channel",
		"noteNumber": 33,
		"velocity": 0,
		"subtype": "noteOff",
		"time": 43102,
		"track": 2
	},
	{
		"deltaTime": 2,
		"channel": 1,
		"type": "channel",
		"noteNumber": 45,
		"velocity": 0,
		"subtype": "noteOff",
		"time": 43102,
		"track": 2
	},
	{
		"deltaTime": 0,
		"channel": 1,
		"type": "channel",
		"noteNumber": 33,
		"velocity": 127,
		"subtype": "noteOn",
		"time": 43104,
		"track": 2
	},
	{
		"deltaTime": 94,
		"channel": 1,
		"type": "channel",
		"noteNumber": 45,
		"velocity": 127,
		"subtype": "noteOn",
		"time": 43104,
		"track": 2
	},
	{
		"deltaTime": 0,
		"channel": 1,
		"type": "channel",
		"noteNumber": 33,
		"velocity": 0,
		"subtype": "noteOff",
		"time": 43198,
		"track": 2
	},
	{
		"deltaTime": 2,
		"channel": 1,
		"type": "channel",
		"noteNumber": 45,
		"velocity": 0,
		"subtype": "noteOff",
		"time": 43198,
		"track": 2
	},
	{
		"deltaTime": 0,
		"channel": 0,
		"type": "channel",
		"subtype": "controller",
		"controllerType": 64,
		"value": 0,
		"time": 43200,
		"track": 1
	},
	{
		"deltaTime": 0,
		"channel": 0,
		"type": "channel",
		"subtype": "controller",
		"controllerType": 64,
		"value": 127,
		"time": 43200,
		"track": 1
	},
	{
		"deltaTime": 0,
		"channel": 0,
		"type": "channel",
		"noteNumber": 69,
		"velocity": 127,
		"subtype": "noteOn",
		"time": 43200,
		"track": 1
	},
	{
		"deltaTime": 0,
		"channel": 0,
		"type": "channel",
		"noteNumber": 77,
		"velocity": 127,
		"subtype": "noteOn",
		"time": 43200,
		"track": 1
	},
	{
		"deltaTime": 0,
		"channel": 1,
		"type": "channel",
		"noteNumber": 33,
		"velocity": 127,
		"subtype": "noteOn",
		"time": 43200,
		"track": 2
	},
	{
		"deltaTime": 160,
		"channel": 1,
		"type": "channel",
		"noteNumber": 45,
		"velocity": 127,
		"subtype": "noteOn",
		"time": 43200,
		"track": 2
	},
	{
		"deltaTime": 0,
		"channel": 0,
		"type": "channel",
		"noteNumber": 69,
		"velocity": 0,
		"subtype": "noteOff",
		"time": 43360,
		"track": 1
	},
	{
		"deltaTime": 0,
		"channel": 0,
		"type": "channel",
		"noteNumber": 77,
		"velocity": 0,
		"subtype": "noteOff",
		"time": 43360,
		"track": 1
	},
	{
		"deltaTime": 0,
		"channel": 1,
		"type": "channel",
		"noteNumber": 33,
		"velocity": 0,
		"subtype": "noteOff",
		"time": 43360,
		"track": 2
	},
	{
		"deltaTime": 32,
		"channel": 1,
		"type": "channel",
		"noteNumber": 45,
		"velocity": 0,
		"subtype": "noteOff",
		"time": 43360,
		"track": 2
	},
	{
		"deltaTime": 0,
		"channel": 0,
		"type": "channel",
		"noteNumber": 69,
		"velocity": 127,
		"subtype": "noteOn",
		"time": 43392,
		"track": 1
	},
	{
		"deltaTime": 0,
		"channel": 0,
		"type": "channel",
		"noteNumber": 79,
		"velocity": 127,
		"subtype": "noteOn",
		"time": 43392,
		"track": 1
	},
	{
		"deltaTime": 0,
		"channel": 1,
		"type": "channel",
		"noteNumber": 33,
		"velocity": 127,
		"subtype": "noteOn",
		"time": 43392,
		"track": 2
	},
	{
		"deltaTime": 94,
		"channel": 1,
		"type": "channel",
		"noteNumber": 45,
		"velocity": 127,
		"subtype": "noteOn",
		"time": 43392,
		"track": 2
	},
	{
		"deltaTime": 0,
		"channel": 1,
		"type": "channel",
		"noteNumber": 33,
		"velocity": 0,
		"subtype": "noteOff",
		"time": 43486,
		"track": 2
	},
	{
		"deltaTime": 2,
		"channel": 1,
		"type": "channel",
		"noteNumber": 45,
		"velocity": 0,
		"subtype": "noteOff",
		"time": 43486,
		"track": 2
	},
	{
		"deltaTime": 0,
		"channel": 1,
		"type": "channel",
		"noteNumber": 33,
		"velocity": 127,
		"subtype": "noteOn",
		"time": 43488,
		"track": 2
	},
	{
		"deltaTime": 64,
		"channel": 1,
		"type": "channel",
		"noteNumber": 45,
		"velocity": 127,
		"subtype": "noteOn",
		"time": 43488,
		"track": 2
	},
	{
		"deltaTime": 0,
		"channel": 0,
		"type": "channel",
		"noteNumber": 69,
		"velocity": 0,
		"subtype": "noteOff",
		"time": 43552,
		"track": 1
	},
	{
		"deltaTime": 30,
		"channel": 0,
		"type": "channel",
		"noteNumber": 79,
		"velocity": 0,
		"subtype": "noteOff",
		"time": 43552,
		"track": 1
	},
	{
		"deltaTime": 0,
		"channel": 1,
		"type": "channel",
		"noteNumber": 33,
		"velocity": 0,
		"subtype": "noteOff",
		"time": 43582,
		"track": 2
	},
	{
		"deltaTime": 2,
		"channel": 1,
		"type": "channel",
		"noteNumber": 45,
		"velocity": 0,
		"subtype": "noteOff",
		"time": 43582,
		"track": 2
	},
	{
		"deltaTime": 0,
		"channel": 0,
		"type": "channel",
		"noteNumber": 69,
		"velocity": 127,
		"subtype": "noteOn",
		"time": 43584,
		"track": 1
	},
	{
		"deltaTime": 0,
		"channel": 0,
		"type": "channel",
		"noteNumber": 76,
		"velocity": 127,
		"subtype": "noteOn",
		"time": 43584,
		"track": 1
	},
	{
		"deltaTime": 0,
		"channel": 1,
		"type": "channel",
		"noteNumber": 33,
		"velocity": 127,
		"subtype": "noteOn",
		"time": 43584,
		"track": 2
	},
	{
		"deltaTime": 94,
		"channel": 1,
		"type": "channel",
		"noteNumber": 45,
		"velocity": 127,
		"subtype": "noteOn",
		"time": 43584,
		"track": 2
	},
	{
		"deltaTime": 0,
		"channel": 1,
		"type": "channel",
		"noteNumber": 33,
		"velocity": 0,
		"subtype": "noteOff",
		"time": 43678,
		"track": 2
	},
	{
		"deltaTime": 2,
		"channel": 1,
		"type": "channel",
		"noteNumber": 45,
		"velocity": 0,
		"subtype": "noteOff",
		"time": 43678,
		"track": 2
	},
	{
		"deltaTime": 0,
		"channel": 1,
		"type": "channel",
		"noteNumber": 33,
		"velocity": 127,
		"subtype": "noteOn",
		"time": 43680,
		"track": 2
	},
	{
		"deltaTime": 64,
		"channel": 1,
		"type": "channel",
		"noteNumber": 45,
		"velocity": 127,
		"subtype": "noteOn",
		"time": 43680,
		"track": 2
	},
	{
		"deltaTime": 0,
		"channel": 0,
		"type": "channel",
		"noteNumber": 69,
		"velocity": 0,
		"subtype": "noteOff",
		"time": 43744,
		"track": 1
	},
	{
		"deltaTime": 30,
		"channel": 0,
		"type": "channel",
		"noteNumber": 76,
		"velocity": 0,
		"subtype": "noteOff",
		"time": 43744,
		"track": 1
	},
	{
		"deltaTime": 0,
		"channel": 1,
		"type": "channel",
		"noteNumber": 33,
		"velocity": 0,
		"subtype": "noteOff",
		"time": 43774,
		"track": 2
	},
	{
		"deltaTime": 2,
		"channel": 1,
		"type": "channel",
		"noteNumber": 45,
		"velocity": 0,
		"subtype": "noteOff",
		"time": 43774,
		"track": 2
	},
	{
		"deltaTime": 0,
		"channel": 0,
		"type": "channel",
		"subtype": "controller",
		"controllerType": 64,
		"value": 0,
		"time": 43776,
		"track": 1
	},
	{
		"deltaTime": 0,
		"channel": 0,
		"type": "channel",
		"subtype": "controller",
		"controllerType": 64,
		"value": 127,
		"time": 43776,
		"track": 1
	},
	{
		"deltaTime": 0,
		"channel": 0,
		"type": "channel",
		"noteNumber": 65,
		"velocity": 127,
		"subtype": "noteOn",
		"time": 43776,
		"track": 1
	},
	{
		"deltaTime": 0,
		"channel": 0,
		"type": "channel",
		"noteNumber": 69,
		"velocity": 127,
		"subtype": "noteOn",
		"time": 43776,
		"track": 1
	},
	{
		"deltaTime": 0,
		"channel": 0,
		"type": "channel",
		"noteNumber": 74,
		"velocity": 127,
		"subtype": "noteOn",
		"time": 43776,
		"track": 1
	},
	{
		"deltaTime": 0,
		"channel": 1,
		"type": "channel",
		"subtype": "controller",
		"controllerType": 64,
		"value": 0,
		"time": 43776,
		"track": 2
	},
	{
		"deltaTime": 0,
		"channel": 1,
		"type": "channel",
		"subtype": "controller",
		"controllerType": 64,
		"value": 127,
		"time": 43776,
		"track": 2
	},
	{
		"deltaTime": 0,
		"channel": 1,
		"type": "channel",
		"noteNumber": 38,
		"velocity": 127,
		"subtype": "noteOn",
		"time": 43776,
		"track": 2
	},
	{
		"deltaTime": 160,
		"channel": 1,
		"type": "channel",
		"noteNumber": 50,
		"velocity": 127,
		"subtype": "noteOn",
		"time": 43776,
		"track": 2
	},
	{
		"deltaTime": 0,
		"channel": 1,
		"type": "channel",
		"noteNumber": 38,
		"velocity": 0,
		"subtype": "noteOff",
		"time": 43936,
		"track": 2
	},
	{
		"deltaTime": 32,
		"channel": 1,
		"type": "channel",
		"noteNumber": 50,
		"velocity": 0,
		"subtype": "noteOff",
		"time": 43936,
		"track": 2
	},
	{
		"deltaTime": 0,
		"channel": 1,
		"type": "channel",
		"noteNumber": 38,
		"velocity": 127,
		"subtype": "noteOn",
		"time": 43968,
		"track": 2
	},
	{
		"deltaTime": 64,
		"channel": 1,
		"type": "channel",
		"noteNumber": 50,
		"velocity": 127,
		"subtype": "noteOn",
		"time": 43968,
		"track": 2
	},
	{
		"deltaTime": 0,
		"channel": 0,
		"type": "channel",
		"noteNumber": 65,
		"velocity": 0,
		"subtype": "noteOff",
		"time": 44032,
		"track": 1
	},
	{
		"deltaTime": 0,
		"channel": 0,
		"type": "channel",
		"noteNumber": 69,
		"velocity": 0,
		"subtype": "noteOff",
		"time": 44032,
		"track": 1
	},
	{
		"deltaTime": 30,
		"channel": 0,
		"type": "channel",
		"noteNumber": 74,
		"velocity": 0,
		"subtype": "noteOff",
		"time": 44032,
		"track": 1
	},
	{
		"deltaTime": 0,
		"channel": 1,
		"type": "channel",
		"noteNumber": 38,
		"velocity": 0,
		"subtype": "noteOff",
		"time": 44062,
		"track": 2
	},
	{
		"deltaTime": 2,
		"channel": 1,
		"type": "channel",
		"noteNumber": 50,
		"velocity": 0,
		"subtype": "noteOff",
		"time": 44062,
		"track": 2
	},
	{
		"deltaTime": 0,
		"channel": 0,
		"type": "channel",
		"noteNumber": 74,
		"velocity": 127,
		"subtype": "noteOn",
		"time": 44064,
		"track": 1
	},
	{
		"deltaTime": 0,
		"channel": 1,
		"type": "channel",
		"noteNumber": 38,
		"velocity": 127,
		"subtype": "noteOn",
		"time": 44064,
		"track": 2
	},
	{
		"deltaTime": 94,
		"channel": 1,
		"type": "channel",
		"noteNumber": 50,
		"velocity": 127,
		"subtype": "noteOn",
		"time": 44064,
		"track": 2
	},
	{
		"deltaTime": 0,
		"channel": 0,
		"type": "channel",
		"noteNumber": 74,
		"velocity": 0,
		"subtype": "noteOff",
		"time": 44158,
		"track": 1
	},
	{
		"deltaTime": 0,
		"channel": 1,
		"type": "channel",
		"noteNumber": 38,
		"velocity": 0,
		"subtype": "noteOff",
		"time": 44158,
		"track": 2
	},
	{
		"deltaTime": 2,
		"channel": 1,
		"type": "channel",
		"noteNumber": 50,
		"velocity": 0,
		"subtype": "noteOff",
		"time": 44158,
		"track": 2
	},
	{
		"deltaTime": 0,
		"channel": 0,
		"type": "channel",
		"noteNumber": 76,
		"velocity": 127,
		"subtype": "noteOn",
		"time": 44160,
		"track": 1
	},
	{
		"deltaTime": 0,
		"channel": 1,
		"type": "channel",
		"noteNumber": 38,
		"velocity": 127,
		"subtype": "noteOn",
		"time": 44160,
		"track": 2
	},
	{
		"deltaTime": 94,
		"channel": 1,
		"type": "channel",
		"noteNumber": 50,
		"velocity": 127,
		"subtype": "noteOn",
		"time": 44160,
		"track": 2
	},
	{
		"deltaTime": 0,
		"channel": 0,
		"type": "channel",
		"noteNumber": 76,
		"velocity": 0,
		"subtype": "noteOff",
		"time": 44254,
		"track": 1
	},
	{
		"deltaTime": 0,
		"channel": 1,
		"type": "channel",
		"noteNumber": 38,
		"velocity": 0,
		"subtype": "noteOff",
		"time": 44254,
		"track": 2
	},
	{
		"deltaTime": 2,
		"channel": 1,
		"type": "channel",
		"noteNumber": 50,
		"velocity": 0,
		"subtype": "noteOff",
		"time": 44254,
		"track": 2
	},
	{
		"deltaTime": 0,
		"channel": 0,
		"type": "channel",
		"noteNumber": 77,
		"velocity": 127,
		"subtype": "noteOn",
		"time": 44256,
		"track": 1
	},
	{
		"deltaTime": 0,
		"channel": 1,
		"type": "channel",
		"noteNumber": 38,
		"velocity": 127,
		"subtype": "noteOn",
		"time": 44256,
		"track": 2
	},
	{
		"deltaTime": 94,
		"channel": 1,
		"type": "channel",
		"noteNumber": 50,
		"velocity": 127,
		"subtype": "noteOn",
		"time": 44256,
		"track": 2
	},
	{
		"deltaTime": 0,
		"channel": 0,
		"type": "channel",
		"noteNumber": 77,
		"velocity": 0,
		"subtype": "noteOff",
		"time": 44350,
		"track": 1
	},
	{
		"deltaTime": 0,
		"channel": 1,
		"type": "channel",
		"noteNumber": 38,
		"velocity": 0,
		"subtype": "noteOff",
		"time": 44350,
		"track": 2
	},
	{
		"deltaTime": 2,
		"channel": 1,
		"type": "channel",
		"noteNumber": 50,
		"velocity": 0,
		"subtype": "noteOff",
		"time": 44350,
		"track": 2
	},
	{
		"deltaTime": 0,
		"channel": 0,
		"type": "channel",
		"subtype": "controller",
		"controllerType": 64,
		"value": 0,
		"time": 44352,
		"track": 1
	},
	{
		"deltaTime": 0,
		"channel": 0,
		"type": "channel",
		"subtype": "controller",
		"controllerType": 64,
		"value": 127,
		"time": 44352,
		"track": 1
	},
	{
		"deltaTime": 0,
		"channel": 0,
		"type": "channel",
		"noteNumber": 74,
		"velocity": 127,
		"subtype": "noteOn",
		"time": 44352,
		"track": 1
	},
	{
		"deltaTime": 0,
		"channel": 0,
		"type": "channel",
		"noteNumber": 77,
		"velocity": 127,
		"subtype": "noteOn",
		"time": 44352,
		"track": 1
	},
	{
		"deltaTime": 0,
		"channel": 0,
		"type": "channel",
		"noteNumber": 81,
		"velocity": 127,
		"subtype": "noteOn",
		"time": 44352,
		"track": 1
	},
	{
		"deltaTime": 0,
		"channel": 1,
		"type": "channel",
		"subtype": "controller",
		"controllerType": 64,
		"value": 0,
		"time": 44352,
		"track": 2
	},
	{
		"deltaTime": 0,
		"channel": 1,
		"type": "channel",
		"subtype": "controller",
		"controllerType": 64,
		"value": 127,
		"time": 44352,
		"track": 2
	},
	{
		"deltaTime": 0,
		"channel": 1,
		"type": "channel",
		"noteNumber": 38,
		"velocity": 127,
		"subtype": "noteOn",
		"time": 44352,
		"track": 2
	},
	{
		"deltaTime": 160,
		"channel": 1,
		"type": "channel",
		"noteNumber": 50,
		"velocity": 127,
		"subtype": "noteOn",
		"time": 44352,
		"track": 2
	},
	{
		"deltaTime": 0,
		"channel": 1,
		"type": "channel",
		"noteNumber": 38,
		"velocity": 0,
		"subtype": "noteOff",
		"time": 44512,
		"track": 2
	},
	{
		"deltaTime": 32,
		"channel": 1,
		"type": "channel",
		"noteNumber": 50,
		"velocity": 0,
		"subtype": "noteOff",
		"time": 44512,
		"track": 2
	},
	{
		"deltaTime": 0,
		"channel": 1,
		"type": "channel",
		"noteNumber": 38,
		"velocity": 127,
		"subtype": "noteOn",
		"time": 44544,
		"track": 2
	},
	{
		"deltaTime": 64,
		"channel": 1,
		"type": "channel",
		"noteNumber": 50,
		"velocity": 127,
		"subtype": "noteOn",
		"time": 44544,
		"track": 2
	},
	{
		"deltaTime": 0,
		"channel": 0,
		"type": "channel",
		"noteNumber": 74,
		"velocity": 0,
		"subtype": "noteOff",
		"time": 44608,
		"track": 1
	},
	{
		"deltaTime": 0,
		"channel": 0,
		"type": "channel",
		"noteNumber": 77,
		"velocity": 0,
		"subtype": "noteOff",
		"time": 44608,
		"track": 1
	},
	{
		"deltaTime": 30,
		"channel": 0,
		"type": "channel",
		"noteNumber": 81,
		"velocity": 0,
		"subtype": "noteOff",
		"time": 44608,
		"track": 1
	},
	{
		"deltaTime": 0,
		"channel": 1,
		"type": "channel",
		"noteNumber": 38,
		"velocity": 0,
		"subtype": "noteOff",
		"time": 44638,
		"track": 2
	},
	{
		"deltaTime": 2,
		"channel": 1,
		"type": "channel",
		"noteNumber": 50,
		"velocity": 0,
		"subtype": "noteOff",
		"time": 44638,
		"track": 2
	},
	{
		"deltaTime": 0,
		"channel": 0,
		"type": "channel",
		"noteNumber": 74,
		"velocity": 127,
		"subtype": "noteOn",
		"time": 44640,
		"track": 1
	},
	{
		"deltaTime": 0,
		"channel": 1,
		"type": "channel",
		"noteNumber": 38,
		"velocity": 127,
		"subtype": "noteOn",
		"time": 44640,
		"track": 2
	},
	{
		"deltaTime": 94,
		"channel": 1,
		"type": "channel",
		"noteNumber": 50,
		"velocity": 127,
		"subtype": "noteOn",
		"time": 44640,
		"track": 2
	},
	{
		"deltaTime": 0,
		"channel": 0,
		"type": "channel",
		"noteNumber": 74,
		"velocity": 0,
		"subtype": "noteOff",
		"time": 44734,
		"track": 1
	},
	{
		"deltaTime": 0,
		"channel": 1,
		"type": "channel",
		"noteNumber": 38,
		"velocity": 0,
		"subtype": "noteOff",
		"time": 44734,
		"track": 2
	},
	{
		"deltaTime": 2,
		"channel": 1,
		"type": "channel",
		"noteNumber": 50,
		"velocity": 0,
		"subtype": "noteOff",
		"time": 44734,
		"track": 2
	},
	{
		"deltaTime": 0,
		"channel": 0,
		"type": "channel",
		"noteNumber": 76,
		"velocity": 127,
		"subtype": "noteOn",
		"time": 44736,
		"track": 1
	},
	{
		"deltaTime": 0,
		"channel": 1,
		"type": "channel",
		"noteNumber": 38,
		"velocity": 127,
		"subtype": "noteOn",
		"time": 44736,
		"track": 2
	},
	{
		"deltaTime": 94,
		"channel": 1,
		"type": "channel",
		"noteNumber": 50,
		"velocity": 127,
		"subtype": "noteOn",
		"time": 44736,
		"track": 2
	},
	{
		"deltaTime": 0,
		"channel": 0,
		"type": "channel",
		"noteNumber": 76,
		"velocity": 0,
		"subtype": "noteOff",
		"time": 44830,
		"track": 1
	},
	{
		"deltaTime": 0,
		"channel": 1,
		"type": "channel",
		"noteNumber": 38,
		"velocity": 0,
		"subtype": "noteOff",
		"time": 44830,
		"track": 2
	},
	{
		"deltaTime": 2,
		"channel": 1,
		"type": "channel",
		"noteNumber": 50,
		"velocity": 0,
		"subtype": "noteOff",
		"time": 44830,
		"track": 2
	},
	{
		"deltaTime": 0,
		"channel": 0,
		"type": "channel",
		"noteNumber": 77,
		"velocity": 127,
		"subtype": "noteOn",
		"time": 44832,
		"track": 1
	},
	{
		"deltaTime": 0,
		"channel": 1,
		"type": "channel",
		"noteNumber": 38,
		"velocity": 127,
		"subtype": "noteOn",
		"time": 44832,
		"track": 2
	},
	{
		"deltaTime": 94,
		"channel": 1,
		"type": "channel",
		"noteNumber": 50,
		"velocity": 127,
		"subtype": "noteOn",
		"time": 44832,
		"track": 2
	},
	{
		"deltaTime": 0,
		"channel": 0,
		"type": "channel",
		"noteNumber": 77,
		"velocity": 0,
		"subtype": "noteOff",
		"time": 44926,
		"track": 1
	},
	{
		"deltaTime": 0,
		"channel": 1,
		"type": "channel",
		"noteNumber": 38,
		"velocity": 0,
		"subtype": "noteOff",
		"time": 44926,
		"track": 2
	},
	{
		"deltaTime": 2,
		"channel": 1,
		"type": "channel",
		"noteNumber": 50,
		"velocity": 0,
		"subtype": "noteOff",
		"time": 44926,
		"track": 2
	},
	{
		"deltaTime": 0,
		"channel": 0,
		"type": "channel",
		"subtype": "controller",
		"controllerType": 64,
		"value": 0,
		"time": 44928,
		"track": 1
	},
	{
		"deltaTime": 0,
		"channel": 0,
		"type": "channel",
		"subtype": "controller",
		"controllerType": 64,
		"value": 127,
		"time": 44928,
		"track": 1
	},
	{
		"deltaTime": 0,
		"channel": 0,
		"type": "channel",
		"noteNumber": 74,
		"velocity": 127,
		"subtype": "noteOn",
		"time": 44928,
		"track": 1
	},
	{
		"deltaTime": 0,
		"channel": 0,
		"type": "channel",
		"noteNumber": 77,
		"velocity": 127,
		"subtype": "noteOn",
		"time": 44928,
		"track": 1
	},
	{
		"deltaTime": 0,
		"channel": 0,
		"type": "channel",
		"noteNumber": 82,
		"velocity": 127,
		"subtype": "noteOn",
		"time": 44928,
		"track": 1
	},
	{
		"deltaTime": 0,
		"channel": 1,
		"type": "channel",
		"subtype": "controller",
		"controllerType": 64,
		"value": 0,
		"time": 44928,
		"track": 2
	},
	{
		"deltaTime": 0,
		"channel": 1,
		"type": "channel",
		"subtype": "controller",
		"controllerType": 64,
		"value": 127,
		"time": 44928,
		"track": 2
	},
	{
		"deltaTime": 0,
		"channel": 1,
		"type": "channel",
		"noteNumber": 34,
		"velocity": 127,
		"subtype": "noteOn",
		"time": 44928,
		"track": 2
	},
	{
		"deltaTime": 160,
		"channel": 1,
		"type": "channel",
		"noteNumber": 46,
		"velocity": 127,
		"subtype": "noteOn",
		"time": 44928,
		"track": 2
	},
	{
		"deltaTime": 0,
		"channel": 1,
		"type": "channel",
		"noteNumber": 34,
		"velocity": 0,
		"subtype": "noteOff",
		"time": 45088,
		"track": 2
	},
	{
		"deltaTime": 32,
		"channel": 1,
		"type": "channel",
		"noteNumber": 46,
		"velocity": 0,
		"subtype": "noteOff",
		"time": 45088,
		"track": 2
	},
	{
		"deltaTime": 0,
		"channel": 1,
		"type": "channel",
		"noteNumber": 34,
		"velocity": 127,
		"subtype": "noteOn",
		"time": 45120,
		"track": 2
	},
	{
		"deltaTime": 64,
		"channel": 1,
		"type": "channel",
		"noteNumber": 46,
		"velocity": 127,
		"subtype": "noteOn",
		"time": 45120,
		"track": 2
	},
	{
		"deltaTime": 0,
		"channel": 0,
		"type": "channel",
		"noteNumber": 74,
		"velocity": 0,
		"subtype": "noteOff",
		"time": 45184,
		"track": 1
	},
	{
		"deltaTime": 0,
		"channel": 0,
		"type": "channel",
		"noteNumber": 77,
		"velocity": 0,
		"subtype": "noteOff",
		"time": 45184,
		"track": 1
	},
	{
		"deltaTime": 30,
		"channel": 0,
		"type": "channel",
		"noteNumber": 82,
		"velocity": 0,
		"subtype": "noteOff",
		"time": 45184,
		"track": 1
	},
	{
		"deltaTime": 0,
		"channel": 1,
		"type": "channel",
		"noteNumber": 34,
		"velocity": 0,
		"subtype": "noteOff",
		"time": 45214,
		"track": 2
	},
	{
		"deltaTime": 2,
		"channel": 1,
		"type": "channel",
		"noteNumber": 46,
		"velocity": 0,
		"subtype": "noteOff",
		"time": 45214,
		"track": 2
	},
	{
		"deltaTime": 0,
		"channel": 0,
		"type": "channel",
		"noteNumber": 74,
		"velocity": 127,
		"subtype": "noteOn",
		"time": 45216,
		"track": 1
	},
	{
		"deltaTime": 0,
		"channel": 1,
		"type": "channel",
		"noteNumber": 34,
		"velocity": 127,
		"subtype": "noteOn",
		"time": 45216,
		"track": 2
	},
	{
		"deltaTime": 94,
		"channel": 1,
		"type": "channel",
		"noteNumber": 46,
		"velocity": 127,
		"subtype": "noteOn",
		"time": 45216,
		"track": 2
	},
	{
		"deltaTime": 0,
		"channel": 0,
		"type": "channel",
		"noteNumber": 74,
		"velocity": 0,
		"subtype": "noteOff",
		"time": 45310,
		"track": 1
	},
	{
		"deltaTime": 0,
		"channel": 1,
		"type": "channel",
		"noteNumber": 34,
		"velocity": 0,
		"subtype": "noteOff",
		"time": 45310,
		"track": 2
	},
	{
		"deltaTime": 2,
		"channel": 1,
		"type": "channel",
		"noteNumber": 46,
		"velocity": 0,
		"subtype": "noteOff",
		"time": 45310,
		"track": 2
	},
	{
		"deltaTime": 0,
		"channel": 0,
		"type": "channel",
		"noteNumber": 76,
		"velocity": 127,
		"subtype": "noteOn",
		"time": 45312,
		"track": 1
	},
	{
		"deltaTime": 0,
		"channel": 1,
		"type": "channel",
		"noteNumber": 34,
		"velocity": 127,
		"subtype": "noteOn",
		"time": 45312,
		"track": 2
	},
	{
		"deltaTime": 94,
		"channel": 1,
		"type": "channel",
		"noteNumber": 46,
		"velocity": 127,
		"subtype": "noteOn",
		"time": 45312,
		"track": 2
	},
	{
		"deltaTime": 0,
		"channel": 0,
		"type": "channel",
		"noteNumber": 76,
		"velocity": 0,
		"subtype": "noteOff",
		"time": 45406,
		"track": 1
	},
	{
		"deltaTime": 0,
		"channel": 1,
		"type": "channel",
		"noteNumber": 34,
		"velocity": 0,
		"subtype": "noteOff",
		"time": 45406,
		"track": 2
	},
	{
		"deltaTime": 2,
		"channel": 1,
		"type": "channel",
		"noteNumber": 46,
		"velocity": 0,
		"subtype": "noteOff",
		"time": 45406,
		"track": 2
	},
	{
		"deltaTime": 0,
		"channel": 0,
		"type": "channel",
		"noteNumber": 77,
		"velocity": 127,
		"subtype": "noteOn",
		"time": 45408,
		"track": 1
	},
	{
		"deltaTime": 0,
		"channel": 1,
		"type": "channel",
		"noteNumber": 34,
		"velocity": 127,
		"subtype": "noteOn",
		"time": 45408,
		"track": 2
	},
	{
		"deltaTime": 94,
		"channel": 1,
		"type": "channel",
		"noteNumber": 46,
		"velocity": 127,
		"subtype": "noteOn",
		"time": 45408,
		"track": 2
	},
	{
		"deltaTime": 0,
		"channel": 0,
		"type": "channel",
		"noteNumber": 77,
		"velocity": 0,
		"subtype": "noteOff",
		"time": 45502,
		"track": 1
	},
	{
		"deltaTime": 0,
		"channel": 1,
		"type": "channel",
		"noteNumber": 34,
		"velocity": 0,
		"subtype": "noteOff",
		"time": 45502,
		"track": 2
	},
	{
		"deltaTime": 2,
		"channel": 1,
		"type": "channel",
		"noteNumber": 46,
		"velocity": 0,
		"subtype": "noteOff",
		"time": 45502,
		"track": 2
	},
	{
		"deltaTime": 0,
		"channel": 0,
		"type": "channel",
		"subtype": "controller",
		"controllerType": 64,
		"value": 0,
		"time": 45504,
		"track": 1
	},
	{
		"deltaTime": 0,
		"channel": 0,
		"type": "channel",
		"subtype": "controller",
		"controllerType": 64,
		"value": 127,
		"time": 45504,
		"track": 1
	},
	{
		"deltaTime": 0,
		"channel": 0,
		"type": "channel",
		"noteNumber": 72,
		"velocity": 127,
		"subtype": "noteOn",
		"time": 45504,
		"track": 1
	},
	{
		"deltaTime": 0,
		"channel": 0,
		"type": "channel",
		"noteNumber": 77,
		"velocity": 127,
		"subtype": "noteOn",
		"time": 45504,
		"track": 1
	},
	{
		"deltaTime": 0,
		"channel": 0,
		"type": "channel",
		"noteNumber": 81,
		"velocity": 127,
		"subtype": "noteOn",
		"time": 45504,
		"track": 1
	},
	{
		"deltaTime": 0,
		"channel": 1,
		"type": "channel",
		"subtype": "controller",
		"controllerType": 64,
		"value": 0,
		"time": 45504,
		"track": 2
	},
	{
		"deltaTime": 0,
		"channel": 1,
		"type": "channel",
		"subtype": "controller",
		"controllerType": 64,
		"value": 127,
		"time": 45504,
		"track": 2
	},
	{
		"deltaTime": 0,
		"channel": 1,
		"type": "channel",
		"noteNumber": 41,
		"velocity": 127,
		"subtype": "noteOn",
		"time": 45504,
		"track": 2
	},
	{
		"deltaTime": 160,
		"channel": 1,
		"type": "channel",
		"noteNumber": 53,
		"velocity": 127,
		"subtype": "noteOn",
		"time": 45504,
		"track": 2
	},
	{
		"deltaTime": 0,
		"channel": 0,
		"type": "channel",
		"noteNumber": 72,
		"velocity": 0,
		"subtype": "noteOff",
		"time": 45664,
		"track": 1
	},
	{
		"deltaTime": 0,
		"channel": 0,
		"type": "channel",
		"noteNumber": 77,
		"velocity": 0,
		"subtype": "noteOff",
		"time": 45664,
		"track": 1
	},
	{
		"deltaTime": 0,
		"channel": 0,
		"type": "channel",
		"noteNumber": 81,
		"velocity": 0,
		"subtype": "noteOff",
		"time": 45664,
		"track": 1
	},
	{
		"deltaTime": 0,
		"channel": 1,
		"type": "channel",
		"noteNumber": 41,
		"velocity": 0,
		"subtype": "noteOff",
		"time": 45664,
		"track": 2
	},
	{
		"deltaTime": 32,
		"channel": 1,
		"type": "channel",
		"noteNumber": 53,
		"velocity": 0,
		"subtype": "noteOff",
		"time": 45664,
		"track": 2
	},
	{
		"deltaTime": 0,
		"channel": 0,
		"type": "channel",
		"noteNumber": 72,
		"velocity": 127,
		"subtype": "noteOn",
		"time": 45696,
		"track": 1
	},
	{
		"deltaTime": 0,
		"channel": 0,
		"type": "channel",
		"noteNumber": 77,
		"velocity": 127,
		"subtype": "noteOn",
		"time": 45696,
		"track": 1
	},
	{
		"deltaTime": 0,
		"channel": 0,
		"type": "channel",
		"noteNumber": 81,
		"velocity": 127,
		"subtype": "noteOn",
		"time": 45696,
		"track": 1
	},
	{
		"deltaTime": 0,
		"channel": 1,
		"type": "channel",
		"noteNumber": 41,
		"velocity": 127,
		"subtype": "noteOn",
		"time": 45696,
		"track": 2
	},
	{
		"deltaTime": 94,
		"channel": 1,
		"type": "channel",
		"noteNumber": 53,
		"velocity": 127,
		"subtype": "noteOn",
		"time": 45696,
		"track": 2
	},
	{
		"deltaTime": 0,
		"channel": 1,
		"type": "channel",
		"noteNumber": 41,
		"velocity": 0,
		"subtype": "noteOff",
		"time": 45790,
		"track": 2
	},
	{
		"deltaTime": 2,
		"channel": 1,
		"type": "channel",
		"noteNumber": 53,
		"velocity": 0,
		"subtype": "noteOff",
		"time": 45790,
		"track": 2
	},
	{
		"deltaTime": 0,
		"channel": 1,
		"type": "channel",
		"noteNumber": 41,
		"velocity": 127,
		"subtype": "noteOn",
		"time": 45792,
		"track": 2
	},
	{
		"deltaTime": 64,
		"channel": 1,
		"type": "channel",
		"noteNumber": 53,
		"velocity": 127,
		"subtype": "noteOn",
		"time": 45792,
		"track": 2
	},
	{
		"deltaTime": 0,
		"channel": 0,
		"type": "channel",
		"noteNumber": 72,
		"velocity": 0,
		"subtype": "noteOff",
		"time": 45856,
		"track": 1
	},
	{
		"deltaTime": 0,
		"channel": 0,
		"type": "channel",
		"noteNumber": 77,
		"velocity": 0,
		"subtype": "noteOff",
		"time": 45856,
		"track": 1
	},
	{
		"deltaTime": 30,
		"channel": 0,
		"type": "channel",
		"noteNumber": 81,
		"velocity": 0,
		"subtype": "noteOff",
		"time": 45856,
		"track": 1
	},
	{
		"deltaTime": 0,
		"channel": 1,
		"type": "channel",
		"noteNumber": 41,
		"velocity": 0,
		"subtype": "noteOff",
		"time": 45886,
		"track": 2
	},
	{
		"deltaTime": 2,
		"channel": 1,
		"type": "channel",
		"noteNumber": 53,
		"velocity": 0,
		"subtype": "noteOff",
		"time": 45886,
		"track": 2
	},
	{
		"deltaTime": 0,
		"channel": 0,
		"type": "channel",
		"noteNumber": 77,
		"velocity": 127,
		"subtype": "noteOn",
		"time": 45888,
		"track": 1
	},
	{
		"deltaTime": 0,
		"channel": 0,
		"type": "channel",
		"noteNumber": 84,
		"velocity": 127,
		"subtype": "noteOn",
		"time": 45888,
		"track": 1
	},
	{
		"deltaTime": 0,
		"channel": 1,
		"type": "channel",
		"noteNumber": 41,
		"velocity": 127,
		"subtype": "noteOn",
		"time": 45888,
		"track": 2
	},
	{
		"deltaTime": 94,
		"channel": 1,
		"type": "channel",
		"noteNumber": 53,
		"velocity": 127,
		"subtype": "noteOn",
		"time": 45888,
		"track": 2
	},
	{
		"deltaTime": 0,
		"channel": 1,
		"type": "channel",
		"noteNumber": 41,
		"velocity": 0,
		"subtype": "noteOff",
		"time": 45982,
		"track": 2
	},
	{
		"deltaTime": 2,
		"channel": 1,
		"type": "channel",
		"noteNumber": 53,
		"velocity": 0,
		"subtype": "noteOff",
		"time": 45982,
		"track": 2
	},
	{
		"deltaTime": 0,
		"channel": 1,
		"type": "channel",
		"noteNumber": 41,
		"velocity": 127,
		"subtype": "noteOn",
		"time": 45984,
		"track": 2
	},
	{
		"deltaTime": 64,
		"channel": 1,
		"type": "channel",
		"noteNumber": 53,
		"velocity": 127,
		"subtype": "noteOn",
		"time": 45984,
		"track": 2
	},
	{
		"deltaTime": 0,
		"channel": 0,
		"type": "channel",
		"noteNumber": 77,
		"velocity": 0,
		"subtype": "noteOff",
		"time": 46048,
		"track": 1
	},
	{
		"deltaTime": 30,
		"channel": 0,
		"type": "channel",
		"noteNumber": 84,
		"velocity": 0,
		"subtype": "noteOff",
		"time": 46048,
		"track": 1
	},
	{
		"deltaTime": 0,
		"channel": 1,
		"type": "channel",
		"noteNumber": 41,
		"velocity": 0,
		"subtype": "noteOff",
		"time": 46078,
		"track": 2
	},
	{
		"deltaTime": 2,
		"channel": 1,
		"type": "channel",
		"noteNumber": 53,
		"velocity": 0,
		"subtype": "noteOff",
		"time": 46078,
		"track": 2
	},
	{
		"deltaTime": 0,
		"channel": 0,
		"type": "channel",
		"subtype": "controller",
		"controllerType": 64,
		"value": 0,
		"time": 46080,
		"track": 1
	},
	{
		"deltaTime": 0,
		"channel": 0,
		"type": "channel",
		"subtype": "controller",
		"controllerType": 64,
		"value": 127,
		"time": 46080,
		"track": 1
	},
	{
		"deltaTime": 0,
		"channel": 0,
		"type": "channel",
		"noteNumber": 72,
		"velocity": 127,
		"subtype": "noteOn",
		"time": 46080,
		"track": 1
	},
	{
		"deltaTime": 0,
		"channel": 0,
		"type": "channel",
		"noteNumber": 76,
		"velocity": 127,
		"subtype": "noteOn",
		"time": 46080,
		"track": 1
	},
	{
		"deltaTime": 0,
		"channel": 0,
		"type": "channel",
		"noteNumber": 81,
		"velocity": 127,
		"subtype": "noteOn",
		"time": 46080,
		"track": 1
	},
	{
		"deltaTime": 0,
		"channel": 1,
		"type": "channel",
		"subtype": "controller",
		"controllerType": 64,
		"value": 0,
		"time": 46080,
		"track": 2
	},
	{
		"deltaTime": 0,
		"channel": 1,
		"type": "channel",
		"subtype": "controller",
		"controllerType": 64,
		"value": 127,
		"time": 46080,
		"track": 2
	},
	{
		"deltaTime": 0,
		"channel": 1,
		"type": "channel",
		"noteNumber": 36,
		"velocity": 127,
		"subtype": "noteOn",
		"time": 46080,
		"track": 2
	},
	{
		"deltaTime": 94,
		"channel": 1,
		"type": "channel",
		"noteNumber": 48,
		"velocity": 127,
		"subtype": "noteOn",
		"time": 46080,
		"track": 2
	},
	{
		"deltaTime": 0,
		"channel": 0,
		"type": "channel",
		"noteNumber": 72,
		"velocity": 0,
		"subtype": "noteOff",
		"time": 46174,
		"track": 1
	},
	{
		"deltaTime": 0,
		"channel": 0,
		"type": "channel",
		"noteNumber": 76,
		"velocity": 0,
		"subtype": "noteOff",
		"time": 46174,
		"track": 1
	},
	{
		"deltaTime": 2,
		"channel": 0,
		"type": "channel",
		"noteNumber": 81,
		"velocity": 0,
		"subtype": "noteOff",
		"time": 46174,
		"track": 1
	},
	{
		"deltaTime": 64,
		"channel": 0,
		"type": "channel",
		"noteNumber": 79,
		"velocity": 127,
		"subtype": "noteOn",
		"time": 46176,
		"track": 1
	},
	{
		"deltaTime": 0,
		"channel": 1,
		"type": "channel",
		"noteNumber": 36,
		"velocity": 0,
		"subtype": "noteOff",
		"time": 46240,
		"track": 2
	},
	{
		"deltaTime": 30,
		"channel": 1,
		"type": "channel",
		"noteNumber": 48,
		"velocity": 0,
		"subtype": "noteOff",
		"time": 46240,
		"track": 2
	},
	{
		"deltaTime": 2,
		"channel": 0,
		"type": "channel",
		"noteNumber": 79,
		"velocity": 0,
		"subtype": "noteOff",
		"time": 46270,
		"track": 1
	},
	{
		"deltaTime": 0,
		"channel": 1,
		"type": "channel",
		"noteNumber": 36,
		"velocity": 127,
		"subtype": "noteOn",
		"time": 46272,
		"track": 2
	},
	{
		"deltaTime": 94,
		"channel": 1,
		"type": "channel",
		"noteNumber": 48,
		"velocity": 127,
		"subtype": "noteOn",
		"time": 46272,
		"track": 2
	},
	{
		"deltaTime": 0,
		"channel": 1,
		"type": "channel",
		"noteNumber": 36,
		"velocity": 0,
		"subtype": "noteOff",
		"time": 46366,
		"track": 2
	},
	{
		"deltaTime": 2,
		"channel": 1,
		"type": "channel",
		"noteNumber": 48,
		"velocity": 0,
		"subtype": "noteOff",
		"time": 46366,
		"track": 2
	},
	{
		"deltaTime": 0,
		"channel": 1,
		"type": "channel",
		"noteNumber": 36,
		"velocity": 127,
		"subtype": "noteOn",
		"time": 46368,
		"track": 2
	},
	{
		"deltaTime": 94,
		"channel": 1,
		"type": "channel",
		"noteNumber": 48,
		"velocity": 127,
		"subtype": "noteOn",
		"time": 46368,
		"track": 2
	},
	{
		"deltaTime": 0,
		"channel": 1,
		"type": "channel",
		"noteNumber": 36,
		"velocity": 0,
		"subtype": "noteOff",
		"time": 46462,
		"track": 2
	},
	{
		"deltaTime": 2,
		"channel": 1,
		"type": "channel",
		"noteNumber": 48,
		"velocity": 0,
		"subtype": "noteOff",
		"time": 46462,
		"track": 2
	},
	{
		"deltaTime": 0,
		"channel": 1,
		"type": "channel",
		"noteNumber": 36,
		"velocity": 127,
		"subtype": "noteOn",
		"time": 46464,
		"track": 2
	},
	{
		"deltaTime": 94,
		"channel": 1,
		"type": "channel",
		"noteNumber": 48,
		"velocity": 127,
		"subtype": "noteOn",
		"time": 46464,
		"track": 2
	},
	{
		"deltaTime": 0,
		"channel": 1,
		"type": "channel",
		"noteNumber": 36,
		"velocity": 0,
		"subtype": "noteOff",
		"time": 46558,
		"track": 2
	},
	{
		"deltaTime": 2,
		"channel": 1,
		"type": "channel",
		"noteNumber": 48,
		"velocity": 0,
		"subtype": "noteOff",
		"time": 46558,
		"track": 2
	},
	{
		"deltaTime": 0,
		"channel": 1,
		"type": "channel",
		"noteNumber": 36,
		"velocity": 127,
		"subtype": "noteOn",
		"time": 46560,
		"track": 2
	},
	{
		"deltaTime": 94,
		"channel": 1,
		"type": "channel",
		"noteNumber": 48,
		"velocity": 127,
		"subtype": "noteOn",
		"time": 46560,
		"track": 2
	},
	{
		"deltaTime": 0,
		"channel": 1,
		"type": "channel",
		"noteNumber": 36,
		"velocity": 0,
		"subtype": "noteOff",
		"time": 46654,
		"track": 2
	},
	{
		"deltaTime": 2,
		"channel": 1,
		"type": "channel",
		"noteNumber": 48,
		"velocity": 0,
		"subtype": "noteOff",
		"time": 46654,
		"track": 2
	},
	{
		"deltaTime": 0,
		"channel": 0,
		"type": "channel",
		"subtype": "controller",
		"controllerType": 64,
		"value": 0,
		"time": 46656,
		"track": 1
	},
	{
		"deltaTime": 0,
		"channel": 0,
		"type": "channel",
		"subtype": "controller",
		"controllerType": 64,
		"value": 127,
		"time": 46656,
		"track": 1
	},
	{
		"deltaTime": 0,
		"channel": 0,
		"type": "channel",
		"noteNumber": 70,
		"velocity": 127,
		"subtype": "noteOn",
		"time": 46656,
		"track": 1
	},
	{
		"deltaTime": 0,
		"channel": 0,
		"type": "channel",
		"noteNumber": 74,
		"velocity": 127,
		"subtype": "noteOn",
		"time": 46656,
		"track": 1
	},
	{
		"deltaTime": 0,
		"channel": 0,
		"type": "channel",
		"noteNumber": 79,
		"velocity": 127,
		"subtype": "noteOn",
		"time": 46656,
		"track": 1
	},
	{
		"deltaTime": 0,
		"channel": 1,
		"type": "channel",
		"subtype": "controller",
		"controllerType": 64,
		"value": 0,
		"time": 46656,
		"track": 2
	},
	{
		"deltaTime": 0,
		"channel": 1,
		"type": "channel",
		"subtype": "controller",
		"controllerType": 64,
		"value": 127,
		"time": 46656,
		"track": 2
	},
	{
		"deltaTime": 0,
		"channel": 1,
		"type": "channel",
		"noteNumber": 31,
		"velocity": 127,
		"subtype": "noteOn",
		"time": 46656,
		"track": 2
	},
	{
		"deltaTime": 160,
		"channel": 1,
		"type": "channel",
		"noteNumber": 43,
		"velocity": 127,
		"subtype": "noteOn",
		"time": 46656,
		"track": 2
	},
	{
		"deltaTime": 0,
		"channel": 0,
		"type": "channel",
		"noteNumber": 70,
		"velocity": 0,
		"subtype": "noteOff",
		"time": 46816,
		"track": 1
	},
	{
		"deltaTime": 0,
		"channel": 0,
		"type": "channel",
		"noteNumber": 74,
		"velocity": 0,
		"subtype": "noteOff",
		"time": 46816,
		"track": 1
	},
	{
		"deltaTime": 0,
		"channel": 0,
		"type": "channel",
		"noteNumber": 79,
		"velocity": 0,
		"subtype": "noteOff",
		"time": 46816,
		"track": 1
	},
	{
		"deltaTime": 0,
		"channel": 1,
		"type": "channel",
		"noteNumber": 31,
		"velocity": 0,
		"subtype": "noteOff",
		"time": 46816,
		"track": 2
	},
	{
		"deltaTime": 32,
		"channel": 1,
		"type": "channel",
		"noteNumber": 43,
		"velocity": 0,
		"subtype": "noteOff",
		"time": 46816,
		"track": 2
	},
	{
		"deltaTime": 0,
		"channel": 1,
		"type": "channel",
		"noteNumber": 31,
		"velocity": 127,
		"subtype": "noteOn",
		"time": 46848,
		"track": 2
	},
	{
		"deltaTime": 94,
		"channel": 1,
		"type": "channel",
		"noteNumber": 43,
		"velocity": 127,
		"subtype": "noteOn",
		"time": 46848,
		"track": 2
	},
	{
		"deltaTime": 0,
		"channel": 1,
		"type": "channel",
		"noteNumber": 31,
		"velocity": 0,
		"subtype": "noteOff",
		"time": 46942,
		"track": 2
	},
	{
		"deltaTime": 2,
		"channel": 1,
		"type": "channel",
		"noteNumber": 43,
		"velocity": 0,
		"subtype": "noteOff",
		"time": 46942,
		"track": 2
	},
	{
		"deltaTime": 0,
		"channel": 1,
		"type": "channel",
		"noteNumber": 31,
		"velocity": 127,
		"subtype": "noteOn",
		"time": 46944,
		"track": 2
	},
	{
		"deltaTime": 94,
		"channel": 1,
		"type": "channel",
		"noteNumber": 43,
		"velocity": 127,
		"subtype": "noteOn",
		"time": 46944,
		"track": 2
	},
	{
		"deltaTime": 0,
		"channel": 1,
		"type": "channel",
		"noteNumber": 31,
		"velocity": 0,
		"subtype": "noteOff",
		"time": 47038,
		"track": 2
	},
	{
		"deltaTime": 2,
		"channel": 1,
		"type": "channel",
		"noteNumber": 43,
		"velocity": 0,
		"subtype": "noteOff",
		"time": 47038,
		"track": 2
	},
	{
		"deltaTime": 0,
		"channel": 1,
		"type": "channel",
		"noteNumber": 31,
		"velocity": 127,
		"subtype": "noteOn",
		"time": 47040,
		"track": 2
	},
	{
		"deltaTime": 94,
		"channel": 1,
		"type": "channel",
		"noteNumber": 43,
		"velocity": 127,
		"subtype": "noteOn",
		"time": 47040,
		"track": 2
	},
	{
		"deltaTime": 0,
		"channel": 1,
		"type": "channel",
		"noteNumber": 31,
		"velocity": 0,
		"subtype": "noteOff",
		"time": 47134,
		"track": 2
	},
	{
		"deltaTime": 2,
		"channel": 1,
		"type": "channel",
		"noteNumber": 43,
		"velocity": 0,
		"subtype": "noteOff",
		"time": 47134,
		"track": 2
	},
	{
		"deltaTime": 0,
		"channel": 1,
		"type": "channel",
		"noteNumber": 31,
		"velocity": 127,
		"subtype": "noteOn",
		"time": 47136,
		"track": 2
	},
	{
		"deltaTime": 94,
		"channel": 1,
		"type": "channel",
		"noteNumber": 43,
		"velocity": 127,
		"subtype": "noteOn",
		"time": 47136,
		"track": 2
	},
	{
		"deltaTime": 0,
		"channel": 1,
		"type": "channel",
		"noteNumber": 31,
		"velocity": 0,
		"subtype": "noteOff",
		"time": 47230,
		"track": 2
	},
	{
		"deltaTime": 2,
		"channel": 1,
		"type": "channel",
		"noteNumber": 43,
		"velocity": 0,
		"subtype": "noteOff",
		"time": 47230,
		"track": 2
	},
	{
		"deltaTime": 0,
		"channel": 0,
		"type": "channel",
		"subtype": "controller",
		"controllerType": 64,
		"value": 0,
		"time": 47232,
		"track": 1
	},
	{
		"deltaTime": 0,
		"channel": 0,
		"type": "channel",
		"subtype": "controller",
		"controllerType": 64,
		"value": 127,
		"time": 47232,
		"track": 1
	},
	{
		"deltaTime": 0,
		"channel": 0,
		"type": "channel",
		"noteNumber": 69,
		"velocity": 127,
		"subtype": "noteOn",
		"time": 47232,
		"track": 1
	},
	{
		"deltaTime": 0,
		"channel": 0,
		"type": "channel",
		"noteNumber": 74,
		"velocity": 127,
		"subtype": "noteOn",
		"time": 47232,
		"track": 1
	},
	{
		"deltaTime": 0,
		"channel": 0,
		"type": "channel",
		"noteNumber": 77,
		"velocity": 127,
		"subtype": "noteOn",
		"time": 47232,
		"track": 1
	},
	{
		"deltaTime": 0,
		"channel": 1,
		"type": "channel",
		"subtype": "controller",
		"controllerType": 64,
		"value": 0,
		"time": 47232,
		"track": 2
	},
	{
		"deltaTime": 0,
		"channel": 1,
		"type": "channel",
		"subtype": "controller",
		"controllerType": 64,
		"value": 127,
		"time": 47232,
		"track": 2
	},
	{
		"deltaTime": 0,
		"channel": 1,
		"type": "channel",
		"noteNumber": 33,
		"velocity": 127,
		"subtype": "noteOn",
		"time": 47232,
		"track": 2
	},
	{
		"deltaTime": 160,
		"channel": 1,
		"type": "channel",
		"noteNumber": 45,
		"velocity": 127,
		"subtype": "noteOn",
		"time": 47232,
		"track": 2
	},
	{
		"deltaTime": 0,
		"channel": 0,
		"type": "channel",
		"noteNumber": 69,
		"velocity": 0,
		"subtype": "noteOff",
		"time": 47392,
		"track": 1
	},
	{
		"deltaTime": 0,
		"channel": 0,
		"type": "channel",
		"noteNumber": 74,
		"velocity": 0,
		"subtype": "noteOff",
		"time": 47392,
		"track": 1
	},
	{
		"deltaTime": 0,
		"channel": 0,
		"type": "channel",
		"noteNumber": 77,
		"velocity": 0,
		"subtype": "noteOff",
		"time": 47392,
		"track": 1
	},
	{
		"deltaTime": 0,
		"channel": 1,
		"type": "channel",
		"noteNumber": 33,
		"velocity": 0,
		"subtype": "noteOff",
		"time": 47392,
		"track": 2
	},
	{
		"deltaTime": 32,
		"channel": 1,
		"type": "channel",
		"noteNumber": 45,
		"velocity": 0,
		"subtype": "noteOff",
		"time": 47392,
		"track": 2
	},
	{
		"deltaTime": 0,
		"channel": 1,
		"type": "channel",
		"noteNumber": 33,
		"velocity": 127,
		"subtype": "noteOn",
		"time": 47424,
		"track": 2
	},
	{
		"deltaTime": 94,
		"channel": 1,
		"type": "channel",
		"noteNumber": 45,
		"velocity": 127,
		"subtype": "noteOn",
		"time": 47424,
		"track": 2
	},
	{
		"deltaTime": 0,
		"channel": 1,
		"type": "channel",
		"noteNumber": 33,
		"velocity": 0,
		"subtype": "noteOff",
		"time": 47518,
		"track": 2
	},
	{
		"deltaTime": 2,
		"channel": 1,
		"type": "channel",
		"noteNumber": 45,
		"velocity": 0,
		"subtype": "noteOff",
		"time": 47518,
		"track": 2
	},
	{
		"deltaTime": 0,
		"channel": 1,
		"type": "channel",
		"noteNumber": 33,
		"velocity": 127,
		"subtype": "noteOn",
		"time": 47520,
		"track": 2
	},
	{
		"deltaTime": 94,
		"channel": 1,
		"type": "channel",
		"noteNumber": 45,
		"velocity": 127,
		"subtype": "noteOn",
		"time": 47520,
		"track": 2
	},
	{
		"deltaTime": 0,
		"channel": 1,
		"type": "channel",
		"noteNumber": 33,
		"velocity": 0,
		"subtype": "noteOff",
		"time": 47614,
		"track": 2
	},
	{
		"deltaTime": 2,
		"channel": 1,
		"type": "channel",
		"noteNumber": 45,
		"velocity": 0,
		"subtype": "noteOff",
		"time": 47614,
		"track": 2
	},
	{
		"deltaTime": 0,
		"channel": 1,
		"type": "channel",
		"noteNumber": 33,
		"velocity": 127,
		"subtype": "noteOn",
		"time": 47616,
		"track": 2
	},
	{
		"deltaTime": 94,
		"channel": 1,
		"type": "channel",
		"noteNumber": 45,
		"velocity": 127,
		"subtype": "noteOn",
		"time": 47616,
		"track": 2
	},
	{
		"deltaTime": 0,
		"channel": 1,
		"type": "channel",
		"noteNumber": 33,
		"velocity": 0,
		"subtype": "noteOff",
		"time": 47710,
		"track": 2
	},
	{
		"deltaTime": 2,
		"channel": 1,
		"type": "channel",
		"noteNumber": 45,
		"velocity": 0,
		"subtype": "noteOff",
		"time": 47710,
		"track": 2
	},
	{
		"deltaTime": 0,
		"channel": 1,
		"type": "channel",
		"noteNumber": 33,
		"velocity": 127,
		"subtype": "noteOn",
		"time": 47712,
		"track": 2
	},
	{
		"deltaTime": 94,
		"channel": 1,
		"type": "channel",
		"noteNumber": 45,
		"velocity": 127,
		"subtype": "noteOn",
		"time": 47712,
		"track": 2
	},
	{
		"deltaTime": 0,
		"channel": 1,
		"type": "channel",
		"noteNumber": 33,
		"velocity": 0,
		"subtype": "noteOff",
		"time": 47806,
		"track": 2
	},
	{
		"deltaTime": 2,
		"channel": 1,
		"type": "channel",
		"noteNumber": 45,
		"velocity": 0,
		"subtype": "noteOff",
		"time": 47806,
		"track": 2
	},
	{
		"deltaTime": 0,
		"channel": 0,
		"type": "channel",
		"subtype": "controller",
		"controllerType": 64,
		"value": 0,
		"time": 47808,
		"track": 1
	},
	{
		"deltaTime": 0,
		"channel": 0,
		"type": "channel",
		"subtype": "controller",
		"controllerType": 64,
		"value": 127,
		"time": 47808,
		"track": 1
	},
	{
		"deltaTime": 0,
		"channel": 0,
		"type": "channel",
		"noteNumber": 69,
		"velocity": 127,
		"subtype": "noteOn",
		"time": 47808,
		"track": 1
	},
	{
		"deltaTime": 0,
		"channel": 0,
		"type": "channel",
		"noteNumber": 77,
		"velocity": 127,
		"subtype": "noteOn",
		"time": 47808,
		"track": 1
	},
	{
		"deltaTime": 0,
		"channel": 1,
		"type": "channel",
		"noteNumber": 33,
		"velocity": 127,
		"subtype": "noteOn",
		"time": 47808,
		"track": 2
	},
	{
		"deltaTime": 160,
		"channel": 1,
		"type": "channel",
		"noteNumber": 45,
		"velocity": 127,
		"subtype": "noteOn",
		"time": 47808,
		"track": 2
	},
	{
		"deltaTime": 0,
		"channel": 0,
		"type": "channel",
		"noteNumber": 69,
		"velocity": 0,
		"subtype": "noteOff",
		"time": 47968,
		"track": 1
	},
	{
		"deltaTime": 0,
		"channel": 0,
		"type": "channel",
		"noteNumber": 77,
		"velocity": 0,
		"subtype": "noteOff",
		"time": 47968,
		"track": 1
	},
	{
		"deltaTime": 0,
		"channel": 1,
		"type": "channel",
		"noteNumber": 33,
		"velocity": 0,
		"subtype": "noteOff",
		"time": 47968,
		"track": 2
	},
	{
		"deltaTime": 32,
		"channel": 1,
		"type": "channel",
		"noteNumber": 45,
		"velocity": 0,
		"subtype": "noteOff",
		"time": 47968,
		"track": 2
	},
	{
		"deltaTime": 0,
		"channel": 0,
		"type": "channel",
		"noteNumber": 69,
		"velocity": 127,
		"subtype": "noteOn",
		"time": 48000,
		"track": 1
	},
	{
		"deltaTime": 0,
		"channel": 0,
		"type": "channel",
		"noteNumber": 79,
		"velocity": 127,
		"subtype": "noteOn",
		"time": 48000,
		"track": 1
	},
	{
		"deltaTime": 0,
		"channel": 1,
		"type": "channel",
		"noteNumber": 33,
		"velocity": 127,
		"subtype": "noteOn",
		"time": 48000,
		"track": 2
	},
	{
		"deltaTime": 94,
		"channel": 1,
		"type": "channel",
		"noteNumber": 45,
		"velocity": 127,
		"subtype": "noteOn",
		"time": 48000,
		"track": 2
	},
	{
		"deltaTime": 0,
		"channel": 1,
		"type": "channel",
		"noteNumber": 33,
		"velocity": 0,
		"subtype": "noteOff",
		"time": 48094,
		"track": 2
	},
	{
		"deltaTime": 2,
		"channel": 1,
		"type": "channel",
		"noteNumber": 45,
		"velocity": 0,
		"subtype": "noteOff",
		"time": 48094,
		"track": 2
	},
	{
		"deltaTime": 0,
		"channel": 1,
		"type": "channel",
		"noteNumber": 33,
		"velocity": 127,
		"subtype": "noteOn",
		"time": 48096,
		"track": 2
	},
	{
		"deltaTime": 64,
		"channel": 1,
		"type": "channel",
		"noteNumber": 45,
		"velocity": 127,
		"subtype": "noteOn",
		"time": 48096,
		"track": 2
	},
	{
		"deltaTime": 0,
		"channel": 0,
		"type": "channel",
		"noteNumber": 69,
		"velocity": 0,
		"subtype": "noteOff",
		"time": 48160,
		"track": 1
	},
	{
		"deltaTime": 30,
		"channel": 0,
		"type": "channel",
		"noteNumber": 79,
		"velocity": 0,
		"subtype": "noteOff",
		"time": 48160,
		"track": 1
	},
	{
		"deltaTime": 0,
		"channel": 1,
		"type": "channel",
		"noteNumber": 33,
		"velocity": 0,
		"subtype": "noteOff",
		"time": 48190,
		"track": 2
	},
	{
		"deltaTime": 2,
		"channel": 1,
		"type": "channel",
		"noteNumber": 45,
		"velocity": 0,
		"subtype": "noteOff",
		"time": 48190,
		"track": 2
	},
	{
		"deltaTime": 0,
		"channel": 0,
		"type": "channel",
		"noteNumber": 69,
		"velocity": 127,
		"subtype": "noteOn",
		"time": 48192,
		"track": 1
	},
	{
		"deltaTime": 0,
		"channel": 0,
		"type": "channel",
		"noteNumber": 76,
		"velocity": 127,
		"subtype": "noteOn",
		"time": 48192,
		"track": 1
	},
	{
		"deltaTime": 0,
		"channel": 1,
		"type": "channel",
		"noteNumber": 33,
		"velocity": 127,
		"subtype": "noteOn",
		"time": 48192,
		"track": 2
	},
	{
		"deltaTime": 94,
		"channel": 1,
		"type": "channel",
		"noteNumber": 45,
		"velocity": 127,
		"subtype": "noteOn",
		"time": 48192,
		"track": 2
	},
	{
		"deltaTime": 0,
		"channel": 1,
		"type": "channel",
		"noteNumber": 33,
		"velocity": 0,
		"subtype": "noteOff",
		"time": 48286,
		"track": 2
	},
	{
		"deltaTime": 2,
		"channel": 1,
		"type": "channel",
		"noteNumber": 45,
		"velocity": 0,
		"subtype": "noteOff",
		"time": 48286,
		"track": 2
	},
	{
		"deltaTime": 0,
		"channel": 1,
		"type": "channel",
		"noteNumber": 33,
		"velocity": 127,
		"subtype": "noteOn",
		"time": 48288,
		"track": 2
	},
	{
		"deltaTime": 64,
		"channel": 1,
		"type": "channel",
		"noteNumber": 45,
		"velocity": 127,
		"subtype": "noteOn",
		"time": 48288,
		"track": 2
	},
	{
		"deltaTime": 0,
		"channel": 0,
		"type": "channel",
		"noteNumber": 69,
		"velocity": 0,
		"subtype": "noteOff",
		"time": 48352,
		"track": 1
	},
	{
		"deltaTime": 30,
		"channel": 0,
		"type": "channel",
		"noteNumber": 76,
		"velocity": 0,
		"subtype": "noteOff",
		"time": 48352,
		"track": 1
	},
	{
		"deltaTime": 0,
		"channel": 1,
		"type": "channel",
		"noteNumber": 33,
		"velocity": 0,
		"subtype": "noteOff",
		"time": 48382,
		"track": 2
	},
	{
		"deltaTime": 2,
		"channel": 1,
		"type": "channel",
		"noteNumber": 45,
		"velocity": 0,
		"subtype": "noteOff",
		"time": 48382,
		"track": 2
	},
	{
		"deltaTime": 0,
		"channel": 0,
		"type": "channel",
		"subtype": "controller",
		"controllerType": 64,
		"value": 0,
		"time": 48384,
		"track": 1
	},
	{
		"deltaTime": 0,
		"channel": 0,
		"type": "channel",
		"subtype": "controller",
		"controllerType": 64,
		"value": 127,
		"time": 48384,
		"track": 1
	},
	{
		"deltaTime": 0,
		"channel": 0,
		"type": "channel",
		"noteNumber": 65,
		"velocity": 127,
		"subtype": "noteOn",
		"time": 48384,
		"track": 1
	},
	{
		"deltaTime": 0,
		"channel": 0,
		"type": "channel",
		"noteNumber": 69,
		"velocity": 127,
		"subtype": "noteOn",
		"time": 48384,
		"track": 1
	},
	{
		"deltaTime": 0,
		"channel": 0,
		"type": "channel",
		"noteNumber": 74,
		"velocity": 127,
		"subtype": "noteOn",
		"time": 48384,
		"track": 1
	},
	{
		"deltaTime": 0,
		"channel": 1,
		"type": "channel",
		"subtype": "controller",
		"controllerType": 64,
		"value": 0,
		"time": 48384,
		"track": 2
	},
	{
		"deltaTime": 0,
		"channel": 1,
		"type": "channel",
		"subtype": "controller",
		"controllerType": 64,
		"value": 127,
		"time": 48384,
		"track": 2
	},
	{
		"deltaTime": 0,
		"channel": 1,
		"type": "channel",
		"noteNumber": 38,
		"velocity": 127,
		"subtype": "noteOn",
		"time": 48384,
		"track": 2
	},
	{
		"deltaTime": 256,
		"channel": 1,
		"type": "channel",
		"noteNumber": 50,
		"velocity": 127,
		"subtype": "noteOn",
		"time": 48384,
		"track": 2
	},
	{
		"deltaTime": 0,
		"channel": 0,
		"type": "channel",
		"noteNumber": 65,
		"velocity": 0,
		"subtype": "noteOff",
		"time": 48640,
		"track": 1
	},
	{
		"deltaTime": 0,
		"channel": 0,
		"type": "channel",
		"noteNumber": 69,
		"velocity": 0,
		"subtype": "noteOff",
		"time": 48640,
		"track": 1
	},
	{
		"deltaTime": 0,
		"channel": 0,
		"type": "channel",
		"noteNumber": 74,
		"velocity": 0,
		"subtype": "noteOff",
		"time": 48640,
		"track": 1
	},
	{
		"deltaTime": 0,
		"channel": 1,
		"type": "channel",
		"noteNumber": 38,
		"velocity": 0,
		"subtype": "noteOff",
		"time": 48640,
		"track": 2
	},
	{
		"deltaTime": 32,
		"channel": 1,
		"type": "channel",
		"noteNumber": 50,
		"velocity": 0,
		"subtype": "noteOff",
		"time": 48640,
		"track": 2
	},
	{
		"deltaTime": 0,
		"channel": 1,
		"type": "channel",
		"noteNumber": 38,
		"velocity": 127,
		"subtype": "noteOn",
		"time": 48672,
		"track": 2
	},
	{
		"deltaTime": 94,
		"channel": 1,
		"type": "channel",
		"noteNumber": 50,
		"velocity": 127,
		"subtype": "noteOn",
		"time": 48672,
		"track": 2
	},
	{
		"deltaTime": 0,
		"channel": 1,
		"type": "channel",
		"noteNumber": 38,
		"velocity": 0,
		"subtype": "noteOff",
		"time": 48766,
		"track": 2
	},
	{
		"deltaTime": 2,
		"channel": 1,
		"type": "channel",
		"noteNumber": 50,
		"velocity": 0,
		"subtype": "noteOff",
		"time": 48766,
		"track": 2
	},
	{
		"deltaTime": 0,
		"channel": 1,
		"type": "channel",
		"noteNumber": 38,
		"velocity": 127,
		"subtype": "noteOn",
		"time": 48768,
		"track": 2
	},
	{
		"deltaTime": 94,
		"channel": 1,
		"type": "channel",
		"noteNumber": 50,
		"velocity": 127,
		"subtype": "noteOn",
		"time": 48768,
		"track": 2
	},
	{
		"deltaTime": 0,
		"channel": 1,
		"type": "channel",
		"noteNumber": 38,
		"velocity": 0,
		"subtype": "noteOff",
		"time": 48862,
		"track": 2
	},
	{
		"deltaTime": 2,
		"channel": 1,
		"type": "channel",
		"noteNumber": 50,
		"velocity": 0,
		"subtype": "noteOff",
		"time": 48862,
		"track": 2
	},
	{
		"deltaTime": 0,
		"channel": 1,
		"type": "channel",
		"noteNumber": 38,
		"velocity": 127,
		"subtype": "noteOn",
		"time": 48864,
		"track": 2
	},
	{
		"deltaTime": 94,
		"channel": 1,
		"type": "channel",
		"noteNumber": 50,
		"velocity": 127,
		"subtype": "noteOn",
		"time": 48864,
		"track": 2
	},
	{
		"deltaTime": 0,
		"channel": 1,
		"type": "channel",
		"noteNumber": 38,
		"velocity": 0,
		"subtype": "noteOff",
		"time": 48958,
		"track": 2
	},
	{
		"deltaTime": 2,
		"channel": 1,
		"type": "channel",
		"noteNumber": 50,
		"velocity": 0,
		"subtype": "noteOff",
		"time": 48958,
		"track": 2
	},
	{
		"deltaTime": 0,
		"channel": 0,
		"type": "channel",
		"noteNumber": 62,
		"velocity": 127,
		"subtype": "noteOn",
		"time": 48960,
		"track": 1
	},
	{
		"deltaTime": 0,
		"channel": 1,
		"type": "channel",
		"subtype": "controller",
		"controllerType": 64,
		"value": 0,
		"time": 48960,
		"track": 2
	},
	{
		"deltaTime": 0,
		"channel": 1,
		"type": "channel",
		"subtype": "controller",
		"controllerType": 64,
		"value": 127,
		"time": 48960,
		"track": 2
	},
	{
		"deltaTime": 0,
		"channel": 1,
		"type": "channel",
		"noteNumber": 26,
		"velocity": 127,
		"subtype": "noteOn",
		"time": 48960,
		"track": 2
	},
	{
		"deltaTime": 720,
		"channel": 1,
		"type": "channel",
		"noteNumber": 38,
		"velocity": 127,
		"subtype": "noteOn",
		"time": 48960,
		"track": 2
	},
	{
		"deltaTime": 0,
		"channel": 0,
		"type": "channel",
		"noteNumber": 62,
		"velocity": 0,
		"subtype": "noteOff",
		"time": 49680,
		"track": 1
	},
	{
		"deltaTime": 0,
		"type": "meta",
		"subtype": "endOfTrack",
		"time": 49680,
		"track": 1
	},
	{
		"deltaTime": 0,
		"channel": 1,
		"type": "channel",
		"noteNumber": 26,
		"velocity": 0,
		"subtype": "noteOff",
		"time": 49680,
		"track": 2
	},
	{
		"deltaTime": 0,
		"channel": 1,
		"type": "channel",
		"noteNumber": 38,
		"velocity": 0,
		"subtype": "noteOff",
		"time": 49680,
		"track": 2
	},
	{
		"deltaTime": 0,
		"type": "meta",
		"subtype": "endOfTrack",
		"time": 49680,
		"track": 2,
		"deltatime": 0
	}
]